v -0.0179393084 -0.0128922712 -0.00506482081
v -0.0179397452 -0.0126986711 -0.00551856199
v -0.0179410196 -0.0127765325 0.000400508144
v -0.0198374291 -0.0200360859 -0.0065731256
v -0.0198373134 -0.0200311134 -0.00708683396
v -0.0179433335 -0.0112600882 -0.00753429172
v -0.034961916 -0.012915499 0.000395329871
v -0.0316088481 -0.0191611975 -0.0039625859
v -0.0216102675 -0.0189490281 -0.00423947187
v -0.021605038 -0.020635629 -0.00592180404
v -0.018014352 0.0129453323 0.000649467964
v -0.0216046033 -0.0206169464 -0.00785190866
v -0.0216112485 -0.018174007 -0.0090925686
v -0.0179508648 -0.00836584695 -0.0103551936
v -0.0382926341 -0.0129332117 0.000394408335
v -0.0382737161 -0.0191884925 -0.00395589386
v -0.0316036068 -0.020851914 -0.00564495752
v -0.024061211 -0.0207214173 -0.00585658929
v -0.018013403 0.0130969277 -0.00481327349
v -0.0198474936 0.0204698139 -0.0059727977
v -0.0217239782 0.0210670272 -0.00533211551
v -0.0217191354 0.0192206771 -0.00368397886
v -0.0317186219 0.0193389196 -0.00354660474
v -0.038383599 0.0193484897 -0.00352369957
v -0.0350358112 0.0130037813 0.000646200459
v -0.024060747 -0.0207014763 -0.00791670679
v -0.0316101831 -0.0181982537 -0.0095326989
v -0.0219212462 -0.0107544123 -0.010379208
v -0.0179996788 0.00875601358 -0.0101894725
v -0.0482920322 -0.0128341974 0.000393114866
v -0.0482729013 -0.0191634246 -0.00396636023
v -0.0482674958 -0.0209117192 -0.00564928915
v -0.0382684985 -0.0208709912 -0.00563712904
v -0.0316030474 -0.0208278701 -0.00812893656
v -0.0198472827 0.0204788789 -0.00690931079
v -0.0180078467 0.0114151336 -0.00784231908
v -0.021984904 0.0209402884 -0.00803854978
v -0.0317227031 0.0211579833 -0.00790015332
v -0.0317233122 0.0211318011 -0.0051952589
v -0.0383882659 0.0211331462 -0.00517243334
v -0.0483872357 0.0210843641 -0.00520264231
v -0.0483824868 0.0192709171 -0.00355418719
v -0.048365306 0.0128671019 0.000641875634
v -0.0349443039 -0.0182065847 -0.0096540417
v -0.0349632835 -0.0114784175 -0.0103891531
v -0.0382750384 -0.0182157655 -0.0096865933
v -0.0193361372 0.0109279304 -0.0101687503
v -0.023268443 0.0202171718 -0.0097763287
v -0.0526973397 -0.0118390847 0.000401755035
v -0.0504966259 -0.0206432 -0.00600026736
v -0.0482669176 -0.0208868671 -0.00821677187
v -0.0382679172 -0.0208460061 -0.00821835296
v -0.0349372076 -0.0208286617 -0.00817937937
v -0.0383876527 0.0211595023 -0.0078952966
v -0.0483866259 0.021110577 -0.00791070792
v -0.0506283769 0.0207935771 -0.00556749386
v -0.0527652314 0.0119744081 0.000632243879
v -0.0482986763 -0.009546325 -0.0103734545
v -0.0482740828 -0.0182446675 -0.0096457836
v -0.0216972318 0.0121057197 -0.0101578815
v -0.0234385524 0.0202166873 -0.0097763717
v -0.0350307647 0.0121911255 -0.0101600576
v -0.0526976172 -0.0115370647 -0.00190405312
v -0.0504962241 -0.0206259294 -0.0077845039
v -0.0506279525 0.0208118198 -0.00745214686
v -0.0483785928 0.018417961 -0.0093469563
v -0.052764933 0.0119595324 -0.00038061291
v -0.0511938689 -0.00838650806 -0.01036288
v -0.0508294386 -0.0182653488 -0.00826174358
v -0.0483583366 0.0113799369 -0.0101709109
v -0.0527051193 -0.0083276254 -0.0083921946
v -0.0509475618 0.0183970056 -0.00793860736
v -0.0527525711 0.00830799626 -0.00813603961
v -0.0527623823 0.011436658 -0.00457923453
v -0.0527646198 0.0119406773 -0.00140725034
v -0.0505036545 0.0108597131 -0.0101764296
v -0.0524183539 -0.0049145964 -0.0103295492
v -0.0527145029 -0.00492203881 -0.0096478511
v -0.0516125152 0.00838058961 -0.0102006761
v -0.0522432213 0.00644984275 -0.0102195069
v -0.052743873 0.00537618836 -0.0095080052
v -0.052723735 -0.00162998628 -0.0102227696
v -0.0526352358 -0.00163723364 -0.0102978746
v -0.052736675 0.00291545684 -0.0102538294
v -0.0527351155 0.00236844574 -0.0102591238
f 1 2 6
f 1 6 14
f 1 14 29
f 1 29 36
f 1 36 19
f 1 19 11
f 1 11 3
f 1 3 4
f 1 4 5
f 1 5 2
f 2 5 6
f 3 7 8
f 3 8 9
f 3 9 10
f 3 10 4
f 3 11 25
f 3 25 43
f 3 43 57
f 3 57 49
f 3 49 30
f 3 30 15
f 3 15 7
f 4 10 12
f 4 12 5
f 5 12 13
f 5 13 14
f 5 14 6
f 7 15 16
f 7 16 8
f 8 16 17
f 8 17 18
f 8 18 9
f 9 18 10
f 10 18 26
f 10 26 12
f 11 19 20
f 11 20 21
f 11 21 22
f 11 22 23
f 11 23 24
f 11 24 25
f 12 26 27
f 12 27 13
f 13 27 28
f 13 28 14
f 14 28 45
f 14 45 58
f 14 58 68
f 14 68 77
f 14 77 83
f 14 83 85
f 14 85 84
f 14 84 80
f 14 80 79
f 14 79 76
f 14 76 70
f 14 70 62
f 14 62 60
f 14 60 47
f 14 47 29
f 15 30 31
f 15 31 16
f 16 31 32
f 16 32 33
f 16 33 17
f 17 33 32
f 17 32 51
f 17 51 34
f 17 34 26
f 17 26 18
f 19 35 20
f 19 36 35
f 20 35 21
f 21 37 38
f 21 38 39
f 21 39 23
f 21 23 22
f 21 35 37
f 23 39 24
f 24 39 40
f 24 40 41
f 24 41 42
f 24 42 43
f 24 43 25
f 26 34 44
f 26 44 27
f 27 44 28
f 28 44 46
f 28 46 45
f 29 47 48
f 29 48 35
f 29 35 36
f 30 49 31
f 31 50 32
f 31 49 50
f 32 50 64
f 32 64 51
f 34 51 52
f 34 52 53
f 34 53 44
f 35 48 37
f 37 48 38
f 38 54 40
f 38 40 39
f 38 48 54
f 40 54 55
f 40 55 41
f 41 55 65
f 41 65 56
f 41 56 42
f 42 56 57
f 42 57 43
f 44 53 52
f 44 52 46
f 45 46 59
f 45 59 58
f 46 52 51
f 46 51 59
f 47 60 48
f 48 61 54
f 48 60 62
f 48 62 61
f 49 63 64
f 49 64 50
f 49 57 67
f 49 67 75
f 49 75 74
f 49 74 73
f 49 73 81
f 49 81 84
f 49 84 85
f 49 85 82
f 49 82 78
f 49 78 71
f 49 71 63
f 51 64 59
f 54 61 55
f 55 61 66
f 55 66 65
f 56 65 57
f 57 65 67
f 58 59 68
f 59 64 69
f 59 69 68
f 61 62 70
f 61 70 66
f 63 71 64
f 64 71 69
f 65 66 72
f 65 72 73
f 65 73 74
f 65 74 75
f 65 75 67
f 66 70 76
f 66 76 72
f 68 69 77
f 69 71 77
f 71 78 77
f 72 76 79
f 72 79 80
f 72 80 81
f 72 81 73
f 77 78 82
f 77 82 83
f 80 84 81
f 82 85 83
