v -0.0583726205 0.0148159415 0.0156282767
v -0.0583795464 0.0173256585 0.0147455948
v -0.0717125732 0.0172793917 0.0144549586
v -0.0717055921 0.0147844709 0.0149524322
v -0.07169878 0.0124755154 0.0140231092
v -0.0583647128 0.012148287 0.0144068344
v -0.0383792196 0.0148738575 0.0155337046
v -0.0383862586 0.0174159784 0.0147333874
v -0.0583873569 0.0204212184 0.0107608407
v -0.0717208695 0.0207681441 0.00796115154
v -0.0739489192 0.0170989223 0.0142739514
v -0.0607815297 0.0203378994 0.0106598597
v -0.0741124802 0.014783131 0.0143819049
v -0.0737785115 0.0126095537 0.013918442
v -0.0716868876 0.00858371513 0.0108322775
v -0.0583538361 0.00861861753 0.0111535715
v -0.0383604323 0.00867666119 0.0110458139
v -0.0383716703 0.0123302045 0.01433251
v -0.0180012546 0.00874892042 0.00957708231
v -0.0223134815 0.0183006816 0.0105169331
v -0.0226782968 0.0202899926 0.0104437978
v -0.0583890397 0.0212046375 0.0085896345
v -0.0350620685 0.0211616526 0.00859447171
v -0.0717204069 0.0207880264 0.00590709928
v -0.0740389649 0.0205365638 0.00770050824
v -0.0823652563 0.00863877731 0.00199803176
v -0.081074082 0.00861888733 0.00443333342
v -0.0794613911 0.00860650711 0.00618745076
v -0.0738178814 0.00901928037 0.0106865607
v -0.0745977201 0.00858703733 0.00963163569
v -0.0179992357 0.00883569641 0.000612212923
v -0.0180091881 0.0116570065 0.00819128743
v -0.0198673752 0.0203237273 0.00765936511
v -0.0206435165 0.01831294 0.00974232404
v -0.0216336521 0.0209172965 0.00870209163
v -0.0317276565 0.0210085931 0.00595194089
v -0.0383942524 0.021006069 0.00590059747
v -0.0217275508 0.0209325889 0.0060780014
v -0.0717145349 0.0188762033 0.00422116929
v -0.074038629 0.0205510005 0.0062090494
v -0.0821255492 0.00865081867 0.000824557172
v -0.0180109615 0.0129485972 0.000652021353
v -0.0820750903 0.00865317456 0.000596016185
v -0.0180139209 0.0135032342 0.00610949023
v -0.0198671366 0.0203339805 0.00660010686
v -0.0180143106 0.0137252665 0.00514898701
v -0.0350542468 0.0188008573 0.00425507
v -0.0228375436 0.0170982233 0.00335634474
v -0.0317206803 0.0187094578 0.00426226214
v -0.0717095527 0.0172201238 0.00317362239
v -0.0737441895 0.0169881808 0.00328813674
v -0.0801633188 0.00997918591 0.000609281926
v -0.0350368245 0.0130046123 0.000648729297
v -0.0716967189 0.0129395334 0.000639843482
v -0.0751731795 0.0123185303 0.00063304954
f 1 2 3
f 1 3 4
f 1 4 5
f 1 5 6
f 1 6 7
f 1 7 8
f 1 8 2
f 2 9 3
f 2 8 9
f 3 10 11
f 3 11 4
f 3 9 12
f 3 12 10
f 4 11 13
f 4 13 14
f 4 14 5
f 5 14 15
f 5 15 6
f 6 15 16
f 6 16 17
f 6 17 18
f 6 18 7
f 7 18 19
f 7 19 20
f 7 20 21
f 7 21 8
f 8 21 9
f 9 22 10
f 9 10 12
f 9 21 23
f 9 23 22
f 10 24 40
f 10 40 25
f 10 25 11
f 10 22 24
f 11 25 26
f 11 26 27
f 11 27 13
f 13 27 14
f 14 27 28
f 14 28 29
f 14 29 15
f 15 29 30
f 15 30 28
f 15 28 27
f 15 27 26
f 15 26 41
f 15 41 43
f 15 43 31
f 15 31 19
f 15 19 17
f 15 17 16
f 17 19 18
f 19 31 42
f 19 42 46
f 19 46 44
f 19 44 32
f 19 32 33
f 19 33 34
f 19 34 20
f 20 34 21
f 21 34 33
f 21 33 35
f 21 35 23
f 22 23 36
f 22 36 37
f 22 37 24
f 23 35 38
f 23 38 36
f 24 39 40
f 24 37 39
f 25 40 26
f 26 40 41
f 28 30 29
f 31 43 52
f 31 52 55
f 31 55 54
f 31 54 53
f 31 53 42
f 32 44 33
f 33 45 35
f 33 44 46
f 33 46 45
f 35 45 38
f 36 38 47
f 36 47 37
f 37 47 39
f 38 45 42
f 38 42 48
f 38 48 49
f 38 49 47
f 39 50 51
f 39 51 40
f 39 47 50
f 40 51 52
f 40 52 43
f 40 43 41
f 42 45 46
f 42 53 50
f 42 50 47
f 42 47 48
f 47 49 48
f 50 54 55
f 50 55 51
f 50 53 54
f 51 55 52
