v -0.0840715766 -0.00796174463 0.00167443052
v -0.081761763 -0.00798693308 0.00495720097
v -0.0838188843 -0.00794901293 0.000433457128
v -0.0740879881 -0.0209239067 0.0059965663
v -0.0742044625 -0.0211255445 0.00817639342
v -0.0737014139 -0.0206801349 0.0102025862
v -0.0740378187 -0.018518092 0.0108601334
v -0.0785845859 -0.00800553913 0.00781538254
v -0.0742091835 -0.0151883628 0.0111628922
v -0.0739163973 -0.014770793 0.000369655358
v -0.0179519205 -0.00776138906 0.000450106613
v -0.0728020643 -0.0151623873 0.000366115848
v -0.0716015451 -0.0212926008 0.00573680699
v -0.0716000237 -0.0220424618 0.00816810459
v -0.0716038266 -0.0208981152 0.0103172345
v -0.0716109305 -0.018518366 0.0116032965
v -0.0716205432 -0.0151903266 0.012128286
v -0.0783063143 -0.00800591646 0.00793633364
v -0.0739208288 -0.0118487553 0.0105804622
v -0.0179540674 -0.00785366838 0.00998352812
v -0.0179376149 -0.0127791704 0.000401539918
v -0.0716949886 -0.0152789028 0.000365237344
v -0.0316115033 -0.0207329426 0.00588478649
v -0.023903371 -0.0206510437 0.00594718521
v -0.0316110577 -0.0210936222 0.00818629453
v -0.0225069487 -0.0204732482 0.0101608528
v -0.0716297948 -0.0118467643 0.0110495968
v -0.0734933018 -0.0096611598 0.0101020487
v -0.0240274955 -0.0183712125 0.0104157321
v -0.0214845044 -0.0181595702 0.0103331534
v -0.0215834337 -0.0152347482 0.0102796965
v -0.0750251737 -0.00800674337 0.00898824471
v -0.0199217105 -0.0169035407 0.00993232958
v -0.0179522728 -0.00846517533 0.00977497243
v -0.0716404106 -0.00800444486 0.00974776783
v -0.0179367841 -0.0134722515 0.00492538676
v -0.0198728837 -0.0201007979 0.00642432076
v -0.0216124725 -0.0205667385 0.00601299266
v -0.0214766036 -0.0207351293 0.0081010904
v -0.0240716772 -0.0208396874 0.00819045039
v -0.0198729991 -0.0201057568 0.00693662251
v -0.0202841226 -0.0191188171 0.00916818504
v -0.071731021 -0.00800469183 0.00974659386
v -0.0197041693 -0.0181331382 0.00812667568
v -0.0179428043 -0.0116357456 0.00804604581
v -0.0179439798 -0.011243131 0.00827205571
f 1 2 8
f 1 8 18
f 1 18 32
f 1 32 43
f 1 43 35
f 1 35 20
f 1 20 11
f 1 11 3
f 1 3 4
f 1 4 5
f 1 5 6
f 1 6 7
f 1 7 2
f 2 7 9
f 2 9 8
f 3 10 4
f 3 11 21
f 3 21 22
f 3 22 12
f 3 12 10
f 4 10 12
f 4 12 13
f 4 13 14
f 4 14 5
f 5 14 6
f 6 14 15
f 6 15 16
f 6 16 7
f 7 16 17
f 7 17 9
f 8 9 18
f 9 17 19
f 9 19 18
f 11 20 34
f 11 34 46
f 11 46 45
f 11 45 36
f 11 36 21
f 12 22 13
f 13 22 23
f 13 23 24
f 13 24 14
f 14 24 25
f 14 25 26
f 14 26 15
f 15 26 16
f 16 26 17
f 17 27 28
f 17 28 19
f 17 26 29
f 17 29 30
f 17 30 31
f 17 31 20
f 17 20 27
f 18 19 28
f 18 28 32
f 20 31 30
f 20 30 33
f 20 33 34
f 20 35 27
f 21 36 37
f 21 37 38
f 21 38 24
f 21 24 22
f 22 24 23
f 24 38 39
f 24 39 40
f 24 40 25
f 25 40 26
f 26 40 39
f 26 39 41
f 26 41 42
f 26 42 33
f 26 33 30
f 26 30 29
f 27 35 43
f 27 43 28
f 28 43 32
f 33 42 44
f 33 44 45
f 33 45 46
f 33 46 34
f 36 45 41
f 36 41 37
f 37 41 39
f 37 39 38
f 41 44 42
f 41 45 44
