v -0.0671556822 -0.00246540513 -0.0103099783
v -0.0673409479 0.00179393167 -0.0102687915
v -0.0675698873 -0.00495999878 -0.0103342182
v -0.0685441676 -0.00825010045 -0.0150316162
v -0.0692713761 -0.00822651265 -0.0176828473
v -0.0685298437 0.00841232955 -0.014870328
v -0.0675904383 0.00503737605 -0.0102374526
v -0.0697802006 -0.013808741 -0.0104203679
v -0.0694913264 -0.0104141001 -0.0174275707
v -0.0716356188 -0.00822318466 -0.018723086
v -0.0693436176 0.00843533031 -0.0174864069
v -0.069453765 0.0108118145 -0.0173480835
v -0.068660543 0.0151166867 -0.0101401303
v -0.0699326151 -0.013945056 -0.0104217216
v -0.0716288561 -0.0106780614 -0.0178126356
v -0.0715721708 -0.0151081094 -0.0104333487
v -0.0737901111 -0.0104327822 -0.0174655317
v -0.074024171 -0.00823952068 -0.0177388526
v -0.0740513696 0.00842218934 -0.0175154086
v -0.0716831445 0.00843811912 -0.0184636581
v -0.0716911371 0.0111833255 -0.0177801942
v -0.0717102441 0.0175233791 -0.0136375843
v -0.069855942 0.0170705931 -0.0133454167
v -0.0691329511 0.0178567364 -0.0101137142
v -0.0735542882 -0.0147740534 -0.0104305616
v -0.0747790801 -0.00826786077 -0.0150331922
v -0.0761931772 0.00246850218 -0.0102642555
v -0.0748575005 0.00839430504 -0.0148719274
v -0.0739496026 0.0108230166 -0.0173727113
v -0.0737857001 0.0174422412 -0.0135881185
v -0.0717149592 0.0189832955 -0.0114359921
v -0.0717170413 0.0195954443 -0.0100974662
v -0.0711259252 0.0192098679 -0.0101010653
v -0.0757735808 -0.00498336723 -0.0103362918
v -0.0760063991 -0.00170250782 -0.010304587
v -0.0749614576 0.0150138129 -0.010142545
v -0.074652231 0.0168422906 -0.0101247765
v -0.0741139576 0.0180728539 -0.011445345
v -0.0743076039 0.0183379617 -0.0101102215
f 1 2 7
f 1 7 13
f 1 13 24
f 1 24 33
f 1 33 32
f 1 32 39
f 1 39 37
f 1 37 36
f 1 36 27
f 1 27 35
f 1 35 34
f 1 34 25
f 1 25 16
f 1 16 14
f 1 14 8
f 1 8 3
f 1 3 4
f 1 4 5
f 1 5 6
f 1 6 2
f 2 6 7
f 3 8 4
f 4 8 9
f 4 9 5
f 5 9 10
f 5 10 11
f 5 11 6
f 6 11 12
f 6 12 13
f 6 13 7
f 8 14 9
f 9 15 10
f 9 14 16
f 9 16 15
f 10 15 17
f 10 17 18
f 10 18 19
f 10 19 20
f 10 20 11
f 11 20 12
f 12 20 21
f 12 21 22
f 12 22 23
f 12 23 24
f 12 24 13
f 15 16 25
f 15 25 17
f 17 25 26
f 17 26 18
f 18 26 27
f 18 27 28
f 18 28 19
f 19 28 29
f 19 29 20
f 20 29 21
f 21 30 22
f 21 29 30
f 22 30 31
f 22 31 23
f 23 31 32
f 23 32 33
f 23 33 24
f 25 34 26
f 26 34 35
f 26 35 27
f 27 36 28
f 28 36 29
f 29 36 30
f 30 36 37
f 30 37 38
f 30 38 32
f 30 32 31
f 32 38 39
f 37 39 38
