v -0.0526973402 -0.0118389082 0.000401756744
v -0.0582949241 -0.0129972576 0.000389283845
v -0.0582707767 -0.0209080708 -0.00599295365
v -0.0561200388 -0.0205290798 -0.0063133339
v -0.0561771096 -0.0204459568 -0.00847962051
v -0.0526976139 -0.0115382337 -0.00190406443
v -0.0527652386 0.0119769218 0.000632268209
v -0.0716961035 -0.0152786991 0.000364182523
v -0.0716005122 -0.0214577442 -0.00549597679
v -0.0582691852 -0.0212453676 -0.00848782959
v -0.0565221203 -0.0200355528 -0.0102051602
v -0.0527051232 -0.00832627914 -0.00839218157
v -0.0527646254 0.0119426539 -0.00140723121
v -0.0561350521 0.0172645814 -0.00711139121
v -0.0561354132 0.0172490603 -0.00550790324
v -0.0597588408 0.020289588 -0.0060807847
v -0.0617243485 0.0208844261 -0.00544754544
v -0.0617194652 0.019023852 -0.00379954609
v -0.0583678322 0.0125757835 0.000636803213
v -0.0728025855 -0.0151613787 0.000365068951
v -0.0741966092 -0.02097477 -0.0059390447
v -0.0715999531 -0.0214337106 -0.00797889902
v -0.0616034382 -0.0212922537 -0.00848903431
v -0.0739162386 -0.0147657489 0.000368647677
v -0.0582714137 -0.0202965918 -0.010363476
v -0.0546321855 -0.00645161772 -0.0103449254
v -0.0527237288 -0.00163219061 -0.010222791
v -0.0527144972 -0.00492400827 -0.0096478701
v -0.0527623844 0.0114374202 -0.00457922716
v -0.0632066441 0.0201496523 -0.0098081757
v -0.0597586653 0.0202971286 -0.0068598025
v -0.0527525657 0.00830607784 -0.00813605818
v -0.052743878 0.00537793283 -0.0095079883
v -0.0562051989 0.0108295245 -0.0101780058
v -0.0619465922 0.0207964491 -0.00801299973
v -0.0717208712 0.0210084361 -0.00789792333
v -0.0717214534 0.02098341 -0.00531247139
v -0.0717167359 0.0191809937 -0.00366390914
v -0.0616960983 0.0126660038 0.000636926973
v -0.074196237 -0.020958768 -0.00759221193
v -0.0852728492 -0.00741193201 0.000437271858
v -0.0733623918 -0.0168970571 -0.0101986582
v -0.0633915595 -0.0200923146 -0.0102273414
v -0.0616056992 -0.0203308822 -0.0103783013
v -0.0715695386 -0.0151073648 -0.0104325236
v -0.0581646463 -0.0096562584 -0.0103767404
v -0.0554331499 -0.00839391022 -0.0103639063
v -0.0542348937 -0.00492174034 -0.0103300274
v -0.0527351171 0.00236899687 -0.0102591185
v -0.0717162813 0.0195922424 -0.0100966797
v -0.0634744169 0.0201488895 -0.0098082434
v -0.0527366686 0.00291319254 -0.0102538513
v -0.0556280239 0.00964306713 -0.0101893602
v -0.0740027878 0.0207947889 -0.00752945936
v -0.0740032308 0.0207757482 -0.00556235912
v -0.0738316506 0.0173629204 -0.00273904028
v -0.0751729215 0.0123160507 0.000630504574
v -0.0717000358 0.01293661 0.000637293416
v -0.0852729043 -0.00724642088 -0.00121021988
v -0.0852730481 -0.00718265528 -0.00135971248
v -0.0852746252 -0.00649499875 -0.00287001154
v -0.0852750132 -0.00634380211 -0.00303874318
v -0.0852789652 -0.00481159063 -0.00467089235
v -0.0852868761 -0.0018827003 -0.00638043477
v -0.0853148342 0.00731458447 0.000579808603
v -0.073553274 -0.0147723702 -0.0104297277
v -0.0743075403 0.0183386022 -0.0101093979
v -0.0853115043 0.00646444188 -0.00301308452
v -0.0853135195 0.00704933058 -0.00163212176
v -0.0801678256 0.00997547011 0.000606723922
v -0.0783214599 -0.00166149694 -0.0095840016
v -0.0852975377 0.00186060166 -0.00638543114
v -0.0852943423 0.00185648719 -0.00638864136
v -0.0843715233 -0.00088671815 -0.00685368837
v -0.0757711737 -0.00498308703 -0.0103354712
v -0.0746507405 0.0168421126 -0.0101239606
v -0.0853072735 0.00510276498 -0.00440579453
v -0.0853080017 0.00533727088 -0.00416778891
v -0.0760068539 -0.00170194112 -0.0103037642
v -0.0783309357 0.00166644987 -0.0095993604
v -0.0843766633 0.000916189697 -0.00683623817
v -0.0749611109 0.0150133798 -0.0101417318
v -0.0761908822 0.0024683505 -0.0102634391
f 1 2 3
f 1 3 4
f 1 4 5
f 1 5 6
f 1 6 12
f 1 12 28
f 1 28 27
f 1 27 49
f 1 49 52
f 1 52 33
f 1 33 32
f 1 32 29
f 1 29 13
f 1 13 7
f 1 7 19
f 1 19 39
f 1 39 58
f 1 58 57
f 1 57 70
f 1 70 65
f 1 65 41
f 1 41 24
f 1 24 20
f 1 20 8
f 1 8 2
f 2 8 3
f 3 8 9
f 3 9 10
f 3 10 4
f 4 10 5
f 5 10 11
f 5 11 12
f 5 12 6
f 7 13 14
f 7 14 15
f 7 15 16
f 7 16 17
f 7 17 18
f 7 18 19
f 8 20 9
f 9 21 40
f 9 40 22
f 9 22 23
f 9 23 10
f 9 20 24
f 9 24 21
f 10 23 25
f 10 25 11
f 11 25 26
f 11 26 27
f 11 27 28
f 11 28 12
f 13 29 14
f 14 30 31
f 14 31 16
f 14 16 15
f 14 29 32
f 14 32 33
f 14 33 34
f 14 34 30
f 16 31 17
f 17 31 35
f 17 35 36
f 17 36 37
f 17 37 38
f 17 38 18
f 18 38 19
f 19 38 39
f 21 24 41
f 21 41 40
f 22 40 42
f 22 42 43
f 22 43 44
f 22 44 23
f 23 44 25
f 25 44 45
f 25 45 46
f 25 46 47
f 25 47 26
f 26 47 46
f 26 46 45
f 26 45 66
f 26 66 75
f 26 75 79
f 26 79 83
f 26 83 82
f 26 82 76
f 26 76 67
f 26 67 50
f 26 50 34
f 26 34 53
f 26 53 52
f 26 52 49
f 26 49 48
f 26 48 27
f 27 48 49
f 30 50 51
f 30 51 36
f 30 36 35
f 30 35 31
f 30 34 50
f 33 52 53
f 33 53 34
f 36 51 50
f 36 50 54
f 36 54 55
f 36 55 37
f 37 55 38
f 38 55 56
f 38 56 57
f 38 57 58
f 38 58 39
f 40 41 59
f 40 59 60
f 40 60 61
f 40 61 62
f 40 62 63
f 40 63 64
f 40 64 42
f 41 65 69
f 41 69 68
f 41 68 78
f 41 78 77
f 41 77 72
f 41 72 64
f 41 64 63
f 41 63 62
f 41 62 61
f 41 61 60
f 41 60 59
f 42 66 44
f 42 44 43
f 42 64 66
f 44 66 45
f 50 67 54
f 54 67 68
f 54 68 69
f 54 69 65
f 54 65 55
f 55 65 70
f 55 70 56
f 56 70 57
f 64 71 66
f 64 72 73
f 64 73 74
f 64 74 71
f 66 71 75
f 67 76 73
f 67 73 72
f 67 72 77
f 67 77 78
f 67 78 68
f 71 79 75
f 71 74 80
f 71 80 79
f 73 80 81
f 73 81 74
f 73 76 82
f 73 82 80
f 74 81 80
f 79 80 83
f 80 82 83
