v -0.0235025485 0.013639111 -0.0166051437
v -0.0235027033 0.0136324591 -0.0159179329
v -0.0230330193 0.0136404485 -0.016605025
v -0.0316928203 0.011345865 -0.0177389601
v -0.0583549166 0.0112111495 -0.0177487198
v -0.0583575408 0.0118738124 -0.0148346642
v -0.0350321487 0.0121915068 -0.0101600557
v -0.0230331741 0.0136337966 -0.0159178142
v -0.0583573345 0.0113877089 -0.010173089
v -0.0218332231 0.012840126 -0.0148154521
v -0.0195990604 0.0110949821 -0.0148334744
v -0.0197428277 0.0109137874 -0.0169109809
v -0.0218301267 0.0119750223 -0.0173163222
v -0.0316846927 0.00855213169 -0.0184099633
v -0.035019666 0.00854276638 -0.018424698
v -0.058346952 0.00847640496 -0.0184395825
v -0.060605138 0.0108554265 -0.0173489665
v -0.0607817067 0.010999719 -0.0148436709
v -0.0608924594 0.0109542432 -0.0101778556
v -0.0598573796 0.0111384684 -0.0101758393
v -0.0216962719 0.012104561 -0.010157894
v -0.0193364744 0.0109280845 -0.0101687504
v -0.0179962815 0.00875658353 -0.0101894677
v -0.0179946219 0.00826969356 -0.0112679963
v -0.0179855731 0.00516357391 -0.0120629711
v -0.0179839587 0.00460324952 -0.0121354059
v -0.0179578814 -0.00453832865 -0.0122827257
v -0.01968424 -0.00808985826 -0.0171815392
v -0.0216366757 -0.00808336654 -0.0184273464
v -0.0316371594 -0.00810925904 -0.0186978949
v -0.0383027243 -0.00812819072 -0.0187053
v -0.048298883 -0.0081567916 -0.0186947531
v -0.0582994291 -0.00818542871 -0.0186817547
v -0.0607167515 0.00846068573 -0.01751355
v -0.0615159866 0.00843280767 -0.0148686829
v -0.0617934885 0.00838685689 -0.0102029097
v -0.0179474638 -0.00836657184 -0.0103552013
v -0.0179568359 -0.00491136593 -0.0122152388
v -0.0197533057 -0.0100411672 -0.0170803112
v -0.0216299972 -0.0104966658 -0.0176522883
v -0.0316303019 -0.0105973522 -0.0177887212
v -0.058292588 -0.0106659831 -0.0177921204
v -0.0604611521 -0.0104160682 -0.0174208099
v -0.0606867974 -0.00820185443 -0.0176879042
v -0.0628079997 0.00252677194 -0.0102598612
v -0.0623140993 0.00629334374 -0.0102232913
v -0.019766992 -0.0100389239 -0.0150380791
v -0.0179478227 -0.00818401054 -0.0109924939
v -0.0219207211 -0.0107540822 -0.0103792062
v -0.017948316 -0.00795497603 -0.0116219817
v -0.0216294953 -0.0109040685 -0.0150468728
v -0.0316296204 -0.0110795344 -0.0150508233
v -0.034964555 -0.0111037319 -0.0150518085
v -0.0582919408 -0.0111358856 -0.0150573731
v -0.0605623565 -0.0105274814 -0.0150519953
v -0.0614026607 -0.00822962153 -0.0150299423
v -0.0626380737 -0.00166660351 -0.010300413
v -0.034964656 -0.0114820504 -0.0103891901
v -0.0582948949 -0.0103581584 -0.0121348505
v -0.0602655207 -0.0102167736 -0.0123888958
v -0.0613019174 -0.00857825695 -0.0103670139
v -0.0624707467 -0.00494625422 -0.0103321209
v -0.0582971749 -0.009713699 -0.0103773278
f 1 2 8
f 1 8 3
f 1 3 4
f 1 4 5
f 1 5 6
f 1 6 2
f 2 7 8
f 2 6 9
f 2 9 7
f 3 8 10
f 3 10 11
f 3 11 12
f 3 12 13
f 3 13 4
f 4 13 14
f 4 14 15
f 4 15 16
f 4 16 5
f 5 16 17
f 5 17 6
f 6 17 18
f 6 18 19
f 6 19 20
f 6 20 9
f 7 21 8
f 7 9 20
f 7 20 19
f 7 19 36
f 7 36 46
f 7 46 45
f 7 45 57
f 7 57 62
f 7 62 61
f 7 61 63
f 7 63 58
f 7 58 49
f 7 49 37
f 7 37 23
f 7 23 22
f 7 22 21
f 8 21 22
f 8 22 10
f 10 22 11
f 11 22 23
f 11 23 12
f 12 23 24
f 12 24 25
f 12 25 26
f 12 26 27
f 12 27 28
f 12 28 29
f 12 29 13
f 13 29 14
f 14 30 15
f 14 29 30
f 15 30 31
f 15 31 16
f 16 32 33
f 16 33 34
f 16 34 17
f 16 31 32
f 17 34 35
f 17 35 18
f 18 35 36
f 18 36 19
f 23 37 48
f 23 48 50
f 23 50 38
f 23 38 27
f 23 27 26
f 23 26 25
f 23 25 24
f 27 38 39
f 27 39 28
f 28 39 29
f 29 39 40
f 29 40 30
f 30 41 31
f 30 40 41
f 31 41 42
f 31 42 32
f 32 42 33
f 33 42 43
f 33 43 44
f 33 44 34
f 34 44 35
f 35 45 46
f 35 46 36
f 35 44 45
f 37 47 39
f 37 39 48
f 37 49 47
f 38 50 39
f 39 51 40
f 39 50 48
f 39 47 51
f 40 51 52
f 40 52 41
f 41 52 53
f 41 53 42
f 42 54 43
f 42 53 54
f 43 54 55
f 43 55 56
f 43 56 44
f 44 56 45
f 45 56 57
f 47 49 51
f 49 58 51
f 51 58 52
f 52 58 53
f 53 58 54
f 54 59 60
f 54 60 55
f 54 58 59
f 55 60 61
f 55 61 56
f 56 62 57
f 56 61 62
f 58 63 59
f 59 63 60
f 60 63 61
