v -0.00838616904 0.0197663837 0.00191707184
v 0.0382925886 0.0193055674 -0.00473862097
v -0.00838445397 0.0194599683 -0.00141488312
v -0.0117109725 0.018600212 0.00190503506
v -0.0117086534 0.0175637578 0.00441057454
v -0.00838230292 0.0181472114 0.0048688701
v 0.0351057653 0.0178594246 0.00888271577
v 0.0382923066 0.018234201 0.00845022571
v 0.0382887434 0.0197681564 0.00526035574
v 0.0416168278 0.0197814422 0.00526123383
v 0.0482730102 0.0198042081 0.00526295318
v 0.0549409139 0.0198270074 0.00526467549
v 0.0716048105 0.0198820832 0.00526896134
v 0.0849406336 0.0199200706 0.00527233229
v 0.0849445547 0.0194308486 -0.00472690219
v 0.0816047197 0.0194289432 -0.00472767277
v 0.0782766136 0.0194232686 -0.00472847719
v 0.0749485185 0.0194137884 -0.00472931845
v 0.0382968193 0.0181120976 -0.00802644
v -0.00837933367 0.0178946999 -0.00403221815
v -0.0110853957 0.0175263033 -0.00372382995
v -0.0120014013 0.0180251081 -0.00166683339
v -0.0135809289 0.0170639561 -0.00072373889
v -0.0136285638 0.0170994077 0.00189007609
v -0.0180142978 0.0137219303 0.00514772718
v -0.0180139065 0.0134995633 0.00610586
v -0.0134995894 0.0169022088 0.00382383055
v -0.0116908996 0.0104593621 0.014234633
v -0.0126115701 0.013162076 0.0099336545
v -0.00836401829 0.0108392598 0.0148867822
v 0.032904957 0.0169140488 0.0103718678
v 0.0849442319 0.0183748079 0.00845079498
v 0.088437587 0.0179277429 0.00888409039
v 0.088269803 0.0195528656 0.00526952765
v 0.088273529 0.0191321288 -0.00472904397
v 0.08827744 0.0180317027 -0.00780131085
v 0.0849487521 0.018248756 -0.0080108454
v 0.0782808435 0.0182297623 -0.00801253087
v 0.038300612 0.0169296974 -0.0097061452
v -0.00835641369 0.0107091031 -0.0137309804
v -0.0105473829 0.0105373547 -0.0135373139
v 0.0349610646 0.0168121516 -0.0095536362
v -0.0180044465 0.0114160837 -0.00784032568
v -0.0180100063 0.0130991364 -0.00481137594
v -0.0133098778 0.0167285679 -0.00294876098
v -0.0180091837 0.0116566713 0.00818935291
v -0.0134239032 0.0100384914 0.0135673849
v -0.0106870236 0.00746129588 0.0172297975
v -0.00836092184 0.00960557827 0.0165393359
v 0.0383099269 0.0112180316 0.0178081768
v 0.0416379979 0.0112350121 0.0178203878
v 0.0449660952 0.0112444558 0.0178249944
v 0.0616300009 0.0112956554 0.0178367741
v 0.0682979146 0.0113146126 0.017842225
v 0.0341002607 0.0169174536 0.01037217
v 0.0816220212 0.0113526396 0.0178380623
v 0.0849618688 0.0113508116 0.0178312653
v 0.089998529 0.0169788472 0.0102723779
v 0.091310297 0.0174085927 0.00832613567
v 0.091613061 0.0183562214 0.00525869757
v 0.091613486 0.018502624 0.00192735932
v 0.091614659 0.018386454 -0.00140275427
v 0.091804335 0.0179253704 -0.00481901202
v 0.090821534 0.0175840993 -0.00719877271
v 0.088281091 0.0168987294 -0.0094767712
v 0.0849525773 0.0170549392 -0.0096906604
v 0.0416287072 0.0169391776 -0.0097053039
v 0.0383201056 0.0107158725 -0.0168008486
v 0.0416481816 0.0107330717 -0.0168112297
v -0.00835012604 0.00865157325 -0.0154191566
v -0.0100325053 0.00695295493 -0.0165506618
v -0.0179946129 0.00826805472 -0.0112675696
v -0.01799309 0.005719557 0.0114269848
v -0.0138409175 0.00828997527 0.0140323906
v -0.0179914197 0.00510796474 0.0117110339
v -0.0127538222 0.00493734612 0.0163349949
v -0.0110899884 0.00493290128 0.0172843142
v -0.00834794019 0.00493564612 0.0178084085
v -0.00835638084 0.00792998795 0.0174570429
v 0.0383176108 0.00838763563 0.0193059407
v 0.0416457026 0.00839697002 0.0193218434
v 0.0516299945 0.00842530122 0.0193356632
v 0.0582979014 0.00844422204 0.0193448793
v 0.0649658091 0.00846317932 0.0193503302
v 0.0716260098 0.0113240928 0.0178430662
v 0.0782939252 0.011343123 0.0178409863
v 0.0816297351 0.00851071987 0.0193470117
v 0.0849695518 0.0085203792 0.0193327945
v 0.088290818 0.0110851941 0.0175545389
v 0.090452195 0.0137344014 0.013792248
v 0.092668294 0.0133385771 0.0132729984
v 0.093967049 0.0142465254 0.011060242
v 0.092226767 0.0164812961 0.00925882251
v 0.093350701 0.0170501052 0.00704274473
v 0.093620062 0.0172699207 0.00524863463
v 0.093901509 0.0174970294 0.00191814088
v 0.093832106 0.0174719747 -0.00141110665
v 0.093037829 0.0169660806 -0.00599165939
v 0.09357535 0.0173113832 -0.00376635962
v 0.091809622 0.0163715646 -0.0082270595
v 0.0873278176 0.0107325844 -0.0166729105
v 0.091627604 0.0146503589 -0.0105145533
v 0.089555497 0.0103092777 -0.0163149871
v 0.0849720801 0.0108372381 -0.0167778706
v 0.0816322367 0.0108392483 -0.0167899004
v 0.0749760472 0.0108203244 -0.0167953482
v 0.0449762798 0.0107425519 -0.0168103884
v 0.0383259991 0.00874818037 -0.0179421095
v 0.0416540977 0.00875780634 -0.0179563311
v -0.00831162394 -0.00472376775 -0.0170097546
v -0.0101097088 0.00526366846 -0.0166009221
v -0.0179839474 0.00460052875 -0.012131548
v -0.0179855673 0.00516303596 -0.0120620852
v 0.0383356688 0.00542225829 -0.018716169
v -0.0179817281 0.00161641126 0.0127166068
v -0.0126667249 -0.00505758797 0.0161968437
v -0.0110028927 -0.00506210572 0.0171536952
v -0.0179815045 0.00153632579 0.0127346616
v -0.0179812142 0.00143348395 0.0127449633
v -0.0179811166 0.00139923975 0.0127446319
v -0.0179727179 -0.00154565227 0.0127048314
v -0.0152747836 0.00148055481 0.0145762197
v -0.0152426899 -0.00155566121 0.014543072
v -0.00831942971 -0.00505927263 0.0176514158
v 0.0383555153 -0.00494505084 0.0195986665
v 0.0383270625 0.00505234638 0.0194996082
v 0.0549792647 0.00509974419 0.0195075828
v 0.0783110967 0.00516616912 0.0195172458
v 0.074973543 0.00849168663 0.0193528599
v 0.0849790053 0.00518516284 0.0195189313
v 0.08830715 0.00519675701 0.019301375
v 0.088297756 0.00853452474 0.018851655
v 0.0904602 0.0106273379 0.0171401209
v 0.094022056 0.0111110172 0.0142157919
v 0.095109597 0.01211316 0.0120377932
v 0.096185528 0.0131156212 0.00943049028
v 0.094773735 0.0151665874 0.00823742918
v 0.096781658 0.0138465405 0.00721586279
v 0.095288243 0.0158249887 0.00523502401
v 0.095569516 0.0161129745 0.00190511947
v 0.095511837 0.0160879562 -0.00142412506
v 0.095057208 0.0155619212 -0.0050030873
v 0.096539391 0.0136983102 -0.00624091946
v 0.094275226 0.0147220893 -0.00810313507
v 0.093574418 0.0140847022 -0.0100789892
v 0.096947685 0.014153589 -0.00401458389
v 0.088387379 0.00907881982 -0.0173062738
v 0.0849779393 0.0088808875 -0.0179114903
v 0.093596209 0.0108444776 -0.0134129766
v 0.091773723 0.00907348674 -0.0157578094
v 0.090757271 0.00809630052 -0.0169236057
v 0.0816381302 0.00887155618 -0.0179311613
v 0.0749819407 0.00885263228 -0.0179366091
v 0.0583062999 0.00880520415 -0.017948355
v 0.048310291 0.0087767667 -0.0179546486
v 0.0416637656 0.00543181135 -0.0187228584
v 0.0449918646 0.00544132798 -0.0187257825
v -0.00830612825 -0.0066701188 -0.0168177081
v -0.0101228528 -0.00656553334 -0.0167568507
v -0.0103155603 -0.0047312983 -0.0168219879
v 0.0383640928 -0.00457637817 -0.0184890844
v -0.0179578777 -0.00453828512 -0.012280256
v -0.0105860252 -0.00740776586 0.0170482358
v -0.017962119 -0.00516478531 0.0115588835
v -0.00831169812 -0.00773812678 0.0172526712
v 0.0383651129 -0.0082740714 0.0191446734
v 0.0416932021 -0.00826484636 0.0191718721
v 0.0416836054 -0.00493578935 0.0196220999
v 0.048339797 -0.00491690191 0.0196313146
v 0.0583358051 -0.00488850089 0.019641372
v 0.0650037128 -0.00486954361 0.0196468228
v 0.0750114458 -0.00484107275 0.0196531179
v 0.0850074538 -0.00481241662 0.0196368179
v 0.081667637 -0.00482207596 0.019651035
v 0.088335618 -0.00479998415 0.0193326556
v 0.091656665 0.00188147837 0.0184114309
v 0.091647189 0.00521571064 0.0183269615
v 0.091603158 0.00840076662 0.0175255351
v 0.092690371 0.00942296101 0.0164209899
v 0.094861638 0.00838438301 0.0150670263
v 0.096241588 0.00957263529 0.013011401
v 0.097035291 0.0108824693 0.0108024209
v 0.097501436 0.0120105918 0.00839955222
v 0.098521722 0.0120292575 0.00519901118
v 0.097039075 0.0141634121 0.00521933496
v 0.097261751 0.0144512309 0.00188941562
v 0.097204072 0.0144262096 -0.00143982894
v 0.097867005 0.0123963114 -0.00500296953
v 0.097249656 0.0113593826 -0.00813501475
v 0.096748214 0.0106564232 -0.0099608254
v 0.095944134 0.0130222292 -0.00811921313
v 0.094694308 0.0118568045 -0.0111359038
v 0.099039683 0.0117811594 -0.00125413221
v 0.099876483 0.0101949065 -0.00224464668
v 0.088315632 0.00556134748 -0.0183646422
v 0.0849876124 0.0055551112 -0.0187006112
v 0.095957064 0.00885836799 -0.0123508779
v 0.096548742 0.00690721462 -0.0130625421
v 0.094281677 0.00886988682 -0.0140344667
v 0.092976722 0.00642225212 -0.0162991186
v 0.091784513 0.00541131903 -0.0171753132
v 0.0816478007 0.00554567054 -0.0187089861
v 0.0683236966 0.0055077529 -0.0187161195
v 0.0850160397 -0.00444337947 -0.018488588
v 0.075020036 -0.00447185336 -0.0184911147
v -0.00830162457 -0.00834731284 -0.0157343199
v 0.038373441 -0.00791611448 -0.0178360282
v 0.0383785576 -0.0097976068 -0.0168751243
v -0.0106173409 -0.0101302705 -0.0138428257
v -0.0179483142 -0.00795419253 -0.0116204065
v -0.0179568307 -0.0049118591 -0.0122123206
v 0.0417015396 -0.0079064885 -0.0178502498
v -0.0138653763 -0.00779797358 0.013936915
v -0.0132846879 -0.0100122826 0.0132829523
v -0.0110671084 -0.0110451961 0.0141094672
v -0.00830670939 -0.0093944725 0.0161822079
v -0.0179522763 -0.00846191447 0.00977586234
v 0.0383727419 -0.0108121137 0.0175648218
v 0.0417008346 -0.0108027428 0.0175769591
v 0.0516774941 -0.00823651516 0.0191856919
v 0.0616852143 -0.00820808079 0.0191957538
v 0.0716812232 -0.00817964333 0.0192020459
v 0.0750210426 -0.00817012976 0.0192028901
v 0.0850170522 -0.00814140072 0.0191790579
v 0.0816772346 -0.00815109652 0.0191970419
v 0.088345261 -0.00812703651 0.0186753263
v 0.091675679 -0.00478008287 0.0182603402
v 0.09166615 -0.00144811057 0.0184093297
v 0.094188121 0.00189856608 0.0173916275
v 0.093838831 0.00523299663 0.0171865781
v 0.093481733 0.00719780811 0.0169494396
v 0.09683369 0.00734523755 0.0137130123
v 0.097545608 0.00853715566 0.011868158
v 0.099303908 0.0086621511 0.00851441348
v 0.099781786 0.00986783429 0.00517837333
v 0.099121031 0.0117521617 0.00176579717
v 0.099933537 0.0102870506 0.00279869793
v 0.099992378 0.0104514579 -1.653463e-05
v 0.099597624 0.00958354277 -0.00481891988
v 0.098886373 0.00859947011 -0.00793541145
v 0.09725746 0.0088459632 -0.0106862099
v 0.100407127 0.00895037226 -0.00128122503
v 0.100258625 0.00791886093 -0.0048348844
v 0.088344071 -0.00443663292 -0.0182053353
v 0.091664723 0.00222780834 -0.0173680848
v 0.091674197 -0.00110221798 -0.0173250003
v 0.097782378 0.00568068211 -0.0117862247
v 0.096895003 0.00468979519 -0.0134642769
v 0.094982731 0.005558078 -0.0148835509
v 0.093428434 0.00420429556 -0.0166142207
v 0.093551275 0.0022268407 -0.0167124166
v 0.0850253829 -0.00778333446 -0.0178129397
v 0.0816855721 -0.00779273867 -0.01782508
v 0.0783574777 -0.00780218239 -0.0178296866
v 0.071689564 -0.00782113969 -0.0178351374
v 0.0616935552 -0.00784957715 -0.0178414295
v 0.0483577329 -0.00788752815 -0.0178485673
v -0.00829644536 -0.0103115373 -0.0140888371
v 0.0383978473 -0.017365611 -0.00790286342
v 0.0417066762 -0.0097956641 -0.0168818889
v -0.00827829695 -0.0175356498 -0.00447682285
v -0.0109863526 -0.017208112 -0.00412404064
v -0.0179399237 -0.011262485 -0.00753261459
v -0.0179439809 -0.0112403959 0.00826900048
v -0.0179428027 -0.0116339562 0.00804300751
v -0.0108478743 -0.0136691147 0.0108492747
v -0.00829497938 -0.0132340715 0.013045771
v -0.00830005376 -0.0115814063 0.0144965463
v -0.0120596321 -0.0121165197 0.0120615623
v 0.038391971 -0.0169134439 0.0102490228
v 0.0483570379 -0.0107876238 0.0175823701
v 0.0450289319 -0.0107932991 0.0175815657
v 0.0516851382 -0.01077818 0.0175869767
v 0.0683607855 -0.0107344838 0.0175911551
v 0.0783567952 -0.0107060099 0.0175936818
v 0.0816848796 -0.0106927249 0.0175945599
v 0.0850247072 -0.0106868704 0.0175803059
v 0.088352311 -0.0104806793 0.0173081461
v 0.09048417 -0.0101093103 0.016916809
v 0.091626304 -0.0079374801 0.0173560946
v 0.093509653 -0.00670533513 0.0168111039
v 0.09385561 -0.00476253867 0.0170898295
v 0.094197612 -0.00143076773 0.0173631688
v 0.095852472 0.00191635459 0.0160440092
v 0.095503205 0.00525176925 0.015737291
v 0.097179347 0.00527268923 0.0140696107
v 0.098961854 0.00505906999 0.0115034178
v 0.099779877 0.00603107732 0.00960750316
v 0.100162807 0.00756042805 0.00740055612
v 0.10038419 0.00820298554 0.00516239398
v 0.099992244 0.0104456991 0.000578409935
v 0.100429645 0.00900491586 0.00173949974
v 0.100049837 0.00732737033 -0.00668967655
v 0.099551676 0.00550114605 -0.008835157
v 0.101400825 0.00540345431 0.00180276925
v 0.101296111 0.00543537402 -0.00152593474
v 0.100828121 0.00546629538 -0.00485849591
v 0.091741619 -0.00421629103 -0.0171668356
v 0.090682639 -0.00683896666 -0.0170004037
v 0.088271645 -0.00788532689 -0.0173274042
v 0.093537326 -0.00110270568 -0.0167258183
v 0.098553981 0.00219119688 -0.0115562197
v 0.09707791 0.00220758407 -0.0136840848
v 0.09522674 0.0022184564 -0.0153526566
v 0.0871044498 -0.0095758305 -0.0167866889
v 0.0850304553 -0.009649644 -0.0168481232
v 0.0816906544 -0.0096628894 -0.0168565349
v 0.0750344758 -0.0096856182 -0.0168620196
v 0.0616986692 -0.0097311788 -0.0168692296
v 0.0384012609 -0.0188120319 -0.00510755809
v -0.00827489215 -0.0189696365 -0.00178684011
v 0.0850497675 -0.0172252199 -0.00787970129
v -0.0118998204 -0.0176124922 -0.00192891862
v -0.0132152521 -0.0164744361 -0.00313079477
v -0.0179363454 -0.0126975585 -0.00551672498
v -0.0179367886 -0.0134683284 0.00492221301
v -0.0132399686 -0.0165805217 0.00310437939
v -0.0110121427 -0.0170744291 0.00368003708
v -0.00827652044 -0.0186936596 0.00154482024
v 0.0383961654 -0.0182067127 0.00822932105
v 0.0350519044 -0.0168312015 0.0102038768
v 0.0850438946 -0.01677291 0.0102571235
v 0.088371573 -0.0166062228 0.0101352138
v 0.090140622 -0.0164208227 0.00997924213
v 0.092590322 -0.0127398427 0.0129301734
v 0.094060304 -0.010523557 0.0139837932
v 0.092707529 -0.00892420274 0.0162208056
v 0.094896189 -0.00784345119 0.0148948915
v 0.096873927 -0.00676706887 0.0135651234
v 0.095519987 -0.00474362026 0.015625481
v 0.095861965 -0.00141286988 0.0160042545
v 0.097493458 0.00193713798 0.0143800854
v 0.099169772 0.00196523826 0.0119706065
v 0.100008735 0.00380384795 0.0101847625
v 0.100333621 0.0050922434 0.00848009023
v 0.101107107 0.0053703632 0.00513513825
v 0.100230976 0.00548697206 -0.00717064674
v 0.099795669 0.00217388692 -0.0094020558
v 0.101468181 0.00203826229 0.00510296629
v 0.10173845 0.0020712866 0.00177059137
v 0.101633736 0.00210320632 -0.00155811263
v 0.1012009 0.00213422782 -0.00489066491
v 0.093413672 -0.0029530979 -0.0166571431
v 0.092904313 -0.00517984246 -0.0163474197
v 0.089317761 -0.00907066257 -0.0164310787
v 0.091751735 -0.00789035649 -0.0157826816
v 0.095201061 -0.0011113785 -0.0153397038
v 0.098516594 -0.00113823403 -0.0115884556
v 0.099805156 -0.00115562913 -0.0094116869
v 0.097052237 -0.00112225082 -0.013671132
v 0.088377145 -0.0169775254 -0.00772215547
v 0.091707535 -0.0134010896 -0.0106165993
v 0.0783625701 -0.0096761744 -0.016857413
v 0.0383992815 -0.0190038894 0.00488508428
v 0.0850531403 -0.0186563151 -0.00509554472
v -0.0119127387 -0.0175231588 0.00181140745
v -0.0133913005 -0.0167382435 0.000877215836
v -0.0133908977 -0.0167209307 -0.00091138338
v -0.0179359056 -0.0128922141 -0.00506294409
v 0.0783801362 -0.0180699867 0.00823964897
v 0.0817082205 -0.018056701 0.00824052706
v 0.0850480014 -0.0180357737 0.00824148175
v 0.08837499 -0.0176381917 0.00824607942
v 0.090927305 -0.0168052506 0.0082547167
v 0.092588792 -0.0159025496 0.00826382862
v 0.093976078 -0.0135743106 0.0107005708
v 0.095130015 -0.0114844866 0.0117528952
v 0.09628278 -0.00898369545 0.0128054318
v 0.097580842 -0.00793038803 0.0116937038
v 0.099812936 -0.00556651108 0.009517846
v 0.098977558 -0.00456409449 0.0114629947
v 0.097196129 -0.00472270028 0.0139578007
v 0.097491233 -0.00139211987 0.0143403278
v 0.099167526 -0.00136471212 0.0120023927
v 0.100128831 -0.00134582837 0.0103345318
v 0.100084199 0.00198398847 0.0103027337
v 0.100693991 0.0020037661 0.00843897919
v 0.100428102 0.00215954298 -0.00773379197
v 0.101465942 -0.00129106849 0.00507073933
v 0.100750355 -0.00132539775 0.00840676704
v 0.101701069 -0.00125814428 0.00173835552
v 0.101631498 -0.00122612446 -0.00159033959
v 0.101186955 -0.00119513631 -0.00492289483
v 0.100425871 -0.00116997001 -0.00774719145
v 0.096871194 -0.00340777278 -0.013482409
v 0.094963928 -0.00429359064 -0.0149148951
v 0.096502442 -0.00563488181 -0.0130935747
v 0.094200246 -0.00779335374 -0.0140752725
v 0.093560915 -0.0096690137 -0.0135136349
v 0.091699145 -0.0101440308 -0.0141287149
v 0.093534338 -0.0129736307 -0.010209107
v 0.097729378 -0.00450580948 -0.0118321161
v 0.099509838 -0.00449539447 -0.0088453152
v 0.100224311 -0.00450946828 -0.00718079531
v 0.090719587 -0.0165565732 -0.00727695152
v 0.088380031 -0.018224489 -0.00509061561
v 0.0783831655 -0.0188367248 0.00489570681
v 0.088378193 -0.0184658098 0.004901548
v 0.0850510199 -0.0187987062 0.00489757643
v 0.081711239 -0.0188196335 0.00489662174
v 0.092030697 -0.0171758715 0.0051972934
v 0.093340398 -0.0163095799 0.00650518298
v 0.095067932 -0.0140480497 0.00807145103
v 0.096199824 -0.0124408974 0.00905507938
v 0.097083773 -0.0102307616 0.0105717044
v 0.099316208 -0.00798458185 0.00836834674
v 0.100203882 -0.00684898964 0.00728368349
v 0.100396206 -0.00453042309 0.00840202469
v 0.100075983 -0.00335005373 0.0101983787
v 0.10110045 -0.00462523886 0.00503838372
v 0.101370731 -0.00459221451 0.0017060088
v 0.101289453 -0.00456022803 -0.00162268927
v 0.100798015 -0.00452937347 -0.00495525637
v 0.095863916 -0.00780483307 -0.0123992159
v 0.097211184 -0.00781714078 -0.0107307714
v 0.096759015 -0.0095788481 -0.0100926724
v 0.094653246 -0.0107418117 -0.0112567458
v 0.095886442 -0.0119573824 -0.00836101777
v 0.096567753 -0.0127054517 -0.0063571545
v 0.094227016 -0.0135830144 -0.00837712688
v 0.09293233 -0.0159348824 -0.00598628937
v 0.100053464 -0.00628377245 -0.00673104583
v 0.098838701 -0.00756837602 -0.00803919779
v 0.091786441 -0.0169184316 -0.004960466
v 0.09171679 -0.0174367872 -0.00174948448
v 0.091716181 -0.0175184707 0.0015787141
v 0.093858166 -0.0166258178 0.00158783697
v 0.093657944 -0.0165116273 0.00427769635
v 0.094872892 -0.0152615007 0.00521646373
v 0.09678819 -0.0130949979 0.00682704375
v 0.097497667 -0.0113244002 0.00809836194
v 0.099788891 -0.00906553763 0.00499510822
v 0.100416948 -0.00739718388 0.00501139859
v 0.100559402 -0.00774501821 0.00167530833
v 0.100524651 -0.00758733547 -0.00165216258
v 0.100265559 -0.00684810006 -0.00497782053
v 0.097241059 -0.0102869583 -0.00834454374
v 0.097829476 -0.0114425967 -0.00514711404
v 0.096943512 -0.0131672587 -0.00413970325
v 0.095049252 -0.0145526745 -0.00506110391
v 0.093542318 -0.0163465584 -0.00376830012
v 0.099578917 -0.00851662069 -0.00499412571
v 0.093776687 -0.0165253432 -0.00174019821
v 0.095518233 -0.0152246746 0.00160177327
v 0.097035438 -0.0133349158 0.00495316243
v 0.098459322 -0.0112990214 0.00497318965
v 0.099954787 -0.0094133052 0.00165902389
v 0.099896588 -0.0092556892 -0.00166845295
v 0.098706911 -0.0112338437 -0.00168786853
v 0.097178062 -0.0134450646 -0.00170961647
v 0.095436738 -0.0151165888 -0.00172618824
v 0.097247844 -0.0135531838 0.00161834207
v 0.098835068 -0.0112656967 0.00164084139
f 1 2 3
f 1 3 4
f 1 4 5
f 1 5 6
f 1 6 7
f 1 7 8
f 1 8 9
f 1 9 10
f 1 10 11
f 1 11 12
f 1 12 13
f 1 13 14
f 1 14 15
f 1 15 16
f 1 16 17
f 1 17 18
f 1 18 2
f 2 19 3
f 2 18 19
f 3 20 21
f 3 21 22
f 3 22 4
f 3 19 20
f 4 22 23
f 4 23 24
f 4 24 25
f 4 25 26
f 4 26 27
f 4 27 5
f 5 28 6
f 5 27 26
f 5 26 29
f 5 29 28
f 6 28 30
f 6 30 31
f 6 31 7
f 7 31 8
f 8 10 9
f 8 31 32
f 8 32 13
f 8 13 12
f 8 12 11
f 8 11 10
f 13 32 14
f 14 32 33
f 14 33 34
f 14 34 35
f 14 35 15
f 15 35 36
f 15 36 37
f 15 37 16
f 16 37 17
f 17 37 38
f 17 38 18
f 18 38 19
f 19 39 20
f 19 38 39
f 20 40 41
f 20 41 21
f 20 39 42
f 20 42 40
f 21 41 43
f 21 43 44
f 21 44 45
f 21 45 22
f 22 45 44
f 22 44 23
f 23 44 25
f 23 25 24
f 25 44 43
f 25 43 72
f 25 72 113
f 25 113 112
f 25 112 162
f 25 162 211
f 25 211 210
f 25 210 263
f 25 263 315
f 25 315 359
f 25 359 316
f 25 316 265
f 25 265 264
f 25 264 217
f 25 217 164
f 25 164 121
f 25 121 120
f 25 120 119
f 25 119 118
f 25 118 115
f 25 115 75
f 25 75 73
f 25 73 46
f 25 46 26
f 26 46 47
f 26 47 28
f 26 28 29
f 28 48 49
f 28 49 30
f 28 47 48
f 30 49 31
f 31 50 51
f 31 51 52
f 31 52 53
f 31 53 54
f 31 54 85
f 31 85 55
f 31 55 32
f 31 49 50
f 32 56 57
f 32 57 58
f 32 58 33
f 32 55 56
f 33 58 34
f 34 58 59
f 34 59 60
f 34 60 61
f 34 61 62
f 34 62 35
f 35 62 63
f 35 63 64
f 35 64 36
f 36 65 37
f 36 64 65
f 37 65 66
f 37 66 67
f 37 67 39
f 37 39 38
f 39 68 40
f 39 40 42
f 39 67 107
f 39 107 69
f 39 69 68
f 40 70 41
f 40 68 70
f 41 70 71
f 41 71 72
f 41 72 43
f 46 73 47
f 47 74 48
f 47 73 74
f 48 74 75
f 48 75 76
f 48 76 77
f 48 77 78
f 48 78 79
f 48 79 49
f 49 79 50
f 50 79 80
f 50 80 51
f 51 81 82
f 51 82 52
f 51 80 81
f 52 82 83
f 52 83 53
f 53 83 84
f 53 84 54
f 54 84 129
f 54 129 85
f 55 85 86
f 55 86 56
f 56 86 129
f 56 129 87
f 56 87 57
f 57 88 89
f 57 89 58
f 57 87 88
f 58 89 90
f 58 90 91
f 58 91 92
f 58 92 93
f 58 93 59
f 59 93 94
f 59 94 60
f 60 94 95
f 60 95 96
f 60 96 61
f 61 96 97
f 61 97 62
f 62 97 63
f 63 98 64
f 63 97 99
f 63 99 98
f 64 98 100
f 64 100 65
f 65 101 66
f 65 100 102
f 65 102 103
f 65 103 101
f 66 101 104
f 66 104 105
f 66 105 106
f 66 106 107
f 66 107 67
f 68 108 71
f 68 71 70
f 68 69 108
f 69 107 155
f 69 155 109
f 69 109 108
f 71 110 111
f 71 111 112
f 71 112 113
f 71 113 72
f 71 108 114
f 71 114 110
f 73 75 74
f 75 115 76
f 76 116 117
f 76 117 77
f 76 115 118
f 76 118 119
f 76 119 120
f 76 120 121
f 76 121 122
f 76 122 123
f 76 123 116
f 77 117 78
f 78 117 124
f 78 124 125
f 78 125 126
f 78 126 80
f 78 80 79
f 80 126 81
f 81 126 82
f 82 126 83
f 83 126 84
f 84 126 127
f 84 127 128
f 84 128 130
f 84 130 129
f 85 129 86
f 87 129 130
f 87 130 88
f 88 130 131
f 88 131 132
f 88 132 89
f 89 132 133
f 89 133 90
f 90 133 91
f 91 134 92
f 91 133 134
f 92 134 135
f 92 135 136
f 92 136 137
f 92 137 94
f 92 94 93
f 94 137 138
f 94 138 139
f 94 139 95
f 95 139 140
f 95 140 96
f 96 140 141
f 96 141 97
f 97 141 99
f 98 99 142
f 98 142 143
f 98 143 144
f 98 144 145
f 98 145 100
f 99 141 146
f 99 146 142
f 100 145 102
f 101 103 147
f 101 147 148
f 101 148 104
f 102 145 103
f 103 145 149
f 103 149 150
f 103 150 151
f 103 151 147
f 104 148 152
f 104 152 105
f 105 152 153
f 105 153 106
f 106 153 154
f 106 154 107
f 107 154 155
f 108 109 114
f 109 156 114
f 109 155 157
f 109 157 156
f 110 158 159
f 110 159 160
f 110 160 111
f 110 114 161
f 110 161 158
f 111 160 112
f 112 160 162
f 114 156 161
f 116 163 117
f 116 123 121
f 116 121 164
f 116 164 163
f 117 163 124
f 121 123 122
f 124 163 165
f 124 165 166
f 124 166 125
f 125 166 167
f 125 167 168
f 125 168 126
f 126 168 169
f 126 169 170
f 126 170 171
f 126 171 172
f 126 172 127
f 127 172 128
f 128 172 130
f 130 173 131
f 130 172 174
f 130 174 173
f 131 173 175
f 131 175 176
f 131 176 177
f 131 177 132
f 132 177 178
f 132 178 133
f 133 178 179
f 133 179 134
f 134 179 180
f 134 180 181
f 134 181 135
f 135 181 182
f 135 182 136
f 136 182 183
f 136 183 138
f 136 138 137
f 138 183 184
f 138 184 185
f 138 185 139
f 139 185 140
f 140 185 186
f 140 186 187
f 140 187 141
f 141 187 146
f 142 146 143
f 143 146 188
f 143 188 189
f 143 189 190
f 143 190 191
f 143 191 144
f 144 191 145
f 145 191 190
f 145 190 192
f 145 192 149
f 146 187 193
f 146 193 194
f 146 194 188
f 147 151 195
f 147 195 148
f 148 195 196
f 148 196 152
f 149 192 190
f 149 190 197
f 149 197 198
f 149 198 199
f 149 199 150
f 150 199 200
f 150 200 151
f 151 200 201
f 151 201 195
f 152 196 202
f 152 202 153
f 153 202 154
f 154 202 155
f 155 202 203
f 155 203 157
f 156 157 161
f 157 203 204
f 157 204 205
f 157 205 161
f 158 206 159
f 158 161 207
f 158 207 208
f 158 208 206
f 159 209 210
f 159 210 211
f 159 211 162
f 159 162 160
f 159 206 209
f 161 205 212
f 161 212 207
f 163 164 213
f 163 213 214
f 163 214 215
f 163 215 216
f 163 216 165
f 164 217 214
f 164 214 213
f 165 216 218
f 165 218 166
f 166 218 167
f 167 218 219
f 167 219 272
f 167 272 220
f 167 220 169
f 167 169 168
f 169 220 170
f 170 220 221
f 170 221 171
f 171 221 222
f 171 222 172
f 172 223 174
f 172 222 223
f 173 224 175
f 173 174 225
f 173 225 224
f 174 223 225
f 175 224 226
f 175 226 227
f 175 227 228
f 175 228 176
f 176 228 229
f 176 229 177
f 177 229 230
f 177 230 231
f 177 231 178
f 178 231 179
f 179 231 180
f 180 231 232
f 180 232 181
f 181 232 233
f 181 233 182
f 182 233 234
f 182 234 183
f 183 234 235
f 183 235 184
f 184 236 186
f 184 186 185
f 184 235 237
f 184 237 236
f 186 236 238
f 186 238 187
f 187 238 193
f 188 194 239
f 188 239 189
f 189 239 240
f 189 240 190
f 190 240 241
f 190 241 197
f 193 238 194
f 194 238 242
f 194 242 243
f 194 243 239
f 195 244 196
f 195 201 245
f 195 245 246
f 195 246 244
f 196 244 204
f 196 204 202
f 197 241 198
f 198 241 247
f 198 247 248
f 198 248 249
f 198 249 200
f 198 200 199
f 200 250 201
f 200 249 250
f 201 250 251
f 201 251 245
f 202 204 203
f 204 244 252
f 204 252 253
f 204 253 254
f 204 254 255
f 204 255 256
f 204 256 257
f 204 257 212
f 204 212 205
f 206 258 209
f 206 208 258
f 207 212 208
f 208 259 258
f 208 212 260
f 208 260 259
f 209 258 261
f 209 261 262
f 209 262 263
f 209 263 210
f 212 257 260
f 214 217 264
f 214 264 265
f 214 265 215
f 215 266 267
f 215 267 268
f 215 268 216
f 215 265 269
f 215 269 266
f 216 268 218
f 218 268 267
f 218 267 270
f 218 270 219
f 219 271 273
f 219 273 272
f 219 270 271
f 220 272 273
f 220 273 221
f 221 273 222
f 222 273 274
f 222 274 275
f 222 275 223
f 223 275 276
f 223 276 225
f 224 277 278
f 224 278 226
f 224 225 277
f 225 276 277
f 226 278 279
f 226 279 280
f 226 280 227
f 227 280 281
f 227 281 282
f 227 282 283
f 227 283 228
f 228 283 229
f 229 283 284
f 229 284 230
f 230 284 285
f 230 285 231
f 231 285 232
f 232 286 287
f 232 287 233
f 232 285 286
f 233 287 288
f 233 288 234
f 234 288 289
f 234 289 235
f 235 289 290
f 235 290 237
f 236 237 291
f 236 291 238
f 237 290 292
f 237 292 291
f 238 291 292
f 238 292 242
f 239 243 293
f 239 293 240
f 240 293 294
f 240 294 241
f 241 294 247
f 242 292 295
f 242 295 296
f 242 296 243
f 243 296 297
f 243 297 293
f 244 246 298
f 244 298 299
f 244 299 300
f 244 300 252
f 245 251 301
f 245 301 246
f 246 301 298
f 247 302 248
f 247 294 302
f 248 303 304
f 248 304 250
f 248 250 249
f 248 302 303
f 250 304 251
f 251 304 301
f 252 300 305
f 252 305 306
f 252 306 253
f 253 307 254
f 253 306 307
f 254 307 308
f 254 308 309
f 254 309 260
f 254 260 255
f 255 260 256
f 256 260 257
f 258 259 261
f 259 310 311
f 259 311 261
f 259 260 312
f 259 312 310
f 260 309 312
f 261 311 262
f 262 313 314
f 262 314 315
f 262 315 263
f 262 311 313
f 265 316 266
f 265 266 269
f 266 316 317
f 266 317 318
f 266 318 267
f 267 318 319
f 267 319 320
f 267 320 321
f 267 321 270
f 270 321 320
f 270 320 322
f 270 322 275
f 270 275 274
f 270 274 273
f 270 273 271
f 275 322 276
f 276 322 277
f 277 322 323
f 277 323 278
f 278 323 324
f 278 324 279
f 279 324 325
f 279 325 326
f 279 326 327
f 279 327 280
f 280 327 281
f 281 327 328
f 281 328 329
f 281 329 330
f 281 330 282
f 282 330 331
f 282 331 283
f 283 331 284
f 284 331 332
f 284 332 286
f 284 286 285
f 286 332 333
f 286 333 287
f 287 333 334
f 287 334 288
f 288 334 335
f 288 335 289
f 289 335 336
f 289 336 290
f 290 336 295
f 290 295 292
f 293 297 337
f 293 337 294
f 294 337 338
f 294 338 302
f 295 339 340
f 295 340 341
f 295 341 296
f 295 336 339
f 296 341 342
f 296 342 297
f 297 342 337
f 298 301 343
f 298 343 344
f 298 344 299
f 299 345 300
f 299 344 346
f 299 346 345
f 300 345 305
f 301 304 347
f 301 347 343
f 302 348 303
f 302 338 349
f 302 349 348
f 303 348 350
f 303 350 347
f 303 347 304
f 305 351 312
f 305 312 306
f 305 345 352
f 305 352 351
f 306 312 307
f 307 353 308
f 307 312 353
f 308 353 312
f 308 312 309
f 310 354 311
f 310 312 355
f 310 355 354
f 311 319 356
f 311 356 313
f 311 354 319
f 312 351 355
f 313 356 357
f 313 357 358
f 313 358 359
f 313 359 314
f 314 359 315
f 316 359 358
f 316 358 357
f 316 357 317
f 317 357 356
f 317 356 318
f 318 356 319
f 319 354 320
f 320 354 360
f 320 360 322
f 322 360 361
f 322 361 362
f 322 362 323
f 323 363 324
f 323 362 363
f 324 363 364
f 324 364 365
f 324 365 366
f 324 366 325
f 325 366 326
f 326 366 367
f 326 367 368
f 326 368 328
f 326 328 327
f 328 368 329
f 329 369 370
f 329 370 371
f 329 371 372
f 329 372 330
f 329 368 369
f 330 372 331
f 331 372 373
f 331 373 332
f 332 373 374
f 332 374 333
f 333 374 375
f 333 375 376
f 333 376 334
f 334 376 377
f 334 377 335
f 335 377 336
f 336 377 339
f 337 342 378
f 337 378 338
f 338 378 349
f 339 379 340
f 339 377 380
f 339 380 379
f 340 381 382
f 340 382 341
f 340 379 381
f 341 382 342
f 342 382 383
f 342 383 384
f 342 384 378
f 343 347 385
f 343 385 386
f 343 386 344
f 344 386 387
f 344 387 388
f 344 388 346
f 345 346 389
f 345 389 390
f 345 390 391
f 345 391 352
f 346 388 389
f 347 350 385
f 348 392 385
f 348 385 350
f 348 349 393
f 348 393 392
f 349 394 393
f 349 378 384
f 349 384 394
f 351 352 395
f 351 395 396
f 351 396 355
f 352 391 395
f 354 355 397
f 354 397 361
f 354 361 360
f 355 396 398
f 355 398 399
f 355 399 400
f 355 400 397
f 361 397 400
f 361 400 399
f 361 399 362
f 362 399 398
f 362 398 363
f 363 398 364
f 364 401 402
f 364 402 365
f 364 398 401
f 365 402 366
f 366 402 403
f 366 403 404
f 366 404 367
f 367 404 405
f 367 405 368
f 368 405 369
f 369 405 406
f 369 406 370
f 370 407 408
f 370 408 409
f 370 409 371
f 370 406 407
f 371 374 372
f 371 409 374
f 372 374 373
f 374 409 375
f 375 409 380
f 375 380 377
f 375 377 376
f 379 380 408
f 379 408 410
f 379 410 411
f 379 411 381
f 380 409 408
f 381 411 382
f 382 411 412
f 382 412 383
f 383 412 413
f 383 413 394
f 383 394 384
f 385 392 387
f 385 387 386
f 387 414 388
f 387 392 415
f 387 415 416
f 387 416 414
f 388 414 389
f 389 414 416
f 389 416 417
f 389 417 391
f 389 391 390
f 391 417 416
f 391 416 418
f 391 418 419
f 391 419 420
f 391 420 421
f 391 421 395
f 392 393 415
f 393 394 422
f 393 422 423
f 393 423 415
f 394 413 422
f 395 421 424
f 395 424 396
f 396 424 425
f 396 425 426
f 396 426 398
f 398 426 401
f 401 426 427
f 401 427 428
f 401 428 402
f 402 428 429
f 402 429 430
f 402 430 403
f 403 430 404
f 404 430 431
f 404 431 405
f 405 431 406
f 406 431 432
f 406 432 407
f 407 432 433
f 407 433 410
f 407 410 408
f 410 433 411
f 411 433 434
f 411 434 435
f 411 435 412
f 412 435 436
f 412 436 413
f 413 436 422
f 415 423 416
f 416 423 437
f 416 437 419
f 416 419 418
f 419 437 438
f 419 438 439
f 419 439 440
f 419 440 421
f 419 421 420
f 421 440 441
f 421 441 424
f 422 436 442
f 422 442 423
f 423 442 437
f 424 441 425
f 425 441 443
f 425 443 427
f 425 427 426
f 427 443 444
f 427 444 428
f 428 444 445
f 428 445 429
f 429 445 430
f 430 445 446
f 430 446 431
f 431 446 432
f 432 447 433
f 432 446 447
f 433 447 434
f 434 447 435
f 435 447 448
f 435 448 436
f 436 448 442
f 437 442 438
f 438 449 439
f 438 442 448
f 438 448 449
f 439 449 450
f 439 450 451
f 439 451 441
f 439 441 440
f 441 451 443
f 443 451 444
f 444 451 450
f 444 450 452
f 444 452 445
f 445 452 446
f 446 452 453
f 446 453 447
f 447 453 449
f 447 449 448
f 449 453 450
f 450 453 452
