v -0.0853180305 0.00731500471 0.000580868679
v -0.0852760364 -0.00741470792 0.000438300999
v -0.0853167188 0.00705091633 -0.00163208273
v -0.0950161051 0.00697806234 -0.00113347102
v -0.0950169009 0.00710570555 0.000576658551
v -0.0949760743 -0.00721452836 0.000438054181
v -0.0949759514 -0.00712993957 -0.00100133567
v -0.0852760965 -0.00724734619 -0.00121009246
v -0.0853147076 0.00646729683 -0.00301161474
v -0.0950139128 0.00635690802 -0.00280641622
v -0.0977714198 0.00682057937 -0.00072142056
v -0.0979325622 0.00683354323 0.000573367527
v -0.0962994215 -0.00715197274 0.000438361672
v -0.0975326283 -0.00702787619 -0.00067877157
v -0.0949774094 -0.00647075071 -0.00266188854
v -0.0852762394 -0.00718389291 -0.00135972574
v -0.0853112068 0.00534076524 -0.00416629282
v -0.0950087819 0.00470644619 -0.00450556722
v -0.098340735 0.00437123183 -0.00422531045
v -0.0986678724 0.00611112564 -0.00173013844
v -0.0987968639 0.00660182923 0.000570929995
v -0.0975730549 -0.00704457915 0.00043911437
v -0.0990103963 -0.00647193752 0.000444333597
v -0.0985120597 -0.00625610956 -0.00174423345
v -0.0983154532 -0.00449918081 -0.00428138769
v -0.0949817321 -0.00478555166 -0.00455141733
v -0.0852778175 -0.00649587989 -0.00286975218
v -0.0853104752 0.00510515619 -0.00440544985
v -0.0949994696 0.0015864472 -0.0061864555
v -0.0853007422 0.00186404888 -0.00638597445
v -0.0983323972 0.00157189668 -0.005664865
v -0.10036971 0.00376354639 -0.00371661255
v -0.10073228 0.00442968453 -0.00158309598
v -0.0993763948 0.00630027558 0.000567880577
v -0.0997950556 -0.00587725133 0.000449913191
v -0.100700061 -0.00461344093 -0.0016706222
v -0.100341271 -0.00395462468 -0.00378251622
v -0.0983229083 -0.00175901374 -0.00566732586
v -0.0949899843 -0.00174461387 -0.0061733517
v -0.085290068 -0.00188366116 -0.00638096412
v -0.0852821604 -0.00481154586 -0.00466995345
v -0.085278211 -0.00634285047 -0.00303746859
v -0.100673725 -0.00177957641 -0.00423529042
v -0.100688046 0.00155109754 -0.00420982187
v -0.101595382 0.00152336105 -0.00161142228
v -0.100837867 0.00462213667 0.000551307804
v -0.10079971 -0.0048145938 0.000459972998
v -0.101117712 -0.00380332829 0.000469689989
v -0.101581058 -0.00180724739 -0.00164365788
v -0.101724476 0.00150235434 0.000520910018
v -0.101703727 -0.0018282358 0.000488676043
f 1 2 8
f 1 8 16
f 1 16 27
f 1 27 42
f 1 42 41
f 1 41 40
f 1 40 30
f 1 30 28
f 1 28 17
f 1 17 9
f 1 9 3
f 1 3 4
f 1 4 5
f 1 5 12
f 1 12 21
f 1 21 34
f 1 34 46
f 1 46 50
f 1 50 51
f 1 51 48
f 1 48 47
f 1 47 35
f 1 35 23
f 1 23 22
f 1 22 13
f 1 13 6
f 1 6 2
f 2 6 7
f 2 7 8
f 3 9 10
f 3 10 4
f 4 10 11
f 4 11 5
f 5 11 12
f 6 13 7
f 7 13 14
f 7 14 15
f 7 15 8
f 8 15 16
f 9 17 18
f 9 18 10
f 10 18 19
f 10 19 20
f 10 20 11
f 11 20 21
f 11 21 12
f 13 22 14
f 14 22 23
f 14 23 24
f 14 24 15
f 15 24 25
f 15 25 26
f 15 26 27
f 15 27 16
f 17 28 18
f 18 29 19
f 18 28 30
f 18 30 29
f 19 29 31
f 19 31 32
f 19 32 20
f 20 32 33
f 20 33 34
f 20 34 21
f 23 35 24
f 24 35 36
f 24 36 37
f 24 37 25
f 25 38 39
f 25 39 26
f 25 37 38
f 26 39 40
f 26 40 41
f 26 41 42
f 26 42 27
f 29 39 38
f 29 38 31
f 29 30 40
f 29 40 39
f 31 38 43
f 31 43 44
f 31 44 32
f 32 44 45
f 32 45 33
f 33 45 46
f 33 46 34
f 35 47 36
f 36 47 48
f 36 48 49
f 36 49 37
f 37 43 38
f 37 49 43
f 43 49 44
f 44 49 45
f 45 49 50
f 45 50 46
f 48 51 49
f 49 51 50
