v -0.082365775 0.0086387717 0.00199838179
v -0.0810781766 0.00861888261 0.00443253818
v -0.0821193684 0.00865082992 0.0008251391
v -0.0950134287 0.0071945193 0.00177961161
v -0.0980810277 0.00684460834 0.00177553379
v -0.0794622373 0.008606509 0.00618692977
v -0.0820700892 0.00865320223 0.000594553099
v -0.0987938554 0.00660239359 0.000570935949
v -0.09974534 0.00639959279 0.00177085143
v -0.0974573977 0.0066486402 0.00374062127
v -0.0979330057 0.00683229404 0.000573355149
v -0.0745976009 0.00858703721 0.00963160591
v -0.0179992324 0.00883570985 0.000610748574
v -0.0993755362 0.00630018043 0.000567879663
v -0.0987165109 0.0049619395 0.00523439439
v -0.100831204 0.00462266301 0.000551314213
v -0.10089745 0.00472943855 0.00175442562
v -0.100592851 0.00412681342 0.00451251903
v -0.0716851828 0.00858372258 0.010831933
v -0.0180012518 0.00874891266 0.00957780796
v -0.0179519145 -0.00776138978 0.000450106607
v -0.0999750598 0.0030754341 0.00672384411
v -0.0977530241 0.00356278122 0.0070516908
v -0.101724846 0.00150244977 0.000520910672
v -0.101798955 0.0014906048 0.00172287211
v -0.100857114 0.00176818193 0.00538462649
v -0.0783356021 0.00146199914 0.0115895823
v -0.074996303 0.00147015818 0.0117302196
v -0.0583607504 0.00861858987 0.0111543163
v -0.0805491276 0.00381936639 0.0104540217
v -0.018001125 0.00870147525 0.00961080647
v -0.0383575594 0.00867666814 0.0110458653
v -0.0838196115 -0.00794901575 0.000433456937
v -0.0179540614 -0.00785366891 0.00998350725
v -0.100247749 0.000849640296 0.00696273069
v -0.0986504927 0.00175501609 0.00739485748
v -0.10171056 -0.00062740129 0.000500297868
v -0.101773056 -0.00183981589 0.00169064093
v -0.100837885 -0.0020964146 0.00531137569
v -0.100242052 -0.00114864014 0.0069433895
v -0.0783261016 -0.00186823698 0.0115334511
v -0.0749868052 -0.00186019358 0.0116860356
v -0.0179811245 0.00140190352 0.0127461344
v -0.0179812125 0.0014327712 0.0127464332
v -0.0179815112 0.00153847556 0.0127367016
v -0.0179817292 0.00161664224 0.0127183391
v -0.0179988992 0.00787253146 0.0101464738
v -0.0179914206 0.0051082727 0.0117113565
v -0.0179930924 0.00572030313 0.011428109
v -0.0839017482 -0.00795317008 0.000838477341
v -0.094972146 -0.00728570322 0.00163945872
v -0.0962931966 -0.0071527358 0.000438355502
v -0.0179621223 -0.00516367972 0.0115593584
v -0.0716376569 -0.00800443712 0.00974770147
v -0.0985656242 -0.00210949753 0.00733237581
v -0.101698936 -0.00182797089 0.0004886795
v -0.101110761 -0.00380347203 0.000469689976
v -0.100853515 -0.00492724556 0.00166096306
v -0.100543898 -0.0044082939 0.0043713627
v -0.0998336059 -0.00336688485 0.00660296551
v -0.0783180183 -0.00462291145 0.0105974521
v -0.0717361171 -0.00800470602 0.00974648231
v -0.0804934747 -0.00418807545 0.0103550163
v -0.0179727198 -0.00154503834 0.0127056614
v -0.0840660334 -0.00796173318 0.00167480368
v -0.0970494273 -0.00693241167 0.00347183853
v -0.0976147376 -0.00706090845 0.00164103952
v -0.0817612386 -0.00798693554 0.00495753337
v -0.0785784407 -0.00800551993 0.00781513227
v -0.0975652476 -0.00704425965 0.000439119035
v -0.0976086236 -0.00391458142 0.00693752367
v -0.100796097 -0.00481472096 0.000459972395
v -0.0997920802 -0.00587761909 0.000449910115
v -0.0992816562 -0.00658964011 0.00164522579
v -0.098441185 -0.00526500775 0.00503748059
v -0.0783130344 -0.00627981227 0.00955258555
v -0.0750260499 -0.00800674561 0.00898814018
v -0.0783077092 -0.00800592833 0.0079370716
v -0.0990109277 -0.00647163357 0.000444336233
f 1 2 6
f 1 6 12
f 1 12 19
f 1 19 29
f 1 29 32
f 1 32 20
f 1 20 13
f 1 13 7
f 1 7 3
f 1 3 4
f 1 4 5
f 1 5 2
f 2 5 6
f 3 7 4
f 4 7 5
f 5 8 9
f 5 9 10
f 5 10 6
f 5 7 11
f 5 11 8
f 6 10 12
f 7 13 21
f 7 21 33
f 7 33 52
f 7 52 70
f 7 70 79
f 7 79 73
f 7 73 72
f 7 72 57
f 7 57 56
f 7 56 37
f 7 37 24
f 7 24 16
f 7 16 14
f 7 14 8
f 7 8 11
f 8 14 9
f 9 15 10
f 9 14 16
f 9 16 17
f 9 17 18
f 9 18 15
f 10 15 19
f 10 19 12
f 13 20 31
f 13 31 47
f 13 47 49
f 13 49 48
f 13 48 46
f 13 46 45
f 13 45 44
f 13 44 43
f 13 43 64
f 13 64 53
f 13 53 34
f 13 34 21
f 15 18 22
f 15 22 23
f 15 23 19
f 16 24 17
f 17 24 25
f 17 25 18
f 18 25 26
f 18 26 22
f 19 27 28
f 19 28 29
f 19 23 30
f 19 30 27
f 20 32 31
f 21 34 54
f 21 54 62
f 21 62 77
f 21 77 78
f 21 78 69
f 21 69 68
f 21 68 65
f 21 65 50
f 21 50 33
f 22 35 36
f 22 36 23
f 22 26 35
f 23 36 27
f 23 27 30
f 24 37 25
f 25 37 38
f 25 38 39
f 25 39 26
f 26 39 40
f 26 40 35
f 27 41 42
f 27 42 28
f 27 36 41
f 28 42 43
f 28 43 44
f 28 44 45
f 28 45 29
f 29 45 46
f 29 46 32
f 31 32 47
f 32 46 48
f 32 48 49
f 32 49 47
f 33 50 51
f 33 51 52
f 34 53 54
f 35 40 36
f 36 40 55
f 36 55 41
f 37 56 38
f 38 56 57
f 38 57 58
f 38 58 59
f 38 59 39
f 39 59 60
f 39 60 40
f 40 60 55
f 41 61 62
f 41 62 42
f 41 55 63
f 41 63 61
f 42 62 53
f 42 53 64
f 42 64 43
f 50 65 51
f 51 66 67
f 51 67 52
f 51 65 68
f 51 68 69
f 51 69 66
f 52 67 70
f 53 62 54
f 55 60 71
f 55 71 63
f 57 72 58
f 58 72 73
f 58 73 74
f 58 74 59
f 59 74 66
f 59 66 75
f 59 75 60
f 60 75 71
f 61 76 62
f 61 63 71
f 61 71 76
f 62 76 71
f 62 71 77
f 66 71 75
f 66 74 67
f 66 69 78
f 66 78 77
f 66 77 71
f 67 74 70
f 70 74 79
f 73 79 74
