v 0.154537989086 -0.111147836771 0.0980183342302
v 0.154537989086 -0.0786078960511 0.0980183342302
v 0.168641621518 -0.111147836771 0.0980183342302
v 0.154537989086 -0.111147836771 0.17366662369
v 0.168641621518 -0.0792385697871 0.0980183342302
v 0.154537989086 -0.0786078960511 0.17366662369
v 0.174049638528 -0.11038975166 0.0980183342302
v 0.168641621518 -0.111147836771 0.17366662369
v 0.173928403567 -0.0797290852072 0.0980183342302
v 0.168641621518 -0.0792385697871 0.17366662369
v 0.17399971825 -0.0797354586774 0.17366662369
v 0.174120952606 -0.110357913323 0.0980183342302
v 0.174049638528 -0.11038975166 0.17366662369
v 0.174049638528 -0.0797418224762 0.0980183342302
v 0.174049638528 -0.0797418224762 0.17366662369
v 0.177268299614 -0.108902266888 0.0980183342302
v 0.177268299614 -0.108902266888 0.17366662369
v 0.174078164401 -0.110377024062 0.17366662369
v 0.177070996464 -0.0806655307701 0.0980183342302
v 0.177113785274 -0.0806782777106 0.17366662369
v 0.177796027057 -0.105545082562 0.0980183342302
v 0.177784140874 -0.105468639605 0.17366662369
v 0.177807913241 -0.105468639605 0.0980183342302
v 0.177142311147 -0.0806878330801 0.0980183342302
v 0.177142311147 -0.0806878330801 0.17366662369
v 0.177990953454 -0.100056992788 0.17366662369
v 0.178390314468 -0.100181212592 0.0980183342302
v 0.178818201356 -0.0947759392451 0.0980183342302
v 0.178822956071 -0.0946517194404 0.0980183342302
v 0.177154196122 -0.0807579025667 0.0980183342302
v 0.177147064653 -0.0807164991889 0.17366662369
v 0.17767003859 -0.0838347992756 0.0980183342302
v 0.178114565168 -0.0946517194404 0.17366662369
v 0.178252439818 -0.0892432545223 0.0980183342302
v 0.177662907122 -0.0838857676944 0.17366662369
v 0.177912507303 -0.0892942229411 0.17366662369
v 0.177655775654 -0.0838347992756 0.17366662369
f 1 2 5
f 1 5 9
f 1 9 14
f 1 14 19
f 1 19 24
f 1 24 30
f 1 30 32
f 1 32 34
f 1 34 29
f 1 29 28
f 1 28 27
f 1 27 23
f 1 23 21
f 1 21 16
f 1 16 12
f 1 12 7
f 1 7 3
f 1 3 8
f 1 8 4
f 1 4 6
f 1 6 2
f 2 6 10
f 2 10 5
f 3 7 13
f 3 13 8
f 4 8 13
f 4 13 18
f 4 18 17
f 4 17 22
f 4 22 26
f 4 26 33
f 4 33 36
f 4 36 35
f 4 35 37
f 4 37 31
f 4 31 25
f 4 25 20
f 4 20 15
f 4 15 11
f 4 11 10
f 4 10 6
f 5 10 11
f 5 11 9
f 7 12 18
f 7 18 13
f 9 11 14
f 11 15 14
f 12 16 17
f 12 17 18
f 14 15 20
f 14 20 19
f 16 21 17
f 17 21 23
f 17 23 22
f 19 20 24
f 20 25 24
f 22 23 27
f 22 27 28
f 22 28 29
f 22 29 26
f 24 25 30
f 25 31 32
f 25 32 30
f 26 29 33
f 29 34 35
f 29 35 36
f 29 36 33
f 31 37 32
f 32 37 35
f 32 35 34
