v 0.177782452001 0.213641554862 0.0718892945534
v 0.177265510616 0.217074911346 0.0718892945534
v 0.177782452001 0.197417591479 0.0718892945534
v 0.177782452001 0.213641554862 0.0275851319289
v 0.176649744176 0.217361282291 0.0718892945534
v 0.177265510616 0.217074911346 0.0275851319289
v 0.177653216353 0.192008526933 0.0718892945534
v 0.177782452001 0.186451450872 0.0438146370396
v 0.177782452001 0.186451450872 0.0275851319289
v 0.177607603486 0.186451450872 0.0223270867104
v 0.177600001745 0.213641554862 0.0221788237389
v 0.177178086964 0.216952625826 0.0221788237389
v 0.174049837397 0.218561506346 0.0718892945534
v 0.174049837397 0.218561506346 0.0275851319289
v 0.177558190958 0.191406809448 0.0718892945534
v 0.177314924353 0.186451450872 0.0488502878008
v 0.177140077048 0.188861551066 0.0718892945534
v 0.177600001745 0.186451450872 0.0221788237389
v 0.177102067132 0.186451450872 0.0191870936136
v 0.17708686244 0.213641554862 0.0191023719156
v 0.176976632354 0.216666254881 0.0192294544626
v 0.174049837397 0.218226874982 0.0221788237389
v 0.168640967488 0.219317695858 0.0718892945534
v 0.168640967488 0.219317695858 0.0275851319289
v 0.174049837397 0.187912310205 0.0718892945534
v 0.168640967488 0.187410343816 0.0718892945534
v 0.174916473393 0.186451450872 0.0516037429861
v 0.17708686244 0.186451450872 0.0191023719156
v 0.174133460179 0.186451450872 0.0182869255723
v 0.174049837397 0.213641554862 0.0182657451478
v 0.174049837397 0.217116730595 0.0188693872461
v 0.168640967488 0.218896157053 0.0221788237389
v 0.15241815984 0.219317695858 0.0718892945534
v 0.15241815984 0.219317695858 0.0275851319289
v 0.152726043665 0.186451450872 0.0718892945534
v 0.174049837397 0.186451450872 0.0182657451478
v 0.168640967488 0.213641554862 0.0177944758669
v 0.168640967488 0.217406331796 0.0186364025766
v 0.15241815984 0.218896157053 0.0221788237389
v 0.151380478618 0.219256553098 0.0718892945534
v 0.14700929114 0.218635531446 0.0221788237389
v 0.14700929114 0.218986256064 0.0275851319289
v 0.138958703665 0.186451450872 0.0718892945534
v 0.168640967488 0.186451450872 0.0177944758669
v 0.15241815984 0.213641554862 0.0177944758669
v 0.15241815984 0.217406331796 0.0186364025766
v 0.14700929114 0.217313021871 0.0187158340042
v 0.14700929114 0.218986256064 0.0718892945534
v 0.143835428706 0.216926899831 0.0190176502176
v 0.143478132354 0.217358071377 0.0221788237389
v 0.143345094626 0.217499661064 0.0275851319289
v 0.143333692014 0.217499661064 0.0329967303892
v 0.146306101046 0.218703096033 0.0718892945534
v 0.138951101923 0.192008526933 0.0718892945534
v 0.138951101923 0.186451450872 0.0438146370396
v 0.15241815984 0.186451450872 0.0177944758669
v 0.147161330803 0.186451450872 0.0179480387802
v 0.14700929114 0.213641554862 0.0179533387221
v 0.143599765052 0.213641554862 0.0187952557603
v 0.142622897761 0.213641554862 0.0221788237389
v 0.139756920361 0.208232490316 0.0329967303892
v 0.14145978297 0.213641554862 0.0329967303892
v 0.141817079323 0.214378420864 0.0718892945534
v 0.143333692014 0.217499661064 0.0718892945534
v 0.138951101923 0.197417591479 0.0718892945534
v 0.138951101923 0.197417591479 0.0438146370396
v 0.138954902794 0.186451450872 0.0329967303892
v 0.14700929114 0.186451450872 0.0179533387221
v 0.143694791655 0.186451450872 0.018768775394
v 0.143599765052 0.186451450872 0.0187952557603
v 0.142250397925 0.202826646354 0.0221788237389
v 0.140281462279 0.202826646354 0.0275851319289
v 0.138958703665 0.202826646354 0.0329967303892
v 0.138954902794 0.202826646354 0.0384030385792
v 0.139756920361 0.208232490316 0.0718892945534
v 0.140080008878 0.209268609603 0.0718892945534
v 0.14145978297 0.213641554862 0.0718892945534
v 0.138954902794 0.202826646354 0.0718892945534
v 0.138954902794 0.197417591479 0.0329967303892
v 0.140281462279 0.186451450872 0.0275851319289
v 0.142250397925 0.186451450872 0.0221788237389
v 0.140334676886 0.186451450872 0.0274368689573
f 1 2 5
f 1 5 13
f 1 13 23
f 1 23 33
f 1 33 40
f 1 40 48
f 1 48 53
f 1 53 64
f 1 64 63
f 1 63 77
f 1 77 76
f 1 76 75
f 1 75 78
f 1 78 65
f 1 65 54
f 1 54 43
f 1 43 35
f 1 35 26
f 1 26 25
f 1 25 17
f 1 17 15
f 1 15 7
f 1 7 3
f 1 3 8
f 1 8 9
f 1 9 4
f 1 4 6
f 1 6 2
f 2 6 5
f 3 7 8
f 4 9 10
f 4 10 11
f 4 11 12
f 4 12 6
f 5 6 14
f 5 14 13
f 6 12 14
f 7 15 8
f 8 16 27
f 8 27 35
f 8 35 43
f 8 43 55
f 8 55 67
f 8 67 80
f 8 80 82
f 8 82 81
f 8 81 70
f 8 70 69
f 8 69 68
f 8 68 57
f 8 57 56
f 8 56 44
f 8 44 36
f 8 36 29
f 8 29 28
f 8 28 19
f 8 19 18
f 8 18 10
f 8 10 9
f 8 15 17
f 8 17 16
f 10 18 11
f 11 18 19
f 11 19 20
f 11 20 21
f 11 21 12
f 12 21 22
f 12 22 14
f 13 14 24
f 13 24 23
f 14 22 24
f 16 17 25
f 16 25 26
f 16 26 27
f 19 28 20
f 20 28 29
f 20 29 30
f 20 30 21
f 21 30 31
f 21 31 22
f 22 31 32
f 22 32 24
f 23 24 34
f 23 34 33
f 24 32 39
f 24 39 34
f 26 35 27
f 29 36 30
f 30 36 44
f 30 44 37
f 30 37 31
f 31 38 32
f 31 37 38
f 32 38 46
f 32 46 39
f 33 34 40
f 34 39 41
f 34 41 42
f 34 42 40
f 37 44 56
f 37 56 45
f 37 45 46
f 37 46 38
f 39 46 47
f 39 47 41
f 40 42 48
f 41 47 49
f 41 49 50
f 41 50 42
f 42 50 51
f 42 51 52
f 42 52 53
f 42 53 48
f 43 54 55
f 45 57 58
f 45 58 47
f 45 47 46
f 45 56 57
f 47 58 49
f 49 58 59
f 49 59 60
f 49 60 61
f 49 61 50
f 50 61 62
f 50 62 51
f 51 62 52
f 52 62 63
f 52 63 64
f 52 64 53
f 54 65 66
f 54 66 55
f 55 66 79
f 55 79 67
f 57 68 58
f 58 69 59
f 58 68 69
f 59 69 70
f 59 70 81
f 59 81 71
f 59 71 72
f 59 72 60
f 60 72 73
f 60 73 61
f 61 73 74
f 61 74 78
f 61 78 75
f 61 75 76
f 61 76 62
f 62 76 77
f 62 77 63
f 65 78 74
f 65 74 66
f 66 74 79
f 67 79 72
f 67 72 80
f 71 81 82
f 71 82 72
f 72 79 73
f 72 82 80
f 73 79 74
