v 0.195685900946 -0.103714997171 0.0708626290863
v 0.191576751103 -0.103398673817 0.0870817083991
v 0.191579572742 -0.103398673817 0.0816802020725
v 0.19169387208 -0.103398673817 0.0708626290863
v 0.19212285063 -0.103187227415 0.0673829513048
v 0.195685900946 -0.103239665891 0.0672664783129
v 0.198701442123 -0.102974098184 0.0677323751162
v 0.198856663686 -0.103078975136 0.0708626290863
v 0.195685900946 -0.103714997171 0.206060450914
v 0.188849077523 -0.102108021922 0.0870817083991
v 0.191576751103 -0.103398673817 0.189841371601
v 0.188990188475 -0.101487222713 0.0708626290863
v 0.188849077523 -0.101987922145 0.0816802020725
v 0.188849077523 -0.101257168486 0.0706005624367
v 0.188849077523 -0.0992949617341 0.0667569005108
v 0.190302518873 -0.100089991696 0.0663492402034
v 0.195685900946 -0.100059546044 0.0652427322731
v 0.199875483209 -0.100059546044 0.0668296973396
v 0.201376904506 -0.100059546044 0.0708626290863
v 0.201389605507 -0.100059546044 0.0762641354129
v 0.198856663686 -0.103078975136 0.206060450914
v 0.198701442123 -0.102974098184 0.209190704884
v 0.195685900946 -0.103239665891 0.209656601687
v 0.19212285063 -0.103187227415 0.209540128695
v 0.19169387208 -0.103398673817 0.206060450914
v 0.191579572742 -0.103398673817 0.195242877928
v 0.188849077523 -0.102108021922 0.189841371601
v 0.188849077523 -0.10131637696 0.0708626290863
v 0.188849077523 -0.094651642069 0.0657523100752
v 0.190277119288 -0.094651642069 0.0649078687946
v 0.195685900946 -0.094651642069 0.064092543344
v 0.200811048672 -0.094651642069 0.0661308497168
v 0.203249445043 -0.094651642069 0.0708626290863
v 0.203263558072 -0.094651642069 0.0762641354129
v 0.201389605507 -0.100059546044 0.200658944587
v 0.201376904506 -0.100059546044 0.206060450914
v 0.199875483209 -0.100059546044 0.21009338266
v 0.195685900946 -0.100059546044 0.211680347727
v 0.190302518873 -0.100089991696 0.210573839797
v 0.188849077523 -0.0992949617341 0.210166179489
v 0.188990188475 -0.101487222713 0.206060450914
v 0.188849077523 -0.101998067472 0.195213762097
v 0.188849077523 -0.0931275509475 0.0660580528879
v 0.190725851727 -0.0894095160189 0.0668151370067
v 0.195532088993 -0.0887937943086 0.0664365973652
v 0.199947450713 -0.0902958926058 0.0668005766738
v 0.200729204223 -0.0894687244933 0.0708626290863
v 0.200730616251 -0.0894687244933 0.0762641354129
v 0.203263558072 -0.094651642069 0.200658944587
v 0.203249445043 -0.094651642069 0.206060450914
v 0.200811048672 -0.094651642069 0.210792230283
v 0.195685900946 -0.094651642069 0.212830536656
v 0.190277119288 -0.094651642069 0.212015211205
v 0.188849077523 -0.0962636948165 0.210966939771
v 0.188849077523 -0.10131637696 0.206060450914
v 0.188849077523 -0.101360352937 0.205798384264
v 0.188849077523 -0.0904159923827 0.0671354449881
v 0.192826993359 -0.0864695957266 0.0679944417659
v 0.193627093566 -0.0864695957266 0.0679944417659
v 0.196652511688 -0.0867656187554 0.0708626290863
v 0.196652511688 -0.0867639262557 0.0762641354129
v 0.200730616251 -0.0894687244933 0.200658944587
v 0.200729204223 -0.0894687244933 0.206060450914
v 0.199947450713 -0.0902958926058 0.210122503326
v 0.195532088993 -0.0887937943086 0.210486482635
v 0.190725851727 -0.0894095160189 0.210107942993
v 0.188849077523 -0.0904159923827 0.209787635012
v 0.188849077523 -0.094651642069 0.211170769925
v 0.188849077523 -0.0893469322167 0.0708626290863
v 0.192750794606 -0.0864340725762 0.0708626290863
v 0.190045696554 -0.0883049327026 0.0708626290863
v 0.188849077523 -0.0880850334734 0.0829177433276
v 0.188849077523 -0.087970001524 0.0870817083991
v 0.193950237693 -0.0864340725762 0.0708626290863
v 0.196652511688 -0.0867639262557 0.200658944587
v 0.196652511688 -0.0867656187554 0.206060450914
v 0.193627093566 -0.0864695957266 0.208928638234
v 0.192826993359 -0.0864695957266 0.208928638234
v 0.188849077523 -0.0895549936195 0.207487266825
v 0.188849077523 -0.088629708883 0.077458000505
v 0.192740915243 -0.0864340725762 0.0816802020725
v 0.188849077523 -0.087970001524 0.189841371601
v 0.193950237693 -0.0864340725762 0.206060450914
v 0.192750794606 -0.0864340725762 0.206060450914
v 0.188849077523 -0.0883675165048 0.195286558926
v 0.190045696554 -0.0883049327026 0.206060450914
v 0.188849077523 -0.0893469322167 0.206060450914
v 0.192740915243 -0.0864340725762 0.195242877928
f 1 2 3
f 1 3 4
f 1 4 5
f 1 5 6
f 1 6 7
f 1 7 8
f 1 8 21
f 1 21 9
f 1 9 11
f 1 11 2
f 2 10 3
f 2 11 27
f 2 27 10
f 3 10 4
f 4 12 5
f 4 10 13
f 4 13 12
f 5 12 14
f 5 14 15
f 5 15 16
f 5 16 17
f 5 17 6
f 6 17 7
f 7 17 18
f 7 18 19
f 7 19 8
f 8 19 20
f 8 20 35
f 8 35 21
f 9 21 22
f 9 22 23
f 9 23 24
f 9 24 25
f 9 25 26
f 9 26 11
f 10 27 42
f 10 42 56
f 10 56 55
f 10 55 40
f 10 40 54
f 10 54 68
f 10 68 67
f 10 67 79
f 10 79 87
f 10 87 85
f 10 85 82
f 10 82 73
f 10 73 72
f 10 72 80
f 10 80 69
f 10 69 57
f 10 57 43
f 10 43 29
f 10 29 15
f 10 15 14
f 10 14 28
f 10 28 13
f 11 26 27
f 12 28 14
f 12 13 28
f 15 29 30
f 15 30 16
f 16 30 17
f 17 30 31
f 17 31 18
f 18 31 32
f 18 32 33
f 18 33 19
f 19 33 34
f 19 34 20
f 20 34 49
f 20 49 35
f 21 35 36
f 21 36 22
f 22 37 38
f 22 38 23
f 22 36 37
f 23 38 24
f 24 38 39
f 24 39 40
f 24 40 41
f 24 41 25
f 25 41 42
f 25 42 27
f 25 27 26
f 29 43 30
f 30 43 44
f 30 44 31
f 31 44 45
f 31 45 46
f 31 46 32
f 32 46 33
f 33 46 47
f 33 47 34
f 34 47 48
f 34 48 62
f 34 62 49
f 35 49 36
f 36 50 37
f 36 49 50
f 37 51 52
f 37 52 38
f 37 50 51
f 38 52 53
f 38 53 39
f 39 53 40
f 40 53 54
f 40 55 41
f 41 55 56
f 41 56 42
f 43 57 44
f 44 57 58
f 44 58 45
f 45 58 59
f 45 59 46
f 46 59 60
f 46 60 47
f 47 60 61
f 47 61 48
f 48 61 75
f 48 75 62
f 49 62 63
f 49 63 50
f 50 63 64
f 50 64 51
f 51 64 52
f 52 64 65
f 52 65 66
f 52 66 53
f 53 66 67
f 53 67 68
f 53 68 54
f 57 69 58
f 58 70 74
f 58 74 59
f 58 69 71
f 58 71 72
f 58 72 73
f 58 73 70
f 59 74 60
f 60 74 61
f 61 74 83
f 61 83 75
f 62 75 63
f 63 76 64
f 63 75 76
f 64 76 77
f 64 77 65
f 65 77 78
f 65 78 66
f 66 78 67
f 67 78 79
f 69 80 71
f 70 73 81
f 70 81 88
f 70 88 84
f 70 84 83
f 70 83 74
f 71 80 72
f 73 82 88
f 73 88 81
f 75 83 76
f 76 83 77
f 77 83 84
f 77 84 78
f 78 84 82
f 78 82 85
f 78 85 86
f 78 86 79
f 79 86 87
f 82 84 88
f 85 87 86
