v 0.17778376127 -0.0943796815498 0.059763985097
v 0.1777799604 -0.078753083509 0.0438076832838
v 0.1777799604 -0.0892458658075 0.059763985097
v 0.17778376127 -0.0946523867689 0.059763985097
v 0.1777799604 -0.078753083509 0.0275843485433
v 0.17777615832 -0.078753083509 0.0441363377064
v 0.17777615832 -0.0889731605885 0.059763985097
v 0.1777799604 -0.105468610591 0.059763985097
v 0.1777799604 -0.105468610591 0.0275843485433
v 0.177612708791 -0.078753083509 0.0225065883902
v 0.177316217907 -0.078753083509 0.0490744134434
v 0.177141364556 -0.0806842062951 0.059763985097
v 0.177654521995 -0.0838361629468 0.059763985097
v 0.177293411474 -0.108728374636 0.059763985097
v 0.177266802961 -0.108902789146 0.0275843485433
v 0.17717557481 -0.108779110941 0.0221779339676
v 0.17760130497 -0.105468610591 0.0221779339676
v 0.17760130497 -0.078753083509 0.0221779339676
v 0.174047220067 -0.078753083509 0.0533346285536
v 0.174047220067 -0.0797170539524 0.059763985097
v 0.177266802961 -0.108902789146 0.059763985097
v 0.174047220067 -0.110389983774 0.0275843485433
v 0.177103353431 -0.108978883931 0.059763985097
v 0.174047220067 -0.110053843667 0.0221779339676
v 0.176974114156 -0.108493726481 0.0192282358629
v 0.17708814874 -0.105468610591 0.0191049928722
v 0.17708814874 -0.078753083509 0.0191049928722
v 0.16863816761 -0.078753083509 0.0556023653465
v 0.16863816761 -0.0792001838945 0.059763985097
v 0.16863816761 -0.111144664543 0.0275843485433
v 0.174047220067 -0.110389983774 0.059763985097
v 0.173777337695 -0.110428031167 0.059763985097
v 0.16863816761 -0.11072293231 0.0221779339676
v 0.174047220067 -0.108944008766 0.0188708282887
v 0.174047220067 -0.105468610591 0.0182669153904
v 0.174233477238 -0.078753083509 0.0183162106524
v 0.155527964787 -0.078753083509 0.059763985097
v 0.152418614397 -0.111144664543 0.0275843485433
v 0.16863816761 -0.111144664543 0.059763985097
v 0.152418614397 -0.11072293231 0.0221779339676
v 0.16863816761 -0.109235737682 0.0186366540336
v 0.16863816761 -0.105468610591 0.0177985765518
v 0.168968868748 -0.078753083509 0.0178232290185
v 0.174047220067 -0.078753083509 0.0182669153904
v 0.138958703665 -0.078753083509 0.059763985097
v 0.14700956194 -0.110814888235 0.0275843485433
v 0.14700956194 -0.110459734104 0.0221779339676
v 0.152418614397 -0.111144664543 0.059763985097
v 0.152144931155 -0.111128822746 0.059763985097
v 0.14700956194 -0.109140609528 0.0187147121187
v 0.152418614397 -0.109235737682 0.0186366540336
v 0.16863816761 -0.078753083509 0.0177985765518
v 0.152418614397 -0.105468610591 0.0177985765518
v 0.138951101923 -0.0838361629468 0.059763985097
v 0.138951101923 -0.078753083509 0.0438076832838
v 0.143333839503 -0.109324521379 0.0329948638039
v 0.143345244533 -0.109324521379 0.0275843485433
v 0.143478284679 -0.109185001377 0.0221779339676
v 0.14700956194 -0.110814888235 0.059763985097
v 0.143835593121 -0.10875375246 0.019018723746
v 0.14700956194 -0.105468610591 0.0179546927218
v 0.152418614397 -0.078753083509 0.0177985765518
v 0.147336463416 -0.078753083509 0.0179423713242
v 0.138951101923 -0.0892458658075 0.059763985097
v 0.138951101923 -0.0892458658075 0.0438076832838
v 0.138954902794 -0.078753083509 0.0329948638039
v 0.141459870013 -0.105468610591 0.0329948638039
v 0.143333839503 -0.109324521379 0.059763985097
v 0.141551095745 -0.105662039125 0.059763985097
v 0.139756949376 -0.100058917402 0.0329948638039
v 0.142623023489 -0.105468610591 0.0221779339676
v 0.143599922212 -0.105468610591 0.0187927702037
v 0.14700956194 -0.078753083509 0.0179546927218
v 0.138954902794 -0.0946523867689 0.059763985097
v 0.138954902794 -0.0892458658075 0.0329948638039
v 0.138954902794 -0.0946523867689 0.0384053790645
v 0.139034725914 -0.078753083509 0.0326662093813
v 0.141459870013 -0.105468610591 0.059763985097
v 0.139840573367 -0.100331622621 0.059763985097
v 0.138958703665 -0.0946523867689 0.0329948638039
v 0.139756949376 -0.100058917402 0.059763985097
v 0.140281508218 -0.0946523867689 0.0275843485433
v 0.142250509147 -0.0946523867689 0.0221779339676
v 0.142330332267 -0.078753083509 0.0219725225357
v 0.143599922212 -0.078753083509 0.0187927702037
v 0.140281508218 -0.078753083509 0.0275843485433
v 0.140399344881 -0.078753083509 0.0272597948056
v 0.142250509147 -0.078753083509 0.0221779339676
f 1 2 3
f 1 3 7
f 1 7 13
f 1 13 12
f 1 12 20
f 1 20 29
f 1 29 37
f 1 37 45
f 1 45 54
f 1 54 64
f 1 64 74
f 1 74 81
f 1 81 79
f 1 79 78
f 1 78 69
f 1 69 68
f 1 68 59
f 1 59 49
f 1 49 48
f 1 48 39
f 1 39 32
f 1 32 31
f 1 31 23
f 1 23 21
f 1 21 14
f 1 14 8
f 1 8 4
f 1 4 9
f 1 9 5
f 1 5 2
f 2 6 7
f 2 7 3
f 2 5 10
f 2 10 18
f 2 18 27
f 2 27 36
f 2 36 44
f 2 44 43
f 2 43 52
f 2 52 62
f 2 62 63
f 2 63 73
f 2 73 85
f 2 85 84
f 2 84 88
f 2 88 87
f 2 87 86
f 2 86 77
f 2 77 66
f 2 66 55
f 2 55 45
f 2 45 37
f 2 37 28
f 2 28 19
f 2 19 11
f 2 11 6
f 4 8 9
f 5 9 10
f 6 11 12
f 6 12 13
f 6 13 7
f 8 14 9
f 9 15 16
f 9 16 17
f 9 17 10
f 9 14 15
f 10 17 18
f 11 19 20
f 11 20 12
f 14 21 15
f 15 22 16
f 15 21 23
f 15 23 22
f 16 24 25
f 16 25 17
f 16 22 24
f 17 25 26
f 17 26 27
f 17 27 18
f 19 28 29
f 19 29 20
f 22 30 24
f 22 23 31
f 22 31 32
f 22 32 30
f 24 33 34
f 24 34 25
f 24 30 33
f 25 34 35
f 25 35 26
f 26 35 36
f 26 36 27
f 28 37 29
f 30 38 40
f 30 40 33
f 30 32 39
f 30 39 48
f 30 48 38
f 33 40 51
f 33 51 41
f 33 41 34
f 34 41 42
f 34 42 35
f 35 42 43
f 35 43 44
f 35 44 36
f 38 46 47
f 38 47 40
f 38 48 49
f 38 49 46
f 40 47 50
f 40 50 51
f 41 51 53
f 41 53 42
f 42 52 43
f 42 53 62
f 42 62 52
f 45 55 54
f 46 56 57
f 46 57 58
f 46 58 47
f 46 49 59
f 46 59 68
f 46 68 56
f 47 58 60
f 47 60 50
f 50 60 61
f 50 61 53
f 50 53 51
f 53 61 63
f 53 63 62
f 54 55 65
f 54 65 64
f 55 66 75
f 55 75 65
f 56 67 57
f 56 68 69
f 56 69 67
f 57 67 58
f 58 67 70
f 58 70 60
f 60 71 72
f 60 72 61
f 60 70 71
f 61 73 63
f 61 72 85
f 61 85 73
f 64 65 76
f 64 76 74
f 65 75 76
f 66 77 75
f 67 69 78
f 67 78 79
f 67 79 70
f 70 76 80
f 70 80 71
f 70 79 81
f 70 81 74
f 70 74 76
f 71 80 82
f 71 82 72
f 72 83 84
f 72 84 85
f 72 82 83
f 75 77 82
f 75 82 80
f 75 80 76
f 77 86 82
f 82 86 87
f 82 87 83
f 83 88 84
f 83 87 88
