v 0.152431861834 0.185887887166 0.259124503448
v 0.152431861834 0.185887887166 0.223830836743
v 0.15241470714 0.185887887166 0.259124503448
v 0.152431861834 -0.0714649091091 0.259124503448
v 0.152431861834 0.185862683428 0.222927022573
v 0.15241470714 0.185887887166 0.222918811532
v 0.147007095726 0.185887887166 0.258968387278
v 0.148533841654 -0.0714900935043 0.259013581855
v 0.15241470714 -0.0714900935043 0.259124503448
v 0.152431861834 -0.0714900935043 0.258175504373
v 0.151465934135 0.185887887166 0.217159094903
v 0.152431861834 -0.0714900935043 0.226801076958
v 0.143598638331 0.185887887166 0.258130309796
v 0.144560606789 -0.0714900935043 0.258368584736
v 0.147007095726 -0.0714900935043 0.258968387278
v 0.138960338136 0.185887887166 0.217159094903
v 0.148358339109 -0.0714900935043 0.217159094903
v 0.143420495486 0.185887887166 0.257686623424
v 0.143598638331 -0.0714900935043 0.258130309796
v 0.138951101923 0.185887887166 0.233115396716
v 0.138965618735 -0.0714900935043 0.217159094903
v 0.138951101923 -0.0714900935043 0.233115396716
v 0.142248715097 0.185887887166 0.254745146032
v 0.142248715097 -0.0714900935043 0.254745146032
v 0.142630071542 -0.0714900935043 0.255702356148
v 0.138952422073 0.185887887166 0.238517700936
v 0.138952422073 -0.0714900935043 0.24004595077
v 0.140279912432 0.185887887166 0.249338731457
v 0.140279912432 -0.0714900935043 0.249338731457
v 0.138953742223 0.185887887166 0.243217492061
v 0.138955059955 -0.0714900935043 0.243928216196
v 0.140105730037 0.185887887166 0.248628016993
v 0.139328500337 -0.0714900935043 0.245456475703
v 0.138955059955 0.185887887166 0.243928216196
f 1 2 6
f 1 6 11
f 1 11 16
f 1 16 20
f 1 20 26
f 1 26 30
f 1 30 34
f 1 34 32
f 1 32 28
f 1 28 23
f 1 23 18
f 1 18 13
f 1 13 7
f 1 7 3
f 1 3 9
f 1 9 4
f 1 4 10
f 1 10 12
f 1 12 5
f 1 5 2
f 2 5 6
f 3 7 8
f 3 8 9
f 4 9 10
f 5 11 6
f 5 12 11
f 7 13 14
f 7 14 15
f 7 15 8
f 8 15 14
f 8 14 19
f 8 19 25
f 8 25 24
f 8 24 29
f 8 29 33
f 8 33 31
f 8 31 27
f 8 27 22
f 8 22 21
f 8 21 17
f 8 17 12
f 8 12 10
f 8 10 9
f 11 12 17
f 11 17 21
f 11 21 16
f 13 18 19
f 13 19 14
f 16 21 22
f 16 22 20
f 18 23 24
f 18 24 25
f 18 25 19
f 20 22 27
f 20 27 26
f 23 28 29
f 23 29 24
f 26 27 30
f 27 31 30
f 28 32 29
f 29 32 33
f 30 31 34
f 31 33 34
f 32 34 33
