v 0.18884874265 -0.102108060608 0.0870882462835
v 0.18884874265 -0.101987661017 0.0816790608441
v 0.188849076314 -0.101381514019 0.205022648799
v 0.18884874265 -0.102108060608 0.189805766243
v 0.185443348679 -0.101514360736 0.0871024777879
v 0.18884874265 -0.101313697975 0.0708749359768
v 0.18884874265 -0.101997351786 0.195200715343
v 0.18884874265 -0.1012555727 0.0706044745288
v 0.18884874265 -0.099293191863 0.0667611075814
v 0.18884874265 -0.0946515646976 0.0657504434898
v 0.188849076314 -0.0893221346786 0.205022648799
v 0.188849076314 -0.101359366452 0.205791324123
v 0.185443348679 -0.101514360736 0.189820002584
v 0.187145045881 -0.101748244849 0.192894694207
v 0.185443348679 -0.100205188059 0.0814228405719
v 0.187145045881 -0.0984725326207 0.0674586060403
v 0.187145045881 -0.0983618237991 0.0672450899527
v 0.18884874265 -0.093127879776 0.0660778454627
v 0.187042023426 -0.0983050815386 0.0672877941374
v 0.187145045881 -0.0946529477116 0.0667753439215
v 0.187145045881 -0.0946515646976 0.0667753439215
v 0.187145045881 -0.0914754971792 0.0674016703512
v 0.188849076314 -0.0893484312878 0.206061780735
v 0.18884874265 -0.0904154217685 0.0671312089032
v 0.18884874265 -0.0893484312878 0.0708749359768
v 0.18884874265 -0.0886301827829 0.0774655974107
v 0.18884874265 -0.0880863101017 0.082917482199
v 0.18884874265 -0.0879700595526 0.0870882462835
v 0.18884874265 -0.0879700595526 0.189805766243
v 0.188849076314 -0.101316464003 0.206061780735
v 0.185443348679 -0.101497754897 0.190602909412
v 0.185443348679 -0.0993250205284 0.0786613097453
v 0.187157714241 -0.0913246519367 0.0674301381957
v 0.186864319422 -0.0946529477116 0.0669603921645
v 0.185443348679 -0.0979134371138 0.0770812597488
v 0.185443348679 -0.0955262001724 0.0751311035949
v 0.185443348679 -0.0946529477116 0.0744620778163
v 0.188849076314 -0.0895560187908 0.207485250333
v 0.18884874265 -0.0883700117329 0.195271887372
v 0.185443348679 -0.0887782619973 0.189820002584
v 0.185443348679 -0.088794867837 0.0864903876984
v 0.187145045881 -0.0884392011196 0.0847110531188
v 0.185443348679 -0.0887782619973 0.0871024777879
v 0.188849076314 -0.0992945748771 0.21016137279
v 0.18704235709 -0.0983064645526 0.209663158914
v 0.185443348679 -0.100126307903 0.196524540231
v 0.185443348679 -0.0904444844058 0.0795011570982
v 0.185443348679 -0.090003022462 0.0806541652481
v 0.185443348679 -0.0899324403899 0.0808534498313
v 0.185443348679 -0.089889537941 0.19541423143
v 0.187157714241 -0.0913232689227 0.209506578516
v 0.188849076314 -0.0904154217685 0.209791271468
v 0.188849076314 -0.096263820545 0.210972747463
v 0.188849076314 -0.0946529477116 0.211172036882
v 0.186864319422 -0.0946529477116 0.209990556052
v 0.185443348679 -0.0946529477116 0.202474638895
v 0.185443348679 -0.0993250205284 0.198261170626
v 0.185443348679 -0.0904444844058 0.197421323273
v 0.185443348679 -0.0920498155117 0.199584995515
f 1 2 3
f 1 3 4
f 1 4 13
f 1 13 5
f 1 5 2
f 2 5 6
f 2 6 3
f 3 7 4
f 3 6 8
f 3 8 9
f 3 9 10
f 3 10 11
f 3 11 23
f 3 23 38
f 3 38 52
f 3 52 54
f 3 54 53
f 3 53 44
f 3 44 30
f 3 30 12
f 3 12 7
f 4 7 14
f 4 14 13
f 5 13 31
f 5 31 46
f 5 46 57
f 5 57 56
f 5 56 59
f 5 59 58
f 5 58 50
f 5 50 40
f 5 40 43
f 5 43 41
f 5 41 49
f 5 49 48
f 5 48 47
f 5 47 37
f 5 37 36
f 5 36 35
f 5 35 32
f 5 32 15
f 5 15 8
f 5 8 6
f 7 12 14
f 8 15 16
f 8 16 9
f 9 17 10
f 9 16 17
f 10 18 11
f 10 17 19
f 10 19 20
f 10 20 21
f 10 21 22
f 10 22 18
f 11 18 24
f 11 24 25
f 11 25 26
f 11 26 27
f 11 27 28
f 11 28 29
f 11 29 23
f 12 30 31
f 12 31 14
f 13 14 31
f 15 32 19
f 15 19 16
f 16 19 17
f 18 22 33
f 18 33 24
f 19 34 20
f 19 32 35
f 19 35 36
f 19 36 37
f 19 37 34
f 20 34 21
f 21 34 22
f 22 37 33
f 22 34 37
f 23 29 39
f 23 39 40
f 23 40 38
f 24 33 25
f 25 33 41
f 25 41 26
f 26 41 42
f 26 42 27
f 27 42 28
f 28 42 41
f 28 41 43
f 28 43 40
f 28 40 29
f 29 40 39
f 30 44 45
f 30 45 46
f 30 46 31
f 33 37 47
f 33 47 48
f 33 48 49
f 33 49 41
f 38 40 50
f 38 50 51
f 38 51 52
f 44 53 45
f 45 53 54
f 45 54 55
f 45 55 56
f 45 56 57
f 45 57 46
f 50 58 51
f 51 55 54
f 51 54 52
f 51 58 59
f 51 59 56
f 51 56 55
