v 0.154537989086 -0.0786078960511 0.205033785447
v 0.168644306548 -0.0792385697871 0.205033785447
v 0.154537989086 -0.0786078960511 0.173669691951
v 0.154537989086 -0.111147836771 0.205033785447
v 0.169678911198 -0.0793341234831 0.205033785447
v 0.168644306548 -0.0792385697871 0.173669691951
v 0.154537989086 -0.111147836771 0.173669691951
v 0.168644306548 -0.111147836771 0.205033785447
v 0.174050266566 -0.0797418224762 0.205033785447
v 0.173998838755 -0.0797354586774 0.173669691951
v 0.168644306548 -0.111147836771 0.173669691951
v 0.173012636724 -0.110536273775 0.205033785447
v 0.174050266566 -0.0797418224762 0.173669691951
v 0.177141979296 -0.0806878330801 0.205033785447
v 0.177148029378 -0.0806878330801 0.19525150484
v 0.177151054721 -0.0806878330801 0.189841468315
v 0.174050266566 -0.11038975166 0.173669691951
v 0.174050266566 -0.11038975166 0.205033785447
v 0.177114753021 -0.0806782777106 0.173669691951
v 0.177662306889 -0.0838347992756 0.205033785447
v 0.185443016224 -0.0946517194404 0.202497637548
v 0.185443016224 -0.0920494189832 0.199608395532
v 0.185443016224 -0.0904440782059 0.197434553785
v 0.185443016224 -0.0898898570981 0.195426514142
v 0.185443016224 -0.0887782233116 0.189841468315
v 0.177141979296 -0.0806878330801 0.173669691951
v 0.177266010508 -0.108902266888 0.173669691951
v 0.177305337552 -0.108902266888 0.189841468315
v 0.176651903322 -0.109188947319 0.205033785447
v 0.178037426473 -0.0892432545223 0.205033785447
v 0.178385319781 -0.0946517194404 0.205033785447
v 0.178279438814 -0.099021801958 0.205033785447
v 0.177982973318 -0.104430266876 0.205033785447
v 0.177383992243 -0.108246118615 0.205033785447
v 0.177266010508 -0.108902266888 0.205033785447
v 0.185443016224 -0.0993275834564 0.198285054215
v 0.185443016224 -0.0888100713198 0.18924580998
v 0.177656256203 -0.0838347992756 0.173669691951
v 0.185443016224 -0.0902020023953 0.183961656745
v 0.185443016224 -0.0905364500024 0.183065105817
v 0.185443016224 -0.0946517194404 0.179485024119
v 0.177783312758 -0.105468639605 0.173669691951
v 0.185443016224 -0.097279504107 0.180498251139
v 0.185443016224 -0.0992798066085 0.182466376803
v 0.185443016224 -0.10151581145 0.189841468315
v 0.185443016224 -0.101499882611 0.190618277309
v 0.185443016224 -0.100127062274 0.196544139378
v 0.177662306889 -0.0838857676944 0.173669691951
v 0.177989024004 -0.100056992788 0.173669691951
v 0.178113055216 -0.0946517194404 0.173669691951
v 0.177913394656 -0.0892942229411 0.173669691951
f 1 2 6
f 1 6 3
f 1 3 7
f 1 7 4
f 1 4 8
f 1 8 12
f 1 12 18
f 1 18 29
f 1 29 35
f 1 35 34
f 1 34 33
f 1 33 32
f 1 32 31
f 1 31 30
f 1 30 20
f 1 20 14
f 1 14 9
f 1 9 5
f 1 5 2
f 2 5 6
f 3 6 10
f 3 10 13
f 3 13 19
f 3 19 26
f 3 26 38
f 3 38 48
f 3 48 51
f 3 51 50
f 3 50 49
f 3 49 42
f 3 42 27
f 3 27 17
f 3 17 11
f 3 11 7
f 4 7 11
f 4 11 8
f 5 9 10
f 5 10 6
f 8 11 12
f 9 13 10
f 9 14 15
f 9 15 16
f 9 16 13
f 11 17 12
f 12 17 18
f 13 16 19
f 14 20 21
f 14 21 22
f 14 22 23
f 14 23 24
f 14 24 25
f 14 25 15
f 15 25 16
f 16 26 19
f 16 25 26
f 17 27 28
f 17 28 18
f 18 28 29
f 20 30 21
f 21 30 31
f 21 31 32
f 21 32 33
f 21 33 34
f 21 34 35
f 21 35 36
f 21 36 47
f 21 47 46
f 21 46 45
f 21 45 44
f 21 44 43
f 21 43 41
f 21 41 40
f 21 40 39
f 21 39 37
f 21 37 25
f 21 25 24
f 21 24 23
f 21 23 22
f 25 37 26
f 26 37 39
f 26 39 40
f 26 40 41
f 26 41 38
f 27 42 41
f 27 41 43
f 27 43 44
f 27 44 45
f 27 45 28
f 28 45 35
f 28 35 29
f 35 45 46
f 35 46 47
f 35 47 36
f 38 41 48
f 41 42 49
f 41 49 50
f 41 50 51
f 41 51 48
