v 0.177782452001 0.21363963992 0.249338731457
v 0.177265510616 0.217075878488 0.249338731457
v 0.177178086964 0.216951523284 0.254745146032
v 0.177600001745 0.21363963992 0.254745146032
v 0.177782452001 0.185891146436 0.249338731457
v 0.177782452001 0.21363963992 0.217159094903
v 0.17729211792 0.216902431122 0.217159094903
v 0.174049837397 0.218561661089 0.249338731457
v 0.177265510616 0.217075878488 0.217159094903
v 0.177105868002 0.217151160874 0.217159094903
v 0.174049837397 0.218227842124 0.254745146032
v 0.176976632354 0.216666815824 0.257694844137
v 0.17708686244 0.21363963992 0.257818087128
v 0.177535384525 0.185891146436 0.255147748184
v 0.177600001745 0.185891146436 0.254745146032
v 0.177782452001 0.185891146436 0.233115396716
v 0.177782452001 0.197417291665 0.217159094903
v 0.168640967488 0.219320906771 0.249338731457
v 0.174049837397 0.218561661089 0.217159094903
v 0.173776162617 0.218600927081 0.217159094903
v 0.168640967488 0.21889546071 0.254745146032
v 0.174049837397 0.217118432766 0.258052251711
v 0.174049837397 0.21363963992 0.25865616461
v 0.176687754092 0.185891146436 0.257929008721
v 0.17708686244 0.185891146436 0.257818087128
v 0.177402348006 0.185891146436 0.22885107125
v 0.177140077048 0.188856135067 0.217159094903
v 0.17763040992 0.191847304249 0.217159094903
v 0.177653216353 0.192007656504 0.217159094903
v 0.15241815984 0.219320906771 0.249338731457
v 0.168640967488 0.219320906771 0.217159094903
v 0.15241815984 0.21889546071 0.254745146032
v 0.168640967488 0.217406428511 0.258286425966
v 0.168640967488 0.21363963992 0.259124503448
v 0.173339044353 0.185891146436 0.258717781269
v 0.174049837397 0.185891146436 0.25865616461
v 0.177311123483 0.185891146436 0.22823894731
v 0.174049837397 0.187890713909 0.217159094903
v 0.14700929114 0.218987087807 0.249338731457
v 0.14700929114 0.218633655189 0.254745146032
v 0.15241815984 0.219320906771 0.217159094903
v 0.14700929114 0.217311513129 0.258208367881
v 0.15241815984 0.217406428511 0.258286425966
v 0.15241815984 0.21363963992 0.259124503448
v 0.168640967488 0.185891146436 0.259124503448
v 0.174049837397 0.185891146436 0.225765799085
v 0.168640967488 0.187373640752 0.217159094903
v 0.143333692014 0.217498055607 0.243928216196
v 0.143345094626 0.217498055607 0.249338731457
v 0.143478132354 0.217357336349 0.254745146032
v 0.14700929114 0.218987087807 0.217159094903
v 0.146823038804 0.218911824764 0.217159094903
v 0.143835428706 0.216928621345 0.257904356254
v 0.14700929114 0.21363963992 0.258968387278
v 0.15241815984 0.185891146436 0.259124503448
v 0.151467901062 0.185891146436 0.217159094903
v 0.14145978297 0.21363963992 0.243928216196
v 0.143333692014 0.217498055607 0.217159094903
v 0.141551008702 0.213832729954 0.217159094903
v 0.139756920361 0.208230014431 0.243928216196
v 0.143599765052 0.21363963992 0.258130309796
v 0.142622897761 0.21363963992 0.254745146032
v 0.14700929114 0.185891146436 0.258968387278
v 0.138962504535 0.185891146436 0.217159094903
v 0.14145978297 0.21363963992 0.217159094903
v 0.139840544352 0.208504915064 0.217159094903
v 0.138958703665 0.202823648212 0.243928216196
v 0.139756920361 0.208230014431 0.217159094903
v 0.138954902794 0.202823648212 0.238517700936
v 0.140281462279 0.202823648212 0.249338731457
v 0.142250397925 0.202823648212 0.254745146032
v 0.143421114457 0.185891146436 0.257686623424
v 0.143599765052 0.185891146436 0.258130309796
v 0.138958703665 0.186601299957 0.217159094903
v 0.138951101923 0.185891146436 0.233115396716
v 0.138954902794 0.197417291665 0.243928216196
v 0.138954902794 0.202823648212 0.217159094903
v 0.138951101923 0.197417291665 0.233115396716
v 0.140106614973 0.185891146436 0.248628016993
v 0.140281462279 0.185891146436 0.249338731457
v 0.142250397925 0.185891146436 0.254745146032
v 0.138951101923 0.192007656504 0.217159094903
v 0.138954902794 0.185891146436 0.243928216196
v 0.138951101923 0.197417291665 0.217159094903
f 1 2 3
f 1 3 4
f 1 4 15
f 1 15 5
f 1 5 16
f 1 16 17
f 1 17 6
f 1 6 7
f 1 7 2
f 2 8 3
f 2 7 9
f 2 9 10
f 2 10 8
f 3 8 11
f 3 11 12
f 3 12 4
f 4 12 13
f 4 13 14
f 4 14 15
f 5 15 14
f 5 14 25
f 5 25 24
f 5 24 36
f 5 36 35
f 5 35 45
f 5 45 55
f 5 55 63
f 5 63 73
f 5 73 72
f 5 72 81
f 5 81 80
f 5 80 79
f 5 79 83
f 5 83 75
f 5 75 64
f 5 64 56
f 5 56 46
f 5 46 37
f 5 37 26
f 5 26 16
f 6 17 29
f 6 29 28
f 6 28 27
f 6 27 38
f 6 38 47
f 6 47 56
f 6 56 64
f 6 64 74
f 6 74 82
f 6 82 84
f 6 84 77
f 6 77 68
f 6 68 66
f 6 66 65
f 6 65 59
f 6 59 58
f 6 58 52
f 6 52 51
f 6 51 41
f 6 41 31
f 6 31 20
f 6 20 19
f 6 19 10
f 6 10 9
f 6 9 7
f 8 18 11
f 8 10 19
f 8 19 20
f 8 20 18
f 11 21 22
f 11 22 12
f 11 18 21
f 12 22 23
f 12 23 13
f 13 24 25
f 13 25 14
f 13 23 24
f 16 26 27
f 16 27 28
f 16 28 29
f 16 29 17
f 18 30 32
f 18 32 21
f 18 20 31
f 18 31 41
f 18 41 30
f 21 32 43
f 21 43 33
f 21 33 22
f 22 33 34
f 22 34 23
f 23 35 36
f 23 36 24
f 23 34 35
f 26 37 27
f 27 37 38
f 30 39 40
f 30 40 32
f 30 41 51
f 30 51 39
f 32 40 42
f 32 42 43
f 33 43 44
f 33 44 34
f 34 44 55
f 34 55 45
f 34 45 35
f 37 46 38
f 38 46 47
f 39 48 49
f 39 49 50
f 39 50 40
f 39 51 52
f 39 52 48
f 40 50 53
f 40 53 42
f 42 53 54
f 42 54 44
f 42 44 43
f 44 54 63
f 44 63 55
f 46 56 47
f 48 57 49
f 48 52 58
f 48 58 59
f 48 59 57
f 49 57 50
f 50 57 60
f 50 60 53
f 53 61 54
f 53 60 62
f 53 62 61
f 54 61 73
f 54 73 63
f 57 59 65
f 57 65 66
f 57 66 60
f 60 67 62
f 60 66 68
f 60 68 77
f 60 77 69
f 60 69 67
f 61 62 70
f 61 70 71
f 61 71 72
f 61 72 73
f 62 67 70
f 64 75 74
f 67 76 70
f 67 69 76
f 69 77 84
f 69 84 78
f 69 78 76
f 70 76 79
f 70 79 80
f 70 80 81
f 70 81 71
f 71 81 72
f 74 75 82
f 75 78 84
f 75 84 82
f 75 83 76
f 75 76 78
f 76 83 79
