v 0.138951101923 -0.0892460205503 0.205035540811
v 0.138954960823 -0.0946496594265 0.205035540811
v 0.138951101923 -0.0892460205503 0.22296116271
v 0.138951101923 -0.0838346155185 0.205035540811
v 0.138954960823 -0.0946496594265 0.22296116271
v 0.139754014098 -0.100057176545 0.205035540811
v 0.138951101923 -0.0838346155185 0.22296116271
v 0.138966542356 -0.0714900935043 0.205035540811
v 0.139754014098 -0.100057176545 0.22296116271
v 0.141460203677 -0.105468581577 0.205035540811
v 0.1412478941 -0.104800885619 0.22296116271
v 0.138966542356 -0.0714900935043 0.22296116271
v 0.148362154487 -0.0714900935043 0.205035540811
v 0.141460203677 -0.105468581577 0.22296116271
v 0.143336238017 -0.109327210035 0.205035540811
v 0.148493400583 -0.0714900935043 0.22296116271
v 0.174047614177 -0.0790520853372 0.22296116271
v 0.177139597103 -0.0806863726947 0.205035540811
v 0.143336238017 -0.109327210035 0.22296116271
v 0.147007240797 -0.110813998464 0.205035540811
v 0.176649357319 -0.0800924407088 0.22296116271
v 0.177162757752 -0.0803835796672 0.22296116271
v 0.177660717753 -0.0838346155185 0.205035540811
v 0.147007240797 -0.110813998464 0.22296116271
v 0.152419176549 -0.111147836771 0.205035540811
v 0.177660717753 -0.0838346155185 0.22296116271
v 0.178039011982 -0.0892460205503 0.205035540811
v 0.152419176549 -0.111147836771 0.22296116271
v 0.168639539743 -0.111147836771 0.205035540811
v 0.177780382316 -0.0892460205503 0.22296116271
v 0.178386426555 -0.0946496594265 0.205035540811
v 0.168639539743 -0.111147836771 0.22296116271
v 0.174047614177 -0.110390854203 0.205035540811
v 0.177780382316 -0.105468581577 0.22296116271
v 0.178282202425 -0.0990206994154 0.205035540811
v 0.174047614177 -0.110390854203 0.22296116271
v 0.177266981882 -0.108904085117 0.205035540811
v 0.174445210156 -0.110208412409 0.22296116271
v 0.177718619376 -0.105887828253 0.22296116271
v 0.177981110359 -0.104432104447 0.205035540811
v 0.177266981882 -0.108904085117 0.22296116271
v 0.177386646445 -0.108244164986 0.205035540811
f 1 2 5
f 1 5 3
f 1 3 7
f 1 7 4
f 1 4 8
f 1 8 13
f 1 13 18
f 1 18 23
f 1 23 27
f 1 27 31
f 1 31 35
f 1 35 40
f 1 40 42
f 1 42 37
f 1 37 33
f 1 33 29
f 1 29 25
f 1 25 20
f 1 20 15
f 1 15 10
f 1 10 6
f 1 6 2
f 2 6 9
f 2 9 5
f 3 5 9
f 3 9 11
f 3 11 14
f 3 14 19
f 3 19 24
f 3 24 28
f 3 28 32
f 3 32 36
f 3 36 38
f 3 38 41
f 3 41 39
f 3 39 34
f 3 34 30
f 3 30 26
f 3 26 22
f 3 22 21
f 3 21 17
f 3 17 16
f 3 16 12
f 3 12 7
f 4 7 12
f 4 12 8
f 6 10 11
f 6 11 9
f 8 12 16
f 8 16 13
f 10 14 11
f 10 15 19
f 10 19 14
f 13 16 17
f 13 17 18
f 15 20 24
f 15 24 19
f 17 21 18
f 18 21 22
f 18 22 23
f 20 25 28
f 20 28 24
f 22 26 23
f 23 26 27
f 25 29 32
f 25 32 28
f 26 30 31
f 26 31 27
f 29 33 36
f 29 36 32
f 30 34 31
f 31 34 35
f 33 37 38
f 33 38 36
f 34 39 40
f 34 40 35
f 37 41 38
f 37 42 41
f 39 41 40
f 40 41 42
