v 0.152723549645 0.186448230286 0.0718877519608
v 0.153880378009 0.186422987863 0.0561014689935
v 0.152748379825 0.186448230286 0.060036066509
v 0.13895844979 0.186448230286 0.0718877519608
v 0.148359146673 -0.0714900935043 0.0718877519608
v 0.142718144389 0.186448230286 0.0561014689935
v 0.148359146673 -0.0714900935043 0.0561014689935
v 0.13895844979 0.186448230286 0.0561014689935
v 0.138965754135 -0.0714900935043 0.0718877519608
v 0.138965754135 -0.0714900935043 0.0561014689935
f 1 2 3
f 1 3 6
f 1 6 8
f 1 8 4
f 1 4 9
f 1 9 5
f 1 5 2
f 2 6 3
f 2 5 7
f 2 7 10
f 2 10 8
f 2 8 6
f 4 8 10
f 4 10 9
f 5 9 10
f 5 10 7
