v 0.155108124527 0.186448230286 0.0484790500864
v 0.155108124527 0.186448230286 0.0177974740091
v 0.13895426448 0.186448230286 0.0484790500864
v 0.155108124527 -0.0714900935043 0.0484790500864
v 0.152414760333 0.186448230286 0.0177974740091
v 0.155108124527 -0.0714900935043 0.0177974740091
v 0.138951101923 0.186448230286 0.0438084860122
v 0.13895426448 0.185842267046 0.0484790500864
v 0.138957427036 -0.0714900935043 0.0484790500864
v 0.147156137247 0.186448230286 0.0179476519232
v 0.152414760333 -0.0714900935043 0.0177974740091
v 0.15088857293 -0.0714900935043 0.0178395253725
v 0.138952683202 0.186448230286 0.0382488566946
v 0.138951101923 -0.0714900935043 0.0438084860122
v 0.147007470494 0.186448230286 0.0179536578791
v 0.147007470494 -0.0714900935043 0.0179536578791
v 0.13895426448 0.186448230286 0.0329955988323
v 0.13895426448 -0.0714900935043 0.0329955988323
v 0.138952683202 -0.0714900935043 0.0383990346086
v 0.143694143669 0.186448230286 0.0187676341656
v 0.143599250048 -0.0714900935043 0.0187916579896
v 0.140281179389 0.186448230286 0.0275861474287
v 0.139906353576 -0.0714900935043 0.0291119600641
v 0.143599250048 0.186448230286 0.0187916579896
v 0.143218099121 -0.0714900935043 0.0197467984204
v 0.140334950104 0.186448230286 0.0274359695147
v 0.140281179389 -0.0714900935043 0.0275861474287
v 0.142248615965 0.186448230286 0.022176696025
v 0.142248615965 -0.0714900935043 0.022176696025
v 0.141693492997 -0.0714900935043 0.0237025183319
f 1 2 5
f 1 5 10
f 1 10 15
f 1 15 20
f 1 20 24
f 1 24 28
f 1 28 26
f 1 26 22
f 1 22 17
f 1 17 13
f 1 13 7
f 1 7 3
f 1 3 8
f 1 8 9
f 1 9 4
f 1 4 6
f 1 6 2
f 2 6 11
f 2 11 5
f 3 7 14
f 3 14 8
f 4 9 14
f 4 14 19
f 4 19 18
f 4 18 23
f 4 23 27
f 4 27 30
f 4 30 29
f 4 29 25
f 4 25 21
f 4 21 16
f 4 16 12
f 4 12 11
f 4 11 6
f 5 11 12
f 5 12 10
f 7 13 14
f 8 14 9
f 10 12 16
f 10 16 15
f 13 17 18
f 13 18 19
f 13 19 14
f 15 16 20
f 16 21 20
f 17 22 23
f 17 23 18
f 20 21 24
f 21 25 24
f 22 26 27
f 22 27 23
f 24 25 28
f 25 29 28
f 26 28 29
f 26 29 30
f 26 30 27
