v 0.138951101923 -0.0892460205503 0.222964702452
v 0.138954902794 -0.0946496594265 0.222964702452
v 0.138951101923 -0.0892460205503 0.233114671359
v 0.138951101923 -0.0838346155185 0.222964702452
v 0.138954902794 -0.0946496594265 0.238524209806
v 0.139658092888 -0.0993933685009 0.222964702452
v 0.138954902794 -0.0892460205503 0.24393020851
v 0.138951101923 -0.0714900935043 0.233114671359
v 0.138958703665 -0.0714900935043 0.227705132913
v 0.138966305406 -0.0714900935043 0.222964702452
v 0.138958703665 -0.0946496594265 0.24393020851
v 0.139756920361 -0.100057176545 0.24393020851
v 0.139756920361 -0.100057176545 0.222964702452
v 0.140281462279 -0.0946496594265 0.249336207214
v 0.138954902794 -0.0714900935043 0.24393020851
v 0.148491693576 -0.0714900935043 0.222964702452
v 0.142622897761 -0.105468581577 0.254745745661
v 0.141246924539 -0.104800885619 0.222964702452
v 0.14145978297 -0.105468581577 0.24393020851
v 0.143478132354 -0.109183589349 0.254745745661
v 0.143835428706 -0.108752688603 0.257903669583
v 0.143599765052 -0.105468581577 0.258130242096
v 0.142250397925 -0.0946496594265 0.254745745661
v 0.140836413579 -0.0714900935043 0.250865607949
v 0.140281462279 -0.0714900935043 0.249336207214
v 0.174049837397 -0.0714900935043 0.228023758066
v 0.174049837397 -0.0790520853372 0.222964702452
v 0.14145978297 -0.105468581577 0.222964702452
v 0.143333692014 -0.109327210035 0.24393020851
v 0.143345094626 -0.109327210035 0.249336207214
v 0.14700929114 -0.110813998464 0.249336207214
v 0.14700929114 -0.110460739932 0.254745745661
v 0.14700929114 -0.109140880328 0.258208135767
v 0.14700929114 -0.105468581577 0.258969296392
v 0.144561424024 -0.0714900935043 0.258367443508
v 0.143599765052 -0.0714900935043 0.258130242096
v 0.142630499502 -0.0714900935043 0.25570162112
v 0.142250397925 -0.0714900935043 0.254745745661
v 0.177265510616 -0.0714900935043 0.229638122284
v 0.177162883481 -0.0803835796672 0.222964702452
v 0.176649744176 -0.0800924407088 0.222964702452
v 0.143333692014 -0.109327210035 0.222964702452
v 0.14700929114 -0.110813998464 0.222964702452
v 0.15241815984 -0.111147836771 0.249336207214
v 0.15241815984 -0.110720823939 0.254745745661
v 0.15241815984 -0.109234054853 0.258289559509
v 0.15241815984 -0.105468581577 0.259125064391
v 0.148537306442 -0.0714900935043 0.259015313041
v 0.14700929114 -0.0714900935043 0.258969296392
v 0.177782452001 -0.0714900935043 0.233114671359
v 0.177660818094 -0.0838346155185 0.222964702452
v 0.15241815984 -0.111147836771 0.222964702452
v 0.168640967488 -0.111147836771 0.249336207214
v 0.168640967488 -0.110720823939 0.254745745661
v 0.168640967488 -0.109234054853 0.258289559509
v 0.168640967488 -0.105468581577 0.259125064391
v 0.15241815984 -0.0714900935043 0.259125064391
v 0.177782452001 -0.0892460205503 0.222964702452
v 0.177782452001 -0.0714900935043 0.249336207214
v 0.168640967488 -0.111147836771 0.222964702452
v 0.174049837397 -0.110390854203 0.249336207214
v 0.174049837397 -0.110053127982 0.254745745661
v 0.174049837397 -0.108942906224 0.258052358097
v 0.174049837397 -0.105468581577 0.258657750724
v 0.17016518192 -0.0714900935043 0.258994074588
v 0.168640967488 -0.0714900935043 0.259125064391
v 0.177782452001 -0.105468581577 0.222964702452
v 0.177653216353 -0.0714900935043 0.253219884668
v 0.177782452001 -0.105468581577 0.249336207214
v 0.174049837397 -0.110390854203 0.222964702452
v 0.174445144874 -0.110208412409 0.222964702452
v 0.177265510616 -0.108904085117 0.249336207214
v 0.177178086964 -0.108779865312 0.254745745661
v 0.176976632354 -0.108492604596 0.25769479578
v 0.17708686244 -0.105468581577 0.257818706099
v 0.174049837397 -0.0714900935043 0.258657750724
v 0.177265510616 -0.108904085117 0.222964702452
v 0.177600001745 -0.0714900935043 0.254745745661
v 0.177600001745 -0.105468581577 0.254745745661
v 0.17708686244 -0.0714900935043 0.257818706099
f 1 2 5
f 1 5 3
f 1 3 8
f 1 8 4
f 1 4 10
f 1 10 16
f 1 16 27
f 1 27 41
f 1 41 40
f 1 40 51
f 1 51 58
f 1 58 67
f 1 67 77
f 1 77 71
f 1 71 70
f 1 70 60
f 1 60 52
f 1 52 43
f 1 43 42
f 1 42 28
f 1 28 18
f 1 18 13
f 1 13 6
f 1 6 2
f 2 6 5
f 3 7 15
f 3 15 8
f 3 5 7
f 4 8 9
f 4 9 10
f 5 11 7
f 5 6 12
f 5 12 11
f 6 13 12
f 7 11 14
f 7 14 25
f 7 25 15
f 8 15 25
f 8 25 24
f 8 24 38
f 8 38 37
f 8 37 36
f 8 36 35
f 8 35 49
f 8 49 48
f 8 48 57
f 8 57 66
f 8 66 65
f 8 65 76
f 8 76 80
f 8 80 78
f 8 78 68
f 8 68 59
f 8 59 50
f 8 50 39
f 8 39 26
f 8 26 16
f 8 16 10
f 8 10 9
f 11 12 17
f 11 17 14
f 12 13 18
f 12 18 19
f 12 19 20
f 12 20 21
f 12 21 17
f 14 17 22
f 14 22 23
f 14 23 24
f 14 24 25
f 16 26 27
f 17 21 22
f 18 28 19
f 19 28 42
f 19 42 29
f 19 29 30
f 19 30 20
f 20 30 31
f 20 31 32
f 20 32 21
f 21 32 33
f 21 33 34
f 21 34 22
f 22 34 35
f 22 35 36
f 22 36 37
f 22 37 23
f 23 37 38
f 23 38 24
f 26 39 40
f 26 40 41
f 26 41 27
f 29 42 43
f 29 43 31
f 29 31 30
f 31 43 52
f 31 52 44
f 31 44 32
f 32 44 45
f 32 45 33
f 33 46 47
f 33 47 34
f 33 45 46
f 34 47 48
f 34 48 49
f 34 49 35
f 39 50 51
f 39 51 40
f 44 52 60
f 44 60 53
f 44 53 54
f 44 54 45
f 45 54 55
f 45 55 46
f 46 55 56
f 46 56 47
f 47 56 66
f 47 66 57
f 47 57 48
f 50 58 51
f 50 59 69
f 50 69 67
f 50 67 58
f 53 60 70
f 53 70 61
f 53 61 62
f 53 62 54
f 54 62 63
f 54 63 55
f 55 63 56
f 56 63 64
f 56 64 65
f 56 65 66
f 59 68 69
f 61 70 71
f 61 71 72
f 61 72 73
f 61 73 62
f 62 73 74
f 62 74 63
f 63 74 64
f 64 74 75
f 64 75 80
f 64 80 76
f 64 76 65
f 67 69 72
f 67 72 77
f 68 78 79
f 68 79 69
f 69 79 73
f 69 73 72
f 71 77 72
f 73 79 74
f 74 79 75
f 75 79 78
f 75 78 80
