v 0.148394515081 0.181355450408 0.0718892897177
v 0.148394515081 0.219071906219 0.0718892897177
v 0.174048183583 0.187914670033 0.0718892897177
v 0.174048183583 0.187892377395 0.217159090067
v 0.148394515081 0.181355450408 0.217159090067
v 0.152416475803 0.219320906771 0.0718892897177
v 0.148394515081 0.219071906219 0.217159090067
v 0.177140894283 0.188858610952 0.0718892897177
v 0.177140894283 0.188854887453 0.217159090067
v 0.168639537325 0.219320906771 0.0718892897177
v 0.152416475803 0.219320906771 0.217159090067
v 0.177558050723 0.191404256192 0.0718892897177
v 0.177629973496 0.191846491849 0.217159090067
v 0.174048183583 0.218562782974 0.0718892897177
v 0.168639537325 0.219320906771 0.217159090067
v 0.177655866324 0.192010006661 0.0718892897177
v 0.177655866324 0.192010006661 0.217159090067
v 0.177267478752 0.217076284688 0.0718892897177
v 0.174048183583 0.218562782974 0.217159090067
v 0.177756559174 0.196380350307 0.0718892897177
v 0.177773820253 0.19714590176 0.217159090067
v 0.177779574752 0.213638721134 0.0718892897177
v 0.177267478752 0.217076284688 0.217159090067
v 0.177779574752 0.197417185279 0.0718892897177
v 0.177779574752 0.197417185279 0.217159090067
v 0.177779574752 0.213638721134 0.217159090067
f 1 2 6
f 1 6 10
f 1 10 14
f 1 14 18
f 1 18 22
f 1 22 24
f 1 24 20
f 1 20 16
f 1 16 12
f 1 12 8
f 1 8 3
f 1 3 4
f 1 4 5
f 1 5 7
f 1 7 2
f 2 7 11
f 2 11 6
f 3 8 4
f 4 9 13
f 4 13 17
f 4 17 21
f 4 21 25
f 4 25 26
f 4 26 23
f 4 23 19
f 4 19 15
f 4 15 11
f 4 11 7
f 4 7 5
f 4 8 9
f 6 11 15
f 6 15 10
f 8 12 9
f 9 12 13
f 10 15 19
f 10 19 14
f 12 16 13
f 13 16 17
f 14 19 23
f 14 23 18
f 16 20 17
f 17 20 21
f 18 23 26
f 18 26 22
f 20 24 21
f 21 24 25
f 22 26 25
f 22 25 24
