v 0.148391637831 0.219073279562 0.217159090067
v 0.148391637831 0.219073279562 0.0718892897177
v 0.147006423562 0.218987958235 0.217159090067
v 0.148391637831 0.181330759255 0.217159090067
v 0.147006423562 0.218987958235 0.0718892897177
v 0.148391637831 0.181330759255 0.0718892897177
v 0.143333152832 0.217480530982 0.217159090067
v 0.148359294162 -0.0714900935043 0.217159090067
v 0.143333152832 0.217480530982 0.0718892897177
v 0.148359294162 -0.0714900935043 0.0718892897177
v 0.141815790605 0.214380345478 0.0718892897177
v 0.141457241803 0.21364085852 0.217159090067
v 0.138965887117 -0.0714900935043 0.217159090067
v 0.138965887117 -0.0714900935043 0.0718892897177
v 0.141457241803 0.21364085852 0.0718892897177
v 0.140080342542 0.209260785418 0.0718892897177
v 0.139839156503 0.208492854794 0.217159090067
v 0.138951101923 0.191996505349 0.217159090067
v 0.138951101923 0.191996505349 0.0718892897177
v 0.139754139826 0.208208437478 0.0718892897177
v 0.139754139826 0.208208437478 0.217159090067
v 0.138951101923 0.197400482725 0.217159090067
v 0.138951101923 0.197400482725 0.0718892897177
v 0.139107273704 0.203856808042 0.0718892897177
v 0.138994533883 0.203088877418 0.217159090067
v 0.138953872787 0.202804460101 0.217159090067
v 0.138953872787 0.202804460101 0.0718892897177
f 1 2 5
f 1 5 3
f 1 3 7
f 1 7 12
f 1 12 17
f 1 17 21
f 1 21 25
f 1 25 26
f 1 26 22
f 1 22 18
f 1 18 13
f 1 13 8
f 1 8 4
f 1 4 6
f 1 6 2
f 2 6 10
f 2 10 14
f 2 14 19
f 2 19 23
f 2 23 27
f 2 27 24
f 2 24 20
f 2 20 16
f 2 16 15
f 2 15 11
f 2 11 9
f 2 9 5
f 3 5 9
f 3 9 7
f 4 8 10
f 4 10 6
f 7 9 11
f 7 11 12
f 8 13 14
f 8 14 10
f 11 15 12
f 12 15 16
f 12 16 17
f 13 18 19
f 13 19 14
f 16 20 17
f 17 20 21
f 18 22 23
f 18 23 19
f 20 24 21
f 21 24 25
f 22 26 27
f 22 27 23
f 24 27 25
f 25 27 26
