v 0.157815220937 -0.0787530738375 0.0558693934381
v 0.157815220937 -0.0787530738375 0.0558447506428
v 0.157815220937 -0.0714929369037 0.0497440533577
v 0.155525527587 -0.0787530738375 0.059763985097
v 0.152742811501 -0.0787530738375 0.0177985765518
v 0.157815220937 -0.078752358152 0.0177985765518
v 0.157815220937 -0.0714907995184 0.0495509633233
v 0.148361003587 -0.0714907995184 0.059763985097
v 0.138958486058 -0.0787530738375 0.059763985097
v 0.152414129273 -0.0787530738375 0.0177985765518
v 0.157815220937 -0.0714907995184 0.0177985765518
v 0.13896587261 -0.0714907995184 0.059763985097
v 0.138958486058 -0.0784253285291 0.059763985097
v 0.138954793991 -0.0787530738375 0.0492181985444
v 0.152414129273 -0.0714907995184 0.0177985765518
v 0.147336180527 -0.0787530738375 0.0179423713242
v 0.150888896923 -0.0714907995184 0.0178396607725
v 0.138952946748 -0.0714907995184 0.0438076832838
v 0.138954793991 -0.0784253285291 0.0492181985444
v 0.138952946748 -0.0787530738375 0.0438076832838
v 0.14700749709 -0.0714907995184 0.0179546927218
v 0.14700749709 -0.0787530738375 0.0179546927218
v 0.138952946748 -0.0714907995184 0.0384053790645
v 0.138952946748 -0.0787530738375 0.0380767246419
v 0.146045458514 -0.0714907995184 0.0181888573054
v 0.143598809998 -0.0787530738375 0.0187927702037
v 0.138954793991 -0.0714907995184 0.0329948638039
v 0.138954793991 -0.0787530738375 0.0329948638039
v 0.143598809998 -0.0714907995184 0.0187927702037
v 0.142330245224 -0.0787530738375 0.0219725225357
v 0.143218425532 -0.0714907995184 0.0197458699634
v 0.139905753947 -0.0714907995184 0.0291125983783
v 0.139034193986 -0.0787530738375 0.0326662093813
v 0.142248997986 -0.0787530738375 0.0221779339676
v 0.142248997986 -0.0714907995184 0.0221779339676
v 0.140280599104 -0.0714907995184 0.0275843485433
v 0.140280599104 -0.0787530738375 0.0275843485433
f 1 2 6
f 1 6 11
f 1 11 7
f 1 7 3
f 1 3 4
f 1 4 9
f 1 9 14
f 1 14 20
f 1 20 24
f 1 24 28
f 1 28 33
f 1 33 37
f 1 37 34
f 1 34 30
f 1 30 26
f 1 26 22
f 1 22 16
f 1 16 10
f 1 10 5
f 1 5 2
f 2 5 6
f 3 7 8
f 3 8 4
f 4 8 12
f 4 12 13
f 4 13 9
f 5 10 15
f 5 15 11
f 5 11 6
f 7 11 15
f 7 15 17
f 7 17 21
f 7 21 25
f 7 25 29
f 7 29 31
f 7 31 35
f 7 35 36
f 7 36 32
f 7 32 27
f 7 27 23
f 7 23 18
f 7 18 12
f 7 12 8
f 9 13 19
f 9 19 14
f 10 16 17
f 10 17 15
f 12 18 13
f 13 18 19
f 14 19 18
f 14 18 20
f 16 21 17
f 16 22 21
f 18 23 24
f 18 24 20
f 21 22 25
f 22 26 25
f 23 27 24
f 24 27 28
f 25 26 29
f 26 30 31
f 26 31 29
f 27 32 33
f 27 33 28
f 30 34 35
f 30 35 31
f 32 36 37
f 32 37 33
f 34 37 36
f 34 36 35
