v 0.138954187108 0.185842267046 0.0484790694292
v 0.138958930943 0.186448230286 0.0561007242936
v 0.138954187108 0.186448230286 0.0484790694292
v 0.138957349665 -0.0714900935043 0.0484790694292
v 0.142717535089 0.186448230286 0.0561007242936
v 0.138966837335 -0.0714900935043 0.0561007242936
v 0.155108124527 0.186448230286 0.0484790694292
v 0.155108124527 -0.0714900935043 0.0484790694292
v 0.153879502745 0.186422987863 0.0561007242936
v 0.153882665301 0.186448230286 0.0560940123235
v 0.148357814434 -0.0714900935043 0.0561007242936
v 0.155108124527 0.186448230286 0.0529767083938
v 0.155108124527 -0.0714900935043 0.0499340098497
v 0.155108124527 0.186422987863 0.054627127691
f 1 2 3
f 1 3 7
f 1 7 8
f 1 8 4
f 1 4 2
f 2 5 10
f 2 10 12
f 2 12 7
f 2 7 3
f 2 4 6
f 2 6 11
f 2 11 9
f 2 9 5
f 4 8 13
f 4 13 11
f 4 11 6
f 5 9 10
f 7 12 14
f 7 14 13
f 7 13 8
f 9 14 10
f 9 11 13
f 9 13 14
f 10 14 12
