v 0.154537989086 -0.111144645201 0.0597677327749
v 0.154537989086 -0.0785725373151 0.0597677327749
v 0.168644306548 -0.111144645201 0.0597677327749
v 0.154537989086 -0.111144645201 0.0980183342302
v 0.168644306548 -0.0792006964801 0.0597677327749
v 0.154537989086 -0.0786107974792 0.0980183342302
v 0.173778002002 -0.110427199424 0.0597677327749
v 0.168765313021 -0.111128706689 0.0980183342302
v 0.168644306548 -0.111144645201 0.0980183342302
v 0.174050266566 -0.0797172570523 0.0597677327749
v 0.168644306548 -0.0792389566442 0.0980183342302
v 0.174050266566 -0.0797395787052 0.0980183342302
v 0.174050266566 -0.11038893926 0.0597677327749
v 0.174050266566 -0.11038893926 0.0980183342302
v 0.177141979296 -0.0806834229096 0.0597677327749
v 0.177072400635 -0.0806642928275 0.0980183342302
v 0.177151054721 -0.0806866144804 0.0870767517929
v 0.177266010508 -0.10890302126 0.0597677327749
v 0.177305337552 -0.10890302126 0.0870767517929
v 0.174122870269 -0.110357062238 0.0980183342302
v 0.185443016224 -0.0899305254474 0.0808308380356
v 0.185443016224 -0.0904438944488 0.0794828007303
v 0.185443016224 -0.0946529283688 0.0744276523729
v 0.177656256203 -0.0838370043609 0.0597677327749
v 0.185443016224 -0.0887762309977 0.0870767517929
v 0.185443016224 -0.0887953610798 0.086473878573
v 0.177141979296 -0.0806866144804 0.0980183342302
v 0.177293237388 -0.108730850521 0.0597677327749
v 0.185443016224 -0.0955266160438 0.0751166544834
v 0.185443016224 -0.0979117349427 0.0770713078507
v 0.185443016224 -0.0993274964136 0.0786402743922
v 0.185443016224 -0.10020756723 0.0814000111691
v 0.185443016224 -0.101514912008 0.0870767517929
v 0.177266010508 -0.10890302126 0.0980183342302
v 0.177780288019 -0.105465660806 0.0597677327749
v 0.177783312758 -0.100057698802 0.0597677327749
v 0.177783312758 -0.0943818866351 0.0597677327749
v 0.177780288019 -0.0892449663648 0.0597677327749
v 0.177774237333 -0.0889707427318 0.0597677327749
v 0.185443016224 -0.0904151993257 0.0933938134007
v 0.177154080065 -0.0807567613383 0.0980183342302
v 0.185443016224 -0.0946529283688 0.0974379301524
v 0.185443016224 -0.092529276491 0.0962246931926
v 0.185443016224 -0.090536372631 0.0938581385973
v 0.185443016224 -0.101473460273 0.0878331492404
v 0.185443016224 -0.0997930402099 0.0933301560701
v 0.185443016224 -0.0992796615371 0.0944572641393
v 0.177795413526 -0.105545372705 0.0980183342302
v 0.177671382314 -0.0838370043609 0.0980183342302
v 0.178252212539 -0.0892449663648 0.0980183342302
v 0.178820942601 -0.0946529283688 0.0980183342302
v 0.178817917257 -0.0947740920026 0.0980183342302
v 0.178388345124 -0.100178862436 0.0980183342302
v 0.177807514294 -0.105465660806 0.0980183342302
f 1 2 5
f 1 5 10
f 1 10 15
f 1 15 24
f 1 24 39
f 1 39 38
f 1 38 37
f 1 37 36
f 1 36 35
f 1 35 28
f 1 28 18
f 1 18 13
f 1 13 7
f 1 7 3
f 1 3 9
f 1 9 4
f 1 4 6
f 1 6 2
f 2 6 11
f 2 11 5
f 3 7 8
f 3 8 9
f 4 9 8
f 4 8 14
f 4 14 20
f 4 20 34
f 4 34 48
f 4 48 54
f 4 54 53
f 4 53 52
f 4 52 51
f 4 51 50
f 4 50 49
f 4 49 41
f 4 41 27
f 4 27 16
f 4 16 12
f 4 12 11
f 4 11 6
f 5 11 12
f 5 12 10
f 7 13 14
f 7 14 8
f 10 12 16
f 10 16 17
f 10 17 15
f 13 18 19
f 13 19 20
f 13 20 14
f 15 21 22
f 15 22 23
f 15 23 24
f 15 17 25
f 15 25 26
f 15 26 21
f 16 27 17
f 17 27 25
f 18 28 23
f 18 23 29
f 18 29 30
f 18 30 31
f 18 31 32
f 18 32 33
f 18 33 19
f 19 33 34
f 19 34 20
f 21 26 25
f 21 25 40
f 21 40 44
f 21 44 43
f 21 43 42
f 21 42 47
f 21 47 46
f 21 46 45
f 21 45 33
f 21 33 32
f 21 32 31
f 21 31 30
f 21 30 29
f 21 29 23
f 21 23 22
f 23 28 35
f 23 35 36
f 23 36 37
f 23 37 38
f 23 38 39
f 23 39 24
f 25 27 40
f 27 41 42
f 27 42 43
f 27 43 44
f 27 44 40
f 33 45 34
f 34 46 47
f 34 47 42
f 34 42 48
f 34 45 46
f 41 49 42
f 42 49 50
f 42 50 51
f 42 51 52
f 42 52 53
f 42 53 54
f 42 54 48
