v 0.168640754414 0.185887887166 0.259128604133
v 0.173338156999 0.185887887166 0.258721069554
v 0.152431861834 0.185887887166 0.259128604133
v 0.168640754414 -0.0714900935043 0.259128604133
v 0.17405033608 0.185887887166 0.258657286495
v 0.17405033608 -0.0714900935043 0.258657286495
v 0.152431861834 0.185887887166 0.223829627814
v 0.152431861834 -0.0714649091091 0.259128604133
v 0.153943070615 -0.0714900935043 0.259128604133
v 0.177087642199 0.185887887166 0.257820969213
v 0.177087642199 -0.0714900935043 0.257820969213
v 0.153533629556 0.185887887166 0.223071271903
v 0.152431861834 0.185862683428 0.222929527473
v 0.152431861834 -0.0714900935043 0.258175339959
v 0.177534304952 0.185887887166 0.255149005469
v 0.177234048256 -0.0714900935043 0.256952755565
v 0.168640754414 0.185887887166 0.224308034608
v 0.168640754414 -0.0714900935043 0.227181986099
v 0.152431861834 -0.0714900935043 0.226799268401
v 0.17760130497 0.185887887166 0.254745020304
v 0.17760130497 -0.0714900935043 0.254745020304
v 0.172578830319 0.185887887166 0.225353428793
v 0.17405033608 -0.0714900935043 0.228021852795
v 0.177782450792 0.185887887166 0.249337309757
v 0.177653414617 -0.0714900935043 0.253217679583
v 0.17405033608 0.185887887166 0.225764503114
v 0.1772663073 -0.0714900935043 0.229637783784
v 0.177782450792 0.185887887166 0.233114168445
v 0.177782450792 -0.0714900935043 0.249337309757
v 0.177310973576 0.185887887166 0.228238018853
v 0.177782450792 -0.0714900935043 0.233114168445
v 0.177400306126 0.185887887166 0.228851080921
f 1 2 5
f 1 5 10
f 1 10 15
f 1 15 20
f 1 20 24
f 1 24 28
f 1 28 32
f 1 32 30
f 1 30 26
f 1 26 22
f 1 22 17
f 1 17 12
f 1 12 7
f 1 7 3
f 1 3 8
f 1 8 9
f 1 9 4
f 1 4 2
f 2 4 6
f 2 6 5
f 3 7 13
f 3 13 19
f 3 19 14
f 3 14 8
f 4 9 14
f 4 14 19
f 4 19 18
f 4 18 23
f 4 23 27
f 4 27 31
f 4 31 29
f 4 29 25
f 4 25 21
f 4 21 16
f 4 16 11
f 4 11 6
f 5 6 11
f 5 11 10
f 7 12 13
f 8 14 9
f 10 11 16
f 10 16 15
f 12 17 13
f 13 17 18
f 13 18 19
f 15 16 21
f 15 21 20
f 17 22 23
f 17 23 18
f 20 21 25
f 20 25 24
f 22 26 23
f 23 26 27
f 24 25 29
f 24 29 31
f 24 31 28
f 26 30 27
f 27 30 31
f 28 31 32
f 30 32 31
