v 0.155117002896 0.186448230286 0.0546274081624
v 0.168640364535 0.186448230286 0.0538234031168
v 0.155108124527 0.186448230286 0.0529761281082
v 0.155108124527 0.186422987863 0.0546274081624
v 0.168640364535 -0.0714900935043 0.0497420707152
v 0.174049265876 0.186448230286 0.0523343612458
v 0.170167374916 -0.0714900935043 0.0495113201452
v 0.174049265876 -0.0714900935043 0.0488984031487
v 0.155108124527 0.186448230286 0.0177944758669
v 0.155108124527 -0.0714900935043 0.0499331587642
v 0.174917087226 0.186448230286 0.0516060737999
v 0.174957038076 -0.0714900935043 0.0484477243353
v 0.177267528318 -0.0714900935043 0.0472831781733
v 0.168640364535 0.186448230286 0.0177944758669
v 0.155108124527 -0.0714900935043 0.0177944758669
v 0.177316358142 0.186448230286 0.0488515354148
v 0.177782450792 -0.0714900935043 0.0438075575552
v 0.174049265876 0.186448230286 0.0182667896618
v 0.172522255192 -0.0714900935043 0.0181333820018
v 0.168640364535 -0.0714900935043 0.0177944758669
v 0.177782450792 0.186448230286 0.0438075575552
v 0.177782450792 -0.0714900935043 0.0275867857428
v 0.174133606157 0.186448230286 0.018288414972
v 0.174049265876 -0.0714900935043 0.0182667896618
v 0.177782450792 0.186448230286 0.0275867857428
v 0.177602672268 -0.0714900935043 0.0221786593246
v 0.177087749793 0.186448230286 0.019103242344
v 0.176231026103 -0.0714900935043 0.0188652865612
v 0.177602672268 0.186448230286 0.0221786593246
v 0.177087749793 -0.0714900935043 0.019103242344
v 0.17710328694 0.186448230286 0.0191897725988
f 1 2 6
f 1 6 11
f 1 11 16
f 1 16 21
f 1 21 25
f 1 25 29
f 1 29 31
f 1 31 27
f 1 27 23
f 1 23 18
f 1 18 14
f 1 14 9
f 1 9 3
f 1 3 4
f 1 4 5
f 1 5 2
f 2 5 7
f 2 7 8
f 2 8 6
f 3 9 15
f 3 15 10
f 3 10 4
f 4 10 5
f 5 10 15
f 5 15 20
f 5 20 19
f 5 19 24
f 5 24 28
f 5 28 30
f 5 30 26
f 5 26 22
f 5 22 17
f 5 17 13
f 5 13 12
f 5 12 8
f 5 8 7
f 6 8 12
f 6 12 13
f 6 13 11
f 9 14 20
f 9 20 15
f 11 13 16
f 13 17 16
f 14 18 19
f 14 19 20
f 16 17 21
f 17 22 25
f 17 25 21
f 18 23 24
f 18 24 19
f 22 26 29
f 22 29 25
f 23 27 28
f 23 28 24
f 26 30 31
f 26 31 29
f 27 31 30
f 27 30 28
