v 0.152415694835 -0.111147836771 0.0597639899327
v 0.147006972415 -0.110813998464 0.0597639899327
v 0.154536463419 -0.111147836771 0.0597639899327
v 0.152415694835 -0.111147836771 0.205033790282
v 0.14333300776 -0.109327210035 0.0597639899327
v 0.147006972415 -0.110813998464 0.205033790282
v 0.154536463419 -0.0785746070004 0.0597639899327
v 0.154536463419 -0.111147836771 0.205033790282
v 0.141456354449 -0.105468581577 0.0597639899327
v 0.14333300776 -0.109327210035 0.205033790282
v 0.148358771905 -0.0714900935043 0.0597639899327
v 0.148358771905 -0.0714900935043 0.205033790282
v 0.154536463419 -0.0786095401937 0.205033790282
v 0.139839079131 -0.100328914621 0.0597639899327
v 0.141456354449 -0.105468581577 0.205033790282
v 0.138966358599 -0.0714900935043 0.0597639899327
v 0.138966358599 -0.0714900935043 0.205033790282
v 0.139753636912 -0.100057176545 0.0597639899327
v 0.139753636912 -0.100057176545 0.205033790282
v 0.138952627591 -0.0838346155185 0.0597639899327
v 0.138957204594 -0.0794635658582 0.205033790282
v 0.138954153258 -0.0946496594265 0.0597639899327
v 0.138954153258 -0.0946496594265 0.205033790282
v 0.138952627591 -0.0895177489553 0.0597639899327
v 0.138952627591 -0.0838346155185 0.205033790282
v 0.138952627591 -0.0902824880084 0.205033790282
f 1 2 5
f 1 5 9
f 1 9 14
f 1 14 18
f 1 18 22
f 1 22 24
f 1 24 20
f 1 20 16
f 1 16 11
f 1 11 7
f 1 7 3
f 1 3 8
f 1 8 4
f 1 4 6
f 1 6 2
f 2 6 10
f 2 10 5
f 3 7 13
f 3 13 8
f 4 8 13
f 4 13 12
f 4 12 17
f 4 17 21
f 4 21 25
f 4 25 26
f 4 26 23
f 4 23 19
f 4 19 15
f 4 15 10
f 4 10 6
f 5 10 15
f 5 15 9
f 7 11 12
f 7 12 13
f 9 15 14
f 11 16 17
f 11 17 12
f 14 15 19
f 14 19 18
f 16 20 21
f 16 21 17
f 18 19 23
f 18 23 22
f 20 24 26
f 20 26 25
f 20 25 21
f 22 23 26
f 22 26 24
