v 0.177782450792 -0.0714907995184 0.0438069772696
v 0.177268415671 -0.0714907995184 0.0472845128302
v 0.177317278137 -0.0787530738375 0.0490773148715
v 0.177778541118 -0.0787530738375 0.0441349740352
v 0.177782450792 -0.0787530738375 0.0438069772696
v 0.177782450792 -0.0714907995184 0.027585973343
v 0.174958190185 -0.0714907995184 0.0484474148496
v 0.174049345061 -0.0787530738375 0.053333845168
v 0.177782450792 -0.0787530738375 0.027585973343
v 0.177602636 -0.0714907995184 0.0221777211962
v 0.174049345061 -0.0714907995184 0.0488984128201
v 0.168641228012 -0.0787530738375 0.0556000151898
v 0.177602636 -0.0787530738375 0.0221777211962
v 0.177458002231 -0.0714907995184 0.0213092754345
v 0.170167696793 -0.0714907995184 0.0495096760027
v 0.157815222146 -0.0787530738375 0.0558721014376
v 0.168641228012 -0.0714907995184 0.0497407650726
v 0.177119873437 -0.0787530738375 0.0192891078226
v 0.177088600879 -0.0714907995184 0.0191027394298
v 0.157815222146 -0.0787530738375 0.0558460079283
v 0.159351462997 -0.0714907995184 0.0497444982433
v 0.157824993914 -0.0714907995184 0.0497444982433
v 0.157815222146 -0.0714929369037 0.0497444982433
v 0.177088600879 -0.0787530738375 0.0191027394298
v 0.174049345061 -0.0714907995184 0.0182641106766
v 0.157815222146 -0.078752358152 0.0177944758669
v 0.157824993914 -0.0787530738375 0.0177944758669
v 0.157815222146 -0.0714907995184 0.0495506828519
v 0.174049345061 -0.0787530738375 0.0182641106766
v 0.168641228012 -0.0714907995184 0.0177944758669
v 0.157815222146 -0.0714907995184 0.0177944758669
v 0.168641228012 -0.0787530738375 0.0177944758669
f 1 2 3
f 1 3 4
f 1 4 5
f 1 5 9
f 1 9 6
f 1 6 10
f 1 10 14
f 1 14 19
f 1 19 25
f 1 25 30
f 1 30 31
f 1 31 28
f 1 28 22
f 1 22 21
f 1 21 17
f 1 17 15
f 1 15 11
f 1 11 7
f 1 7 2
f 2 7 8
f 2 8 3
f 3 8 12
f 3 12 16
f 3 16 20
f 3 20 27
f 3 27 32
f 3 32 29
f 3 29 24
f 3 24 18
f 3 18 13
f 3 13 9
f 3 9 5
f 3 5 4
f 6 9 13
f 6 13 10
f 7 11 8
f 8 11 12
f 10 13 14
f 11 15 12
f 12 15 17
f 12 17 16
f 13 18 14
f 14 18 19
f 16 17 21
f 16 21 22
f 16 22 23
f 16 23 28
f 16 28 31
f 16 31 26
f 16 26 20
f 18 24 19
f 19 24 29
f 19 29 25
f 20 26 27
f 22 28 23
f 25 29 32
f 25 32 30
f 26 31 30
f 26 30 32
f 26 32 27
