# https://github.com/mikedh/trimesh
v 0.13500000 -0.12115385 0.01557692
v 0.13500000 -0.12115385 0.26134615
v 0.14538462 -0.12115385 0.01557692
v 0.14538462 -0.12115385 0.26134615
v 0.13500000 -0.20942308 0.01557692
v 0.13500000 -0.20942308 0.26134615
v 0.14538462 -0.20942308 0.01557692
v 0.14538462 -0.20942308 0.26134615
v 0.17307692 -0.16528846 0.08653847
v 0.17307692 -0.18346154 0.08653847
v 0.18000000 -0.18346154 0.08653845
v 0.18000000 -0.16528846 0.08653845
v 0.17307691 -0.18311235 0.08299308
v 0.17999999 -0.18311235 0.08299306
v 0.17307690 -0.18207820 0.07958394
v 0.17999997 -0.18207820 0.07958391
v 0.17307689 -0.18039882 0.07644205
v 0.17999996 -0.18039882 0.07644203
v 0.17307688 -0.17813877 0.07368817
v 0.17999995 -0.17813877 0.07368814
v 0.17307687 -0.17538488 0.07142811
v 0.17999994 -0.17538488 0.07142809
v 0.17307686 -0.17224300 0.06974874
v 0.17999994 -0.17224300 0.06974872
v 0.17307686 -0.16883385 0.06871459
v 0.17999993 -0.16883385 0.06871456
v 0.17307686 -0.16528846 0.06836540
v 0.17999993 -0.16528846 0.06836537
v 0.17307686 -0.16174307 0.06871459
v 0.17999993 -0.16174307 0.06871456
v 0.17307686 -0.15833393 0.06974874
v 0.17999994 -0.15833393 0.06974872
v 0.17307687 -0.15519204 0.07142811
v 0.17999994 -0.15519204 0.07142809
v 0.17307688 -0.15243816 0.07368817
v 0.17999995 -0.15243816 0.07368814
v 0.17307689 -0.15017810 0.07644205
v 0.17999996 -0.15017810 0.07644203
v 0.17307690 -0.14849873 0.07958394
v 0.17999997 -0.14849873 0.07958391
v 0.17307691 -0.14746458 0.08299308
v 0.17999999 -0.14746458 0.08299306
v 0.17307692 -0.14711538 0.08653847
v 0.18000000 -0.14711538 0.08653845
v 0.17307694 -0.14746458 0.09008387
v 0.18000001 -0.14746458 0.09008384
v 0.17307695 -0.14849873 0.09349301
v 0.18000003 -0.14849873 0.09349298
v 0.17307696 -0.15017810 0.09663489
v 0.18000004 -0.15017810 0.09663487
v 0.17307697 -0.15243816 0.09938878
v 0.18000005 -0.15243816 0.09938875
v 0.17307698 -0.15519204 0.10164884
v 0.18000006 -0.15519204 0.10164881
v 0.17307698 -0.15833393 0.10332821
v 0.18000006 -0.15833393 0.10332818
v 0.17307699 -0.16174307 0.10436236
v 0.18000007 -0.16174307 0.10436234
v 0.17307699 -0.16528846 0.10471155
v 0.18000007 -0.16528846 0.10471153
v 0.17307699 -0.16883385 0.10436236
v 0.18000007 -0.16883385 0.10436234
v 0.17307698 -0.17224300 0.10332821
v 0.18000006 -0.17224300 0.10332818
v 0.17307698 -0.17538488 0.10164884
v 0.18000006 -0.17538488 0.10164881
v 0.17307697 -0.17813877 0.09938878
v 0.18000005 -0.17813877 0.09938875
v 0.17307696 -0.18039882 0.09663489
v 0.18000004 -0.18039882 0.09663487
v 0.17307695 -0.18207820 0.09349301
v 0.18000003 -0.18207820 0.09349298
v 0.17307694 -0.18311235 0.09008387
v 0.18000001 -0.18311235 0.09008384
v 0.17307692 -0.16528846 0.19903847
v 0.17307692 -0.18346154 0.19903847
v 0.18000000 -0.18346154 0.19903845
v 0.18000000 -0.16528846 0.19903845
v 0.17307691 -0.18311235 0.19549308
v 0.17999999 -0.18311235 0.19549306
v 0.17307690 -0.18207820 0.19208394
v 0.17999997 -0.18207820 0.19208391
v 0.17307689 -0.18039882 0.18894205
v 0.17999996 -0.18039882 0.18894203
v 0.17307688 -0.17813877 0.18618817
v 0.17999995 -0.17813877 0.18618814
v 0.17307687 -0.17538488 0.18392811
v 0.17999994 -0.17538488 0.18392809
v 0.17307686 -0.17224300 0.18224874
v 0.17999994 -0.17224300 0.18224872
v 0.17307686 -0.16883385 0.18121459
v 0.17999993 -0.16883385 0.18121456
v 0.17307686 -0.16528846 0.18086540
v 0.17999993 -0.16528846 0.18086537
v 0.17307686 -0.16174307 0.18121459
v 0.17999993 -0.16174307 0.18121456
v 0.17307686 -0.15833393 0.18224874
v 0.17999994 -0.15833393 0.18224872
v 0.17307687 -0.15519204 0.18392811
v 0.17999994 -0.15519204 0.18392809
v 0.17307688 -0.15243816 0.18618817
v 0.17999995 -0.15243816 0.18618814
v 0.17307689 -0.15017810 0.18894205
v 0.17999996 -0.15017810 0.18894203
v 0.17307690 -0.14849873 0.19208394
v 0.17999997 -0.14849873 0.19208391
v 0.17307691 -0.14746458 0.19549308
v 0.17999999 -0.14746458 0.19549306
v 0.17307692 -0.14711538 0.19903847
v 0.18000000 -0.14711538 0.19903845
v 0.17307694 -0.14746458 0.20258387
v 0.18000001 -0.14746458 0.20258384
v 0.17307695 -0.14849873 0.20599301
v 0.18000003 -0.14849873 0.20599298
v 0.17307696 -0.15017810 0.20913489
v 0.18000004 -0.15017810 0.20913487
v 0.17307697 -0.15243816 0.21188878
v 0.18000005 -0.15243816 0.21188875
v 0.17307698 -0.15519204 0.21414884
v 0.18000006 -0.15519204 0.21414881
v 0.17307698 -0.15833393 0.21582821
v 0.18000006 -0.15833393 0.21582818
v 0.17307699 -0.16174307 0.21686236
v 0.18000007 -0.16174307 0.21686234
v 0.17307699 -0.16528846 0.21721155
v 0.18000007 -0.16528846 0.21721153
v 0.17307699 -0.16883385 0.21686236
v 0.18000007 -0.16883385 0.21686234
v 0.17307698 -0.17224300 0.21582821
v 0.18000006 -0.17224300 0.21582818
v 0.17307698 -0.17538488 0.21414884
v 0.18000006 -0.17538488 0.21414881
v 0.17307697 -0.17813877 0.21188878
v 0.18000005 -0.17813877 0.21188875
v 0.17307696 -0.18039882 0.20913489
v 0.18000004 -0.18039882 0.20913487
v 0.17307695 -0.18207820 0.20599301
v 0.18000003 -0.18207820 0.20599298
v 0.17307694 -0.18311235 0.20258387
v 0.18000001 -0.18311235 0.20258384
f 2 4 1
f 5 2 1
f 1 4 3
f 3 5 1
f 2 8 4
f 6 2 5
f 6 8 2
f 4 8 3
f 7 5 3
f 3 8 7
f 7 6 5
f 8 6 7
f 10 9 13
f 10 13 11
f 11 13 14
f 11 14 12
f 13 9 15
f 13 15 14
f 14 15 16
f 14 16 12
f 15 9 17
f 15 17 16
f 16 17 18
f 16 18 12
f 17 9 19
f 17 19 18
f 18 19 20
f 18 20 12
f 19 9 21
f 19 21 20
f 20 21 22
f 20 22 12
f 21 9 23
f 21 23 22
f 22 23 24
f 22 24 12
f 23 9 25
f 23 25 24
f 24 25 26
f 24 26 12
f 25 9 27
f 25 27 26
f 26 27 28
f 26 28 12
f 27 9 29
f 27 29 28
f 28 29 30
f 28 30 12
f 29 9 31
f 29 31 30
f 30 31 32
f 30 32 12
f 31 9 33
f 31 33 32
f 32 33 34
f 32 34 12
f 33 9 35
f 33 35 34
f 34 35 36
f 34 36 12
f 35 9 37
f 35 37 36
f 36 37 38
f 36 38 12
f 37 9 39
f 37 39 38
f 38 39 40
f 38 40 12
f 39 9 41
f 39 41 40
f 40 41 42
f 40 42 12
f 41 9 43
f 41 43 42
f 42 43 44
f 42 44 12
f 43 9 45
f 43 45 44
f 44 45 46
f 44 46 12
f 45 9 47
f 45 47 46
f 46 47 48
f 46 48 12
f 47 9 49
f 47 49 48
f 48 49 50
f 48 50 12
f 49 9 51
f 49 51 50
f 50 51 52
f 50 52 12
f 51 9 53
f 51 53 52
f 52 53 54
f 52 54 12
f 53 9 55
f 53 55 54
f 54 55 56
f 54 56 12
f 55 9 57
f 55 57 56
f 56 57 58
f 56 58 12
f 57 9 59
f 57 59 58
f 58 59 60
f 58 60 12
f 59 9 61
f 59 61 60
f 60 61 62
f 60 62 12
f 61 9 63
f 61 63 62
f 62 63 64
f 62 64 12
f 63 9 65
f 63 65 64
f 64 65 66
f 64 66 12
f 65 9 67
f 65 67 66
f 66 67 68
f 66 68 12
f 67 9 69
f 67 69 68
f 68 69 70
f 68 70 12
f 69 9 71
f 69 71 70
f 70 71 72
f 70 72 12
f 71 9 73
f 71 73 72
f 72 73 74
f 72 74 12
f 73 9 10
f 73 10 74
f 74 10 11
f 74 11 12
f 76 75 79
f 76 79 77
f 77 79 80
f 77 80 78
f 79 75 81
f 79 81 80
f 80 81 82
f 80 82 78
f 81 75 83
f 81 83 82
f 82 83 84
f 82 84 78
f 83 75 85
f 83 85 84
f 84 85 86
f 84 86 78
f 85 75 87
f 85 87 86
f 86 87 88
f 86 88 78
f 87 75 89
f 87 89 88
f 88 89 90
f 88 90 78
f 89 75 91
f 89 91 90
f 90 91 92
f 90 92 78
f 91 75 93
f 91 93 92
f 92 93 94
f 92 94 78
f 93 75 95
f 93 95 94
f 94 95 96
f 94 96 78
f 95 75 97
f 95 97 96
f 96 97 98
f 96 98 78
f 97 75 99
f 97 99 98
f 98 99 100
f 98 100 78
f 99 75 101
f 99 101 100
f 100 101 102
f 100 102 78
f 101 75 103
f 101 103 102
f 102 103 104
f 102 104 78
f 103 75 105
f 103 105 104
f 104 105 106
f 104 106 78
f 105 75 107
f 105 107 106
f 106 107 108
f 106 108 78
f 107 75 109
f 107 109 108
f 108 109 110
f 108 110 78
f 109 75 111
f 109 111 110
f 110 111 112
f 110 112 78
f 111 75 113
f 111 113 112
f 112 113 114
f 112 114 78
f 113 75 115
f 113 115 114
f 114 115 116
f 114 116 78
f 115 75 117
f 115 117 116
f 116 117 118
f 116 118 78
f 117 75 119
f 117 119 118
f 118 119 120
f 118 120 78
f 119 75 121
f 119 121 120
f 120 121 122
f 120 122 78
f 121 75 123
f 121 123 122
f 122 123 124
f 122 124 78
f 123 75 125
f 123 125 124
f 124 125 126
f 124 126 78
f 125 75 127
f 125 127 126
f 126 127 128
f 126 128 78
f 127 75 129
f 127 129 128
f 128 129 130
f 128 130 78
f 129 75 131
f 129 131 130
f 130 131 132
f 130 132 78
f 131 75 133
f 131 133 132
f 132 133 134
f 132 134 78
f 133 75 135
f 133 135 134
f 134 135 136
f 134 136 78
f 135 75 137
f 135 137 136
f 136 137 138
f 136 138 78
f 137 75 139
f 137 139 138
f 138 139 140
f 138 140 78
f 139 75 76
f 139 76 140
f 140 76 77
f 140 77 78

