# https://github.com/mikedh/trimesh
v 0.19471154 -0.09519231 0.06706731
v 0.19471154 -0.10125000 0.06706731
v 0.19471154 -0.10125000 0.20985577
v 0.19471154 -0.09519231 0.20985577
v 0.19589334 -0.10113360 0.06706731
v 0.19589334 -0.10113360 0.20985577
v 0.19702972 -0.10078889 0.06706731
v 0.19702972 -0.10078889 0.20985577
v 0.19807701 -0.10022909 0.06706731
v 0.19807701 -0.10022909 0.20985577
v 0.19899497 -0.09947574 0.06706731
v 0.19899497 -0.09947574 0.20985577
v 0.19974833 -0.09855778 0.06706731
v 0.19974833 -0.09855778 0.20985577
v 0.20030812 -0.09751049 0.06706731
v 0.20030812 -0.09751049 0.20985577
v 0.20065283 -0.09637410 0.06706731
v 0.20065283 -0.09637410 0.20985577
v 0.20076923 -0.09519231 0.06706731
v 0.20076923 -0.09519231 0.20985577
v 0.20065283 -0.09401051 0.06706731
v 0.20065283 -0.09401051 0.20985577
v 0.20030812 -0.09287413 0.06706731
v 0.20030812 -0.09287413 0.20985577
v 0.19974833 -0.09182683 0.06706731
v 0.19974833 -0.09182683 0.20985577
v 0.19899497 -0.09090887 0.06706731
v 0.19899497 -0.09090887 0.20985577
v 0.19807701 -0.09015552 0.06706731
v 0.19807701 -0.09015552 0.20985577
v 0.19702972 -0.08959573 0.06706731
v 0.19702972 -0.08959573 0.20985577
v 0.19589334 -0.08925101 0.06706731
v 0.19589334 -0.08925101 0.20985577
v 0.19471154 -0.08913462 0.06706731
v 0.19471154 -0.08913462 0.20985577
v 0.19352974 -0.08925101 0.06706731
v 0.19352974 -0.08925101 0.20985577
v 0.19239336 -0.08959573 0.06706731
v 0.19239336 -0.08959573 0.20985577
v 0.19134606 -0.09015552 0.06706731
v 0.19134606 -0.09015552 0.20985577
v 0.19042810 -0.09090887 0.06706731
v 0.19042810 -0.09090887 0.20985577
v 0.18967475 -0.09182683 0.06706731
v 0.18967475 -0.09182683 0.20985577
v 0.18911496 -0.09287413 0.06706731
v 0.18911496 -0.09287413 0.20985577
v 0.18877024 -0.09401051 0.06706731
v 0.18877024 -0.09401051 0.20985577
v 0.18865385 -0.09519231 0.06706731
v 0.18865385 -0.09519231 0.20985577
v 0.18877024 -0.09637410 0.06706731
v 0.18877024 -0.09637410 0.20985577
v 0.18911496 -0.09751049 0.06706731
v 0.18911496 -0.09751049 0.20985577
v 0.18967475 -0.09855778 0.06706731
v 0.18967475 -0.09855778 0.20985577
v 0.19042810 -0.09947574 0.06706731
v 0.19042810 -0.09947574 0.20985577
v 0.19134606 -0.10022909 0.06706731
v 0.19134606 -0.10022909 0.20985577
v 0.19239336 -0.10078889 0.06706731
v 0.19239336 -0.10078889 0.20985577
v 0.19352974 -0.10113360 0.06706731
v 0.19352974 -0.10113360 0.20985577
v 0.17480769 -0.09519231 0.19038464
v 0.17480769 -0.09908654 0.19038464
v 0.18865385 -0.09908654 0.19038459
v 0.18865385 -0.09519231 0.19038459
v 0.17480769 -0.09901171 0.18962491
v 0.18865384 -0.09901171 0.18962486
v 0.17480769 -0.09879011 0.18889438
v 0.18865384 -0.09879011 0.18889433
v 0.17480768 -0.09843024 0.18822112
v 0.18865384 -0.09843024 0.18822107
v 0.17480768 -0.09794594 0.18763100
v 0.18865384 -0.09794594 0.18763095
v 0.17480768 -0.09735583 0.18714671
v 0.18865383 -0.09735583 0.18714666
v 0.17480768 -0.09668257 0.18678684
v 0.18865383 -0.09668257 0.18678679
v 0.17480768 -0.09595203 0.18656524
v 0.18865383 -0.09595203 0.18656519
v 0.17480768 -0.09519231 0.18649041
v 0.18865383 -0.09519231 0.18649036
v 0.17480768 -0.09443258 0.18656524
v 0.18865383 -0.09443258 0.18656519
v 0.17480768 -0.09370205 0.18678684
v 0.18865383 -0.09370205 0.18678679
v 0.17480768 -0.09302879 0.18714671
v 0.18865383 -0.09302879 0.18714666
v 0.17480768 -0.09243867 0.18763100
v 0.18865384 -0.09243867 0.18763095
v 0.17480768 -0.09195437 0.18822112
v 0.18865384 -0.09195437 0.18822107
v 0.17480769 -0.09159451 0.18889438
v 0.18865384 -0.09159451 0.18889433
v 0.17480769 -0.09137290 0.18962491
v 0.18865384 -0.09137290 0.18962486
v 0.17480769 -0.09129808 0.19038464
v 0.18865385 -0.09129808 0.19038459
v 0.17480770 -0.09137290 0.19114437
v 0.18865385 -0.09137290 0.19114432
v 0.17480770 -0.09159451 0.19187490
v 0.18865385 -0.09159451 0.19187485
v 0.17480770 -0.09195437 0.19254816
v 0.18865385 -0.09195437 0.19254811
v 0.17480770 -0.09243867 0.19313828
v 0.18865386 -0.09243867 0.19313823
v 0.17480770 -0.09302879 0.19362258
v 0.18865386 -0.09302879 0.19362252
v 0.17480771 -0.09370205 0.19398244
v 0.18865386 -0.09370205 0.19398239
v 0.17480771 -0.09443258 0.19420405
v 0.18865386 -0.09443258 0.19420399
v 0.17480771 -0.09519231 0.19427887
v 0.18865386 -0.09519231 0.19427882
v 0.17480771 -0.09595203 0.19420405
v 0.18865386 -0.09595203 0.19420399
v 0.17480771 -0.09668257 0.19398244
v 0.18865386 -0.09668257 0.19398239
v 0.17480770 -0.09735583 0.19362258
v 0.18865386 -0.09735583 0.19362252
v 0.17480770 -0.09794594 0.19313828
v 0.18865386 -0.09794594 0.19313823
v 0.17480770 -0.09843024 0.19254816
v 0.18865385 -0.09843024 0.19254811
v 0.17480770 -0.09879011 0.19187490
v 0.18865385 -0.09879011 0.19187485
v 0.17480770 -0.09901171 0.19114437
v 0.18865385 -0.09901171 0.19114432
v 0.17480769 -0.09519231 0.08653849
v 0.17480769 -0.09908654 0.08653849
v 0.18865385 -0.09908654 0.08653844
v 0.18865385 -0.09519231 0.08653844
v 0.17480769 -0.09901171 0.08577876
v 0.18865384 -0.09901171 0.08577871
v 0.17480769 -0.09879011 0.08504823
v 0.18865384 -0.09879011 0.08504818
v 0.17480768 -0.09843024 0.08437497
v 0.18865384 -0.09843024 0.08437492
v 0.17480768 -0.09794594 0.08378485
v 0.18865384 -0.09794594 0.08378480
v 0.17480768 -0.09735583 0.08330055
v 0.18865383 -0.09735583 0.08330050
v 0.17480768 -0.09668257 0.08294069
v 0.18865383 -0.09668257 0.08294064
v 0.17480768 -0.09595203 0.08271908
v 0.18865383 -0.09595203 0.08271903
v 0.17480768 -0.09519231 0.08264426
v 0.18865383 -0.09519231 0.08264421
v 0.17480768 -0.09443258 0.08271908
v 0.18865383 -0.09443258 0.08271903
v 0.17480768 -0.09370205 0.08294069
v 0.18865383 -0.09370205 0.08294064
v 0.17480768 -0.09302879 0.08330055
v 0.18865383 -0.09302879 0.08330050
v 0.17480768 -0.09243867 0.08378485
v 0.18865384 -0.09243867 0.08378480
v 0.17480768 -0.09195437 0.08437497
v 0.18865384 -0.09195437 0.08437492
v 0.17480769 -0.09159451 0.08504823
v 0.18865384 -0.09159451 0.08504818
v 0.17480769 -0.09137290 0.08577876
v 0.18865384 -0.09137290 0.08577871
v 0.17480769 -0.09129808 0.08653849
v 0.18865385 -0.09129808 0.08653844
v 0.17480770 -0.09137290 0.08729821
v 0.18865385 -0.09137290 0.08729816
v 0.17480770 -0.09159451 0.08802874
v 0.18865385 -0.09159451 0.08802869
v 0.17480770 -0.09195437 0.08870201
v 0.18865385 -0.09195437 0.08870195
v 0.17480770 -0.09243867 0.08929212
v 0.18865386 -0.09243867 0.08929207
v 0.17480770 -0.09302879 0.08977642
v 0.18865386 -0.09302879 0.08977637
v 0.17480771 -0.09370205 0.09013629
v 0.18865386 -0.09370205 0.09013624
v 0.17480771 -0.09443258 0.09035789
v 0.18865386 -0.09443258 0.09035784
v 0.17480771 -0.09519231 0.09043272
v 0.18865386 -0.09519231 0.09043267
v 0.17480771 -0.09595203 0.09035789
v 0.18865386 -0.09595203 0.09035784
v 0.17480771 -0.09668257 0.09013629
v 0.18865386 -0.09668257 0.09013624
v 0.17480770 -0.09735583 0.08977642
v 0.18865386 -0.09735583 0.08977637
v 0.17480770 -0.09794594 0.08929212
v 0.18865386 -0.09794594 0.08929207
v 0.17480770 -0.09843024 0.08870201
v 0.18865385 -0.09843024 0.08870195
v 0.17480770 -0.09879011 0.08802874
v 0.18865385 -0.09879011 0.08802869
v 0.17480770 -0.09901171 0.08729821
v 0.18865385 -0.09901171 0.08729816
f 2 1 5
f 2 5 3
f 3 5 6
f 3 6 4
f 5 1 7
f 5 7 6
f 6 7 8
f 6 8 4
f 7 1 9
f 7 9 8
f 8 9 10
f 8 10 4
f 9 1 11
f 9 11 10
f 10 11 12
f 10 12 4
f 11 1 13
f 11 13 12
f 12 13 14
f 12 14 4
f 13 1 15
f 13 15 14
f 14 15 16
f 14 16 4
f 15 1 17
f 15 17 16
f 16 17 18
f 16 18 4
f 17 1 19
f 17 19 18
f 18 19 20
f 18 20 4
f 19 1 21
f 19 21 20
f 20 21 22
f 20 22 4
f 21 1 23
f 21 23 22
f 22 23 24
f 22 24 4
f 23 1 25
f 23 25 24
f 24 25 26
f 24 26 4
f 25 1 27
f 25 27 26
f 26 27 28
f 26 28 4
f 27 1 29
f 27 29 28
f 28 29 30
f 28 30 4
f 29 1 31
f 29 31 30
f 30 31 32
f 30 32 4
f 31 1 33
f 31 33 32
f 32 33 34
f 32 34 4
f 33 1 35
f 33 35 34
f 34 35 36
f 34 36 4
f 35 1 37
f 35 37 36
f 36 37 38
f 36 38 4
f 37 1 39
f 37 39 38
f 38 39 40
f 38 40 4
f 39 1 41
f 39 41 40
f 40 41 42
f 40 42 4
f 41 1 43
f 41 43 42
f 42 43 44
f 42 44 4
f 43 1 45
f 43 45 44
f 44 45 46
f 44 46 4
f 45 1 47
f 45 47 46
f 46 47 48
f 46 48 4
f 47 1 49
f 47 49 48
f 48 49 50
f 48 50 4
f 49 1 51
f 49 51 50
f 50 51 52
f 50 52 4
f 51 1 53
f 51 53 52
f 52 53 54
f 52 54 4
f 53 1 55
f 53 55 54
f 54 55 56
f 54 56 4
f 55 1 57
f 55 57 56
f 56 57 58
f 56 58 4
f 57 1 59
f 57 59 58
f 58 59 60
f 58 60 4
f 59 1 61
f 59 61 60
f 60 61 62
f 60 62 4
f 61 1 63
f 61 63 62
f 62 63 64
f 62 64 4
f 63 1 65
f 63 65 64
f 64 65 66
f 64 66 4
f 65 1 2
f 65 2 66
f 66 2 3
f 66 3 4
f 68 67 71
f 68 71 69
f 69 71 72
f 69 72 70
f 71 67 73
f 71 73 72
f 72 73 74
f 72 74 70
f 73 67 75
f 73 75 74
f 74 75 76
f 74 76 70
f 75 67 77
f 75 77 76
f 76 77 78
f 76 78 70
f 77 67 79
f 77 79 78
f 78 79 80
f 78 80 70
f 79 67 81
f 79 81 80
f 80 81 82
f 80 82 70
f 81 67 83
f 81 83 82
f 82 83 84
f 82 84 70
f 83 67 85
f 83 85 84
f 84 85 86
f 84 86 70
f 85 67 87
f 85 87 86
f 86 87 88
f 86 88 70
f 87 67 89
f 87 89 88
f 88 89 90
f 88 90 70
f 89 67 91
f 89 91 90
f 90 91 92
f 90 92 70
f 91 67 93
f 91 93 92
f 92 93 94
f 92 94 70
f 93 67 95
f 93 95 94
f 94 95 96
f 94 96 70
f 95 67 97
f 95 97 96
f 96 97 98
f 96 98 70
f 97 67 99
f 97 99 98
f 98 99 100
f 98 100 70
f 99 67 101
f 99 101 100
f 100 101 102
f 100 102 70
f 101 67 103
f 101 103 102
f 102 103 104
f 102 104 70
f 103 67 105
f 103 105 104
f 104 105 106
f 104 106 70
f 105 67 107
f 105 107 106
f 106 107 108
f 106 108 70
f 107 67 109
f 107 109 108
f 108 109 110
f 108 110 70
f 109 67 111
f 109 111 110
f 110 111 112
f 110 112 70
f 111 67 113
f 111 113 112
f 112 113 114
f 112 114 70
f 113 67 115
f 113 115 114
f 114 115 116
f 114 116 70
f 115 67 117
f 115 117 116
f 116 117 118
f 116 118 70
f 117 67 119
f 117 119 118
f 118 119 120
f 118 120 70
f 119 67 121
f 119 121 120
f 120 121 122
f 120 122 70
f 121 67 123
f 121 123 122
f 122 123 124
f 122 124 70
f 123 67 125
f 123 125 124
f 124 125 126
f 124 126 70
f 125 67 127
f 125 127 126
f 126 127 128
f 126 128 70
f 127 67 129
f 127 129 128
f 128 129 130
f 128 130 70
f 129 67 131
f 129 131 130
f 130 131 132
f 130 132 70
f 131 67 68
f 131 68 132
f 132 68 69
f 132 69 70
f 134 133 137
f 134 137 135
f 135 137 138
f 135 138 136
f 137 133 139
f 137 139 138
f 138 139 140
f 138 140 136
f 139 133 141
f 139 141 140
f 140 141 142
f 140 142 136
f 141 133 143
f 141 143 142
f 142 143 144
f 142 144 136
f 143 133 145
f 143 145 144
f 144 145 146
f 144 146 136
f 145 133 147
f 145 147 146
f 146 147 148
f 146 148 136
f 147 133 149
f 147 149 148
f 148 149 150
f 148 150 136
f 149 133 151
f 149 151 150
f 150 151 152
f 150 152 136
f 151 133 153
f 151 153 152
f 152 153 154
f 152 154 136
f 153 133 155
f 153 155 154
f 154 155 156
f 154 156 136
f 155 133 157
f 155 157 156
f 156 157 158
f 156 158 136
f 157 133 159
f 157 159 158
f 158 159 160
f 158 160 136
f 159 133 161
f 159 161 160
f 160 161 162
f 160 162 136
f 161 133 163
f 161 163 162
f 162 163 164
f 162 164 136
f 163 133 165
f 163 165 164
f 164 165 166
f 164 166 136
f 165 133 167
f 165 167 166
f 166 167 168
f 166 168 136
f 167 133 169
f 167 169 168
f 168 169 170
f 168 170 136
f 169 133 171
f 169 171 170
f 170 171 172
f 170 172 136
f 171 133 173
f 171 173 172
f 172 173 174
f 172 174 136
f 173 133 175
f 173 175 174
f 174 175 176
f 174 176 136
f 175 133 177
f 175 177 176
f 176 177 178
f 176 178 136
f 177 133 179
f 177 179 178
f 178 179 180
f 178 180 136
f 179 133 181
f 179 181 180
f 180 181 182
f 180 182 136
f 181 133 183
f 181 183 182
f 182 183 184
f 182 184 136
f 183 133 185
f 183 185 184
f 184 185 186
f 184 186 136
f 185 133 187
f 185 187 186
f 186 187 188
f 186 188 136
f 187 133 189
f 187 189 188
f 188 189 190
f 188 190 136
f 189 133 191
f 189 191 190
f 190 191 192
f 190 192 136
f 191 133 193
f 191 193 192
f 192 193 194
f 192 194 136
f 193 133 195
f 193 195 194
f 194 195 196
f 194 196 136
f 195 133 197
f 195 197 196
f 196 197 198
f 196 198 136
f 197 133 134
f 197 134 198
f 198 134 135
f 198 135 136

