# https://github.com/mikedh/trimesh
v 0.15403846 -0.16528846 0.08653850
v 0.15403846 -0.19298077 0.08653850
v 0.17307692 -0.19298077 0.08653843
v 0.17307692 -0.16528846 0.08653843
v 0.15403844 -0.19244867 0.08113600
v 0.17307690 -0.19244867 0.08113593
v 0.15403842 -0.19087282 0.07594111
v 0.17307688 -0.19087282 0.07594104
v 0.15403841 -0.18831377 0.07115347
v 0.17307687 -0.18831377 0.07115340
v 0.15403839 -0.18486988 0.06695708
v 0.17307685 -0.18486988 0.06695701
v 0.15403838 -0.18067348 0.06351318
v 0.17307684 -0.18067348 0.06351311
v 0.15403837 -0.17588585 0.06095414
v 0.17307683 -0.17588585 0.06095407
v 0.15403836 -0.17069096 0.05937829
v 0.17307682 -0.17069096 0.05937822
v 0.15403836 -0.16528846 0.05884619
v 0.17307682 -0.16528846 0.05884612
v 0.15403836 -0.15988596 0.05937829
v 0.17307682 -0.15988596 0.05937822
v 0.15403837 -0.15469107 0.06095414
v 0.17307683 -0.15469107 0.06095407
v 0.15403838 -0.14990344 0.06351318
v 0.17307684 -0.14990344 0.06351311
v 0.15403839 -0.14570704 0.06695708
v 0.17307685 -0.14570704 0.06695701
v 0.15403841 -0.14226315 0.07115347
v 0.17307687 -0.14226315 0.07115340
v 0.15403842 -0.13970411 0.07594111
v 0.17307688 -0.13970411 0.07594104
v 0.15403844 -0.13812825 0.08113600
v 0.17307690 -0.13812825 0.08113593
v 0.15403846 -0.13759615 0.08653850
v 0.17307692 -0.13759615 0.08653843
v 0.15403848 -0.13812825 0.09194100
v 0.17307694 -0.13812825 0.09194093
v 0.15403850 -0.13970411 0.09713588
v 0.17307696 -0.13970411 0.09713581
v 0.15403852 -0.14226315 0.10192352
v 0.17307698 -0.14226315 0.10192345
v 0.15403853 -0.14570704 0.10611992
v 0.17307700 -0.14570704 0.10611985
v 0.15403855 -0.14990344 0.10956381
v 0.17307701 -0.14990344 0.10956374
v 0.15403856 -0.15469107 0.11212285
v 0.17307702 -0.15469107 0.11212278
v 0.15403856 -0.15988596 0.11369870
v 0.17307702 -0.15988596 0.11369863
v 0.15403856 -0.16528846 0.11423080
v 0.17307702 -0.16528846 0.11423073
v 0.15403856 -0.17069096 0.11369870
v 0.17307702 -0.17069096 0.11369863
v 0.15403856 -0.17588585 0.11212285
v 0.17307702 -0.17588585 0.11212278
v 0.15403855 -0.18067348 0.10956381
v 0.17307701 -0.18067348 0.10956374
v 0.15403853 -0.18486988 0.10611992
v 0.17307700 -0.18486988 0.10611985
v 0.15403852 -0.18831377 0.10192352
v 0.17307698 -0.18831377 0.10192345
v 0.15403850 -0.19087282 0.09713588
v 0.17307696 -0.19087282 0.09713581
v 0.15403848 -0.19244867 0.09194100
v 0.17307694 -0.19244867 0.09194093
v 0.15403846 -0.16528846 0.19903850
v 0.15403846 -0.19298077 0.19903850
v 0.17307692 -0.19298077 0.19903843
v 0.17307692 -0.16528846 0.19903843
v 0.15403844 -0.19244867 0.19363600
v 0.17307690 -0.19244867 0.19363593
v 0.15403842 -0.19087282 0.18844111
v 0.17307688 -0.19087282 0.18844104
v 0.15403841 -0.18831377 0.18365347
v 0.17307687 -0.18831377 0.18365340
v 0.15403839 -0.18486988 0.17945708
v 0.17307685 -0.18486988 0.17945701
v 0.15403838 -0.18067348 0.17601318
v 0.17307684 -0.18067348 0.17601311
v 0.15403837 -0.17588585 0.17345414
v 0.17307683 -0.17588585 0.17345407
v 0.15403836 -0.17069096 0.17187829
v 0.17307682 -0.17069096 0.17187822
v 0.15403836 -0.16528846 0.17134619
v 0.17307682 -0.16528846 0.17134612
v 0.15403836 -0.15988596 0.17187829
v 0.17307682 -0.15988596 0.17187822
v 0.15403837 -0.15469107 0.17345414
v 0.17307683 -0.15469107 0.17345407
v 0.15403838 -0.14990344 0.17601318
v 0.17307684 -0.14990344 0.17601311
v 0.15403839 -0.14570704 0.17945708
v 0.17307685 -0.14570704 0.17945701
v 0.15403841 -0.14226315 0.18365347
v 0.17307687 -0.14226315 0.18365340
v 0.15403842 -0.13970411 0.18844111
v 0.17307688 -0.13970411 0.18844104
v 0.15403844 -0.13812825 0.19363600
v 0.17307690 -0.13812825 0.19363593
v 0.15403846 -0.13759615 0.19903850
v 0.17307692 -0.13759615 0.19903843
v 0.15403848 -0.13812825 0.20444100
v 0.17307694 -0.13812825 0.20444093
v 0.15403850 -0.13970411 0.20963588
v 0.17307696 -0.13970411 0.20963581
v 0.15403852 -0.14226315 0.21442352
v 0.17307698 -0.14226315 0.21442345
v 0.15403853 -0.14570704 0.21861992
v 0.17307700 -0.14570704 0.21861985
v 0.15403855 -0.14990344 0.22206381
v 0.17307701 -0.14990344 0.22206374
v 0.15403856 -0.15469107 0.22462285
v 0.17307702 -0.15469107 0.22462278
v 0.15403856 -0.15988596 0.22619870
v 0.17307702 -0.15988596 0.22619863
v 0.15403856 -0.16528846 0.22673080
v 0.17307702 -0.16528846 0.22673073
v 0.15403856 -0.17069096 0.22619870
v 0.17307702 -0.17069096 0.22619863
v 0.15403856 -0.17588585 0.22462285
v 0.17307702 -0.17588585 0.22462278
v 0.15403855 -0.18067348 0.22206381
v 0.17307701 -0.18067348 0.22206374
v 0.15403853 -0.18486988 0.21861992
v 0.17307700 -0.18486988 0.21861985
v 0.15403852 -0.18831377 0.21442352
v 0.17307698 -0.18831377 0.21442345
v 0.15403850 -0.19087282 0.20963588
v 0.17307696 -0.19087282 0.20963581
v 0.15403848 -0.19244867 0.20444100
v 0.17307694 -0.19244867 0.20444093
f 2 1 5
f 2 5 3
f 3 5 6
f 3 6 4
f 5 1 7
f 5 7 6
f 6 7 8
f 6 8 4
f 7 1 9
f 7 9 8
f 8 9 10
f 8 10 4
f 9 1 11
f 9 11 10
f 10 11 12
f 10 12 4
f 11 1 13
f 11 13 12
f 12 13 14
f 12 14 4
f 13 1 15
f 13 15 14
f 14 15 16
f 14 16 4
f 15 1 17
f 15 17 16
f 16 17 18
f 16 18 4
f 17 1 19
f 17 19 18
f 18 19 20
f 18 20 4
f 19 1 21
f 19 21 20
f 20 21 22
f 20 22 4
f 21 1 23
f 21 23 22
f 22 23 24
f 22 24 4
f 23 1 25
f 23 25 24
f 24 25 26
f 24 26 4
f 25 1 27
f 25 27 26
f 26 27 28
f 26 28 4
f 27 1 29
f 27 29 28
f 28 29 30
f 28 30 4
f 29 1 31
f 29 31 30
f 30 31 32
f 30 32 4
f 31 1 33
f 31 33 32
f 32 33 34
f 32 34 4
f 33 1 35
f 33 35 34
f 34 35 36
f 34 36 4
f 35 1 37
f 35 37 36
f 36 37 38
f 36 38 4
f 37 1 39
f 37 39 38
f 38 39 40
f 38 40 4
f 39 1 41
f 39 41 40
f 40 41 42
f 40 42 4
f 41 1 43
f 41 43 42
f 42 43 44
f 42 44 4
f 43 1 45
f 43 45 44
f 44 45 46
f 44 46 4
f 45 1 47
f 45 47 46
f 46 47 48
f 46 48 4
f 47 1 49
f 47 49 48
f 48 49 50
f 48 50 4
f 49 1 51
f 49 51 50
f 50 51 52
f 50 52 4
f 51 1 53
f 51 53 52
f 52 53 54
f 52 54 4
f 53 1 55
f 53 55 54
f 54 55 56
f 54 56 4
f 55 1 57
f 55 57 56
f 56 57 58
f 56 58 4
f 57 1 59
f 57 59 58
f 58 59 60
f 58 60 4
f 59 1 61
f 59 61 60
f 60 61 62
f 60 62 4
f 61 1 63
f 61 63 62
f 62 63 64
f 62 64 4
f 63 1 65
f 63 65 64
f 64 65 66
f 64 66 4
f 65 1 2
f 65 2 66
f 66 2 3
f 66 3 4
f 68 67 71
f 68 71 69
f 69 71 72
f 69 72 70
f 71 67 73
f 71 73 72
f 72 73 74
f 72 74 70
f 73 67 75
f 73 75 74
f 74 75 76
f 74 76 70
f 75 67 77
f 75 77 76
f 76 77 78
f 76 78 70
f 77 67 79
f 77 79 78
f 78 79 80
f 78 80 70
f 79 67 81
f 79 81 80
f 80 81 82
f 80 82 70
f 81 67 83
f 81 83 82
f 82 83 84
f 82 84 70
f 83 67 85
f 83 85 84
f 84 85 86
f 84 86 70
f 85 67 87
f 85 87 86
f 86 87 88
f 86 88 70
f 87 67 89
f 87 89 88
f 88 89 90
f 88 90 70
f 89 67 91
f 89 91 90
f 90 91 92
f 90 92 70
f 91 67 93
f 91 93 92
f 92 93 94
f 92 94 70
f 93 67 95
f 93 95 94
f 94 95 96
f 94 96 70
f 95 67 97
f 95 97 96
f 96 97 98
f 96 98 70
f 97 67 99
f 97 99 98
f 98 99 100
f 98 100 70
f 99 67 101
f 99 101 100
f 100 101 102
f 100 102 70
f 101 67 103
f 101 103 102
f 102 103 104
f 102 104 70
f 103 67 105
f 103 105 104
f 104 105 106
f 104 106 70
f 105 67 107
f 105 107 106
f 106 107 108
f 106 108 70
f 107 67 109
f 107 109 108
f 108 109 110
f 108 110 70
f 109 67 111
f 109 111 110
f 110 111 112
f 110 112 70
f 111 67 113
f 111 113 112
f 112 113 114
f 112 114 70
f 113 67 115
f 113 115 114
f 114 115 116
f 114 116 70
f 115 67 117
f 115 117 116
f 116 117 118
f 116 118 70
f 117 67 119
f 117 119 118
f 118 119 120
f 118 120 70
f 119 67 121
f 119 121 120
f 120 121 122
f 120 122 70
f 121 67 123
f 121 123 122
f 122 123 124
f 122 124 70
f 123 67 125
f 123 125 124
f 124 125 126
f 124 126 70
f 125 67 127
f 125 127 126
f 126 127 128
f 126 128 70
f 127 67 129
f 127 129 128
f 128 129 130
f 128 130 70
f 129 67 131
f 129 131 130
f 130 131 132
f 130 132 70
f 131 67 68
f 131 68 132
f 132 68 69
f 132 69 70

