# https://github.com/mikedh/trimesh
v 0.14538462 -0.16528846 0.08653848
v 0.14538462 -0.17307692 0.08653848
v 0.15403846 -0.17307692 0.08653845
v 0.15403846 -0.16528846 0.08653845
v 0.14538461 -0.17292727 0.08501902
v 0.15403846 -0.17292727 0.08501899
v 0.14538460 -0.17248406 0.08355796
v 0.15403845 -0.17248406 0.08355793
v 0.14538460 -0.17176433 0.08221144
v 0.15403845 -0.17176433 0.08221141
v 0.14538460 -0.17079574 0.08103120
v 0.15403844 -0.17079574 0.08103117
v 0.14538459 -0.16961550 0.08006261
v 0.15403844 -0.16961550 0.08006258
v 0.14538459 -0.16826898 0.07934288
v 0.15403844 -0.16826898 0.07934285
v 0.14538459 -0.16680792 0.07889967
v 0.15403843 -0.16680792 0.07889964
v 0.14538459 -0.16528846 0.07875002
v 0.15403843 -0.16528846 0.07874998
v 0.14538459 -0.16376901 0.07889967
v 0.15403843 -0.16376901 0.07889964
v 0.14538459 -0.16230795 0.07934288
v 0.15403844 -0.16230795 0.07934285
v 0.14538459 -0.16096142 0.08006261
v 0.15403844 -0.16096142 0.08006258
v 0.14538460 -0.15978119 0.08103120
v 0.15403844 -0.15978119 0.08103117
v 0.14538460 -0.15881259 0.08221144
v 0.15403845 -0.15881259 0.08221141
v 0.14538460 -0.15809286 0.08355796
v 0.15403845 -0.15809286 0.08355793
v 0.14538461 -0.15764965 0.08501902
v 0.15403846 -0.15764965 0.08501899
v 0.14538462 -0.15750000 0.08653848
v 0.15403846 -0.15750000 0.08653845
v 0.14538462 -0.15764965 0.08805793
v 0.15403847 -0.15764965 0.08805790
v 0.14538463 -0.15809286 0.08951899
v 0.15403847 -0.15809286 0.08951896
v 0.14538463 -0.15881259 0.09086551
v 0.15403848 -0.15881259 0.09086548
v 0.14538464 -0.15978119 0.09204575
v 0.15403848 -0.15978119 0.09204572
v 0.14538464 -0.16096142 0.09301435
v 0.15403849 -0.16096142 0.09301431
v 0.14538464 -0.16230795 0.09373408
v 0.15403849 -0.16230795 0.09373405
v 0.14538464 -0.16376901 0.09417729
v 0.15403849 -0.16376901 0.09417725
v 0.14538464 -0.16528846 0.09432694
v 0.15403849 -0.16528846 0.09432691
v 0.14538464 -0.16680792 0.09417729
v 0.15403849 -0.16680792 0.09417725
v 0.14538464 -0.16826898 0.09373408
v 0.15403849 -0.16826898 0.09373405
v 0.14538464 -0.16961550 0.09301435
v 0.15403849 -0.16961550 0.09301431
v 0.14538464 -0.17079574 0.09204575
v 0.15403848 -0.17079574 0.09204572
v 0.14538463 -0.17176433 0.09086551
v 0.15403848 -0.17176433 0.09086548
v 0.14538463 -0.17248406 0.08951899
v 0.15403847 -0.17248406 0.08951896
v 0.14538462 -0.17292727 0.08805793
v 0.15403847 -0.17292727 0.08805790
v 0.18000000 -0.16096154 0.09778846
v 0.18000000 -0.16096154 0.10990385
v 0.18346154 -0.16096154 0.09778846
v 0.18346154 -0.16096154 0.10990385
v 0.18000000 -0.16961538 0.09778846
v 0.18000000 -0.16961538 0.10990385
v 0.18346154 -0.16961538 0.09778846
v 0.18346154 -0.16961538 0.10990385
v 0.14538462 -0.16528846 0.19903848
v 0.14538462 -0.17307692 0.19903848
v 0.15403846 -0.17307692 0.19903845
v 0.15403846 -0.16528846 0.19903845
v 0.14538461 -0.17292727 0.19751902
v 0.15403846 -0.17292727 0.19751899
v 0.14538460 -0.17248406 0.19605796
v 0.15403845 -0.17248406 0.19605793
v 0.14538460 -0.17176433 0.19471144
v 0.15403845 -0.17176433 0.19471141
v 0.14538460 -0.17079574 0.19353120
v 0.15403844 -0.17079574 0.19353117
v 0.14538459 -0.16961550 0.19256261
v 0.15403844 -0.16961550 0.19256258
v 0.14538459 -0.16826898 0.19184288
v 0.15403844 -0.16826898 0.19184285
v 0.14538459 -0.16680792 0.19139967
v 0.15403843 -0.16680792 0.19139964
v 0.14538459 -0.16528846 0.19125002
v 0.15403843 -0.16528846 0.19124998
v 0.14538459 -0.16376901 0.19139967
v 0.15403843 -0.16376901 0.19139964
v 0.14538459 -0.16230795 0.19184288
v 0.15403844 -0.16230795 0.19184285
v 0.14538459 -0.16096142 0.19256261
v 0.15403844 -0.16096142 0.19256258
v 0.14538460 -0.15978119 0.19353120
v 0.15403844 -0.15978119 0.19353117
v 0.14538460 -0.15881259 0.19471144
v 0.15403845 -0.15881259 0.19471141
v 0.14538460 -0.15809286 0.19605796
v 0.15403845 -0.15809286 0.19605793
v 0.14538461 -0.15764965 0.19751902
v 0.15403846 -0.15764965 0.19751899
v 0.14538462 -0.15750000 0.19903848
v 0.15403846 -0.15750000 0.19903845
v 0.14538462 -0.15764965 0.20055793
v 0.15403847 -0.15764965 0.20055790
v 0.14538463 -0.15809286 0.20201899
v 0.15403847 -0.15809286 0.20201896
v 0.14538463 -0.15881259 0.20336551
v 0.15403848 -0.15881259 0.20336548
v 0.14538464 -0.15978119 0.20454575
v 0.15403848 -0.15978119 0.20454572
v 0.14538464 -0.16096142 0.20551435
v 0.15403849 -0.16096142 0.20551431
v 0.14538464 -0.16230795 0.20623408
v 0.15403849 -0.16230795 0.20623405
v 0.14538464 -0.16376901 0.20667729
v 0.15403849 -0.16376901 0.20667725
v 0.14538464 -0.16528846 0.20682694
v 0.15403849 -0.16528846 0.20682691
v 0.14538464 -0.16680792 0.20667729
v 0.15403849 -0.16680792 0.20667725
v 0.14538464 -0.16826898 0.20623408
v 0.15403849 -0.16826898 0.20623405
v 0.14538464 -0.16961550 0.20551435
v 0.15403849 -0.16961550 0.20551431
v 0.14538464 -0.17079574 0.20454575
v 0.15403848 -0.17079574 0.20454572
v 0.14538463 -0.17176433 0.20336551
v 0.15403848 -0.17176433 0.20336548
v 0.14538463 -0.17248406 0.20201899
v 0.15403847 -0.17248406 0.20201896
v 0.14538462 -0.17292727 0.20055793
v 0.15403847 -0.17292727 0.20055790
v 0.18000000 -0.16096154 0.21028846
v 0.18000000 -0.16096154 0.22240385
v 0.18346154 -0.16096154 0.21028846
v 0.18346154 -0.16096154 0.22240385
v 0.18000000 -0.16961538 0.21028846
v 0.18000000 -0.16961538 0.22240385
v 0.18346154 -0.16961538 0.21028846
v 0.18346154 -0.16961538 0.22240385
f 2 1 5
f 2 5 3
f 3 5 6
f 3 6 4
f 5 1 7
f 5 7 6
f 6 7 8
f 6 8 4
f 7 1 9
f 7 9 8
f 8 9 10
f 8 10 4
f 9 1 11
f 9 11 10
f 10 11 12
f 10 12 4
f 11 1 13
f 11 13 12
f 12 13 14
f 12 14 4
f 13 1 15
f 13 15 14
f 14 15 16
f 14 16 4
f 15 1 17
f 15 17 16
f 16 17 18
f 16 18 4
f 17 1 19
f 17 19 18
f 18 19 20
f 18 20 4
f 19 1 21
f 19 21 20
f 20 21 22
f 20 22 4
f 21 1 23
f 21 23 22
f 22 23 24
f 22 24 4
f 23 1 25
f 23 25 24
f 24 25 26
f 24 26 4
f 25 1 27
f 25 27 26
f 26 27 28
f 26 28 4
f 27 1 29
f 27 29 28
f 28 29 30
f 28 30 4
f 29 1 31
f 29 31 30
f 30 31 32
f 30 32 4
f 31 1 33
f 31 33 32
f 32 33 34
f 32 34 4
f 33 1 35
f 33 35 34
f 34 35 36
f 34 36 4
f 35 1 37
f 35 37 36
f 36 37 38
f 36 38 4
f 37 1 39
f 37 39 38
f 38 39 40
f 38 40 4
f 39 1 41
f 39 41 40
f 40 41 42
f 40 42 4
f 41 1 43
f 41 43 42
f 42 43 44
f 42 44 4
f 43 1 45
f 43 45 44
f 44 45 46
f 44 46 4
f 45 1 47
f 45 47 46
f 46 47 48
f 46 48 4
f 47 1 49
f 47 49 48
f 48 49 50
f 48 50 4
f 49 1 51
f 49 51 50
f 50 51 52
f 50 52 4
f 51 1 53
f 51 53 52
f 52 53 54
f 52 54 4
f 53 1 55
f 53 55 54
f 54 55 56
f 54 56 4
f 55 1 57
f 55 57 56
f 56 57 58
f 56 58 4
f 57 1 59
f 57 59 58
f 58 59 60
f 58 60 4
f 59 1 61
f 59 61 60
f 60 61 62
f 60 62 4
f 61 1 63
f 61 63 62
f 62 63 64
f 62 64 4
f 63 1 65
f 63 65 64
f 64 65 66
f 64 66 4
f 65 1 2
f 65 2 66
f 66 2 3
f 66 3 4
f 68 70 67
f 71 68 67
f 67 70 69
f 69 71 67
f 68 74 70
f 72 68 71
f 72 74 68
f 70 74 69
f 73 71 69
f 69 74 73
f 73 72 71
f 74 72 73
f 76 75 79
f 76 79 77
f 77 79 80
f 77 80 78
f 79 75 81
f 79 81 80
f 80 81 82
f 80 82 78
f 81 75 83
f 81 83 82
f 82 83 84
f 82 84 78
f 83 75 85
f 83 85 84
f 84 85 86
f 84 86 78
f 85 75 87
f 85 87 86
f 86 87 88
f 86 88 78
f 87 75 89
f 87 89 88
f 88 89 90
f 88 90 78
f 89 75 91
f 89 91 90
f 90 91 92
f 90 92 78
f 91 75 93
f 91 93 92
f 92 93 94
f 92 94 78
f 93 75 95
f 93 95 94
f 94 95 96
f 94 96 78
f 95 75 97
f 95 97 96
f 96 97 98
f 96 98 78
f 97 75 99
f 97 99 98
f 98 99 100
f 98 100 78
f 99 75 101
f 99 101 100
f 100 101 102
f 100 102 78
f 101 75 103
f 101 103 102
f 102 103 104
f 102 104 78
f 103 75 105
f 103 105 104
f 104 105 106
f 104 106 78
f 105 75 107
f 105 107 106
f 106 107 108
f 106 108 78
f 107 75 109
f 107 109 108
f 108 109 110
f 108 110 78
f 109 75 111
f 109 111 110
f 110 111 112
f 110 112 78
f 111 75 113
f 111 113 112
f 112 113 114
f 112 114 78
f 113 75 115
f 113 115 114
f 114 115 116
f 114 116 78
f 115 75 117
f 115 117 116
f 116 117 118
f 116 118 78
f 117 75 119
f 117 119 118
f 118 119 120
f 118 120 78
f 119 75 121
f 119 121 120
f 120 121 122
f 120 122 78
f 121 75 123
f 121 123 122
f 122 123 124
f 122 124 78
f 123 75 125
f 123 125 124
f 124 125 126
f 124 126 78
f 125 75 127
f 125 127 126
f 126 127 128
f 126 128 78
f 127 75 129
f 127 129 128
f 128 129 130
f 128 130 78
f 129 75 131
f 129 131 130
f 130 131 132
f 130 132 78
f 131 75 133
f 131 133 132
f 132 133 134
f 132 134 78
f 133 75 135
f 133 135 134
f 134 135 136
f 134 136 78
f 135 75 137
f 135 137 136
f 136 137 138
f 136 138 78
f 137 75 139
f 137 139 138
f 138 139 140
f 138 140 78
f 139 75 76
f 139 76 140
f 140 76 77
f 140 77 78
f 142 144 141
f 145 142 141
f 141 144 143
f 143 145 141
f 142 148 144
f 146 142 145
f 146 148 142
f 144 148 143
f 147 145 143
f 143 148 147
f 147 146 145
f 148 146 147

