v -0.204894220936 0.194845345616 0.0235224464102
v -0.181481728065 0.194845345616 0.0235224464102
v -0.204894220936 0.194845345616 0.0454683878584
v -0.204894220936 0.2212496683 0.0235224464102
v -0.184369595456 0.194845345616 0.0454683878584
v -0.177404247331 0.20221734345 0.0235224464102
v -0.177398869502 0.202220709622 0.0235245921774
v -0.177398869502 0.205220505595 0.0454683878584
v -0.204894220936 0.2212496683 0.0454683878584
v -0.204272511708 0.225900363922 0.0235224464102
v -0.177398869502 0.227615019679 0.0235224464102
v -0.177398869502 0.228967282176 0.0454683878584
v -0.204272511708 0.225900363922 0.0454683878584
v -0.200666026878 0.227604961395 0.0235224464102
v -0.177398869502 0.229124996066 0.0235224464102
v -0.177398869502 0.229124996066 0.0454662420912
v -0.177404247331 0.229124996066 0.0454683878584
v -0.200343062091 0.227755969763 0.0454683878584
v -0.199901677775 0.227964001894 0.0454683878584
v -0.199901677775 0.227964001894 0.0235224464102
v -0.192403428364 0.229124996066 0.0235224464102
v -0.192403428364 0.229124996066 0.0454683878584
f 1 2 5
f 1 5 3
f 1 3 9
f 1 9 4
f 1 4 10
f 1 10 14
f 1 14 20
f 1 20 21
f 1 21 15
f 1 15 11
f 1 11 6
f 1 6 2
f 2 6 7
f 2 7 8
f 2 8 5
f 3 5 8
f 3 8 12
f 3 12 17
f 3 17 22
f 3 22 19
f 3 19 18
f 3 18 13
f 3 13 9
f 4 9 13
f 4 13 10
f 6 11 7
f 7 11 15
f 7 15 16
f 7 16 12
f 7 12 8
f 10 13 14
f 12 16 17
f 13 18 14
f 14 18 19
f 14 19 20
f 15 21 22
f 15 22 17
f 15 17 16
f 19 22 21
f 19 21 20
