v -0.187915355074 0.221228894591 0.281048066275
v -0.187915355074 0.225058203936 0.281004265801
v -0.192404380548 0.221228894591 0.281048066275
v -0.187915355074 -0.0741032391787 0.281048066275
v -0.192404380548 0.225058203936 0.281004265801
v -0.187915355074 0.22630494833 0.278732984619
v -0.19638817172 0.225028538704 0.280985490338
v -0.196504512536 0.221228894591 0.281004265801
v -0.192404380548 -0.0741032391787 0.281048066275
v -0.187915355074 -0.0741032391787 0.217126800971
v -0.192404380548 0.227106446028 0.277206284658
v -0.187915355074 0.227106446028 0.277206284658
v -0.200253945696 0.221228894591 0.279446277873
v -0.199293325948 0.226186233759 0.27735644813
v -0.204066544878 0.225592526793 0.274947515981
v -0.196504512536 -0.0741032391787 0.281004265801
v -0.187915355074 0.229124996066 0.217126800971
v -0.204894220936 -0.0741032391787 0.217126800971
v -0.187915355074 0.22832352519 0.272720035271
v -0.192404380548 0.229124996066 0.269710422413
v -0.204272632408 0.221228894591 0.27569834675
v -0.201799595463 -0.0741032391787 0.278007178859
v -0.200253945696 -0.0741032391787 0.279446277873
v -0.199903273689 0.227937608957 0.269710422413
v -0.204272632408 0.225889366865 0.269710422413
v -0.204894220936 0.221228894591 0.269710422413
v -0.192404380548 0.229124996066 0.217126800971
v -0.187915355074 0.229124996066 0.269710422413
v -0.204894220936 -0.0741032391787 0.269710422413
v -0.204894220936 0.221228894591 0.217126800971
v -0.199818515885 0.227967301011 0.217126800971
v -0.204511965918 -0.0741032391787 0.273395777599
v -0.204272632408 -0.0741032391787 0.27569834675
v -0.199903273689 0.227937608957 0.217126800971
v -0.204224433112 0.225919058919 0.217126800971
v -0.204272632408 0.225889366865 0.217126800971
v -0.204280947256 0.22583000958 0.217126800971
f 1 2 5
f 1 5 3
f 1 3 9
f 1 9 4
f 1 4 10
f 1 10 17
f 1 17 28
f 1 28 19
f 1 19 12
f 1 12 6
f 1 6 2
f 2 6 5
f 3 5 7
f 3 7 8
f 3 8 16
f 3 16 9
f 4 9 16
f 4 16 23
f 4 23 22
f 4 22 33
f 4 33 32
f 4 32 29
f 4 29 18
f 4 18 10
f 5 6 11
f 5 11 7
f 6 12 11
f 7 13 8
f 7 11 14
f 7 14 15
f 7 15 13
f 8 13 23
f 8 23 16
f 10 18 30
f 10 30 37
f 10 37 36
f 10 36 35
f 10 35 34
f 10 34 31
f 10 31 27
f 10 27 17
f 11 12 19
f 11 19 20
f 11 20 14
f 13 15 21
f 13 21 22
f 13 22 23
f 14 20 24
f 14 24 15
f 15 24 25
f 15 25 26
f 15 26 21
f 17 27 20
f 17 20 28
f 18 29 26
f 18 26 30
f 19 28 20
f 20 27 31
f 20 31 24
f 21 26 32
f 21 32 33
f 21 33 22
f 24 31 34
f 24 34 35
f 24 35 25
f 25 35 36
f 25 36 37
f 25 37 26
f 26 37 30
f 26 29 32
