v -0.204892021525 0.194845345616 0.0454683878584
v -0.204892021525 0.2212496683 0.0454683878584
v -0.184370949971 0.194845345616 0.0454683878584
v -0.204892021525 0.194845345616 0.217126800971
v -0.204830585527 0.221719443798 0.0454683878584
v -0.204892021525 0.2212496683 0.217126800971
v -0.182477069008 0.203831335902 0.0454683878584
v -0.184370949971 0.194845345616 0.217126800971
v -0.20427316885 0.225900363922 0.0454683878584
v -0.20427316885 0.225900363922 0.217126800971
v -0.182477069008 0.229124996066 0.0454683878584
v -0.182477069008 0.203831335902 0.217126800971
v -0.200342753637 0.227755969763 0.0454683878584
v -0.199901664364 0.227964001894 0.217126800971
v -0.192405131566 0.229124996066 0.0454683878584
v -0.182477069008 0.229124996066 0.217126800971
v -0.199901664364 0.227964001894 0.0454683878584
v -0.199818261075 0.227977412939 0.217126800971
v -0.192405131566 0.229124996066 0.217126800971
f 1 2 5
f 1 5 9
f 1 9 13
f 1 13 17
f 1 17 15
f 1 15 11
f 1 11 7
f 1 7 3
f 1 3 8
f 1 8 4
f 1 4 6
f 1 6 2
f 2 6 5
f 3 7 12
f 3 12 8
f 4 8 12
f 4 12 16
f 4 16 19
f 4 19 18
f 4 18 14
f 4 14 10
f 4 10 6
f 5 6 10
f 5 10 9
f 7 11 16
f 7 16 12
f 9 10 13
f 10 14 13
f 11 15 19
f 11 19 16
f 13 14 17
f 14 18 17
f 15 17 18
f 15 18 19
