v -0.160595969963 -0.130593377352 0.043067643152
v -0.160595969963 -0.130593377352 0.127286280425
v -0.160595969963 -0.101451920718 0.043067643152
v 0.149490137291 -0.130593377352 0.043067643152
v -0.159490497517 -0.130593377352 0.127294524865
v -0.160595969963 -0.107314445078 0.127294524865
v -0.160595969963 -0.101451920718 0.127294524865
v 0.130082879854 -0.101451920718 0.043067643152
v 0.149398016823 -0.123749479651 0.043067643152
v 0.152438072753 -0.130593377352 0.0739684210284
v 0.149490137291 -0.130593377352 0.127294524865
v 0.130082879854 -0.101451920718 0.127294524865
v 0.136070884657 -0.103206400573 0.127294524865
v 0.136132293833 -0.103226369619 0.043067643152
v 0.149336594236 -0.122856558859 0.043067643152
v 0.153021520269 -0.130593377352 0.0820893586738
v 0.14906023283 -0.119684229791 0.043067643152
v 0.15262231369 -0.130593377352 0.096921401204
v 0.149398016823 -0.123749479651 0.127294524865
v 0.136132293833 -0.103226369619 0.127294524865
v 0.153113640738 -0.130593377352 0.0896908831908
v 0.14906023283 -0.119684229791 0.127294524865
v 0.149090930712 -0.119729867578 0.127294524865
f 1 2 6
f 1 6 7
f 1 7 3
f 1 3 8
f 1 8 14
f 1 14 17
f 1 17 15
f 1 15 9
f 1 9 4
f 1 4 10
f 1 10 16
f 1 16 21
f 1 21 18
f 1 18 11
f 1 11 5
f 1 5 2
f 2 5 6
f 3 7 12
f 3 12 8
f 4 9 10
f 5 11 19
f 5 19 23
f 5 23 22
f 5 22 20
f 5 20 13
f 5 13 12
f 5 12 7
f 5 7 6
f 8 12 13
f 8 13 14
f 9 15 10
f 10 15 17
f 10 17 16
f 11 18 19
f 13 20 14
f 14 20 22
f 14 22 17
f 16 17 21
f 17 22 23
f 17 23 21
f 18 21 23
f 18 23 19
