v 0.149487079573 -0.130603060126 0.127294521512
v 0.149892535699 -0.161254124343 0.127294521512
v 0.158032919359 -0.168747518957 0.118850731397
v 0.157845781637 -0.161254124343 0.118850731397
v 0.149487079573 -0.130603060126 0.118850731397
v -0.159504351127 -0.130603060126 0.127294521512
v 0.14992372979 -0.168747518957 0.127294521512
v 0.149518273664 -0.200500354171 0.118850731397
v 0.14992372979 -0.168829634786 0.127294521512
v 0.149487079573 -0.200500354171 0.127294521512
v -0.160595969963 -0.130603060126 0.118850731397
v -0.160595969963 -0.130603060126 0.127289562778
v -0.160533595192 -0.200500354171 0.127294521512
v -0.160595969963 -0.200500354171 0.118850731397
v -0.160595969963 -0.200500354171 0.127275509679
f 1 2 3
f 1 3 4
f 1 4 5
f 1 5 11
f 1 11 12
f 1 12 6
f 1 6 13
f 1 13 10
f 1 10 9
f 1 9 7
f 1 7 2
f 2 7 3
f 3 8 14
f 3 14 11
f 3 11 5
f 3 5 4
f 3 7 9
f 3 9 10
f 3 10 8
f 6 12 13
f 8 10 13
f 8 13 15
f 8 15 14
f 11 14 15
f 11 15 12
f 12 15 13
