v -0.160595969963 -0.200507193804 0.0525884793265
v -0.160595969963 -0.200507193804 0.118849904941
v -0.160595969963 -0.198227933049 0.0525884793265
v 0.149492752445 -0.200507193804 0.0525884793265
v -0.159881630647 -0.198227933049 0.118849904941
v -0.160595969963 -0.198227933049 0.118830445514
v 0.149523812425 -0.200507193804 0.118849904941
v 0.149523812425 -0.198227933049 0.0525884793265
v 0.156356686247 -0.198227933049 0.0822167300744
v 0.15219485004 -0.200507193804 0.0749004685445
v 0.149710158897 -0.198227933049 0.118849904941
v 0.15231907655 -0.200507193804 0.0992944822772
v 0.15669833262 -0.198227933049 0.0897081096782
v 0.156543046129 -0.198227933049 0.0858489138199
v 0.152753902865 -0.200507193804 0.0822167300744
v 0.152816009414 -0.200507193804 0.0906420984431
v 0.152847069395 -0.200507193804 0.0897081096782
f 1 2 6
f 1 6 3
f 1 3 8
f 1 8 4
f 1 4 10
f 1 10 15
f 1 15 17
f 1 17 16
f 1 16 12
f 1 12 7
f 1 7 2
f 2 5 6
f 2 7 11
f 2 11 5
f 3 6 5
f 3 5 11
f 3 11 13
f 3 13 14
f 3 14 9
f 3 9 8
f 4 8 9
f 4 9 10
f 7 12 13
f 7 13 11
f 9 14 15
f 9 15 10
f 12 16 13
f 13 16 17
f 13 17 15
f 13 15 14
