v -0.160595969963 -0.198227933049 0.067440909998
v -0.160595969963 -0.198227933049 0.118829776639
v -0.160595969963 -0.192604601383 0.067440909998
v 0.151134894681 -0.198227933049 0.067440909998
v -0.159871558952 -0.198227933049 0.118849906617
v -0.160595969963 -0.192604601383 0.118849906617
v 0.154230163884 -0.192604601383 0.067440909998
v 0.15393380661 -0.193148446083 0.067440909998
v 0.167566053462 -0.192604601383 0.0713458978696
v 0.172011358929 -0.195316086709 0.077646219091
v 0.172768707466 -0.195753139257 0.0822154593779
v 0.156370486212 -0.198227933049 0.0822154593779
v 0.149718983364 -0.198227933049 0.118849906617
v 0.150015340638 -0.192604601383 0.118849906617
v 0.173591904235 -0.192604601383 0.0757088192864
v 0.175534681869 -0.192604601383 0.082054429607
v 0.175798101616 -0.192604601383 0.0901915040924
v 0.172933341456 -0.195836260915 0.0897134439214
v 0.167566053462 -0.196672935784 0.0897134439214
v 0.156568057728 -0.198227933049 0.0858587742908
v 0.156666843486 -0.198227933049 0.0897134439214
v 0.172208930445 -0.195426177979 0.0946701661809
v 0.173954109741 -0.192604601383 0.0965773710175
v 0.149817769122 -0.197887761891 0.118849906617
v 0.169377107811 -0.192604601383 0.100879905851
v 0.175402958584 -0.192604601383 0.0918873575641
f 1 2 6
f 1 6 3
f 1 3 7
f 1 7 8
f 1 8 4
f 1 4 12
f 1 12 20
f 1 20 21
f 1 21 13
f 1 13 5
f 1 5 2
f 2 5 6
f 3 6 14
f 3 14 25
f 3 25 23
f 3 23 26
f 3 26 17
f 3 17 16
f 3 16 15
f 3 15 9
f 3 9 7
f 4 8 9
f 4 9 10
f 4 10 11
f 4 11 12
f 5 13 24
f 5 24 14
f 5 14 6
f 7 9 8
f 9 15 10
f 10 15 16
f 10 16 11
f 11 16 17
f 11 17 18
f 11 18 19
f 11 19 12
f 12 19 20
f 13 21 19
f 13 19 18
f 13 18 22
f 13 22 23
f 13 23 24
f 14 24 25
f 17 26 22
f 17 22 18
f 19 21 20
f 22 26 23
f 23 25 24
