v -0.181952723968 -0.0994084328413 0.24065104808
v -0.181952723968 -0.099421133101 0.233526188986
v -0.181952723968 -0.229124996066 0.24065104808
v 0.130064144624 -0.10145271197 0.24065104808
v 0.130064144624 -0.10145271197 0.233526188986
v -0.181952723968 -0.229124996066 0.233526188986
v 0.137577494872 -0.229124996066 0.24065104808
v 0.135379263652 -0.103001794964 0.24065104808
v 0.136133876336 -0.1032303527 0.233526188986
v 0.137577494872 -0.229124996066 0.233526188986
v 0.145090831709 -0.227575913072 0.24065104808
v 0.136133876336 -0.1032303527 0.24065104808
v 0.149060755861 -0.119686174393 0.233526188986
v 0.145090831709 -0.227575913072 0.233526188986
v 0.149159192932 -0.225506240129 0.24065104808
v 0.149060755861 -0.119686174393 0.24065104808
v 0.149126376105 -0.12020676434 0.24065104808
v 0.152538548303 -0.153791360557 0.233526188986
v 0.149159192932 -0.225506240129 0.233526188986
v 0.149454477322 -0.221773195267 0.24065104808
v 0.149388857079 -0.12376203239 0.24065104808
v 0.153161933911 -0.161257436872 0.233526188986
v 0.149487280739 -0.22123991847 0.233526188986
v 0.149487280739 -0.22123991847 0.24065104808
v 0.152604168546 -0.177954509854 0.233526188986
v 0.153227540744 -0.168748900294 0.233526188986
v 0.149421660495 -0.12470163703 0.24065104808
v 0.149848185373 -0.161257436872 0.24065104808
v 0.149880988789 -0.169688504934 0.24065104808
v 0.149880988789 -0.168748900294 0.24065104808
f 1 2 6
f 1 6 3
f 1 3 7
f 1 7 11
f 1 11 15
f 1 15 20
f 1 20 24
f 1 24 29
f 1 29 30
f 1 30 28
f 1 28 27
f 1 27 21
f 1 21 17
f 1 17 16
f 1 16 12
f 1 12 8
f 1 8 4
f 1 4 5
f 1 5 2
f 2 5 9
f 2 9 13
f 2 13 18
f 2 18 22
f 2 22 26
f 2 26 25
f 2 25 23
f 2 23 19
f 2 19 14
f 2 14 10
f 2 10 6
f 3 6 10
f 3 10 7
f 4 8 5
f 5 8 9
f 7 10 14
f 7 14 11
f 8 12 9
f 9 12 16
f 9 16 13
f 11 14 19
f 11 19 15
f 13 16 17
f 13 17 18
f 15 19 20
f 17 21 22
f 17 22 18
f 19 23 20
f 20 23 25
f 20 25 26
f 20 26 24
f 21 27 22
f 22 28 26
f 22 27 28
f 24 26 29
f 26 28 30
f 26 30 29
