v -0.164833149421 0.229124996066 0.0454683878584
v -0.164833149421 0.229124996066 0.0235224464102
v -0.170660905647 0.229124996066 0.0454683878584
v -0.164833149421 0.205299121141 0.0454683878584
v -0.177398869502 0.229124996066 0.0235224464102
v -0.164833149421 0.202588883042 0.0235224464102
v -0.177398869502 0.229124996066 0.0454662420912
v -0.177398869502 0.228966960311 0.0454683878584
v -0.177398869502 0.205220103264 0.0454683878584
v -0.177398869502 0.202220146358 0.0235245921774
v -0.172223010766 0.202283352613 0.0235224464102
v -0.177398869502 0.22761579752 0.0235224464102
f 1 2 5
f 1 5 7
f 1 7 3
f 1 3 8
f 1 8 9
f 1 9 4
f 1 4 6
f 1 6 2
f 2 6 11
f 2 11 12
f 2 12 5
f 3 7 8
f 4 9 10
f 4 10 11
f 4 11 6
f 5 12 10
f 5 10 9
f 5 9 8
f 5 8 7
f 10 12 11
