v -0.204890371966 -0.221235814691 0.0208849229975
v -0.204782681274 -0.222070249915 0.0208849229975
v -0.204890371966 -0.221235814691 0.0234932773872
v -0.204890371966 -0.0741329312325 0.0208849229975
v -0.177406755197 -0.0787602379918 0.0208846681877
v -0.204378861296 -0.225104552507 0.0234932773872
v -0.204271170604 -0.225893470645 0.0208849229975
v -0.204890371966 -0.0741329312325 0.0234932773872
v -0.177406755197 -0.0741329312325 0.0208846681877
v -0.16560719471 -0.229124996066 0.0208849229975
v -0.192402368891 -0.229124996066 0.0208849229975
v -0.199902093518 -0.227956786752 0.0208849229975
v -0.200675146389 -0.227592676878 0.0208849229975
v -0.204271170604 -0.225893470645 0.0234932773872
v -0.181918136883 -0.0741329312325 0.0234932773872
v -0.16560719471 -0.0909581266344 0.0208849229975
v -0.179472069549 -0.0741329312325 0.0220794313713
v -0.16560719471 -0.229124996066 0.0234932773872
v -0.192402368891 -0.229124996066 0.0234932773872
v -0.199902093518 -0.227956786752 0.0234932773872
v -0.16560719471 -0.0989838525653 0.0234932773872
f 1 2 3
f 1 3 8
f 1 8 4
f 1 4 9
f 1 9 5
f 1 5 2
f 2 6 3
f 2 5 7
f 2 7 6
f 3 6 14
f 3 14 20
f 3 20 19
f 3 19 18
f 3 18 21
f 3 21 15
f 3 15 8
f 4 8 15
f 4 15 17
f 4 17 9
f 5 9 16
f 5 16 10
f 5 10 11
f 5 11 12
f 5 12 13
f 5 13 7
f 6 7 14
f 7 13 14
f 9 17 16
f 10 18 19
f 10 19 11
f 10 16 21
f 10 21 18
f 11 19 20
f 11 20 12
f 12 20 13
f 13 20 14
f 15 21 16
f 15 16 17
