v -0.184088459718 0.198477378488 0.247491901474
v -0.184088459718 0.199077375233 0.217133057223
v -0.181215465176 0.198477378488 0.253423512833
v -0.184088459718 0.198477378488 0.281048066275
v -0.184088459718 0.203994306922 0.217126800971
v -0.182511186707 0.203820312023 0.217126800971
v -0.181215465176 0.204177314043 0.217151825981
v -0.181215465176 0.198477378488 0.281048066275
v -0.184088459718 0.221247093379 0.281048066275
v -0.184088459718 0.229124996066 0.217126800971
v -0.181215465176 0.217407149076 0.217126800971
v -0.181215465176 0.221247093379 0.281048066275
v -0.181215465176 0.222891072929 0.281029290812
v -0.184088459718 0.225072044134 0.281004265801
v -0.181215465176 0.229124996066 0.217126800971
v -0.184088459718 0.229124996066 0.269710422413
v -0.181215465176 0.225072044134 0.281004265801
v -0.184088459718 0.227133026719 0.277206284658
v -0.181215465176 0.229124996066 0.269710422413
v -0.181215465176 0.227133026719 0.277206284658
f 1 2 3
f 1 3 8
f 1 8 4
f 1 4 9
f 1 9 14
f 1 14 18
f 1 18 16
f 1 16 10
f 1 10 5
f 1 5 2
f 2 5 6
f 2 6 7
f 2 7 3
f 3 7 11
f 3 11 15
f 3 15 19
f 3 19 20
f 3 20 17
f 3 17 13
f 3 13 12
f 3 12 8
f 4 8 12
f 4 12 9
f 5 10 15
f 5 15 11
f 5 11 6
f 6 11 7
f 9 13 14
f 9 12 13
f 10 16 19
f 10 19 15
f 13 17 14
f 14 17 20
f 14 20 18
f 16 18 20
f 16 20 19
