v -0.164833162832 0.190896463394 -0.00412221018835
v -0.164833162832 0.190896463394 0.0197367363735
v -0.164833162832 0.203818944097 -0.00412221018835
v 0.137755606962 0.190896463394 -0.00412221018835
v -0.162463887143 0.203818944097 0.0242667325898
v -0.164833162832 0.203818944097 0.0242667325898
v 0.137570990515 0.190896463394 0.0197311707898
v 0.130093957377 0.203818944097 0.0242639565034
v 0.137570990515 0.203818944097 -0.00412221018835
v 0.141571049285 0.203818944097 -0.00408052866026
v 0.141571049285 0.190896463394 -0.00408052866026
v 0.143878768277 0.190896463394 0.0191253268285
v 0.137570990515 0.203818944097 0.0242250510617
v 0.142801834536 0.203818944097 -0.00328569625183
v 0.141755665732 0.190896463394 -0.00396379892393
v 0.144186471296 0.190896463394 0.0190947496457
v 0.145448021484 0.203818944097 0.021837764339
v 0.145324934912 0.203818944097 -0.00162654881044
v 0.145324934912 0.190896463394 -0.00162654881044
v 0.147786505413 0.190896463394 0.0171854862137
v 0.147940356922 0.190896463394 0.0170937680765
v 0.148617292834 0.203818944097 0.017921953754
v 0.1465864851 0.203818944097 -0.000412057979546
v 0.145509551358 0.190896463394 -0.00144867811962
v 0.149171142173 0.190896463394 0.0133419209285
v 0.14920190711 0.203818944097 0.0144341298504
v 0.149171142173 0.203818944097 0.00212252225117
v 0.149171142173 0.190896463394 0.00212252225117
v 0.149509610129 0.190896463394 0.00721391822533
v 0.149509610129 0.203818944097 0.00721391822533
f 1 2 6
f 1 6 3
f 1 3 9
f 1 9 4
f 1 4 11
f 1 11 15
f 1 15 19
f 1 19 24
f 1 24 28
f 1 28 29
f 1 29 25
f 1 25 21
f 1 21 20
f 1 20 16
f 1 16 12
f 1 12 7
f 1 7 2
f 2 5 6
f 2 7 8
f 2 8 5
f 3 6 5
f 3 5 8
f 3 8 13
f 3 13 17
f 3 17 22
f 3 22 26
f 3 26 30
f 3 30 27
f 3 27 23
f 3 23 18
f 3 18 14
f 3 14 10
f 3 10 9
f 4 9 10
f 4 10 11
f 7 12 13
f 7 13 8
f 10 14 15
f 10 15 11
f 12 16 13
f 13 16 17
f 14 18 19
f 14 19 15
f 16 20 17
f 17 20 21
f 17 21 22
f 18 23 19
f 19 23 24
f 21 25 22
f 22 25 26
f 23 27 28
f 23 28 24
f 25 29 26
f 26 29 30
f 27 30 29
f 27 29 28
