v -0.180451022196 -0.229112040997 0.0234932773872
v -0.180451022196 -0.10020744279 0.0234932773872
v -0.160597901153 -0.229112040997 0.0234932773872
v -0.180451022196 -0.229112040997 0.217126800971
v -0.180451022196 -0.0968271486461 0.0235122271939
v -0.180445201802 -0.0968141935766 0.0234932773872
v -0.160597901153 -0.0989770665765 0.0234932773872
v -0.160597901153 -0.229112040997 0.217126800971
v -0.180451022196 -0.0999743185937 0.217126800971
v -0.160597901153 -0.101463722438 0.217126800971
f 1 2 6
f 1 6 7
f 1 7 3
f 1 3 8
f 1 8 4
f 1 4 9
f 1 9 5
f 1 5 2
f 2 5 6
f 3 7 10
f 3 10 8
f 4 8 10
f 4 10 9
f 5 9 6
f 6 9 10
f 6 10 7
