v 0.0840485556844 -0.229124996066 0.1587774058
v 0.137591791046 -0.229124996066 0.1587774058
v 0.0840485556844 -0.229124996066 0.217121087865
v 0.0840485556844 -0.101464406401 0.1587774058
v 0.145093876016 -0.227575322986 0.1587774058
v 0.137591791046 -0.229124996066 0.217121087865
v 0.0840485556844 -0.101464406401 0.217121087865
v 0.130089706075 -0.101464406401 0.1587774058
v 0.145944203329 -0.227150407434 0.1587774058
v 0.145093876016 -0.227575322986 0.217121087865
v 0.130089706075 -0.101464406401 0.217121087865
v 0.130158276749 -0.101476898789 0.217121087865
v 0.136138006938 -0.103226530552 0.1587774058
v 0.149174079192 -0.225513267517 0.1587774058
v 0.149126081062 -0.225538238883 0.217121087865
v 0.136138006938 -0.103226530552 0.217121087865
v 0.149084935975 -0.119685557485 0.1587774058
v 0.149174079192 -0.225513267517 0.217121087865
v 0.149503239882 -0.221239154041 0.1587774058
v 0.154090903592 -0.175836221874 0.166003250064
v 0.154090903592 -0.184346924722 0.171264121415
v 0.154090903592 -0.185234239697 0.171995274828
v 0.154090903592 -0.191520412266 0.178004432203
v 0.154090903592 -0.192470222712 0.179124009715
v 0.154090903592 -0.197881579399 0.18775503646
v 0.154090903592 -0.198006543517 0.188371944533
v 0.154090903592 -0.199218794703 0.194706698613
v 0.154090903592 -0.199243792892 0.195643486933
v 0.154090903592 -0.199331273139 0.202206718282
v 0.149084935975 -0.119685557485 0.217121087865
v 0.154090903592 -0.131070663035 0.202206718282
v 0.154090903592 -0.13118314147 0.194706698613
v 0.154090903592 -0.13234539628 0.188166309626
v 0.154090903592 -0.132582838833 0.187612232299
v 0.154090903592 -0.134694904089 0.184093562992
v 0.154090903592 -0.138219152391 0.178844114499
v 0.154090903592 -0.141156037152 0.174611427741
v 0.154090903592 -0.145442636311 0.171749651538
v 0.154090903592 -0.150816495717 0.168225269125
v 0.154090903592 -0.154853153229 0.165871870437
v 0.149414096666 -0.123759698868 0.1587774058
v 0.154090903592 -0.198031541705 0.209512532608
v 0.154090903592 -0.197881579399 0.209889537202
v 0.154090903592 -0.196081951261 0.214030827688
v 0.154090903592 -0.193744942546 0.217121087865
v 0.150394712281 -0.168737715483 0.1587774058
v 0.154090903592 -0.168737715483 0.164746581496
v 0.154090903592 -0.169362589717 0.164843687521
v 0.154090903592 -0.175298841298 0.165797613481
v 0.154090903592 -0.13701941371 0.217121087865
v 0.154090903592 -0.132195420563 0.209066990869
v 0.154090903592 -0.132095441222 0.2084615023
v 0.154090903592 -0.155453015864 0.165769052984
v 0.154090903592 -0.161251804233 0.16480370249
v 0.150182133806 -0.147804629803 0.1587774058
v 0.150394712281 -0.162913942337 0.1587774058
v 0.150387859237 -0.161251804233 0.1587774058
v 0.154090903592 -0.162364062667 0.164792279632
v 0.150326141608 -0.155403032899 0.1587774058
f 1 2 6
f 1 6 3
f 1 3 7
f 1 7 4
f 1 4 8
f 1 8 13
f 1 13 17
f 1 17 41
f 1 41 55
f 1 55 59
f 1 59 57
f 1 57 56
f 1 56 46
f 1 46 19
f 1 19 14
f 1 14 9
f 1 9 5
f 1 5 2
f 2 5 10
f 2 10 6
f 3 6 10
f 3 10 15
f 3 15 18
f 3 18 45
f 3 45 50
f 3 50 30
f 3 30 16
f 3 16 12
f 3 12 11
f 3 11 7
f 4 7 11
f 4 11 8
f 5 9 10
f 8 12 13
f 8 11 12
f 9 14 15
f 9 15 10
f 12 16 13
f 13 16 30
f 13 30 17
f 14 18 15
f 14 19 20
f 14 20 21
f 14 21 22
f 14 22 23
f 14 23 24
f 14 24 25
f 14 25 26
f 14 26 27
f 14 27 28
f 14 28 29
f 14 29 18
f 17 30 31
f 17 31 32
f 17 32 33
f 17 33 34
f 17 34 35
f 17 35 36
f 17 36 37
f 17 37 38
f 17 38 39
f 17 39 40
f 17 40 41
f 18 29 42
f 18 42 43
f 18 43 44
f 18 44 45
f 19 46 47
f 19 47 48
f 19 48 49
f 19 49 20
f 20 49 48
f 20 48 47
f 20 47 58
f 20 58 54
f 20 54 53
f 20 53 40
f 20 40 39
f 20 39 38
f 20 38 37
f 20 37 36
f 20 36 35
f 20 35 34
f 20 34 33
f 20 33 32
f 20 32 31
f 20 31 52
f 20 52 51
f 20 51 50
f 20 50 45
f 20 45 44
f 20 44 43
f 20 43 42
f 20 42 29
f 20 29 28
f 20 28 27
f 20 27 26
f 20 26 25
f 20 25 24
f 20 24 23
f 20 23 22
f 20 22 21
f 30 50 51
f 30 51 52
f 30 52 31
f 40 53 41
f 41 53 54
f 41 54 55
f 46 56 47
f 47 56 57
f 47 57 58
f 54 58 57
f 54 57 59
f 54 59 55
