v 0.149509610129 0.190896449983 0.00721326108412
v 0.149171142173 0.190896449983 0.00212343420223
v 0.149171142173 0.190896449983 0.0133425378366
v 0.149509610129 -0.0741329178214 0.00721326108412
v 0.149171142173 -0.0741329178214 0.00212343420223
v 0.145509551358 0.190896449983 -0.00145043496653
v 0.147940356922 0.190896449983 0.0170915954872
v 0.148709614468 -0.0741329178214 0.0147837692066
v 0.149171142173 -0.0741329178214 0.0133425378366
v 0.145324934912 -0.0741329178214 -0.00162562344833
v 0.145324934912 0.190896449983 -0.00162562344833
v 0.147786505413 0.190896449983 0.01718736376
v 0.147940356922 -0.0741329178214 0.0170915954872
v 0.14301721592 -0.0741329178214 -0.00313691411777
v 0.141755665732 0.190896449983 -0.00396381233498
v 0.144186471296 0.190896449983 0.0190957554741
v 0.146494190288 -0.0741329178214 0.0178577550812
v 0.141571049285 -0.0741329178214 -0.00408060912653
v 0.141571049285 0.190896449983 -0.00408060912653
v 0.137570990515 0.190896449983 0.0197311171456
v 0.144186471296 -0.0741329178214 0.0190794074102
v 0.137570990515 -0.0741329178214 -0.00412498627468
v 0.137570990515 0.190896449983 -0.00412498627468
v 0.137570990515 -0.0741329178214 0.0197007411285
v 0.141663344097 -0.0741329178214 0.0193200015588
v -0.164833162832 0.190896449983 0.0197381177111
v -0.164833162832 -0.0741329178214 -0.00412498627468
v -0.164833162832 0.190896449983 -0.00412498627468
v -0.164833162832 -0.0741329178214 0.0197077551051
f 1 2 6
f 1 6 11
f 1 11 15
f 1 15 19
f 1 19 23
f 1 23 28
f 1 28 26
f 1 26 20
f 1 20 16
f 1 16 12
f 1 12 7
f 1 7 3
f 1 3 9
f 1 9 4
f 1 4 5
f 1 5 2
f 2 5 6
f 3 7 8
f 3 8 9
f 4 9 8
f 4 8 13
f 4 13 17
f 4 17 21
f 4 21 25
f 4 25 24
f 4 24 29
f 4 29 27
f 4 27 22
f 4 22 18
f 4 18 14
f 4 14 10
f 4 10 5
f 5 10 6
f 6 10 11
f 7 12 13
f 7 13 8
f 10 14 15
f 10 15 11
f 12 16 13
f 13 16 17
f 14 18 15
f 15 18 19
f 16 20 21
f 16 21 17
f 18 22 23
f 18 23 19
f 20 24 25
f 20 25 21
f 20 26 29
f 20 29 24
f 22 27 28
f 22 28 23
f 26 28 27
f 26 27 29
