v -0.181952723968 -0.0969908975065 0.252515450971
v -0.181952723968 -0.0994095593691 0.24065104808
v -0.181952723968 -0.229112067819 0.252515450971
v 0.13007410903 -0.0996165052056 0.252515450971
v 0.13007410903 -0.101453141123 0.24065104808
v -0.181952723968 -0.229112067819 0.24065104808
v 0.137577575338 -0.229112067819 0.252515450971
v 0.137447635722 -0.101608347148 0.252515450971
v 0.135368762803 -0.103005221486 0.24065104808
v 0.137577575338 -0.229112067819 0.24065104808
v 0.138519567144 -0.228930991888 0.24065104808
v 0.145081028235 -0.227572908998 0.252515450971
v 0.136115851891 -0.103225102276 0.24065104808
v 0.149076366318 -0.119043423235 0.252515450971
v 0.149076366318 -0.119690130651 0.24065104808
v 0.145081028235 -0.227572908998 0.24065104808
v 0.145600746465 -0.22731423676 0.24065104808
v 0.149173824382 -0.225516405702 0.252515450971
v 0.14940119524 -0.123751410842 0.252515450971
v 0.14940119524 -0.123751410842 0.24065104808
v 0.149173824382 -0.225516405702 0.24065104808
v 0.149466158343 -0.221778479218 0.24065104808
v 0.149271269036 -0.224261802435 0.252515450971
v 0.149498639894 -0.131253160536 0.252515450971
v 0.149498639894 -0.131253160536 0.24065104808
v 0.149498639894 -0.221248179674 0.24065104808
v 0.149498639894 -0.221248179674 0.252515450971
v 0.149888431919 -0.168748927116 0.24065104808
v 0.149855950368 -0.161260119081 0.24065104808
f 1 2 6
f 1 6 3
f 1 3 7
f 1 7 12
f 1 12 18
f 1 18 23
f 1 23 27
f 1 27 24
f 1 24 19
f 1 19 14
f 1 14 8
f 1 8 4
f 1 4 5
f 1 5 2
f 2 5 9
f 2 9 13
f 2 13 15
f 2 15 20
f 2 20 25
f 2 25 29
f 2 29 28
f 2 28 26
f 2 26 22
f 2 22 21
f 2 21 17
f 2 17 16
f 2 16 11
f 2 11 10
f 2 10 6
f 3 6 10
f 3 10 7
f 4 8 5
f 5 8 9
f 7 10 11
f 7 11 12
f 8 13 9
f 8 14 15
f 8 15 13
f 11 16 12
f 12 16 17
f 12 17 18
f 14 19 20
f 14 20 15
f 17 21 18
f 18 21 22
f 18 22 23
f 19 24 25
f 19 25 20
f 22 26 27
f 22 27 23
f 24 28 29
f 24 29 25
f 24 27 28
f 26 28 27
