v -0.192404648769 -0.229124996066 0.0234932773872
v -0.199903179812 -0.227956786752 0.0234932773872
v -0.180451035607 -0.229124996066 0.0234932773872
v -0.192404648769 -0.229124996066 0.217126800971
v -0.204272136199 -0.225893470645 0.0234932773872
v -0.199903179812 -0.227956786752 0.217126800971
v -0.199951030421 -0.227941632271 0.217126800971
v -0.180451035607 -0.100197572261 0.0234932773872
v -0.180451035607 -0.229124996066 0.217126800971
v -0.204379800069 -0.225104552507 0.0234932773872
v -0.204272136199 -0.225893470645 0.217126800971
v -0.18191772114 -0.0741329312325 0.0234932773872
v -0.180451035607 -0.0968295022845 0.0235122271939
v -0.180451035607 -0.0999700002372 0.217126800971
v -0.204894220936 -0.221235814691 0.0234932773872
v -0.204887046027 -0.22129649967 0.217126800971
v -0.204894220936 -0.0741329312325 0.0234932773872
v -0.184530487764 -0.0741329312325 0.217126800971
v -0.204894220936 -0.221235814691 0.217126800971
v -0.204894220936 -0.0741329312325 0.217126800971
f 1 2 5
f 1 5 10
f 1 10 15
f 1 15 17
f 1 17 12
f 1 12 8
f 1 8 3
f 1 3 9
f 1 9 4
f 1 4 6
f 1 6 2
f 2 6 7
f 2 7 5
f 3 8 13
f 3 13 14
f 3 14 9
f 4 9 14
f 4 14 18
f 4 18 20
f 4 20 19
f 4 19 16
f 4 16 11
f 4 11 7
f 4 7 6
f 5 7 11
f 5 11 10
f 8 12 13
f 10 11 16
f 10 16 15
f 12 17 20
f 12 20 18
f 12 18 14
f 12 14 13
f 15 16 19
f 15 19 20
f 15 20 17
