v 0.130065834415 -0.101464406401 0.158771696047
v 0.136123818052 -0.103226530552 0.158771696047
v 0.130065834415 -0.101464406401 0.127294521512
v -0.160595969963 -0.101464406401 0.158771696047
v 0.136123818052 -0.103226530552 0.127294521512
v 0.149061748278 -0.119685557485 0.158771696047
v -0.160595969963 -0.101464406401 0.127294521512
v -0.160595969963 -0.229124996066 0.158771696047
v 0.149061748278 -0.119685557485 0.127294521512
v 0.149153064084 -0.120535388589 0.158771696047
v -0.160595969963 -0.229124996066 0.127294521512
v 0.13758504529 -0.229124996066 0.158771696047
v 0.149396608663 -0.123759698868 0.127294521512
v 0.149396608663 -0.123759698868 0.158771696047
v 0.13758504529 -0.229124996066 0.127294521512
v 0.145073813093 -0.227575322986 0.158771696047
v 0.150157658649 -0.147804629803 0.158771696047
v 0.15030987401 -0.155403032899 0.158771696047
v 0.149914127481 -0.161251804233 0.127294521512
v 0.145073813093 -0.227575322986 0.127294521512
v 0.145134699238 -0.227550324798 0.127294521512
v 0.145926205707 -0.227150407434 0.158771696047
v 0.150370760155 -0.161251804233 0.158771696047
v 0.150401203227 -0.168737715483 0.158771696047
v 0.149914127481 -0.168825209141 0.127294521512
v 0.149153064084 -0.225513267517 0.127294521512
v 0.149153064084 -0.225513267517 0.158771696047
v 0.14948793788 -0.221239154041 0.158771696047
v 0.14948793788 -0.221289137006 0.127294521512
v 0.149427051735 -0.222126469016 0.158771696047
f 1 2 5
f 1 5 3
f 1 3 7
f 1 7 4
f 1 4 8
f 1 8 12
f 1 12 16
f 1 16 22
f 1 22 27
f 1 27 30
f 1 30 28
f 1 28 24
f 1 24 23
f 1 23 18
f 1 18 17
f 1 17 14
f 1 14 10
f 1 10 6
f 1 6 2
f 2 6 9
f 2 9 5
f 3 5 9
f 3 9 13
f 3 13 19
f 3 19 25
f 3 25 29
f 3 29 26
f 3 26 21
f 3 21 20
f 3 20 15
f 3 15 11
f 3 11 7
f 4 7 11
f 4 11 8
f 6 10 9
f 8 11 15
f 8 15 12
f 9 10 13
f 10 14 13
f 12 15 20
f 12 20 16
f 13 14 17
f 13 17 18
f 13 18 19
f 16 20 21
f 16 21 22
f 18 23 19
f 19 23 24
f 19 24 25
f 21 26 22
f 22 26 27
f 24 28 29
f 24 29 25
f 26 30 27
f 26 29 30
f 28 30 29
