v -0.160595969963 -0.132867769897 0.0525884793265
v -0.160595969963 -0.132867769897 0.118849904941
v -0.160595969963 -0.130596220493 0.0525884793265
v 0.149586428595 -0.132867769897 0.0525884793265
v -0.160595969963 -0.130596220493 0.118849904941
v 0.149555234504 -0.132867769897 0.118849904941
v 0.149492873144 -0.130596220493 0.0525884793265
v 0.149586428595 -0.13162715435 0.0525884793265
v 0.157664598418 -0.132867769897 0.0822167300744
v 0.149492873144 -0.130596220493 0.118849904941
v 0.158038873863 -0.132867769897 0.0897081096782
v 0.149524067235 -0.131175068021 0.118849904941
v 0.152455909443 -0.130596220493 0.0739729673727
v 0.153017322612 -0.130596220493 0.0820934959813
v 0.152643047166 -0.130596220493 0.0969205898358
v 0.153110878063 -0.130596220493 0.0896886502518
f 1 2 5
f 1 5 3
f 1 3 7
f 1 7 8
f 1 8 4
f 1 4 9
f 1 9 11
f 1 11 6
f 1 6 2
f 2 6 12
f 2 12 10
f 2 10 5
f 3 5 10
f 3 10 15
f 3 15 16
f 3 16 14
f 3 14 13
f 3 13 7
f 4 8 9
f 6 11 12
f 7 13 9
f 7 9 8
f 9 13 14
f 9 14 11
f 10 12 11
f 10 11 15
f 11 14 16
f 11 16 15
