v -0.164833162832 0.20529807508 0.0372214132114
v -0.164833162832 0.20529807508 0.217126800971
v -0.164833162832 0.229124996066 0.0372214132114
v 0.137570990515 0.20529807508 0.0372214132114
v -0.164833162832 0.229124996066 0.217126800971
v 0.137570990515 0.20529807508 0.217126800971
v 0.137570990515 0.229124996066 0.0372214132114
v 0.145078788591 0.207068306208 0.0372214132114
v 0.137570990515 0.229124996066 0.217126800971
v 0.145078788591 0.207068306208 0.217126800971
v 0.137663285327 0.229106327891 0.217126800971
v 0.145078788591 0.227581009269 0.0372214132114
v 0.149171142173 0.20941927582 0.0372214132114
v 0.149171142173 0.20941927582 0.217126800971
v 0.145078788591 0.227578675747 0.217126800971
v 0.145140318465 0.227555340528 0.217126800971
v 0.149171142173 0.225516915321 0.0447233506604
v 0.149171142173 0.225512248278 0.0372214132114
v 0.149478845191 0.213745719194 0.0372214132114
v 0.149509610129 0.213750386238 0.0447233506604
v 0.149509610129 0.213750386238 0.217126800971
v 0.149171142173 0.225516915321 0.217126800971
v 0.149509610129 0.22124876976 0.0447233506604
v 0.149509610129 0.221239435673 0.0372214132114
v 0.149509610129 0.22124876976 0.217126800971
f 1 2 5
f 1 5 3
f 1 3 7
f 1 7 12
f 1 12 18
f 1 18 24
f 1 24 19
f 1 19 13
f 1 13 8
f 1 8 4
f 1 4 6
f 1 6 2
f 2 6 10
f 2 10 14
f 2 14 21
f 2 21 25
f 2 25 22
f 2 22 16
f 2 16 15
f 2 15 11
f 2 11 9
f 2 9 5
f 3 5 9
f 3 9 7
f 4 8 10
f 4 10 6
f 7 9 11
f 7 11 12
f 8 13 14
f 8 14 10
f 11 15 12
f 12 15 16
f 12 16 17
f 12 17 18
f 13 19 20
f 13 20 21
f 13 21 14
f 16 22 17
f 17 22 25
f 17 25 23
f 17 23 18
f 18 23 24
f 19 24 20
f 20 24 23
f 20 23 25
f 20 25 21
