v 0.149509610129 0.167662069201 0.269710690634
v 0.149174427879 0.167662069201 0.263581360237
v 0.149174427879 0.167662069201 0.274799793319
v 0.149509610129 -0.0741329312325 0.269710690634
v 0.149174427879 -0.0741329312325 0.263581360237
v 0.148138397825 0.167662069201 0.260374430673
v 0.145335020018 0.167662069201 0.278550151841
v 0.149174427879 -0.0741329312325 0.274799793319
v 0.147955565048 -0.0741329312325 0.259831001715
v 0.147955565048 0.167662069201 0.259831001715
v 0.145335020018 -0.0741329312325 0.278550151841
v 0.14158702184 0.167662069201 0.281003756182
v 0.143902854514 -0.0741329312325 0.279492411868
v 0.144756065202 0.167662069201 0.258130749421
v 0.144207580281 -0.0741329312325 0.257841540234
v 0.141008067024 0.167662069201 0.281010743336
v 0.14158702184 -0.0741329312325 0.281003756182
v 0.144207580281 0.167662069201 0.257841540234
v 0.137595264507 -0.0741329312325 0.257221145289
v 0.137595264507 0.167662069201 0.281048066275
v 0.137595264507 -0.0741329312325 0.281048066275
v 0.137595264507 0.167662069201 0.257221145289
v -0.161786951232 -0.0741329312325 0.257221145289
v -0.161786951232 0.167662069201 0.281048066275
v -0.161786951232 -0.0741329312325 0.281048066275
v -0.161786951232 0.167662069201 0.257221145289
f 1 2 6
f 1 6 10
f 1 10 14
f 1 14 18
f 1 18 22
f 1 22 26
f 1 26 24
f 1 24 20
f 1 20 16
f 1 16 12
f 1 12 7
f 1 7 3
f 1 3 8
f 1 8 4
f 1 4 5
f 1 5 2
f 2 5 6
f 3 7 11
f 3 11 8
f 4 8 11
f 4 11 13
f 4 13 17
f 4 17 21
f 4 21 25
f 4 25 23
f 4 23 19
f 4 19 15
f 4 15 9
f 4 9 5
f 5 9 6
f 6 9 10
f 7 12 13
f 7 13 11
f 9 14 10
f 9 15 14
f 12 16 17
f 12 17 13
f 14 15 18
f 15 19 22
f 15 22 18
f 16 20 21
f 16 21 17
f 19 23 26
f 19 26 22
f 20 24 25
f 20 25 21
f 23 25 24
f 23 24 26
