v 0.154238237334 -0.13727927953 0.217126800971
v 0.151999129248 -0.13727927953 0.222790265189
v 0.167564524603 -0.139639006555 0.217126800971
v -0.181952737379 -0.13727927953 0.217126800971
v 0.169153572512 -0.144717434049 0.222790265189
v 0.171464885664 -0.142434203625 0.22103162791
v 0.172837264729 -0.141092509031 0.217211632536
v 0.172837264729 -0.141063085198 0.217126800971
v -0.181952737379 -0.13727927953 0.222790265189
v -0.181952737379 -0.197378893197 0.217126800971
v 0.172512207818 -0.146618168056 0.222790265189
v 0.172873367262 -0.146253320575 0.222465369211
v 0.180999146295 -0.155939407647 0.222284628557
v 0.176665393901 -0.14615328759 0.21731530662
v 0.176918192101 -0.146341592073 0.217126800971
v -0.181952737379 -0.197396542132 0.222790265189
v -0.181952737379 -0.197396542132 0.217158960657
v -0.181916608023 -0.197396542132 0.217126800971
v 0.173162294817 -0.147171320021 0.222790265189
v 0.179951824141 -0.155527487397 0.222790265189
v 0.182010365916 -0.158287373185 0.222790265189
v 0.184393937779 -0.161641596258 0.222790265189
v 0.186741380286 -0.163089211285 0.221771783487
v 0.185982958865 -0.158310909569 0.217211632536
v 0.185982958865 -0.158257949352 0.217126800971
v 0.150879575205 -0.197396542132 0.222790265189
v 0.151204605294 -0.197396542132 0.217126800971
v 0.184863431645 -0.165660792589 0.222790265189
v 0.186633045864 -0.168744340539 0.221596031742
v 0.186994178486 -0.168744340539 0.217211632536
v 0.186958075953 -0.162059403956 0.217211632536
v 0.184646735978 -0.168744340539 0.222790265189
v 0.186958075953 -0.162077066302 0.217126800971
v 0.151132373405 -0.197396542132 0.221481266723
v 0.173053933573 -0.189269891381 0.217126800971
v 0.173162294817 -0.189222805202 0.217126800971
v 0.171789915753 -0.187757541239 0.221223459498
v 0.172837264729 -0.183744232357 0.222790265189
v 0.151926897359 -0.197396542132 0.217146206753
v 0.186344118309 -0.17251637131 0.220996698843
v 0.186958075953 -0.168744340539 0.217126800971
v 0.186344118309 -0.172586993873 0.217126800971
v 0.182588194204 -0.171810226142 0.222790265189
v 0.173234499884 -0.183461768925 0.222790265189
v 0.173126165462 -0.183744232357 0.222692129867
v 0.180818579984 -0.174387681484 0.222790265189
f 1 2 3
f 1 3 8
f 1 8 15
f 1 15 25
f 1 25 33
f 1 33 41
f 1 41 42
f 1 42 36
f 1 36 35
f 1 35 27
f 1 27 18
f 1 18 10
f 1 10 4
f 1 4 9
f 1 9 2
f 2 5 6
f 2 6 7
f 2 7 8
f 2 8 3
f 2 9 16
f 2 16 26
f 2 26 38
f 2 38 44
f 2 44 46
f 2 46 43
f 2 43 32
f 2 32 28
f 2 28 22
f 2 22 21
f 2 21 20
f 2 20 19
f 2 19 11
f 2 11 5
f 4 10 17
f 4 17 16
f 4 16 9
f 5 11 6
f 6 11 12
f 6 12 13
f 6 13 14
f 6 14 7
f 7 14 15
f 7 15 8
f 10 18 17
f 11 19 12
f 12 19 13
f 13 20 21
f 13 21 22
f 13 22 23
f 13 23 24
f 13 24 14
f 13 19 20
f 14 24 15
f 15 24 25
f 16 17 18
f 16 18 27
f 16 27 39
f 16 39 34
f 16 34 26
f 22 28 23
f 23 29 30
f 23 30 31
f 23 31 25
f 23 25 24
f 23 28 32
f 23 32 29
f 25 31 33
f 26 34 35
f 26 35 36
f 26 36 37
f 26 37 38
f 27 35 39
f 29 32 40
f 29 40 30
f 30 41 33
f 30 33 31
f 30 40 42
f 30 42 41
f 32 43 40
f 34 39 35
f 36 42 40
f 36 40 37
f 37 40 44
f 37 44 45
f 37 45 38
f 38 45 44
f 40 43 46
f 40 46 44
