v 0.149478737903 -0.130603060126 0.0525884793265
v 0.154665700984 -0.161254124343 0.0525884793265
v 0.149478737903 -0.130603060126 0.043067643152
v -0.160565097737 -0.130603060126 0.0525884793265
v 0.154727445436 -0.163040220737 0.0525884793265
v 0.154789189887 -0.168747518957 0.0525884793265
v 0.149509636951 -0.137111024559 0.043067643152
v -0.160565097737 -0.130603060126 0.043067643152
v -0.160565097737 -0.200500354171 0.0525884793265
v 0.149602253628 -0.168747518957 0.043067643152
v 0.149602253628 -0.159611740708 0.043067643152
v 0.149509636951 -0.200500354171 0.0525884793265
v 0.149509636951 -0.200500354171 0.0522110388739
v 0.149478737903 -0.200500354171 0.043067643152
v -0.160565097737 -0.200500354171 0.043067643152
f 1 2 3
f 1 3 8
f 1 8 4
f 1 4 9
f 1 9 12
f 1 12 6
f 1 6 5
f 1 5 2
f 2 5 3
f 3 5 6
f 3 6 7
f 3 7 11
f 3 11 10
f 3 10 14
f 3 14 15
f 3 15 8
f 4 8 15
f 4 15 9
f 6 10 11
f 6 11 7
f 6 12 13
f 6 13 14
f 6 14 10
f 9 15 14
f 9 14 13
f 9 13 12
