v -0.160595969963 -0.229124996066 0.043067643152
v -0.160595969963 -0.229124996066 0.127294524865
v -0.160595969963 -0.200507193804 0.043067643152
v 0.137570105386 -0.229124996066 0.043067643152
v -0.160534614432 -0.200507193804 0.127294524865
v -0.160595969963 -0.200507193804 0.127269791545
v 0.137570105386 -0.229124996066 0.127294524865
v 0.149505345416 -0.200507193804 0.043067643152
v 0.145087157083 -0.227578702569 0.043067643152
v 0.149505345416 -0.200507193804 0.127294524865
v 0.145087157083 -0.227578702569 0.127294524865
v 0.152205337477 -0.200507193804 0.0749000595076
v 0.149505345416 -0.221247817576 0.043067643152
v 0.148278060448 -0.225967955589 0.043067643152
v 0.149505345416 -0.221295440197 0.127294524865
v 0.15232806195 -0.200507193804 0.0992876024111
v 0.149167843056 -0.225516968966 0.127294524865
v 0.152757617724 -0.200507193804 0.0822130252732
v 0.149167843056 -0.225516968966 0.043067643152
v 0.152818973255 -0.200507193804 0.0906390139027
v 0.152849657727 -0.200507193804 0.0897073720707
f 1 2 6
f 1 6 3
f 1 3 8
f 1 8 13
f 1 13 19
f 1 19 14
f 1 14 9
f 1 9 4
f 1 4 7
f 1 7 2
f 2 5 6
f 2 7 11
f 2 11 17
f 2 17 15
f 2 15 10
f 2 10 5
f 3 6 5
f 3 5 10
f 3 10 16
f 3 16 20
f 3 20 21
f 3 21 18
f 3 18 12
f 3 12 8
f 4 9 11
f 4 11 7
f 8 12 13
f 9 14 11
f 10 15 16
f 11 14 17
f 12 18 13
f 13 18 19
f 14 19 17
f 15 17 20
f 15 20 16
f 17 19 21
f 17 21 20
f 18 21 19
