v 0.137563882661 0.229124996066 0.269711106376
v 0.137563882661 0.227133026719 0.277210549371
v 0.1444270118 0.226059043407 0.276995302097
v 0.145074483645 0.227580016851 0.269711106376
v 0.140186117482 0.228587990999 0.252115158097
v 0.137563882661 0.229124996066 0.252115158097
v -0.181215451765 0.229124996066 0.269711106376
v 0.137563882661 0.225072044134 0.281002750353
v 0.141513422025 0.225048038363 0.28098858829
v -0.181215451765 0.227133026719 0.277210549371
v -0.181215451765 0.22608602643 0.279139218585
v 0.14905638386 0.225345039368 0.274352937297
v 0.149153506649 0.225516030192 0.269711106376
v 0.146498897565 0.226866012812 0.252115158097
v 0.145074483645 0.227580016851 0.252115158097
v -0.181215451765 0.229124996066 0.252115158097
v 0.137563882661 0.221247093379 0.281048066275
v -0.181215451765 0.225072044134 0.281002750353
v 0.14157817055 0.221247093379 0.281002750353
v 0.145333464337 0.221247093379 0.27855013843
v 0.149153506649 0.221247093379 0.274800410227
v 0.149509610129 0.221247093379 0.269711106376
v 0.149153506649 0.225516030192 0.252115158097
v -0.181215451765 0.203457315266 0.252115158097
v 0.137563882661 0.198477378488 0.281048066275
v 0.141448673499 0.198477378488 0.281005580084
v -0.181215451765 0.221247093379 0.281048066275
v 0.145203967285 0.198477378488 0.278637940542
v 0.14157817055 0.198477378488 0.281002750353
v 0.145333464337 0.198477378488 0.27855013843
v 0.149024009598 0.198477378488 0.274936357991
v 0.149153506649 0.198477378488 0.274800410227
v 0.149509610129 0.198477378488 0.269711106376
v 0.149509610129 0.221247093379 0.252115158097
v -0.181215451765 0.198477378488 0.253426423029
v 0.137563882661 0.204009313881 0.252115158097
v -0.181215451765 0.198477378488 0.281048066275
v 0.149185880912 0.198477378488 0.263803299622
v 0.149509610129 0.213750185072 0.252115158097
v 0.137563882661 0.198477378488 0.255822400109
v 0.142905475092 0.204999303818 0.252115158097
v 0.137822876764 0.198477378488 0.255845051364
v 0.149153506649 0.20883024931 0.252115158097
v 0.1492830037 0.210330234468 0.252115158097
v 0.149153506649 0.198477378488 0.263579563157
v 0.145462961388 0.205611290038 0.252115158097
v 0.1444270118 0.198477378488 0.257161989169
v 0.148182305587 0.198477378488 0.259829848365
v 0.144556508851 0.198477378488 0.257235629217
f 1 2 3
f 1 3 4
f 1 4 5
f 1 5 6
f 1 6 16
f 1 16 7
f 1 7 10
f 1 10 2
f 2 8 9
f 2 9 3
f 2 10 11
f 2 11 8
f 3 12 4
f 3 9 12
f 4 12 13
f 4 13 14
f 4 14 15
f 4 15 5
f 5 15 14
f 5 14 23
f 5 23 34
f 5 34 39
f 5 39 44
f 5 44 43
f 5 43 46
f 5 46 41
f 5 41 36
f 5 36 24
f 5 24 16
f 5 16 6
f 7 16 24
f 7 24 35
f 7 35 37
f 7 37 27
f 7 27 18
f 7 18 11
f 7 11 10
f 8 17 9
f 8 11 18
f 8 18 27
f 8 27 17
f 9 17 19
f 9 19 20
f 9 20 12
f 12 20 21
f 12 21 22
f 12 22 13
f 13 22 34
f 13 34 23
f 13 23 14
f 17 25 26
f 17 26 19
f 17 27 37
f 17 37 25
f 19 28 20
f 19 26 29
f 19 29 28
f 20 28 30
f 20 30 31
f 20 31 21
f 21 31 32
f 21 32 33
f 21 33 22
f 22 33 39
f 22 39 34
f 24 36 35
f 25 37 35
f 25 35 40
f 25 40 42
f 25 42 47
f 25 47 49
f 25 49 48
f 25 48 45
f 25 45 38
f 25 38 33
f 25 33 32
f 25 32 31
f 25 31 30
f 25 30 28
f 25 28 29
f 25 29 26
f 33 38 39
f 35 36 40
f 36 41 42
f 36 42 40
f 38 43 44
f 38 44 39
f 38 45 43
f 41 46 42
f 42 46 47
f 43 45 48
f 43 48 49
f 43 49 46
f 46 49 47
