v 0.149509583307 -0.0741329312325 0.00721218820051
v 0.149509583307 -0.131253629923 0.0208848425312
v 0.149509583307 -0.221235814691 0.00721218820051
v 0.149301443887 -0.0741329312325 0.00407860364155
v 0.149162693215 -0.0741329312325 0.0133422427936
v 0.149405513597 -0.123758921027 0.0208848425312
v 0.149509583307 -0.221235814691 0.0208848425312
v 0.14923205514 -0.224755597115 0.0208848425312
v 0.149162693215 -0.225514179468 0.00721218820051
v 0.149058623505 -0.22533211112 0.00257057185606
v 0.149162693215 -0.221235814691 0.00212257589535
v 0.149162693215 -0.0741329312325 0.00212257589535
v 0.148711706591 -0.0741329312325 0.0147841715379
v 0.149370832634 -0.122378307581 0.0208848425312
v 0.149162693215 -0.225514179468 0.0208848425312
v 0.145069132638 -0.227577495575 0.00721218820051
v 0.14444471438 -0.22606035769 -7.33754472351e-05
v 0.141495974255 -0.225043854117 -0.00406623248621
v 0.145346660805 -0.221235814691 -0.00162793014809
v 0.145346660805 -0.0741329312325 -0.00162793014809
v 0.147948510838 -0.0741329312325 0.017092735426
v 0.149093304467 -0.118297179043 0.0208848425312
v 0.145069132638 -0.227577495575 0.0208848425312
v 0.143750880552 -0.227850598097 0.0208848425312
v 0.137575872135 -0.229124996066 0.00721218820051
v 0.137575872135 -0.227122351527 -0.000286369665108
v 0.14156533618 -0.221235814691 -0.00408093099161
v 0.137575872135 -0.22505903542 -0.00408093099161
v 0.137575872135 -0.221235814691 -0.00412254546448
v 0.143022365761 -0.0741329312325 -0.00313840274378
v 0.144201867175 -0.0741329312325 0.0190806009932
v 0.143542741132 -0.102791898698 0.0208848425312
v 0.137575872135 -0.229124996066 0.0208848425312
v -0.192370732236 -0.229124996066 0.00721218820051
v -0.192370732236 -0.227122351527 -0.000286369665108
v 0.139102290464 -0.0741329312325 -0.00410786037012
v 0.14156533618 -0.0741329312325 -0.00408093099161
v -0.192370732236 -0.22505903542 -0.00408093099161
v 0.137575872135 -0.0741329312325 -0.00412254546448
v -0.192370732236 -0.221235814691 -0.00412254546448
v 0.14166940589 -0.0741329312325 0.0193180569573
v 0.141426585508 -0.0969660401344 0.0208848425312
v -0.192370732236 -0.229124996066 0.0208848425312
v -0.199898700523 -0.227956786752 0.00721218820051
v -0.199274255442 -0.226212063432 -0.000433247430763
v -0.19636019628 -0.225043854117 -0.00406623248621
v -0.192370732236 -0.0741329312325 -0.00412254546448
v -0.196498973775 -0.221235814691 -0.00408093099161
v -0.194903193521 -0.0741329312325 -0.00409805689617
v 0.137575872135 -0.0741329312325 0.0196999632879
v 0.136084161592 -0.0948723748326 0.0208848425312
v -0.199898700523 -0.227956786752 0.0208848425312
v -0.204269762444 -0.225893470645 0.00721218820051
v -0.204061623025 -0.225590032339 0.00197078968719
v -0.200245617437 -0.221235814691 -0.00252637629076
v -0.196498973775 -0.0741329312325 -0.00408093099161
v 0.130082611633 -0.09425034374 0.0208848425312
v -0.17738421123 -0.0741329312325 0.020882401721
v -0.204269762444 -0.225893470645 0.0208848425312
v -0.204894207525 -0.221235814691 0.00721218820051
v -0.204269762444 -0.221235814691 0.00122411634163
v -0.200245617437 -0.0741329312325 -0.00252637629076
v -0.179708506274 -0.0741329312325 0.0208848425312
v -0.204894207525 -0.221235814691 0.0208848425312
v -0.204894207525 -0.0741329312325 0.00721218820051
v -0.204269762444 -0.0741329312325 0.00122411634163
v -0.204894207525 -0.0741329312325 0.0208848425312
f 1 2 7
f 1 7 3
f 1 3 4
f 1 4 12
f 1 12 20
f 1 20 30
f 1 30 37
f 1 37 36
f 1 36 39
f 1 39 47
f 1 47 49
f 1 49 56
f 1 56 62
f 1 62 66
f 1 66 65
f 1 65 67
f 1 67 63
f 1 63 58
f 1 58 50
f 1 50 41
f 1 41 31
f 1 31 21
f 1 21 13
f 1 13 5
f 1 5 2
f 2 5 6
f 2 6 14
f 2 14 22
f 2 22 32
f 2 32 42
f 2 42 51
f 2 51 57
f 2 57 63
f 2 63 67
f 2 67 64
f 2 64 59
f 2 59 52
f 2 52 43
f 2 43 33
f 2 33 24
f 2 24 23
f 2 23 15
f 2 15 8
f 2 8 7
f 3 7 8
f 3 8 9
f 3 9 10
f 3 10 11
f 3 11 4
f 4 11 12
f 5 13 14
f 5 14 6
f 8 15 9
f 9 15 23
f 9 23 16
f 9 16 10
f 10 16 17
f 10 17 18
f 10 18 19
f 10 19 11
f 11 19 20
f 11 20 12
f 13 21 14
f 14 21 22
f 16 23 24
f 16 24 25
f 16 25 17
f 17 25 26
f 17 26 18
f 18 27 19
f 18 26 28
f 18 28 29
f 18 29 27
f 19 27 30
f 19 30 20
f 21 31 22
f 22 31 32
f 24 33 25
f 25 33 43
f 25 43 34
f 25 34 35
f 25 35 26
f 26 35 38
f 26 38 28
f 27 29 36
f 27 36 37
f 27 37 30
f 28 38 40
f 28 40 29
f 29 39 36
f 29 40 47
f 29 47 39
f 31 41 42
f 31 42 32
f 34 43 52
f 34 52 44
f 34 44 45
f 34 45 35
f 35 45 46
f 35 46 38
f 38 46 40
f 40 46 48
f 40 48 49
f 40 49 47
f 41 50 42
f 42 50 51
f 44 52 59
f 44 59 53
f 44 53 54
f 44 54 45
f 45 54 46
f 46 54 55
f 46 55 48
f 48 56 49
f 48 55 62
f 48 62 56
f 50 57 51
f 50 58 57
f 53 59 64
f 53 64 60
f 53 60 54
f 54 60 61
f 54 61 55
f 55 61 66
f 55 66 62
f 57 58 63
f 60 64 67
f 60 67 65
f 60 65 66
f 60 66 61
