v -0.184370815861 0.194845345616 0.217126800971
v -0.184275959539 0.194845345616 0.0295522400303
v -0.204892195868 0.194845345616 0.217126800971
v -0.184530273187 -0.0741065919399 0.217126800971
v -0.184275959539 -0.0741065919399 0.0290757791264
v -0.184275959539 0.194845345616 -0.00412498627468
v -0.204892195868 0.194845345616 0.00722348030046
v -0.204892195868 -0.0741065919399 0.217126800971
v -0.184275959539 -0.0741065919399 -0.00412498627468
v -0.192404179382 0.194845345616 -0.00412498627468
v -0.20457126956 0.194845345616 0.00410480882362
v -0.204892195868 -0.0741065919399 0.00722348030046
v -0.192404179382 -0.0741065919399 -0.00412498627468
v -0.196503600585 0.194845345616 -0.00408166859909
v -0.204272538531 0.194845345616 0.00122438456253
v -0.204272538531 -0.0741065919399 0.00122438456253
v -0.196503600585 -0.0741065919399 -0.00408166859909
v -0.200253851819 0.194845345616 -0.00252233956619
v -0.200253851819 -0.0741065919399 -0.00252233956619
f 1 2 6
f 1 6 10
f 1 10 14
f 1 14 18
f 1 18 15
f 1 15 11
f 1 11 7
f 1 7 3
f 1 3 8
f 1 8 4
f 1 4 5
f 1 5 2
f 2 5 9
f 2 9 6
f 3 7 12
f 3 12 8
f 4 8 12
f 4 12 16
f 4 16 19
f 4 19 17
f 4 17 13
f 4 13 9
f 4 9 5
f 6 9 13
f 6 13 10
f 7 11 12
f 10 13 17
f 10 17 14
f 11 15 16
f 11 16 12
f 14 17 19
f 14 19 18
f 15 18 19
f 15 19 16
