v -0.160595969963 -0.137605074048 0.0525899277194
v -0.160595969963 -0.137605074048 0.067440909998
v -0.160595969963 -0.132867997885 0.0525899277194
v 0.149634601069 -0.137605074048 0.0525899277194
v -0.160595969963 -0.132867997885 0.067440909998
v 0.154101230097 -0.137605074048 0.067440909998
v 0.149603782487 -0.132867997885 0.0525899277194
v 0.153700776291 -0.137605074048 0.0657631748481
v 0.151513649416 -0.132867997885 0.067440909998
v 0.149850223851 -0.132867997885 0.053830053763
v 0.152006532145 -0.133766712248 0.067440909998
f 1 2 5
f 1 5 3
f 1 3 7
f 1 7 4
f 1 4 8
f 1 8 6
f 1 6 2
f 2 6 11
f 2 11 9
f 2 9 5
f 3 5 9
f 3 9 10
f 3 10 7
f 4 7 8
f 6 8 7
f 6 7 10
f 6 10 11
f 9 11 10
