v -0.160595969963 -0.192599223554 0.0525884793265
v -0.160595969963 -0.192599223554 0.118849904941
v -0.160595969963 -0.137610907853 0.0525884793265
v 0.149601690364 -0.192599223554 0.0525884793265
v -0.160595969963 -0.137610907853 0.118849904941
v 0.15000997622 -0.192599223554 0.118849904941
v 0.149635714186 -0.137610907853 0.0525884793265
v 0.154807375264 -0.168749772012 0.0525884793265
v 0.172159671676 -0.168749772012 0.0555720613463
v 0.171581253302 -0.172819796205 0.0558509641452
v 0.173146362496 -0.182364960015 0.0618051462932
v 0.173180386317 -0.189282913506 0.0685895525976
v 0.173588685584 -0.192599223554 0.075711226569
v 0.149669738007 -0.137610907853 0.118849904941
v 0.169403715325 -0.192599223554 0.100877076121
v 0.173146362496 -0.189191383123 0.104710328312
v 0.17178539623 -0.187759338319 0.108718705283
v 0.172295766962 -0.173858830333 0.116456553073
v 0.173112338674 -0.168749772012 0.116923549132
v 0.167566415561 -0.168749772012 0.117889969157
v 0.158005641294 -0.168749772012 0.118849904941
v 0.17324843396 -0.137610907853 0.0760030978485
v 0.173146362496 -0.140905693173 0.0687841334505
v 0.173112338674 -0.147829024494 0.0619024367197
v 0.171479181838 -0.157347272336 0.0559093357189
v 0.172091624034 -0.161250396073 0.0556174644394
v 0.154671279979 -0.161250396073 0.0525884793265
v 0.1547053038 -0.163043144345 0.0525884793265
v 0.179032537234 -0.164491336048 0.0631347843571
v 0.179032537234 -0.165519601107 0.0631347843571
v 0.176242557061 -0.168308320642 0.0602679588957
v 0.177977785361 -0.176249161363 0.0647173815532
v 0.173792828512 -0.175689263642 0.0594701760574
v 0.179781061304 -0.181358219683 0.0696078599556
v 0.175664152098 -0.184362280369 0.0665983342691
v 0.178147904468 -0.186418823898 0.0747123786374
v 0.174201114369 -0.191565567255 0.0749718153043
v 0.176820962024 -0.191107955575 0.0819767461284
v 0.175528056813 -0.192599223554 0.0820545771284
v 0.157835522187 -0.161250396073 0.118849904941
v 0.167566415561 -0.161250396073 0.117805650563
v 0.173044291032 -0.161250396073 0.116884633632
v 0.172227719319 -0.156345909834 0.116398181499
v 0.172874171925 -0.146251630783 0.109964024754
v 0.171445158017 -0.142434632778 0.10853060867
v 0.172840148104 -0.141094118357 0.104710328312
v 0.173554661763 -0.137610907853 0.096265500517
v 0.173928923798 -0.192599223554 0.0965768278702
v 0.174507328761 -0.191700160503 0.0971865174486
v 0.186347712469 -0.172518315911 0.10849169317
v 0.182571041477 -0.168749772012 0.111514189014
v 0.186755998326 -0.16309158504 0.109270019935
v 0.174643424046 -0.137610907853 0.0809000604911
v 0.17794376154 -0.143818223476 0.0747123786374
v 0.173792828512 -0.13854765594 0.0752701775296
v 0.17967898984 -0.148717318475 0.0696856909557
v 0.175630128277 -0.145772480965 0.0667345435484
v 0.17794376154 -0.153751006722 0.0647952125533
v 0.173690757048 -0.154413190484 0.0595285476311
v 0.176140485597 -0.161691847444 0.0602679588957
v 0.180767765534 -0.153751006722 0.0685441495045
v 0.181039956105 -0.161691847444 0.0667994060679
v 0.181039956105 -0.168308320642 0.0667799466415
v 0.180869836998 -0.176249161363 0.0684663185044
v 0.183489684654 -0.176249161363 0.0747123786374
v 0.180869836998 -0.182671818137 0.0747123786374
v 0.179542894554 -0.188513052464 0.08431820731
v 0.175766223562 -0.192599223554 0.0901815899773
v 0.18314944644 -0.160857385397 0.110839640269
v 0.181005932284 -0.1559421435 0.109782415734
v 0.176684866739 -0.146154722571 0.104814106332
v 0.179883132768 -0.148588116467 0.102381838964
v 0.174030995262 -0.138418453932 0.0968687025024
v 0.178045833004 -0.143662105501 0.097205976875
v 0.17648072381 -0.139139860868 0.0895135288252
v 0.175187805188 -0.137610907853 0.0895783879919
v 0.175391961527 -0.192599223554 0.0918809336735
v 0.177093166006 -0.191107955575 0.090402114497
v 0.179542894554 -0.188513052464 0.0883654997809
v 0.181380194319 -0.184480713308 0.090402114497
v 0.186347712469 -0.172550609708 0.104710328312
v 0.186994178486 -0.168749772012 0.104710328312
v 0.186653926862 -0.168749772012 0.109094895156
v 0.186960141254 -0.162057942152 0.104710328312
v 0.185973450434 -0.158310936391 0.104710328312
v 0.17498366226 -0.137610907853 0.0823659078343
v 0.176310604704 -0.139139860868 0.0824437388344
v 0.179236680162 -0.141896273196 0.0850965307219
v 0.180767765534 -0.147565229237 0.0747123786374
v 0.183387613189 -0.153751006722 0.0747123786374
v 0.184068103028 -0.161250396073 0.0747123786374
v 0.184102126849 -0.168749772012 0.0747123786374
v 0.186653926862 -0.168749772012 0.0998263375028
v 0.186347712469 -0.172545231879 0.100883563714
v 0.184102126849 -0.176249161363 0.0822167300744
v 0.181380194319 -0.184319204092 0.0819767461284
v 0.180937884641 -0.14741448909 0.097205976875
v 0.179236680162 -0.141896273196 0.0868866806044
v 0.186755998326 -0.162989298999 0.0995214943899
v 0.184068103028 -0.153751006722 0.0822167300744
v 0.181142027569 -0.145820935071 0.0824437388344
v 0.18117605139 -0.145783250034 0.0895135288252
f 1 2 5
f 1 5 3
f 1 3 7
f 1 7 27
f 1 27 28
f 1 28 8
f 1 8 4
f 1 4 13
f 1 13 39
f 1 39 68
f 1 68 77
f 1 77 48
f 1 48 15
f 1 15 6
f 1 6 2
f 2 6 21
f 2 21 40
f 2 40 14
f 2 14 5
f 3 5 14
f 3 14 47
f 3 47 76
f 3 76 86
f 3 86 53
f 3 53 22
f 3 22 7
f 4 8 9
f 4 9 10
f 4 10 11
f 4 11 12
f 4 12 13
f 6 15 16
f 6 16 17
f 6 17 18
f 6 18 19
f 6 19 20
f 6 20 21
f 7 22 23
f 7 23 24
f 7 24 25
f 7 25 26
f 7 26 27
f 8 28 9
f 9 28 27
f 9 27 26
f 9 26 29
f 9 29 30
f 9 30 31
f 9 31 10
f 10 31 32
f 10 32 33
f 10 33 11
f 11 33 32
f 11 32 34
f 11 34 35
f 11 35 12
f 12 35 34
f 12 34 36
f 12 36 37
f 12 37 13
f 13 37 38
f 13 38 39
f 14 40 41
f 14 41 42
f 14 42 43
f 14 43 44
f 14 44 45
f 14 45 46
f 14 46 47
f 15 48 16
f 16 48 49
f 16 49 50
f 16 50 17
f 17 50 18
f 18 50 51
f 18 51 19
f 19 42 20
f 19 51 52
f 19 52 42
f 20 42 41
f 20 41 40
f 20 40 21
f 22 53 54
f 22 54 55
f 22 55 23
f 23 55 54
f 23 54 56
f 23 56 57
f 23 57 24
f 24 57 56
f 24 56 58
f 24 58 59
f 24 59 25
f 25 59 58
f 25 58 60
f 25 60 26
f 26 60 29
f 29 61 62
f 29 62 63
f 29 63 30
f 29 60 58
f 29 58 61
f 30 63 64
f 30 64 31
f 31 64 32
f 32 64 34
f 34 64 65
f 34 65 66
f 34 66 36
f 36 66 67
f 36 67 38
f 36 38 37
f 38 67 39
f 39 67 68
f 42 52 43
f 43 52 69
f 43 69 70
f 43 70 44
f 44 70 45
f 45 70 71
f 45 71 46
f 46 71 72
f 46 72 73
f 46 73 47
f 47 73 74
f 47 74 75
f 47 75 76
f 48 77 49
f 49 77 78
f 49 78 50
f 50 79 80
f 50 80 81
f 50 81 82
f 50 82 83
f 50 83 51
f 50 78 79
f 51 83 52
f 52 83 82
f 52 82 84
f 52 84 85
f 52 85 71
f 52 71 70
f 52 70 69
f 53 86 87
f 53 87 54
f 54 87 88
f 54 88 89
f 54 89 56
f 56 89 90
f 56 90 61
f 56 61 58
f 61 90 62
f 62 90 91
f 62 91 92
f 62 92 63
f 63 92 65
f 63 65 64
f 65 92 93
f 65 93 94
f 65 94 95
f 65 95 96
f 65 96 66
f 66 96 67
f 67 96 80
f 67 80 79
f 67 79 68
f 68 79 78
f 68 78 77
f 71 85 72
f 72 85 97
f 72 97 74
f 72 74 73
f 74 97 75
f 75 97 98
f 75 98 76
f 76 98 88
f 76 88 86
f 80 96 94
f 80 94 81
f 81 94 82
f 82 94 93
f 82 93 99
f 82 99 84
f 84 99 100
f 84 100 85
f 85 100 101
f 85 101 102
f 85 102 97
f 86 88 87
f 88 98 102
f 88 102 101
f 88 101 89
f 89 101 90
f 90 100 99
f 90 99 91
f 90 101 100
f 91 99 92
f 92 99 93
f 94 96 95
f 97 102 98
