v 0.130059048426 -0.101362609863 0.0297245250209
v 0.130089411032 -0.101462662965 0.043067643152
v 0.136132079256 -0.103226020932 0.043067643152
v 0.136132079256 -0.103201009333 0.0297245250209
v -0.160565607357 -0.101362609863 0.0297245250209
v -0.160565607357 -0.101462662965 0.043067643152
v 0.149067622316 -0.119696567953 0.043067643152
v 0.149067622316 -0.119696567953 0.0297245250209
v -0.160565607357 -0.229124996066 0.0297245250209
v -0.160565607357 -0.229124996066 0.043067643152
v 0.149340912593 -0.122860608995 0.043067643152
v 0.149401637805 -0.123773552477 0.0297245250209
v 0.137589605046 -0.229124996066 0.0297245250209
v 0.137589605046 -0.229124996066 0.043067643152
v 0.149401637805 -0.123761039972 0.043067643152
v 0.149401637805 -0.123761039972 0.0372110934122
v 0.149492739034 -0.131264707446 0.0297245250209
v 0.145089785648 -0.22757422328 0.0297245250209
v 0.145089785648 -0.22757422328 0.043067643152
v 0.149492739034 -0.131252208352 0.043067643152
v 0.149492739034 -0.131252208352 0.0372110934122
v 0.149583826852 -0.159616059065 0.043067643152
v 0.149492739034 -0.221246141195 0.0297245250209
v 0.149158723545 -0.225510746241 0.0297245250209
v 0.148278127504 -0.225960955024 0.043067643152
v 0.149583826852 -0.1687455073 0.043067643152
v 0.149492739034 -0.221246141195 0.043067643152
v 0.149249811363 -0.224572777748 0.043067643152
v 0.149158723545 -0.225510746241 0.043067643152
f 1 2 3
f 1 3 4
f 1 4 8
f 1 8 12
f 1 12 17
f 1 17 23
f 1 23 24
f 1 24 18
f 1 18 13
f 1 13 9
f 1 9 5
f 1 5 6
f 1 6 2
f 2 6 10
f 2 10 14
f 2 14 19
f 2 19 25
f 2 25 29
f 2 29 28
f 2 28 27
f 2 27 26
f 2 26 22
f 2 22 20
f 2 20 15
f 2 15 11
f 2 11 7
f 2 7 3
f 3 7 4
f 4 7 8
f 5 9 10
f 5 10 6
f 7 11 8
f 8 11 12
f 9 13 14
f 9 14 10
f 11 15 16
f 11 16 12
f 12 16 21
f 12 21 17
f 13 18 19
f 13 19 14
f 15 20 21
f 15 21 16
f 17 21 22
f 17 22 26
f 17 26 23
f 18 24 25
f 18 25 19
f 20 22 21
f 23 26 27
f 23 27 28
f 23 28 24
f 24 29 25
f 24 28 29
