v -0.160595969963 -0.198227933049 0.0525899277194
v -0.160595969963 -0.198227933049 0.067440909998
v -0.160595969963 -0.192604601383 0.0525899277194
v 0.149510240448 -0.198227933049 0.0525899277194
v -0.160595969963 -0.192604601383 0.067440909998
v 0.151143678916 -0.198227933049 0.067440909998
v 0.149602709604 -0.192604601383 0.0525899277194
v 0.15400990088 -0.192604601383 0.0666340277656
v 0.154256449533 -0.192604601383 0.067440909998
f 1 2 5
f 1 5 3
f 1 3 7
f 1 7 4
f 1 4 6
f 1 6 2
f 2 6 9
f 2 9 5
f 3 5 9
f 3 9 8
f 3 8 7
f 4 7 8
f 4 8 9
f 4 9 6
