v -0.164833162832 0.203820204735 -0.00412498627468
v -0.164833162832 0.203820204735 0.0242662766142
v -0.164833162832 0.221248206496 -0.00412498627468
v 0.137570990515 0.203820204735 -0.00412498627468
v -0.164833162832 0.205298960209 0.0372173764868
v 0.130093957377 0.203820204735 0.0242662766142
v -0.164833162832 0.22507019341 -0.00408046160503
v 0.137570990515 0.221248206496 -0.00412498627468
v 0.141571049285 0.203820204735 -0.00408046160503
v -0.164833162832 0.229124996066 0.0372173764868
v 0.137570990515 0.205298960209 0.0372173764868
v 0.137570990515 0.203820204735 0.0242258020802
v -0.164833162832 0.227133509517 -0.000288220389328
v 0.137570990515 0.22507019341 -0.00408046160503
v 0.141509492588 0.225047904253 -0.00406427447363
v 0.141571049285 0.221248206496 -0.00408046160503
v 0.142801834536 0.203820204735 -0.00328316156431
v -0.164833162832 0.229124996066 0.00721532638506
v 0.137570990515 0.229124996066 0.0372173764868
v 0.145448021484 0.203820204735 0.0218379386826
v 0.145078788591 0.207069995999 0.0372173764868
v 0.137570990515 0.227133509517 -0.000288220389328
v 0.144432617617 0.226060974598 -7.3710723362e-05
v 0.149048082423 0.225345119834 0.00256912346319
v 0.145324934912 0.221248206496 -0.00162784968182
v 0.145324934912 0.203820204735 -0.00162784968182
v 0.137570990515 0.229124996066 0.00721532638506
v 0.145078788591 0.227581840754 0.0372173764868
v 0.148617292834 0.203820204735 0.0179202237292
v 0.149171142173 0.209420643747 0.0372173764868
v 0.145078788591 0.227579373121 0.00721532638506
v 0.149171142173 0.221248206496 0.0021239304109
v 0.149171142173 0.225516030192 0.00721532638506
v 0.149509610129 0.221248206496 0.00721532638506
v 0.1465864851 0.203820204735 -0.000409630580387
v 0.149171142173 0.225511094928 0.0372173764868
v 0.149171142173 0.225516030192 0.0372092829211
v 0.14920190711 0.203820204735 0.0144355648322
v 0.149509610129 0.203820204735 0.00721532638506
v 0.149509610129 0.213750399649 0.0372092829211
v 0.149478845191 0.213745450974 0.0372173764868
v 0.149171142173 0.203820204735 0.0021239304109
v 0.149509610129 0.221248206496 0.0372092829211
v 0.149509610129 0.221238309145 0.0372173764868
f 1 2 5
f 1 5 10
f 1 10 18
f 1 18 13
f 1 13 7
f 1 7 3
f 1 3 8
f 1 8 4
f 1 4 9
f 1 9 17
f 1 17 26
f 1 26 35
f 1 35 42
f 1 42 39
f 1 39 38
f 1 38 29
f 1 29 20
f 1 20 12
f 1 12 6
f 1 6 2
f 2 6 11
f 2 11 5
f 3 7 14
f 3 14 8
f 4 8 16
f 4 16 9
f 5 11 21
f 5 21 30
f 5 30 41
f 5 41 44
f 5 44 36
f 5 36 28
f 5 28 19
f 5 19 10
f 6 12 11
f 7 13 22
f 7 22 14
f 8 14 15
f 8 15 16
f 9 16 17
f 10 19 27
f 10 27 18
f 11 12 20
f 11 20 21
f 13 18 27
f 13 27 22
f 14 22 15
f 15 22 23
f 15 23 24
f 15 24 25
f 15 25 16
f 16 25 17
f 17 25 26
f 19 28 27
f 20 29 21
f 21 29 30
f 22 27 23
f 23 31 24
f 23 27 31
f 24 32 25
f 24 31 33
f 24 33 34
f 24 34 32
f 25 32 35
f 25 35 26
f 27 28 31
f 28 36 37
f 28 37 33
f 28 33 31
f 29 38 30
f 30 38 39
f 30 39 40
f 30 40 41
f 32 42 35
f 32 34 39
f 32 39 42
f 33 37 43
f 33 43 34
f 34 43 44
f 34 44 40
f 34 40 39
f 36 44 43
f 36 43 37
f 40 44 41
