v 0.154097770047 -0.1370213449 0.217121677951
v 0.167598025394 -0.139634607732 0.217121677951
v 0.154097770047 -0.132189144194 0.209066280083
v 0.154097770047 -0.193744593859 0.217121677951
v 0.172865468157 -0.141064895689 0.217121677951
v 0.171870583189 -0.134768986702 0.20664607595
v 0.167598025394 -0.136038865149 0.210737866269
v 0.154097770047 -0.132088896632 0.208461234079
v 0.154097770047 -0.196083828807 0.214029761509
v 0.167598025394 -0.190937501192 0.217121677951
v 0.174034227324 -0.138418212533 0.209368806438
v 0.176944839847 -0.146344891191 0.217121677951
v 0.179894103003 -0.148583878577 0.214880933718
v 0.172491983962 -0.134454873204 0.202210741596
v 0.154097770047 -0.131066304445 0.202210741596
v 0.176506969226 -0.139140035212 0.202015892522
v 0.154097770047 -0.19788839221 0.209891823785
v 0.172215086115 -0.195422154665 0.207174216316
v 0.167598025394 -0.194252537191 0.211527508603
v 0.173061872912 -0.189266619086 0.217121677951
v 0.17806208719 -0.14366478771 0.209707227455
v 0.185982583356 -0.158261650801 0.217121677951
v 0.180953387809 -0.147414261103 0.209707227455
v 0.17230845381 -0.134535071254 0.194709126012
v 0.179243720961 -0.141893658042 0.199390586571
v 0.179243720961 -0.141893658042 0.197590810911
v 0.154097770047 -0.131186614931 0.194709126012
v 0.154097770047 -0.198028738797 0.209512385087
v 0.154097770047 -0.199332037568 0.202210741596
v 0.1729491799 -0.195836542547 0.202210741596
v 0.177115495396 -0.191104589403 0.202902959393
v 0.174513967228 -0.191699422896 0.209686715261
v 0.173161677909 -0.18921982795 0.217121677951
v 0.184095823658 -0.153750255704 0.194709126012
v 0.18117232312 -0.145823577046 0.194939863042
v 0.181194867087 -0.145783478022 0.202015892522
v 0.18696137507 -0.162077951431 0.217121677951
v 0.176336313677 -0.139140035212 0.194939863042
v 0.171629103911 -0.134882605076 0.190637847887
v 0.180785964322 -0.147567978501 0.187212640153
v 0.177975156796 -0.143818518519 0.187212640153
v 0.154097770047 -0.132342861593 0.188171492995
v 0.154097770047 -0.199245147407 0.195642340289
v 0.172797849667 -0.195749652386 0.194709126012
v 0.179559256029 -0.188511376083 0.196811421321
v 0.179559256029 -0.188511376083 0.200867323683
v 0.178403371465 -0.18670681268 0.209707227455
v 0.1863528489 -0.172584486008 0.217121677951
v 0.18338749249 -0.153750255704 0.187212640153
v 0.186758533013 -0.162993603945 0.212019754307
v 0.186987124276 -0.168654567003 0.217121677951
v 0.173818510664 -0.138545188308 0.187766415731
v 0.154097770047 -0.132576790452 0.187612587692
v 0.173148803306 -0.140904486179 0.181285182865
v 0.167598025394 -0.140109144151 0.180198140548
v 0.179710572851 -0.148717546463 0.182182505832
v 0.154097770047 -0.199225097895 0.194709126012
v 0.172015462709 -0.195315214992 0.190145602183
v 0.17684503485 -0.191104589403 0.194468129532
v 0.178165110839 -0.186419427395 0.187212640153
v 0.18088576932 -0.182669954002 0.187212640153
v 0.18138483454 -0.184320786595 0.194468129532
v 0.18138483454 -0.184481196105 0.202902959393
v 0.186372160805 -0.172551065683 0.217121677951
v 0.184086167705 -0.16125588119 0.187212640153
v 0.181049974156 -0.161696997285 0.179295691208
v 0.18077630837 -0.153750255704 0.181044189738
v 0.186987124276 -0.168748135865 0.217121677951
v 0.186668383968 -0.168748135865 0.212327410386
v 0.184108711672 -0.168748135865 0.187212640153
v 0.154097770047 -0.134688788652 0.184089955421
v 0.175647307825 -0.14577678591 0.179234161334
v 0.173142366004 -0.147828635573 0.174404002459
v 0.167598025394 -0.142989756167 0.176444771246
v 0.154097770047 -0.141151772439 0.174609104277
v 0.154097770047 -0.138217703998 0.178844466539
v 0.177962268782 -0.153750255704 0.177290817083
v 0.154097770047 -0.198015367985 0.188376594813
v 0.154097770047 -0.197881700099 0.187756159635
v 0.167598025394 -0.19391836077 0.185987152265
v 0.167598025394 -0.190168887377 0.179900743918
v 0.173206765843 -0.189279976487 0.181090337144
v 0.174201650811 -0.19156575501 0.187474145473
v 0.179807172609 -0.18135329783 0.182110719861
v 0.183509841454 -0.17624706924 0.187212640153
v 0.184124804926 -0.17624706924 0.194709126012
v 0.186365723503 -0.172544386983 0.213388814138
v 0.181069299472 -0.16830701977 0.179275182368
v 0.179050534857 -0.16449071914 0.175634616719
v 0.167598025394 -0.146739216149 0.173624616222
v 0.173718692255 -0.154411929846 0.17202994238
v 0.171477773679 -0.157352690399 0.168409888925
v 0.154097770047 -0.145435930789 0.171753057943
v 0.176159234238 -0.161696997285 0.172768314288
v 0.154097770047 -0.192474715412 0.179126484053
v 0.167598025394 -0.187294967473 0.176152497636
v 0.173177784574 -0.182362519205 0.17430145155
v 0.175692382348 -0.184360899031 0.179100845487
v 0.177994468701 -0.17624706924 0.17721390474
v 0.180869676066 -0.17624706924 0.180967274041
v 0.179050534857 -0.165519976616 0.175634616719
v 0.172189323497 -0.168748135865 0.16807147126
v 0.17209273715 -0.16125588119 0.168112488942
v 0.154097770047 -0.15484636724 0.165871748061
v 0.154097770047 -0.150816187263 0.168225295947
v 0.154097770047 -0.16125588119 0.164805216262
v 0.154097770047 -0.155454558134 0.165769197152
v 0.154097770047 -0.191518963873 0.178003547074
v 0.154097770047 -0.185243117809 0.17199405107
v 0.154097770047 -0.18435420692 0.171265938611
v 0.167598025394 -0.18354549408 0.173470788182
v 0.173824947965 -0.175692334771 0.171968412505
v 0.171609778595 -0.172818414867 0.16834835905
v 0.17623972733 -0.16830701977 0.172768314288
v 0.154097770047 -0.168748135865 0.164743686387
v 0.154097770047 -0.162358658016 0.164789833793
v 0.154097770047 -0.175839373469 0.166005065584
v 0.154097770047 -0.175304688513 0.165794835718
f 1 2 3
f 1 3 8
f 1 8 15
f 1 15 27
f 1 27 42
f 1 42 53
f 1 53 71
f 1 71 76
f 1 76 75
f 1 75 93
f 1 93 105
f 1 105 104
f 1 104 107
f 1 107 106
f 1 106 116
f 1 116 115
f 1 115 118
f 1 118 117
f 1 117 110
f 1 110 109
f 1 109 108
f 1 108 95
f 1 95 79
f 1 79 78
f 1 78 57
f 1 57 43
f 1 43 29
f 1 29 28
f 1 28 17
f 1 17 9
f 1 9 4
f 1 4 10
f 1 10 20
f 1 20 33
f 1 33 48
f 1 48 64
f 1 64 68
f 1 68 51
f 1 51 37
f 1 37 22
f 1 22 12
f 1 12 5
f 1 5 2
f 2 5 6
f 2 6 7
f 2 7 3
f 3 7 6
f 3 6 8
f 4 9 10
f 5 11 6
f 5 12 13
f 5 13 11
f 6 14 15
f 6 15 8
f 6 11 16
f 6 16 14
f 9 17 18
f 9 18 19
f 9 19 10
f 10 19 18
f 10 18 20
f 11 13 21
f 11 21 16
f 12 22 13
f 13 22 23
f 13 23 21
f 14 24 15
f 14 16 25
f 14 25 26
f 14 26 24
f 15 24 27
f 16 21 23
f 16 23 25
f 17 28 18
f 18 28 29
f 18 29 30
f 18 30 31
f 18 31 32
f 18 32 33
f 18 33 20
f 22 34 35
f 22 35 36
f 22 36 23
f 22 37 34
f 23 36 25
f 24 26 38
f 24 38 39
f 24 39 27
f 25 36 26
f 26 36 35
f 26 35 40
f 26 40 41
f 26 41 38
f 27 39 42
f 29 43 30
f 30 44 45
f 30 45 46
f 30 46 31
f 30 43 44
f 31 46 47
f 31 47 32
f 32 47 48
f 32 48 33
f 34 49 35
f 34 37 50
f 34 50 49
f 35 49 40
f 37 51 50
f 38 41 52
f 38 52 39
f 39 53 42
f 39 52 54
f 39 54 55
f 39 55 53
f 40 56 41
f 40 49 56
f 41 56 54
f 41 54 52
f 43 57 44
f 44 57 58
f 44 58 59
f 44 59 45
f 45 59 60
f 45 60 61
f 45 61 62
f 45 62 63
f 45 63 46
f 46 63 64
f 46 64 48
f 46 48 47
f 49 50 65
f 49 65 66
f 49 66 67
f 49 67 56
f 50 51 68
f 50 68 69
f 50 69 70
f 50 70 65
f 53 55 71
f 54 56 72
f 54 72 73
f 54 73 74
f 54 74 55
f 55 74 75
f 55 75 76
f 55 76 71
f 56 73 72
f 56 67 77
f 56 77 73
f 57 78 58
f 58 78 79
f 58 79 80
f 58 80 81
f 58 81 82
f 58 82 83
f 58 83 59
f 59 83 60
f 60 83 82
f 60 82 84
f 60 84 61
f 61 84 85
f 61 85 62
f 62 85 86
f 62 86 87
f 62 87 63
f 63 87 64
f 64 87 68
f 65 70 88
f 65 88 66
f 66 88 89
f 66 89 67
f 67 89 77
f 68 87 69
f 69 87 85
f 69 85 70
f 70 85 88
f 73 90 74
f 73 77 91
f 73 91 92
f 73 92 90
f 74 90 75
f 75 90 93
f 77 89 94
f 77 94 92
f 77 92 91
f 79 95 81
f 79 81 80
f 81 96 82
f 81 95 96
f 82 96 97
f 82 97 98
f 82 98 84
f 84 99 100
f 84 100 85
f 84 98 97
f 84 97 99
f 85 100 88
f 85 87 86
f 88 101 89
f 88 100 101
f 89 101 102
f 89 102 103
f 89 103 94
f 90 92 104
f 90 104 105
f 90 105 93
f 92 94 103
f 92 103 106
f 92 106 107
f 92 107 104
f 95 108 96
f 96 108 109
f 96 109 110
f 96 110 111
f 96 111 97
f 97 112 99
f 97 111 113
f 97 113 112
f 99 112 113
f 99 113 114
f 99 114 101
f 99 101 100
f 101 114 102
f 102 113 115
f 102 115 116
f 102 116 103
f 102 114 113
f 103 116 106
f 110 117 111
f 111 117 113
f 113 118 115
f 113 117 118
