v -0.184088727939 0.221228894591 0.281048066275
v -0.184088727939 0.225058203936 0.281004265801
v -0.187915355074 0.221228894591 0.281048066275
v -0.184088727939 -0.0741032391787 0.281048066275
v -0.184088727939 0.225295686722 0.280591312902
v -0.187915355074 0.225058203936 0.281004265801
v -0.187915355074 -0.0741032391787 0.281048066275
v -0.184088727939 -0.0741032391787 0.248493022577
v -0.187915355074 0.22630494833 0.278732984619
v -0.184088727939 0.227106446028 0.277206284658
v -0.187915355074 -0.0741032391787 0.217126800971
v -0.184529227125 -0.0741032391787 0.217126800971
v -0.184088727939 0.19905449599 0.217133057223
v -0.187915355074 0.227106446028 0.277206284658
v -0.184088727939 0.227343928814 0.276392877953
v -0.187915355074 0.229124996066 0.217126800971
v -0.184088727939 0.203982129693 0.217126800971
v -0.187915355074 0.22832352519 0.272720035271
v -0.184088727939 0.229124996066 0.269710422413
v -0.187915355074 0.229124996066 0.269710422413
v -0.184088727939 0.229124996066 0.217126800971
f 1 2 6
f 1 6 3
f 1 3 7
f 1 7 4
f 1 4 8
f 1 8 13
f 1 13 17
f 1 17 21
f 1 21 19
f 1 19 15
f 1 15 10
f 1 10 5
f 1 5 2
f 2 5 6
f 3 6 9
f 3 9 14
f 3 14 18
f 3 18 20
f 3 20 16
f 3 16 11
f 3 11 7
f 4 7 11
f 4 11 12
f 4 12 8
f 5 9 6
f 5 10 9
f 8 12 13
f 9 10 14
f 10 15 14
f 11 16 21
f 11 21 17
f 11 17 12
f 12 17 13
f 14 15 18
f 15 19 18
f 16 20 19
f 16 19 21
f 18 19 20
