v -0.164833149421 0.229124996066 0.0235224464102
v -0.164833149421 0.202589808404 0.0235224464102
v -0.164833149421 0.229124996066 0.00721165175871
v -0.192400625455 0.229124996066 0.0235224464102
v -0.164833149421 0.194845345616 0.0204399847551
v -0.181483431267 0.194845345616 0.0235224464102
v -0.164833149421 0.227779439092 0.00214277292923
v -0.192400625455 0.229124996066 0.00721165175871
v -0.199902267861 0.227964001894 0.0235224464102
v -0.164833149421 0.194845345616 -0.00412498627468
v -0.204894220936 0.194845345616 0.0235224464102
v -0.164833149421 0.227131846547 -0.000287469370804
v -0.192400625455 0.227131846547 -0.000287469370804
v -0.199290536451 0.226212438941 -0.00043360952898
v -0.199902267861 0.227964001894 0.00721165175871
v -0.200666938829 0.227604961395 0.0235224464102
v -0.164833149421 0.2212496683 -0.00412498627468
v -0.192400625455 0.194845345616 -0.00412498627468
v -0.204894220936 0.2212496683 0.0235224464102
v -0.204894220936 0.194845345616 0.00721165175871
v -0.164833149421 0.225739324093 -0.00285302911564
v -0.192400625455 0.225071561337 -0.00408168201014
v -0.196384765315 0.225048092008 -0.0040654546456
v -0.204066799688 0.22560172677 0.00196956928209
v -0.204270714628 0.225900363922 0.00721165175871
v -0.204270714628 0.225900363922 0.0235224464102
v -0.164833149421 0.225071561337 -0.00408168201014
v -0.192400625455 0.2212496683 -0.00412498627468
v -0.196502420413 0.194845345616 -0.00408168201014
v -0.204894220936 0.2212496683 0.00721165175871
v -0.204270714628 0.194845345616 0.00122535015778
v -0.196502420413 0.2212496683 -0.00408168201014
v -0.200251276898 0.2212496683 -0.00252557162806
v -0.204270714628 0.2212496683 0.00122535015778
v -0.198302343595 0.194845345616 -0.00333475385471
v -0.202180603254 0.194845345616 -0.000728598876438
v -0.200251276898 0.194845345616 -0.00252557162806
f 1 2 5
f 1 5 10
f 1 10 17
f 1 17 27
f 1 27 21
f 1 21 12
f 1 12 7
f 1 7 3
f 1 3 8
f 1 8 4
f 1 4 9
f 1 9 16
f 1 16 26
f 1 26 19
f 1 19 11
f 1 11 6
f 1 6 2
f 2 6 5
f 3 7 8
f 4 8 15
f 4 15 9
f 5 6 11
f 5 11 20
f 5 20 31
f 5 31 36
f 5 36 37
f 5 37 35
f 5 35 29
f 5 29 18
f 5 18 10
f 7 12 13
f 7 13 8
f 8 13 14
f 8 14 15
f 9 15 16
f 10 18 28
f 10 28 17
f 11 19 30
f 11 30 20
f 12 21 13
f 13 22 23
f 13 23 14
f 13 21 22
f 14 23 24
f 14 24 15
f 15 24 25
f 15 25 16
f 16 25 26
f 17 28 22
f 17 22 27
f 18 29 32
f 18 32 28
f 19 26 25
f 19 25 30
f 20 30 34
f 20 34 31
f 21 27 22
f 22 28 23
f 23 32 33
f 23 33 24
f 23 28 32
f 24 34 30
f 24 30 25
f 24 33 34
f 29 35 32
f 31 34 36
f 32 35 33
f 33 35 37
f 33 37 36
f 33 36 34
