v 0.149534420562 -0.20638101697 0.217126800971
v 0.149501965833 -0.20638101697 0.233523895697
v 0.149501965833 -0.221248313785 0.233523895697
v 0.149501965833 -0.221248313785 0.217126800971
v -0.181952710557 -0.20638101697 0.217126800971
v -0.181952710557 -0.20638101697 0.233523895697
v 0.149177499008 -0.225518363714 0.233523895697
v 0.149177499008 -0.225518363714 0.217126800971
v -0.181952710557 -0.229124996066 0.217126800971
v -0.181952710557 -0.229124996066 0.233523895697
v 0.145089061451 -0.227579936385 0.233523895697
v 0.145089061451 -0.227579936385 0.217126800971
v 0.137593601537 -0.229124996066 0.217126800971
v 0.137593601537 -0.229124996066 0.233523895697
f 1 2 3
f 1 3 4
f 1 4 8
f 1 8 12
f 1 12 13
f 1 13 9
f 1 9 5
f 1 5 6
f 1 6 2
f 2 6 10
f 2 10 14
f 2 14 11
f 2 11 7
f 2 7 3
f 3 7 8
f 3 8 4
f 5 9 10
f 5 10 6
f 7 11 12
f 7 12 8
f 9 13 14
f 9 14 10
f 11 14 13
f 11 13 12
