v -0.165603332329 -0.229124996066 0.020885070519
v -0.16059645276 -0.229124996066 0.020885070519
v -0.165603332329 -0.229124996066 0.0234932639761
v -0.165603332329 -0.0909439444542 0.020885070519
v -0.16059645276 -0.229124996066 0.0234932639761
v -0.16059645276 -0.094257800281 0.020885070519
v -0.165603332329 -0.0989783540368 0.0234932639761
v -0.16059645276 -0.0989783540368 0.0234932639761
v -0.16059645276 -0.0980315409601 0.0229729020162
f 1 2 5
f 1 5 3
f 1 3 7
f 1 7 4
f 1 4 6
f 1 6 2
f 2 6 9
f 2 9 8
f 2 8 5
f 3 5 8
f 3 8 7
f 4 7 8
f 4 8 9
f 4 9 6
