v -0.18290262829 -0.0741329312325 0.252515450971
v -0.184530715751 -0.0741329312325 0.217126800971
v -0.204894220936 -0.0741329312325 0.252515450971
v -0.181952723968 -0.0969963893294 0.252515450971
v -0.181952723968 -0.099423828721 0.217126800971
v -0.204894220936 -0.0741329312325 0.217126800971
v -0.204894220936 -0.221235814691 0.252515450971
v -0.181952723968 -0.229124996066 0.252515450971
v -0.181952723968 -0.229124996066 0.217126800971
v -0.204894220936 -0.221235814691 0.217126800971
v -0.204712326932 -0.222601246834 0.252515450971
v -0.192403951394 -0.229124996066 0.252515450971
v -0.192403951394 -0.229124996066 0.217126800971
v -0.204272176432 -0.225893470645 0.217126800971
v -0.204272176432 -0.225893470645 0.252515450971
v -0.199902160573 -0.227956786752 0.252515450971
v -0.199902160573 -0.227956786752 0.217126800971
v -0.199951553452 -0.227941632271 0.217126800971
f 1 2 6
f 1 6 3
f 1 3 7
f 1 7 11
f 1 11 15
f 1 15 16
f 1 16 12
f 1 12 8
f 1 8 4
f 1 4 5
f 1 5 2
f 2 5 9
f 2 9 13
f 2 13 17
f 2 17 18
f 2 18 14
f 2 14 10
f 2 10 6
f 3 6 10
f 3 10 7
f 4 8 9
f 4 9 5
f 7 10 11
f 8 12 13
f 8 13 9
f 10 14 11
f 11 14 15
f 12 16 17
f 12 17 13
f 14 18 15
f 15 18 16
f 16 18 17
