v -0.184273934471 0.194845345616 0.0295497254594
v -0.164833149421 0.194845345616 0.0204388314052
v -0.184273934471 0.194845345616 -0.00412170056864
v -0.184273934471 -0.0741065919399 0.0290552870496
v -0.164833149421 0.194845345616 -0.00412170056864
v -0.164833149421 -0.0741065919399 0.0197070577307
v -0.184273934471 -0.0741065919399 -0.00412170056864
v -0.164833149421 -0.0741065919399 -0.00412170056864
f 1 2 5
f 1 5 3
f 1 3 7
f 1 7 4
f 1 4 2
f 2 4 6
f 2 6 8
f 2 8 5
f 3 5 8
f 3 8 7
f 4 7 8
f 4 8 6
