v 0.151941475165 -0.19739741385 0.217146206753
v 0.151189759267 -0.198678772151 0.217126800971
v 0.151189759267 -0.19739741385 0.217126800971
v 0.150895601404 -0.19739741385 0.222790265189
v 0.149915093076 -0.204329247773 0.222790265189
v 0.149490217757 -0.20638101697 0.222790265189
v 0.149522900474 -0.20638101697 0.21734302725
v 0.149522900474 -0.20638101697 0.217126800971
v -0.181920041251 -0.19739741385 0.217126800971
v -0.181952723968 -0.19739741385 0.222790265189
v -0.181952723968 -0.20638101697 0.222790265189
v -0.181952723968 -0.20638101697 0.217126800971
v -0.181952723968 -0.200515951216 0.217126800971
v -0.181952723968 -0.19739741385 0.217158960657
f 1 2 3
f 1 3 9
f 1 9 14
f 1 14 10
f 1 10 4
f 1 4 5
f 1 5 6
f 1 6 7
f 1 7 8
f 1 8 2
f 2 8 12
f 2 12 13
f 2 13 9
f 2 9 3
f 4 10 11
f 4 11 6
f 4 6 5
f 6 11 12
f 6 12 8
f 6 8 7
f 9 13 14
f 10 14 13
f 10 13 12
f 10 12 11
