v 0.151977805686 -0.137279292941 0.222790815042
v 0.151762343836 -0.137279292941 0.224195695774
v 0.16914110024 -0.144720827043 0.222790815042
v -0.181952737379 -0.137279292941 0.222790815042
v 0.149607966733 -0.137279292941 0.233525498317
v 0.172516311598 -0.146615311503 0.222790815042
v -0.181952737379 -0.190886686742 0.222790815042
v -0.181952737379 -0.137279292941 0.233525498317
v 0.152552308035 -0.15378921479 0.233525498317
v 0.173019011212 -0.161251737177 0.229386507825
v 0.172229073835 -0.156344944239 0.228901054816
v 0.173162643504 -0.147166344523 0.222790815042
v -0.181952737379 -0.190886686742 0.233525498317
v 0.153414048147 -0.190886686742 0.222790815042
v 0.153162698341 -0.161251737177 0.233525498317
v 0.173090813947 -0.16874576211 0.229427491979
v 0.184868152333 -0.165654730797 0.222790815042
v 0.184401367498 -0.16164008081 0.222790815042
v 0.183144645286 -0.160852892697 0.223345623271
v 0.182031555367 -0.158286675811 0.222790815042
v 0.179948954177 -0.155526266992 0.222790815042
v 0.149787486983 -0.190886686742 0.233525498317
v 0.167561225486 -0.18594840467 0.222790815042
v 0.153198613119 -0.16874576211 0.233525498317
v 0.17230087657 -0.173857221007 0.22895674418
v 0.182570142937 -0.16874576211 0.224014961825
v 0.153198613119 -0.169034394622 0.233525498317
v 0.15262411077 -0.177950593829 0.233525498317
v 0.184652717304 -0.16874576211 0.222790815042
v 0.172803576184 -0.183749529719 0.222790815042
v 0.17323444624 -0.183460897207 0.222790815042
v 0.180810721112 -0.174387265742 0.222790815042
v 0.182570142937 -0.171810534596 0.222790815042
f 1 2 3
f 1 3 6
f 1 6 12
f 1 12 21
f 1 21 20
f 1 20 18
f 1 18 17
f 1 17 29
f 1 29 33
f 1 33 32
f 1 32 31
f 1 31 30
f 1 30 23
f 1 23 14
f 1 14 7
f 1 7 4
f 1 4 8
f 1 8 5
f 1 5 2
f 2 5 3
f 3 5 6
f 4 7 13
f 4 13 8
f 5 9 10
f 5 10 11
f 5 11 12
f 5 12 6
f 5 8 13
f 5 13 22
f 5 22 28
f 5 28 27
f 5 27 24
f 5 24 15
f 5 15 9
f 7 14 22
f 7 22 13
f 9 15 10
f 10 16 17
f 10 17 18
f 10 18 11
f 10 15 16
f 11 18 19
f 11 19 20
f 11 20 21
f 11 21 12
f 14 23 22
f 15 24 16
f 16 25 26
f 16 26 17
f 16 24 27
f 16 27 28
f 16 28 22
f 16 22 25
f 17 26 29
f 18 20 19
f 22 23 30
f 22 30 31
f 22 31 25
f 25 31 32
f 25 32 33
f 25 33 29
f 25 29 26
