v -0.181952723968 -0.0994147561491 0.233523895697
v -0.181952723968 -0.0994147561491 0.217126800971
v -0.181952723968 -0.13727927953 0.233523895697
v 0.130092508984 -0.101453469694 0.233523895697
v -0.181952723968 -0.13727927953 0.217126800971
v 0.130092508984 -0.101453469694 0.217126800971
v 0.149607685101 -0.13727927953 0.233523895697
v 0.135061810804 -0.102917640656 0.233523895697
v 0.130158330393 -0.101472003758 0.217126800971
v 0.154247879875 -0.13727927953 0.217126800971
v 0.149410220874 -0.123749613762 0.233523895697
v 0.136114899707 -0.103229011595 0.233523895697
v 0.136114899707 -0.103229011595 0.217126800971
v 0.149081127239 -0.119683304429 0.217126800971
v 0.149081127239 -0.119683304429 0.233523895697
f 1 2 5
f 1 5 3
f 1 3 7
f 1 7 11
f 1 11 15
f 1 15 12
f 1 12 8
f 1 8 4
f 1 4 6
f 1 6 2
f 2 6 9
f 2 9 13
f 2 13 14
f 2 14 10
f 2 10 5
f 3 5 10
f 3 10 7
f 4 8 9
f 4 9 6
f 7 10 11
f 8 12 13
f 8 13 9
f 10 14 15
f 10 15 11
f 12 15 14
f 12 14 13
