v -0.160595969963 -0.137605074048 0.067440909998
v -0.160595969963 -0.137605074048 0.107326632099
v -0.160595969963 -0.132867997885 0.067440909998
v 0.154093961311 -0.137605074048 0.067440909998
v -0.160595969963 -0.132867997885 0.107326632099
v 0.153272239757 -0.137605074048 0.107326632099
v 0.151530171824 -0.132867997885 0.067440909998
v 0.167570344997 -0.137605074048 0.0720479124351
v 0.15097138722 -0.132867997885 0.107326632099
v 0.167570344997 -0.137605074048 0.10102518435
v 0.155375869465 -0.132867997885 0.0761668869419
v 0.172303505135 -0.134535124898 0.0822145574851
v 0.171613265467 -0.134876905382 0.0781385318501
v 0.169115190101 -0.137605074048 0.072731158243
v 0.171843345356 -0.134763756394 0.0941459150179
v 0.172467844081 -0.134450259805 0.0897106980099
v 0.155770288301 -0.132867997885 0.0959848106964
v 0.173552529407 -0.137605074048 0.0962659162594
v 0.15767669518 -0.132867997885 0.0822145574851
v 0.174998776508 -0.137605074048 0.0823668231382
v 0.174637214732 -0.137605074048 0.0808949240609
v 0.173256708575 -0.137605074048 0.0760029100938
v 0.175195999337 -0.137605074048 0.0895818580999
v 0.167570344997 -0.133900728822 0.0897106980099
v 0.158038256955 -0.132867997885 0.0897106980099
f 1 2 5
f 1 5 3
f 1 3 7
f 1 7 4
f 1 4 8
f 1 8 14
f 1 14 22
f 1 22 21
f 1 21 20
f 1 20 23
f 1 23 18
f 1 18 10
f 1 10 6
f 1 6 2
f 2 6 9
f 2 9 5
f 3 5 9
f 3 9 17
f 3 17 25
f 3 25 19
f 3 19 11
f 3 11 7
f 4 7 8
f 6 10 9
f 7 11 12
f 7 12 13
f 7 13 14
f 7 14 8
f 9 10 15
f 9 15 16
f 9 16 17
f 10 18 15
f 11 19 12
f 12 19 16
f 12 16 20
f 12 20 13
f 13 20 21
f 13 21 22
f 13 22 14
f 15 18 23
f 15 23 16
f 16 23 20
f 16 19 24
f 16 24 17
f 17 24 25
f 19 25 24
