v 0.149477638197 0.198474361002 0.269894113497
v 0.149477638197 0.198474361002 0.269709403173
v 0.149157918883 0.198474361002 0.274800530927
v 0.149445666266 0.167665086687 0.270448271291
v 0.149477638197 0.167665086687 0.269709403173
v 0.149189890814 0.198474361002 0.263803487377
v 0.149030017746 0.198474361002 0.274937176065
v 0.149157918883 0.167665086687 0.274800530927
v 0.149221862746 0.167665086687 0.264468970255
v 0.149157918883 0.167665086687 0.263580810384
v 0.149157918883 0.198474361002 0.263580810384
v 0.145321166408 0.198474361002 0.278550567584
v 0.148614369226 0.167665086687 0.275344563381
v 0.148134776843 0.167665086687 0.260374806182
v 0.148230706048 0.198474361002 0.259967418866
v 0.145193278682 0.198474361002 0.278639134125
v 0.145321166408 0.167665086687 0.278550567584
v 0.147942945254 0.167665086687 0.259830773727
v 0.148166748774 0.198474361002 0.259830773727
v 0.141580343139 0.198474361002 0.281002508955
v 0.141580343139 0.167665086687 0.281002508955
v 0.144745658231 0.167665086687 0.2581303605
v 0.144425925505 0.198474361002 0.257161224739
v 0.144553826642 0.198474361002 0.257234596567
v 0.141452455414 0.198474361002 0.281005043642
v 0.141004834962 0.167665086687 0.281010099606
v 0.144202121985 0.167665086687 0.257841888921
v 0.137807547939 0.198474361002 0.255845413463
v 0.137583731008 0.198474361002 0.281048066275
v 0.137583731008 0.167665086687 0.281048066275
v 0.137583731008 0.167665086687 0.257221949951
v 0.137583731008 0.198474361002 0.255822641508
v -0.177093191552 0.198474361002 0.281048066275
v -0.177093191552 0.167665086687 0.281048066275
v 0.130357873333 0.198474361002 0.255782153563
v -0.177093191552 0.167665086687 0.256083271758
v -0.177093191552 0.198474361002 0.280106758432
v -0.177093191552 0.198468326032 0.255200167851
v -0.169899305808 0.198474361002 0.255772041635
f 1 2 6
f 1 6 11
f 1 11 15
f 1 15 19
f 1 19 24
f 1 24 23
f 1 23 28
f 1 28 32
f 1 32 35
f 1 35 39
f 1 39 37
f 1 37 33
f 1 33 29
f 1 29 25
f 1 25 20
f 1 20 16
f 1 16 12
f 1 12 7
f 1 7 3
f 1 3 4
f 1 4 5
f 1 5 2
f 2 5 6
f 3 7 8
f 3 8 4
f 4 8 13
f 4 13 17
f 4 17 21
f 4 21 26
f 4 26 30
f 4 30 34
f 4 34 36
f 4 36 31
f 4 31 27
f 4 27 22
f 4 22 18
f 4 18 14
f 4 14 10
f 4 10 9
f 4 9 5
f 5 9 6
f 6 9 10
f 6 10 11
f 7 12 13
f 7 13 8
f 10 14 15
f 10 15 11
f 12 16 17
f 12 17 13
f 14 18 15
f 15 18 19
f 16 20 21
f 16 21 17
f 18 22 23
f 18 23 24
f 18 24 19
f 20 25 21
f 21 25 26
f 22 27 23
f 23 27 28
f 25 29 26
f 26 29 30
f 27 31 32
f 27 32 28
f 29 33 34
f 29 34 30
f 31 35 32
f 31 36 35
f 33 37 38
f 33 38 36
f 33 36 34
f 35 36 38
f 35 38 39
f 37 39 38
