v -0.181215451765 0.217407886684 0.217126800971
v -0.181215451765 0.22912247479 0.217126800971
v -0.177460157978 0.205203299224 0.217126800971
v -0.181215451765 0.204175570607 0.217150773214
v -0.181215451765 0.22912247479 0.252115158097
v 0.137563882661 0.22912247479 0.217126800971
v 0.137563882661 0.205298785865 0.217126800971
v -0.181215451765 0.203456912935 0.252115158097
v 0.137563882661 0.204007221758 0.252115158097
v 0.137563882661 0.22912247479 0.252115158097
v 0.13766100545 0.229107400775 0.217126800971
v 0.14500973512 0.20704768002 0.217126800971
v 0.142905475092 0.204999759793 0.252115158097
v 0.140186117482 0.228589761257 0.252115158097
v 0.145074483645 0.227579641342 0.217126800971
v 0.145074483645 0.207067783177 0.217126800971
v 0.145462961388 0.205610378087 0.252115158097
v 0.145074483645 0.227579641342 0.252115158097
v 0.14513921876 0.22755703032 0.217126800971
v 0.149121132386 0.209392105043 0.217126800971
v 0.149153506649 0.209419745207 0.217126800971
v 0.149153506649 0.208831764758 0.252115158097
v 0.146498897565 0.226866012812 0.252115158097
v 0.149153506649 0.2255166471 0.217126800971
v 0.149509610129 0.213751794398 0.217126800971
v 0.1492830037 0.210329376161 0.252115158097
v 0.149153506649 0.2255166471 0.252115158097
v 0.149509610129 0.221249936521 0.217126800971
v 0.149509610129 0.213751794398 0.252115158097
v 0.149509610129 0.221249936521 0.252115158097
f 1 2 6
f 1 6 11
f 1 11 15
f 1 15 19
f 1 19 24
f 1 24 28
f 1 28 25
f 1 25 21
f 1 21 20
f 1 20 16
f 1 16 12
f 1 12 7
f 1 7 3
f 1 3 4
f 1 4 8
f 1 8 5
f 1 5 2
f 2 5 10
f 2 10 6
f 3 7 4
f 4 7 9
f 4 9 8
f 5 8 9
f 5 9 13
f 5 13 17
f 5 17 22
f 5 22 26
f 5 26 29
f 5 29 30
f 5 30 27
f 5 27 23
f 5 23 18
f 5 18 14
f 5 14 10
f 6 10 11
f 7 12 13
f 7 13 9
f 10 14 11
f 11 14 15
f 12 16 17
f 12 17 13
f 14 18 15
f 15 18 19
f 16 20 17
f 17 20 21
f 17 21 22
f 18 23 19
f 19 23 24
f 21 25 26
f 21 26 22
f 23 27 24
f 24 27 30
f 24 30 28
f 25 28 30
f 25 30 29
f 25 29 26
