v 0.130082477522 -0.0942501157522 0.0208848559423
v 0.130082477522 -0.10136616379 0.0297236600085
v 0.136092744661 -0.0948706246912 0.0208848559423
v -0.160595969963 -0.0942501157522 0.0208848559423
v 0.136123107267 -0.103201290965 0.0297236600085
v 0.136123107267 -0.103188087791 0.0297106848224
v -0.160595969963 -0.10136616379 0.0297236600085
v 0.14143520881 -0.0969697952271 0.0208848559423
v -0.160595969963 -0.229124996066 0.0208848559423
v 0.149084640932 -0.119690975547 0.0297236600085
v -0.160595969963 -0.229124996066 0.0297236600085
v 0.143560054791 -0.102792019397 0.0208848559423
v 0.137580136848 -0.229124996066 0.0208848559423
v 0.149114990127 -0.118304742873 0.0208848559423
v 0.149418549133 -0.123770494759 0.0297236600085
v 0.149418549133 -0.123757298291 0.0297106848224
v 0.137580136848 -0.229124996066 0.0297236600085
v 0.145077796173 -0.227580338717 0.0208848559423
v 0.149357837332 -0.122371052206 0.0208848559423
v 0.149509610129 -0.131269414723 0.0297236600085
v 0.149418549133 -0.123757298291 0.0208848559423
v 0.149509610129 -0.131256218255 0.0297106848224
v 0.145077796173 -0.227580338717 0.0297236600085
v 0.148447187138 -0.225877216458 0.0208848559423
v 0.149509610129 -0.213757494092 0.0297236600085
v 0.149509610129 -0.131256218255 0.0208848559423
v 0.149175701928 -0.225507554412 0.0297236600085
v 0.149175701928 -0.225507554412 0.0208848559423
v 0.149479247523 -0.221256414056 0.0297236600085
v 0.149509610129 -0.221243217587 0.0297106848224
v 0.149509610129 -0.221243217587 0.0208848559423
v 0.149236413729 -0.224755033851 0.0208848559423
f 1 2 3
f 1 3 8
f 1 8 12
f 1 12 14
f 1 14 19
f 1 19 21
f 1 21 26
f 1 26 31
f 1 31 32
f 1 32 28
f 1 28 24
f 1 24 18
f 1 18 13
f 1 13 9
f 1 9 4
f 1 4 7
f 1 7 2
f 2 5 6
f 2 6 3
f 2 7 11
f 2 11 17
f 2 17 23
f 2 23 27
f 2 27 29
f 2 29 25
f 2 25 20
f 2 20 15
f 2 15 10
f 2 10 5
f 3 6 8
f 4 9 11
f 4 11 7
f 5 10 8
f 5 8 6
f 8 10 12
f 9 13 17
f 9 17 11
f 10 14 12
f 10 15 16
f 10 16 14
f 13 18 23
f 13 23 17
f 14 16 19
f 15 20 22
f 15 22 16
f 16 21 19
f 16 22 26
f 16 26 21
f 18 24 23
f 20 25 30
f 20 30 31
f 20 31 26
f 20 26 22
f 23 24 27
f 24 28 27
f 25 29 30
f 27 32 30
f 27 30 29
f 27 28 32
f 30 32 31
