v 0.149475867939 -0.0741329312325 0.269708759443
v 0.149510562313 -0.16874242276 0.252515450971
v 0.149475867939 -0.129068943858 0.252515450971
v 0.149406479192 -0.123758921027 0.252515450971
v 0.149302409482 -0.0741329312325 0.265938297765
v 0.149371798229 -0.0741329312325 0.271666597681
v 0.149475867939 -0.221235814691 0.269708759443
v 0.149510562313 -0.17405244559 0.252515450971
v 0.149059575689 -0.119040580094 0.252515450971
v 0.149163645399 -0.0741329312325 0.263581051783
v 0.149163645399 -0.0741329312325 0.274800276117
v 0.149163645399 -0.221235814691 0.274800276117
v 0.149059575689 -0.22533211112 0.274353406684
v 0.149163645399 -0.225514179468 0.269708759443
v 0.149267715109 -0.22425493598 0.252515450971
v 0.149475867939 -0.221235814691 0.252515450971
v 0.147949449611 -0.0741329312325 0.259830143408
v 0.137472727788 -0.101608521491 0.252515450971
v 0.144202805949 -0.0741329312325 0.257841580467
v 0.145347612989 -0.0741329312325 0.278548394994
v 0.145347612989 -0.221235814691 0.278548394994
v 0.141496899617 -0.225043854117 0.280989419775
v 0.144445653153 -0.22606035769 0.276995516674
v 0.145070084822 -0.227577495575 0.269708759443
v 0.149163645399 -0.225514179468 0.252515450971
v 0.130083510173 -0.0996210515499 0.252515450971
v 0.137576797498 -0.0741329312325 0.25722154762
v 0.141566288364 -0.0741329312325 0.281003380672
v 0.141566288364 -0.221235814691 0.281003380672
v 0.137576797498 -0.221235814691 0.281048066275
v 0.137576797498 -0.22505903542 0.281003380672
v 0.137576797498 -0.227122351527 0.277210576193
v 0.137576797498 -0.229124996066 0.269708759443
v 0.142884553862 -0.228032639623 0.252515450971
v 0.145070084822 -0.227577495575 0.252515450971
v -0.182900026548 -0.0741329312325 0.252515450971
v 0.137576797498 -0.0741329312325 0.281048066275
v -0.192370705414 -0.221235814691 0.281048066275
v -0.192370705414 -0.22505903542 0.281003380672
v -0.192370705414 -0.227122351527 0.277210576193
v 0.137576797498 -0.229124996066 0.252515450971
v -0.192370705414 -0.229124996066 0.269708759443
v -0.204894220936 -0.0741329312325 0.252515450971
v -0.192370705414 -0.0741329312325 0.281048066275
v -0.193966499078 -0.0741329312325 0.281031302468
v -0.196498960364 -0.221235814691 0.281003380672
v -0.19636019628 -0.225043854117 0.280989419775
v -0.199274255442 -0.226212063432 0.2773558044
v -0.192370705414 -0.229124996066 0.252515450971
v -0.199898687112 -0.227956786752 0.269708759443
v -0.204894220936 -0.221235814691 0.252515450971
v -0.204894220936 -0.0741329312325 0.269708759443
v -0.196498960364 -0.0741329312325 0.281003380672
v -0.200245604026 -0.221235814691 0.279447712855
v -0.204061623025 -0.225590032339 0.27495109673
v -0.199898687112 -0.227956786752 0.252515450971
v -0.204269775855 -0.225893470645 0.269708759443
v -0.204894220936 -0.221235814691 0.269708759443
v -0.204269775855 -0.225893470645 0.252515450971
v -0.204269775855 -0.0741329312325 0.275699593977
v -0.200245604026 -0.0741329312325 0.279447712855
v -0.204269775855 -0.221235814691 0.275699593977
f 1 2 3
f 1 3 4
f 1 4 5
f 1 5 10
f 1 10 17
f 1 17 19
f 1 19 27
f 1 27 36
f 1 36 43
f 1 43 52
f 1 52 60
f 1 60 61
f 1 61 53
f 1 53 45
f 1 45 44
f 1 44 37
f 1 37 28
f 1 28 20
f 1 20 11
f 1 11 6
f 1 6 7
f 1 7 8
f 1 8 2
f 2 8 16
f 2 16 15
f 2 15 25
f 2 25 35
f 2 35 34
f 2 34 41
f 2 41 49
f 2 49 56
f 2 56 59
f 2 59 51
f 2 51 43
f 2 43 36
f 2 36 26
f 2 26 18
f 2 18 9
f 2 9 4
f 2 4 3
f 4 9 10
f 4 10 5
f 6 11 12
f 6 12 7
f 7 12 13
f 7 13 14
f 7 14 15
f 7 15 16
f 7 16 8
f 9 17 10
f 9 18 19
f 9 19 17
f 11 20 21
f 11 21 12
f 12 21 13
f 13 21 22
f 13 22 23
f 13 23 24
f 13 24 14
f 14 25 15
f 14 24 35
f 14 35 25
f 18 26 27
f 18 27 19
f 20 28 29
f 20 29 21
f 21 29 22
f 22 29 30
f 22 30 31
f 22 31 32
f 22 32 23
f 23 32 33
f 23 33 24
f 24 33 34
f 24 34 35
f 26 36 27
f 28 37 30
f 28 30 29
f 30 37 44
f 30 44 38
f 30 38 39
f 30 39 31
f 31 39 40
f 31 40 32
f 32 40 42
f 32 42 33
f 33 41 34
f 33 42 49
f 33 49 41
f 38 44 45
f 38 45 46
f 38 46 47
f 38 47 39
f 39 47 40
f 40 47 48
f 40 48 42
f 42 48 50
f 42 50 56
f 42 56 49
f 43 51 58
f 43 58 52
f 45 53 46
f 46 53 61
f 46 61 54
f 46 54 47
f 47 54 55
f 47 55 48
f 48 55 50
f 50 55 57
f 50 57 59
f 50 59 56
f 51 59 57
f 51 57 58
f 52 58 62
f 52 62 60
f 54 61 60
f 54 60 62
f 54 62 55
f 55 62 58
f 55 58 57
