v 0.0648971403 0.022014908 -0.00612454775
v 0.0365838016 0.0148123287 0.000480482345
v 0.0483833657 0.0172366115 -0.00184874097
v 0.050740471 0.0171487751 -0.00200539211
v 0.0648971403 0.0200605517 -0.0051024632
v 0.0672682792 0.0217382249 -0.0065251637
v 0.0648971403 0.022014908 -0.00808910742
v 0.0625400351 0.0218655865 -0.00619131699
v 0.00825643253 0.0119796065 0.00260682937
v 0.0106135388 0.0120762261 0.00270955147
v 0.0129706452 0.0121640626 0.00277632097
v 0.0153417829 0.0122343318 0.00280970559
v 0.0176988882 0.0122870336 0.00281484183
v 0.0318555597 0.0147596268 0.000593476628
v 0.0342126649 0.0148035445 0.000552387786
v 0.0389409069 0.0147640184 0.000377760239
v 0.0224131029 0.0123309514 0.00275320857
v 0.0247702082 0.0123002083 0.00268643907
v 0.0412980164 0.0146278726 0.000244221535
v 0.0436551216 0.014355579 9.01384184e-05
v 0.044889798 0.0141799071 5.39269786e-06
v 0.0483833657 0.0153393466 -0.000939650466
v 0.0672682792 0.0153393466 -0.00545428608
v 0.0672682792 0.0177021455 -0.00563918587
v 0.0672682792 0.0200605517 -0.00585490203
v 0.050740471 0.0153393466 -0.00132999447
v 0.0464612001 0.0135870116 -0.000110169646
v 0.0482711224 0.012871145 -0.000287365229
v 0.050740471 0.0129809403 -0.000824088164
v 0.0490287626 0.0106181425 -0.000107601593
v 0.050740471 0.0106181425 -0.00051592188
v 0.0494356436 0.00910296545 -2.79919802e-05
v 0.0505861354 0.00829047926 -0.000261684719
v 0.0510772009 0.0058969384 -0.000230868103
v 0.0672682792 0.0217382249 -0.00772958032
v 0.0685029513 0.021356136 -0.00695916479
v 0.0625400351 0.0218655865 -0.00789907166
v 0.0648971403 0.0200605517 -0.00911632795
v 0.0176988882 0.0106181425 -0.0107290647
v 0.0153417829 0.0106181425 -0.0105544374
v 0.0129706452 0.0106181425 -0.010356698
v 0.0176988882 0.0122299391 -0.00980970282
v 0.0153417829 0.0120718345 -0.00969413999
v 0.0129706452 0.011922512 -0.00955803327
v 0.0115816363 0.0118302839 -0.00947072014
v 0.00462256017 0.0118083251 0.00237313678
v 0.00589932569 0.0118698101 0.00246301868
v 0.0601829298 0.0215801203 -0.00644298601
v -0.0436560333 0.00573444116 0.00353903254
v -0.041298928 0.00603308469 0.00353903254
v -0.0305235831 0.0070651621 0.00465356699
v -0.0289521789 0.00714421494 0.00485387523
v -0.0420565682 0.00468040489 0.00701360716
v -0.0404851619 0.00474628252 0.00711889699
v -0.00590023734 0.00938843377 0.00464586276
v -0.00466556253 0.0094367441 0.00471520025
v -0.0030941578 0.00948505338 0.00476399332
v -0.00117199365 0.00953336371 0.00480765041
v 0.00117108252 0.00958167405 0.00484103503
v 0.00352818896 0.00961680864 0.00486157945
v 0.00589932569 0.0096387675 0.00486414717
v 0.0200559956 0.0123221682 0.00279686539
v 0.0271413449 0.012221156 0.00259912541
v 0.0294984523 0.0120674419 0.00249383532
v 0.00825643253 0.00963437488 0.00484873925
v 0.0106135388 0.00959924134 0.00481535411
v 0.0129706452 0.00952018798 0.00476399332
v 0.0143035334 0.00945870296 0.00472804045
v 0.031154039 0.0119093373 0.00240908938
v 0.0327254432 0.0116677867 0.00232434371
v 0.0389409069 0.0106181425 0.00172855563
v 0.0342126649 0.0112900903 0.00223959804
v 0.0365557429 0.0105259144 0.0021060593
v 0.0672682792 0.0129809403 -0.00529506668
v 0.0708320021 -0.0160533666 -0.0046941425
v 0.0685871359 0.0200605517 -0.00681021787
v 0.0458158032 0.012871145 0.00013893141
v 0.0474012389 0.0120147411 3.87773739e-05
v 0.0412980164 0.0106181425 0.00134077975
v 0.0478502121 0.0106181425 0.00013893141
v 0.0460262605 0.00825973622 0.000798920773
v 0.0497022225 0.00752630287 3.62093212e-05
v 0.0485377013 0.00829047926 0.000241653483
v 0.0498846168 0.0058969384 8.75703657e-05
v 0.0501091034 0.0035385324 0.000149203621
v 0.0512876582 0.0035385324 -0.000174370945
v 0.0684468297 -0.00228062595 -0.00471725517
v 0.0672682792 0.0200605517 -0.0084845874
v 0.0685029513 0.021356136 -0.00723651421
v 0.0708740902 -0.00630792284 -0.00686157866
v 0.0601829298 0.0215801203 -0.00753184033
v -0.00271533716 0.00949383756 -0.00949383228
v -0.0183872891 0.0069817177 -0.00934745361
v -0.0342135766 0.00530843499 -0.00791448011
v -0.0247711198 0.00726279394 -0.0074085738
v -0.0263425241 0.00713982285 -0.0071902894
v -0.0279139283 0.00701246021 -0.00686414691
v -0.0436560333 0.00495269747 -0.0053156111
v 0.0672682792 0.0177021455 -0.00866948719
v 0.0672682792 0.0153393466 -0.00880559391
v 0.0672682792 0.0129809403 -0.0088929081
v 0.0672682792 0.0106181425 -0.00894170063
v 0.0483833657 -0.00117827974 -0.0114404153
v 0.0483833657 0.00118012639 -0.0114070312
v 0.0458438619 0.00118012639 -0.0116946531
v 0.0447073995 0.00197065346 -0.0117896709
v 0.0442584305 0.0035385324 -0.0117562858
v 0.0426168731 0.00485607787 -0.0118127831
v 0.0412980164 0.0064898339 -0.0117511504
v 0.039824824 0.00694658311 -0.0117896709
v 0.0382534177 0.0072144836 -0.0118204878
v 0.0365838016 0.00739015658 -0.0118487354
v 0.0365838016 0.00857155602 -0.0116664044
v 0.0342126649 0.00873405326 -0.0116818129
v 0.0318555597 0.00883067287 -0.0116869483
v 0.0342126649 0.0106181425 -0.0112837646
v 0.0318555597 0.0106181425 -0.0112657879
v 0.0294984523 0.0106181425 -0.0112298356
v 0.0271413449 0.0106181425 -0.0111759066
v 0.0247702082 0.0106181425 -0.0111014326
v 0.0224131029 0.0106181425 -0.0110012782
v 0.0200559956 0.0106181425 -0.0108754445
v 0.00825643253 0.00825973622 -0.011181042
v 0.00589932569 0.00825973622 -0.0110243914
v 0.00352818896 0.00825973622 -0.0108420593
v 0.00117108252 0.00825973622 -0.0106366151
v 0.00589932569 0.0101570012 -0.00998689839
v 0.00825643253 0.010354633 -0.0100844845
v 0.00352818896 0.00996815354 -0.00987133556
v 0.00117108252 0.00978369744 -0.00974293359
v -0.00117199365 0.00960802446 -0.00959655386
v -0.0271422566 0.00724083455 0.0050182306
v 0.0586115235 0.0213473528 -0.0067614248
v -0.0436560333 0.00597159968 0.0011789925
v -0.045451922 0.00514154566 0.00353903254
v -0.045143255 0.00492195497 0.00518258596
v -0.0436560333 0.00511519524 0.00560631458
v -0.0412848944 0.00517668025 0.00609681244
v -0.0436560333 0.00455304225 0.00678761853
v -0.0434596054 0.0031740115 0.00842089974
v -0.0425336002 0.00236591713 0.0094481208
v -0.0342135766 0.00502296666 0.00740395064
v -0.0318564692 0.0051371541 0.00749383255
v -0.0294993639 0.00521181485 0.00754005736
v -0.0176997998 0.00666550687 0.00671057682
v -0.0153286631 0.00669624938 0.00676964183
v -0.0129715568 0.00669624938 0.00680302645
v -0.0176997998 0.00548410743 0.00761966732
v -0.0153286631 0.00551485047 0.00760682713
v 0.015888968 0.00932255614 0.00467924738
v 0.0176988882 0.00911174857 0.00461761412
v -0.0129715568 0.00551485047 0.00756317003
v -0.0176997998 0.0035385324 0.00876245068
v -0.0153286631 0.0035385324 0.00869824917
v -0.0192712041 0.00233078254 0.0094301441
v -0.0176997998 0.00226051361 0.00940446371
v -0.0153286631 0.00209801611 0.00935053467
v 0.0200559956 0.00875162056 0.00452516449
v 0.0224411638 0.00813676567 0.00445069103
v 0.0247702082 0.00825973622 0.00415536491
v 0.0373274125 0.00898438593 0.00229352708
v 0.0357560104 0.00967829365 0.00241422562
v 0.0271413449 0.00825973622 0.00386517503
v 0.0342126649 0.0101130835 0.0025220837
v 0.0708881195 -0.0177002979 -0.00465562191
v 0.0714353067 -0.0177002979 -0.00589855912
v 0.071168732 -0.0152979739 -0.00569311491
v 0.0711406649 -0.0129790938 -0.00607575468
v 0.0710424509 -0.0106206875 -0.00631201526
v 0.0502774684 0.00118012639 0.000197996604
v 0.0436551216 0.0106181425 0.000937595615
v 0.0460262605 0.0106181425 0.000506162871
v 0.0460262605 0.0058969384 0.00100179693
v 0.0436551216 0.00825973622 0.00126630629
v 0.0412980164 0.0058969384 0.00195968037
v 0.0436551216 0.0058969384 0.00149486291
v 0.0483833657 0.0058969384 0.000462505976
v 0.0483833657 0.0035385324 0.000590908575
v 0.0483833657 0.00118012639 0.000688494575
v 0.0685871359 0.0200605517 -0.00742398225
v 0.0686853499 0.0177021455 -0.00761658574
v 0.0687835596 0.0153393466 -0.00776553319
v 0.0708740902 -0.00630792284 -0.00719542537
v 0.0586115235 0.0213473528 -0.00722624227
v -0.0436560333 0.00545336493 -0.00353851921
v -0.0436560333 0.00585741224 -0.0011784793
v -0.0168158849 0.00712225555 -0.00948099208
v -0.0306919459 0.00471993157 -0.00944247149
v -0.0322773816 0.00455743433 -0.00930893196
v -0.0434596054 0.00309935075 -0.00841268219
v -0.040316797 0.00475067408 -0.00712865613
v -0.0418882033 0.00461452779 -0.00684617021
v -0.0436560333 0.00445203055 -0.00649691505
v -0.0450450411 0.00481655118 -0.00496121997
v 0.0688817736 0.0129809403 -0.00787339127
v 0.0689799875 0.0106181425 -0.00794529648
v 0.0690781972 0.00825973622 -0.00798895357
v 0.0713370928 -0.0177002979 -0.00768849148
v 0.0696253844 -0.0153418916 -0.00835104892
v 0.0696253844 -0.0177002979 -0.00837672932
v 0.0672682792 0.00825973622 -0.00895710908
v 0.0483833657 -0.00353668587 -0.0114378481
v 0.0462086548 -0.00117827974 -0.0116946531
v 0.0449459197 0.000393990951 -0.0118102148
v 0.0438234866 0.00118012639 -0.0118821206
v 0.0412980164 0.00118012639 -0.0120695881
v 0.0430798757 0.0035385324 -0.0118487354
v 0.0412980164 0.0035385324 -0.0119668665
v 0.0389409069 0.0035385324 -0.0121055415
v 0.0412980164 0.00531282655 -0.0118513037
v 0.0389970285 0.00605504408 -0.0119052327
v 0.0365838016 0.0058969384 -0.0120233638
v 0.0342126649 0.0058969384 -0.012100405
v 0.0318555597 0.0058969384 -0.0121620388
v 0.0342126649 0.00755704538 -0.0118795523
v 0.0318555597 0.00764927395 -0.0119052327
v 0.0294984523 0.00768880011 -0.0119232094
v 0.0271413449 0.0076756249 -0.0119309131
v 0.0294984523 0.00886580746 -0.0116818129
v 0.0271413449 0.00885702329 -0.0116715399
v 0.0247702082 0.00880871401 -0.011650996
v 0.0224131029 0.00872966064 -0.0116227473
v 0.0200559956 0.00862864947 -0.0115842267
v 0.0176988882 0.00852324569 -0.0115380014
v 0.0153417829 0.00840466669 -0.0114815041
v 0.0106135388 0.00825973622 -0.0113120133
v 0.00589932569 0.00658645403 -0.0116561325
v 0.00352818896 0.00640199741 -0.0115893622
v 0.00117108252 0.00621754131 -0.0115148892
v -0.00117199365 0.00603747678 -0.0114327116
v -0.00590023734 0.0058969384 -0.0111733383
v -0.00825734366 0.0058969384 -0.0109961427
v -0.0106144505 0.0058969384 -0.0108009705
v -0.0129715568 0.0058969384 -0.0105852543
v -0.00117199365 0.00825973622 -0.010410627
v -0.0106144505 0.00760096362 -0.00984308691
v -0.0129715568 0.00741211544 -0.00971468494
v -0.0153286631 0.00723644299 -0.00957600997
v -0.0456764086 0.00521181485 -0.0011784793
v -0.0696262961 -0.0028647378 0.0011789925
v -0.0696262961 -0.0031941241 0.00353903254
v -0.0710433626 -0.00443261673 0.00515947329
v -0.0696262961 -0.00413836476 0.00561401828
v -0.0441050065 0.00219024442 0.00931201408
v -0.0696262961 -0.00506064682 0.00679275451
v -0.0682372883 -0.00474882756 0.00704442353
v -0.0434596054 0.00131188086 0.00998997944
v -0.041298928 0.00118012639 0.0102442162
v -0.041298928 0.00238348443 0.009460961
v -0.0318564692 0.00370102963 0.00867513649
v -0.0271422566 0.00527330039 0.00756317003
v -0.0294993639 0.00370102963 0.00872136184
v -0.0318564692 0.00251963072 0.00954570588
v -0.0294993639 0.00251963072 0.00954313868
v -0.0271422566 0.00249327978 0.00952259373
v -0.0129715568 0.00183450717 0.00927606068
v 0.00291085156 0.00483411848 0.00712146524
v 0.00825643253 0.0058969384 0.00637416186
v 0.0106135388 0.0058969384 0.00618669435
v 0.0176988882 0.00793035019 0.00498227773
v -0.0247711198 0.00245814518 0.00949691334
v -0.0224140125 0.0024142272 0.00946866469
v -0.0208566397 0.00237909261 0.00945068799
v -0.0294993639 0.00118012639 0.0102236723
v -0.0318564692 -0.00117827974 0.0112971176
v -0.0294993639 -0.00117827974 0.0112020998
v -0.0176997998 0.00107911457 0.00982562408
v -0.0153286631 0.000921009151 0.00974858289
v 0.0200559956 0.00757461268 0.0048590112
v 0.0216694921 0.00727157758 0.00476912929
v 0.0380289311 0.00740772388 0.00240652139
v 0.0388567265 0.00822021007 0.00214201204
v 0.0342126649 0.00825973622 0.00288417905
v 0.0318555597 0.0058969384 0.00360580178
v 0.0365557429 0.00822021007 0.00252721993
v 0.0294984523 0.00825973622 0.00355444072
v 0.0318555597 0.00825973622 0.00322829824
v 0.0232408963 0.00684117932 0.00467667966
v 0.0708881195 -0.0190573682 -0.00465819016
v 0.0504177746 -0.00117827974 0.000231381289
v 0.0483833657 -0.00117827974 0.000757831997
v 0.0483833657 -0.00353668587 0.000801488826
v 0.0483833657 -0.00589948396 0.000822033247
v 0.0711546942 -0.0195404694 -0.00589855912
v 0.0711967907 -0.0195843892 -0.00750102344
v 0.0412980164 0.00825973622 0.0017028751
v 0.0460262605 0.0035385324 0.00114303976
v 0.0436551216 0.0035385324 0.00165408217
v 0.039656459 0.0058969384 0.00227555064
v 0.0400212477 0.0044256796 0.00233975216
v 0.0411577101 0.00360001794 0.00216512458
v 0.0460262605 0.00118012639 0.00124576187
v 0.0709442454 -0.0082578897 -0.00732382787
v 0.0710424509 -0.0106206875 -0.00744966265
v 0.0712388788 -0.0153418916 -0.00762942646
v 0.0711406649 -0.0129790938 -0.0075498165
v -0.045381771 0.00500539937 -0.00353851921
v -0.0294993639 0.00481655118 -0.00951437618
v -0.0316319826 0.00367467869 -0.00992269635
v -0.0425476296 0.00237030896 -0.00945017519
v -0.0441190359 0.00218146077 -0.00929866002
v -0.0455501359 0.00289293527 -0.00772701207
v -0.0710153039 -0.00452484478 -0.00259861207
v -0.0696262961 -0.00338297228 -0.0011784793
v 0.0672682792 0.0035385324 -0.00893142869
v 0.0672682792 0.0058969384 -0.00894940539
v 0.0695271705 -0.0202475508 -0.00761915399
v 0.0530975762 -0.0171996304 -0.00967616329
v 0.0460262605 -0.0153418916 -0.0107239293
v 0.0483833657 -0.0153418916 -0.0105415972
v 0.0460262605 -0.0129790938 -0.0111450897
v 0.0483833657 -0.0129790938 -0.010934509
v 0.0460262605 -0.0106206875 -0.0114044629
v 0.0483833657 -0.0106206875 -0.0111707701
v 0.0483833657 -0.0082578897 -0.0113145815
v 0.0483833657 -0.00589948396 -0.0113967592
v 0.050740471 -0.00589948396 -0.0110860241
v 0.050740471 -0.00353668587 -0.011116841
v 0.0461946254 -0.00353668587 -0.0116920848
v 0.0450301 -0.00117827974 -0.0118204878
v 0.0436551216 -0.00117827974 -0.0119360496
v 0.0412980164 -0.00117827974 -0.0121132452
v 0.0389409069 -0.00117827974 -0.0122698969
v 0.0389409069 0.00118012639 -0.012218535
v 0.0365838016 0.00118012639 -0.0123546417
v 0.0365838016 0.0035385324 -0.012228808
v 0.0342126649 0.0035385324 -0.0123315296
v 0.0318555597 0.0035385324 -0.012411139
v 0.0294984523 0.0035385324 -0.0124753411
v 0.0271413449 0.0035385324 -0.0125267019
v 0.0294984523 0.0058969384 -0.0122082631
v 0.0271413449 0.0058969384 -0.0122339435
v 0.0247702082 0.0058969384 -0.0122467837
v 0.0224131029 0.0058969384 -0.0122416482
v 0.0247702082 0.00763170666 -0.0119283459
v 0.0224131029 0.00755265382 -0.0119155057
v 0.0200559956 0.00745164212 -0.011897529
v 0.0176988882 0.00734184677 -0.0118718486
v 0.0153417829 0.00722326725 -0.0118436
v 0.0136300746 0.00713543129 -0.0118179196
v 0.0120586693 0.00704320272 -0.0117922392
v 0.0106135388 0.00694219102 -0.0117639905
v 0.0129004931 0.00805771283 -0.0114892089
v 0.00825643253 0.00677091013 -0.011715197
v -0.00257503329 0.00475067408 -0.0118127831
v -0.0041464375 0.00461452779 -0.0117716942
v -0.00590023734 0.0044608142 -0.0117229017
v -0.00825734366 0.00425439872 -0.0116535642
v -0.0106144505 0.00404798323 -0.011576522
v -0.0153286631 0.00366589504 -0.0114018947
v -0.0200569072 0.0035385324 -0.0110911606
v -0.0224140125 0.0035385324 -0.0108908529
v -0.0247711198 0.0035385324 -0.0106802722
v -0.0153286631 0.0058969384 -0.010356698
v -0.0271422566 0.0035385324 -0.0104568513
v -0.0271422566 0.00500539937 -0.00965305115
v -0.0712678492 -0.00419106665 -0.0011784793
v -0.0713941219 -0.00394073319 0.0011789925
v -0.0712538198 -0.00410762225 0.00353903254
v -0.0716887637 -0.00589948396 0.00353903254
v -0.071183673 -0.00591705126 0.0059273211
v -0.070959178 -0.00671197015 0.00729609256
v -0.0696262961 -0.00623765365 0.0076248033
v -0.0437121549 -0.00128368339 0.0113510467
v -0.0429685441 -0.00214008783 0.0118929064
v -0.041298928 -0.000884027967 0.0114024085
v -0.0342135766 0.00248449613 0.00952773023
v -0.0318564692 0.00118012639 0.0102647611
v 0.00448225603 0.00464966238 0.0070623997
v 0.0129706452 0.0058969384 0.00598125014
v 0.00589932569 0.00440811231 0.00700590294
v -0.041298928 -0.00206542695 0.011921155
v -0.0389418185 -0.0021532633 0.0118826334
v -0.0365847133 -0.00224988344 0.0118415445
v -0.0349852483 -0.00232015236 0.0118132959
v -0.033413844 -0.00241238068 0.0117876155
v -0.0318564692 -0.00253974332 0.0117593669
v -0.0271422566 -0.00117827974 0.011076265
v -0.0247711198 -0.00117827974 0.0109401583
v -0.0224140125 -0.00117827974 0.0107963478
v -0.0200569072 -0.00117827974 0.0106474009
v -0.0176997998 -0.00117827974 0.0104958857
v -0.0129715568 0.000657500018 0.00964586026
v 0.0153417829 0.0058969384 0.0057552615
v 0.0176988882 0.0058969384 0.00550872845
v 0.0200559956 0.0058969384 0.00524165098
v 0.0342126649 0.0058969384 0.003223162
v 0.0365838016 0.0058969384 0.00282254579
v 0.0384638749 0.0058969384 0.00248869908
v 0.0294984523 0.0058969384 0.00396789713
v 0.025850549 0.00457939319 0.00470492831
v 0.0294984523 0.0035385324 0.00425295078
v 0.0249526046 0.00599355853 0.00459963795
v 0.0271413449 0.0058969384 0.00431201605
v 0.0224411638 0.00599355853 0.00493091641
v 0.0696253844 -0.0193340555 -0.00457087597
v 0.0672682792 -0.0208624072 -0.00546969453
v 0.0695271705 -0.0206076798 -0.00607318643
v 0.0483833657 -0.0082578897 0.000806624931
v 0.0483833657 -0.0106206875 0.00072187926
v 0.0460262605 -0.0106206875 0.00123035355
v 0.0460262605 -0.0129790938 0.00101463719
v 0.0436551216 -0.0129790938 0.0014768866
v 0.0412980164 -0.0129790938 0.00192886374
v 0.0378465367 -0.0142175867 0.00237570476
v 0.0412980164 -0.0153418916 0.00148459069
v 0.0365838016 -0.0157766814 0.00215228425
v 0.0348861248 -0.01625539 0.00228325487
v 0.0333147206 -0.0165979518 0.00239881717
v 0.0460262605 -0.00117827974 0.00131509922
v 0.0460262605 -0.00353668587 0.00135362008
v 0.0460262605 -0.00589948396 0.00136646027
v 0.0686713163 -0.0212576688 -0.00697457271
v 0.0686713163 -0.0212576688 -0.00710811171
v 0.0436551216 0.00118012639 0.00176707648
v 0.0402737972 0.00285340885 0.00239111321
v 0.041662805 0.00118012639 0.00219080497
v 0.0365838016 0.0035385324 0.00303312624
v 0.0391092719 0.00360001794 0.00256317254
v 0.0436551216 -0.00117827974 0.00183898196
v -0.0294993639 0.0035385324 -0.0102205912
v -0.041298928 0.00118012639 -0.0102385669
v -0.0434596054 0.00130748904 -0.00993553654
v -0.0454098339 0.000604798191 -0.00980713457
v -0.0708609725 -0.0070062216 -0.00476091226
v -0.0712117318 -0.00609272371 -0.00344606931
v -0.0718430951 -0.00589948396 -0.0011784793
v 0.0672682792 -0.0213015886 -0.00716717672
v 0.0483833657 -0.0187060222 -0.00933461236
v 0.0460262605 -0.017616853 -0.00995094499
v 0.0483833657 -0.0175246249 -0.00986876731
v 0.050740471 -0.0173928707 -0.00977888593
v 0.0436551216 -0.0153418916 -0.0108728762
v 0.0436551216 -0.0129790938 -0.0113145815
v 0.0436551216 -0.0106206875 -0.0115919304
v 0.0460262605 -0.0082578897 -0.0115688183
v 0.0423923865 -0.00935584421 -0.0117948064
v 0.0437673649 -0.00844673789 -0.0117511504
v 0.0458298326 -0.00582482268 -0.0116869483
v 0.0449178567 -0.00499037763 -0.0118076466
v 0.0450160707 -0.00353668587 -0.0118179196
v 0.0436551216 -0.00353668587 -0.0119309131
v 0.0412980164 -0.00353668587 -0.0121081087
v 0.0389409069 -0.00353668587 -0.0122673286
v 0.0365838016 -0.00353668587 -0.012411139
v 0.0365838016 -0.00117827974 -0.012411139
v 0.0342126649 -0.00117827974 -0.0125318373
v 0.0342126649 0.00118012639 -0.0124676363
v 0.0318555597 0.00118012639 -0.0125626542
v 0.0294984523 0.00118012639 -0.0126448319
v 0.0271413449 0.00118012639 -0.0127141694
v 0.0247702082 0.00118012639 -0.0127655302
v 0.0247702082 0.0035385324 -0.0125652224
v 0.0224131029 0.0035385324 -0.0125806309
v 0.0200559956 0.0035385324 -0.0125831991
v 0.0200559956 0.0058969384 -0.0122159678
v 0.0176988882 0.0035385324 -0.0125780626
v 0.0153417829 0.0035385324 -0.0125677907
v 0.0129706452 0.0035385324 -0.012549814
v 0.0176988882 0.0058969384 -0.0121851509
v 0.0153417829 0.0058969384 -0.0121414938
v 0.0106135388 0.00576518419 -0.0120618844
v 0.00825643253 0.00558951122 -0.0120310675
v 0.00589932569 0.00540505512 -0.0119925469
v 0.00352818896 0.00522499059 -0.0119514581
v 0.00117108252 0.00504053396 -0.0119026645
v -0.00825734366 0.0030729998 -0.012015659
v -0.0166755818 0.00238787625 -0.0118102148
v -0.0175594957 0.00331894144 -0.0113762143
v -0.0318564692 0.00118012639 -0.0111194093
v -0.0342135766 0.00118012639 -0.0109011249
v -0.071899221 -0.00589948396 0.0011789925
v -0.0713520338 -0.0082578897 0.00589907245
v -0.0710153039 -0.0082578897 0.0074527437
v -0.0696262961 -0.0082578897 0.0083798109
v -0.0672691908 -0.0082578897 0.00899357528
v -0.0437121549 -0.00347080851 0.012113758
v -0.041298928 -0.00353668587 0.0123782677
v 0.00825643253 0.00392501241 0.00690831681
v -0.0106144505 0.000306154595 0.00953029848
v -0.0092114102 7.77800896e-05 0.009460961
v -0.0318564692 -0.00372114223 0.0120264449
v -0.0294993639 -0.00283399503 0.0117003024
v -0.0389418185 -0.00353668587 0.0122832499
v -0.0153286631 -0.00117827974 0.0103161219
v -0.0271422566 -0.00326878485 0.0116258284
v 0.00825643253 0.0027436135 0.00716769006
v 0.0104592043 0.00334968421 0.00681073068
v 0.00957528929 0.0024317945 0.00709578485
v 0.0129706452 0.0035385324 0.00650256436
v 0.0153417829 0.0035385324 0.00623291916
v 0.0176988882 0.0035385324 0.00594529727
v 0.0318555597 0.0035385324 0.00386517503
v 0.0342126649 0.0035385324 0.00345685486
v 0.0249526046 0.00369224599 0.00493605291
v 0.0264117655 0.00300712244 0.00479224196
v 0.0271694057 0.00369224599 0.00459963795
v 0.0242791448 0.00526890883 0.00481535411
v 0.0200559956 0.0035385324 0.00564226692
v 0.0224131029 0.0035385324 0.00532126041
v 0.0279831697 0.00159734905 0.00466640719
v 0.0417750483 -0.0187323758 -0.000115305751
v 0.0402036462 -0.0188904804 1.05288031e-05
v 0.0672682792 -0.0196854015 -0.00447329037
v 0.0318555597 -0.0167867995 0.00250410753
v 0.0672682792 -0.0213015886 -0.00665099847
v -0.0247711198 -0.019483377 0.00760939485
v -0.0271422566 -0.0196326985 0.00775063807
v -0.0294993639 -0.0209458532 0.00658474204
v -0.0376650541 -0.0212488857 0.00708808062
v -0.0294993639 -0.0215475287 0.00540600635
v -0.0389418185 -0.0218505653 0.00589907245
v 0.0460262605 -0.0082578897 0.00133564364
v 0.0436551216 -0.0082578897 0.00183641384
v 0.0417890777 -0.0082578897 0.0022216216
v 0.0436551216 -0.0106206875 0.00171314731
v 0.0400493106 -0.0116308056 0.00234488813
v 0.0395442157 -0.0129790938 0.00225757447
v 0.0387585126 -0.0151398682 0.00197508868
v 0.0383516316 -0.0129790938 0.00246815466
v 0.0365838016 -0.0129790938 0.00277632097
v 0.0342126649 -0.0129790938 0.00316923296
v 0.0318555597 -0.0129790938 0.00355444072
v 0.0294984523 -0.0129790938 0.00392937628
v 0.0271413449 -0.0129790938 0.00428890365
v 0.0232268648 -0.0139233342 0.00466897544
v 0.0365838016 -0.0145952831 0.00247842687
v 0.0341425139 -0.0154165524 0.00262994204
v 0.0318555597 -0.0153418916 0.00299717337
v 0.0294984523 -0.0153418916 0.00334642853
v 0.0271413449 -0.0153418916 0.00368027524
v 0.0247702082 -0.0153418916 0.00400128175
v 0.0200559956 -0.0158030329 0.004455827
v 0.0176988882 -0.0162026881 0.0045970697
v 0.0162256979 -0.0164354546 0.00468695161
v 0.0436551216 -0.00353668587 0.00187750268
v 0.0436551216 -0.00589948396 0.0018800708
v 0.0418592329 -0.00117827974 0.00222932583
v 0.0404842503 0.00118012639 0.00243477004
v 0.0365838016 0.00118012639 0.00317950517
v 0.0389409069 0.00118012639 0.00273266414
v 0.0406806782 -0.00117827974 0.00247585888
v 0.0342126649 0.00118012639 0.00361864197
v -0.0436560333 -0.00117827974 -0.0110783204
v -0.0696262961 -0.0082578897 -0.00539778879
v -0.0710433626 -0.0082578897 -0.00493810783
v -0.0449327978 -0.00450727748 -0.0118461682
v -0.0716045791 -0.0082578897 -0.00353851921
v -0.0718571329 -0.0082578897 -0.0011784793
v -0.041298928 -0.0228431171 0.0011789925
v -0.041298928 -0.0226850125 -0.0011784793
v 0.0657109022 -0.0213059823 -0.00716717672
v -0.00117199365 -0.0190134526 -0.00956830521
v 0.00352818896 -0.0190046695 -0.00956316977
v 0.00589932569 -0.0190002758 -0.00955803327
v 0.00825643253 -0.0189958821 -0.00955289782
v 0.0106135388 -0.018987099 -0.00954776132
v 0.0389409069 -0.0189036572 -0.00946558364
v 0.0408490431 -0.0188948741 -0.00945274344
v 0.0424204452 -0.0188773037 -0.00943733499
v 0.0436551216 -0.018855348 -0.00942192654
v 0.0460262605 -0.0187982513 -0.00938340595
v 0.0436551216 -0.0176739475 -0.0100202825
v 0.0389409069 -0.0153418916 -0.0110885924
v 0.0412980164 -0.0153418916 -0.0109910062
v 0.0412980164 -0.0129790938 -0.0114506883
v 0.0378745997 -0.0118372216 -0.0118076466
v 0.0394460018 -0.0114463495 -0.0117639905
v 0.0414804107 -0.0106426464 -0.0117280372
v 0.0446372485 -0.00656264813 -0.0117845344
v 0.0408209802 -0.0098696874 -0.0118436
v 0.0365838016 -0.0082578897 -0.0122236715
v 0.0389409069 -0.0082578897 -0.0120849965
v 0.0414804107 -0.00844673789 -0.0119103692
v 0.0430658464 -0.00778357372 -0.0118436
v 0.0437673649 -0.00582482268 -0.0118744169
v 0.0412980164 -0.00589948396 -0.0120541796
v 0.0389409069 -0.00589948396 -0.0122133996
v 0.0365838016 -0.00589948396 -0.0123546417
v 0.0342126649 -0.00353668587 -0.0125318373
v 0.0318555597 -0.00353668587 -0.0126396964
v 0.0318555597 -0.00117827974 -0.0126345599
v 0.0294984523 -0.00117827974 -0.0127295778
v 0.0271413449 -0.00117827974 -0.0128117555
v 0.0247702082 -0.00117827974 -0.0128733882
v 0.0224131029 0.00118012639 -0.012796347
v 0.0224131029 -0.00117827974 -0.0129144771
v 0.0176988882 -0.00117827974 -0.0129915193
v 0.0153417829 -0.00117827974 -0.0130274717
v 0.0176988882 0.00118012639 -0.0128322994
v 0.0153417829 0.00118012639 -0.0128477078
v 0.0129706452 0.00118012639 -0.0128579808
v 0.0106135388 0.00118012639 -0.0128554126
v 0.0106135388 0.0035385324 -0.0125241336
v 0.00825643253 0.00118012639 -0.0128374359
v 0.00825643253 0.0035385324 -0.0124804765
v 0.00589932569 0.0035385324 -0.012421412
v 0.00352818896 0.0035385324 -0.0123546417
v 0.00117108252 0.0035385324 -0.0122776005
v -0.00117199365 0.0035385324 -0.0121877192
v -0.00590023734 0.00328380711 -0.0120618844
v -0.0153286631 0.00118012639 -0.0121954229
v -0.0175594957 0.00132944816 -0.0120490442
v -0.0284049917 1.19028227e-05 -0.0118050794
v -0.0299763959 -0.000159378064 -0.0117562858
v -0.0182469849 0.00222098719 -0.011758854
v -0.0318564692 -0.000370185305 -0.0116972213
v -0.0711977024 -0.0106206875 0.00589907245
v -0.0711135178 -0.0153418916 0.0011789925
v -0.0708750018 -0.0125267367 0.00724986774
v -0.070959178 -0.0106206875 0.00741679136
v -0.0696262961 -0.0106206875 0.00850050918
v -0.0672691908 -0.0106206875 0.00927606068
v -0.0436560333 -0.00589948396 0.0125760083
v -0.041298928 -0.00589948396 0.0128867423
v -0.0129715568 -0.00117827974 0.0100952693
v -0.0294993639 -0.00401539394 0.0119494026
v -0.0389418185 -0.00589948396 0.0127634758
v -0.024981575 -0.00376066865 0.0115564909
v -0.0271422566 -0.00444579247 0.0118543847
v -0.0259216116 -0.00470051775 0.0118030239
v -0.0200569072 -0.00353668587 0.0111224903
v -0.0176997998 -0.00353668587 0.0109273181
v -0.0153286631 -0.00353668587 0.0107167384
v 0.00825643253 0.00118012639 0.00742449506
v 0.0111466946 0.00174667082 0.00700590294
v -0.0106144505 -0.00117827974 0.00984616797
v -0.00835555655 -0.00113875345 0.00959963492
v -0.00640533118 -0.00189853788 0.00951745723
v 0.0128443725 0.00104837179 0.00688520414
v 0.0153417829 0.00118012639 0.00655392568
v 0.0292739657 0.000956143615 0.00449691584
v 0.0318555597 0.00118012639 0.00403723462
v 0.0200559956 0.00118012639 0.00591191265
v 0.0224131029 0.00118012639 0.00556779346
v 0.0247702082 0.00118012639 0.00520826636
v 0.0176988882 0.00118012639 0.00623805514
v 0.028333929 2.50782959e-05 0.00472033623
v 0.0294984523 -0.0170590921 0.00267103088
v 0.0271413449 -0.0172874669 0.00283025001
v 0.0271413449 -0.0184688653 0.00199306499
v 0.0247702082 -0.018657713 0.00214458016
v -0.0146692347 -0.0187982513 0.00701617489
v -0.0162406389 -0.0189168298 0.00711119277
v -0.0389418185 -0.0225620404 0.00353903254
v -0.041298928 -0.0226454863 0.00353903254
v -0.0318564692 -0.0184996083 0.00918361105
v -0.0294993639 -0.0197644538 0.00788931252
v -0.0375528108 -0.0189080467 0.009460961
v -0.0389418185 -0.0201728921 0.00832588134
v -0.0389418185 -0.0212884118 0.00714714564
v -0.041298928 -0.0219384008 0.00589907245
v 0.0419293839 -0.00589948396 0.00224730226
v 0.0407508292 -0.00589948396 0.00248869908
v 0.0406105272 -0.0082578897 0.00245788245
v 0.040372007 -0.0100585351 0.00240908938
v 0.0412138318 -0.0107568343 0.00218823699
v 0.0391233054 -0.0107568343 0.00258628521
v 0.0365838016 -0.0106206875 0.00306137462
v 0.0342126649 -0.0106206875 0.00347996726
v 0.0318555597 -0.0106206875 0.00388571945
v 0.0259207021 -0.0117493851 0.004712632
v 0.0243492958 -0.0123466721 0.00483333081
v 0.0249946948 -0.0130713218 0.00458936548
v 0.0216554606 -0.014327382 0.00477683352
v 0.0224271323 -0.0130713218 0.00495916505
v 0.0200559956 -0.0129790938 0.00530585249
v 0.00925259084 -0.0116527655 0.00705469601
v -0.00922544061 -0.0119030981 0.00947123294
v -0.0106144505 -0.0122456599 0.00957138733
v 0.0224271323 -0.0152057459 0.00436080912
v 0.0200559956 -0.0146216335 0.00487955562
v -0.0140238368 -0.0142000194 0.00945839275
v 0.0146542927 -0.0166155191 0.00477683352
v -0.0131258914 -0.015131084 0.0089191013
v -0.0153286631 -0.0155483076 0.00899871073
v -0.0234943533 -0.0165408584 0.00945325625
v -0.0129715568 -0.0174631399 0.00767616461
v 0.0419434133 -0.00353668587 0.00224730226
v 0.0365838016 -0.00117827974 0.00327452305
v 0.0389409069 -0.00117827974 0.00281740982
v 0.0342126649 -0.00117827974 0.00372136408
v 0.0389409069 -0.00353668587 0.00285593067
v 0.0407648585 -0.00353668587 0.00249383532
v 0.0318555597 -0.00117827974 0.00414766069
v -0.0436560333 -0.00304480233 -0.0116458595
v -0.0696262961 -0.0106206875 -0.00568541068
v -0.0711556059 -0.0106206875 -0.00507678227
v -0.0436560333 -0.00422620125 -0.0119052327
v -0.0436560333 -0.00589948396 -0.0121286536
v -0.0450590704 -0.00589948396 -0.0119257777
v -0.0716186085 -0.0106206875 -0.00353851921
v -0.0714642771 -0.0129790938 -0.0011784793
v -0.0672691908 -0.0184952189 0.0011789925
v -0.041298928 -0.0222282606 -0.00353851921
v -0.041298928 -0.0215826654 -0.00555443993
v -0.0294993639 -0.0211390903 -0.00678967345
v -0.0294993639 -0.0200147875 -0.00826116702
v -0.0153286631 -0.0190134526 -0.00955289782
v -0.00825734366 -0.019017842 -0.00956316977
v -0.00590023734 -0.019017842 -0.00956573802
v -0.00352910009 -0.019017842 -0.00956830521
v 0.00825643253 -0.0177002979 -0.0103695382
v 0.0106135388 -0.0177002979 -0.0103644017
v 0.0129706452 -0.0177002979 -0.0103541297
v 0.0200559956 -0.0177002979 -0.0103079044
v 0.0224131029 -0.0177002979 -0.0102899287
v 0.0318555597 -0.0177002979 -0.0102154547
v 0.0365838016 -0.0177002979 -0.0101743659
v 0.0389409069 -0.0177002979 -0.0101409808
v 0.0414944401 -0.0179374548 -0.00995351324
v 0.0365838016 -0.0153418916 -0.0111604981
v 0.0318555597 -0.01364665 -0.0117023568
v 0.0342126649 -0.0134446266 -0.0116715399
v 0.0365838016 -0.0131855098 -0.0116381558
v 0.0387725419 -0.0127682862 -0.0116124754
v 0.0387725419 -0.0106426464 -0.0118846888
v 0.0365838016 -0.0120041104 -0.0118358952
v 0.0342126649 -0.0106206875 -0.0121081087
v 0.0365838016 -0.0106206875 -0.0120028188
v 0.0342126649 -0.0082578897 -0.0123392343
v 0.0342126649 -0.00589948396 -0.0124727728
v 0.0318555597 -0.00589948396 -0.0125806309
v 0.0294984523 -0.00353668587 -0.0127398498
v 0.0271413449 -0.00353668587 -0.0128271639
v 0.0247702082 -0.00353668587 -0.0128965014
v 0.0224131029 -0.00353668587 -0.0129504305
v 0.0176988882 -0.00353668587 -0.013053152
v 0.0153417829 -0.00353668587 -0.0130993774
v 0.0129706452 -0.00117827974 -0.0130505838
v 0.0129706452 -0.00353668587 -0.0131327615
v 0.0106135388 -0.00117827974 -0.0130608568
v 0.00825643253 -0.00117827974 -0.0130557203
v 0.00352818896 -0.00117827974 -0.0130249034
v 0.00589932569 0.00118012639 -0.012806619
v 0.00352818896 0.00118012639 -0.0127680984
v 0.00117108252 -0.00117827974 -0.0130017913
v -0.00117199365 -0.00117827974 -0.0129735426
v 0.00117108252 0.00118012639 -0.0127244413
v -0.00117199365 0.00118012639 -0.012667944
v -0.00352910009 0.00118012639 -0.0126088795
v -0.00590023734 0.00118012639 -0.0125446775
v -0.00825734366 0.00118012639 -0.0124702046
v -0.0106144505 0.00118012639 -0.0123854586
v -0.0129715568 0.00118012639 -0.012293009
v -0.0176997998 -0.00117827974 -0.0126268552
v -0.0200569072 -0.00117827974 -0.0125241336
v -0.0224140125 -0.00117827974 -0.0124137073
v -0.0247711198 -0.00117827974 -0.0123007127
v -0.0200569072 0.00083756462 -0.0120439077
v -0.0293169675 -0.00103774162 -0.0120284992
v -0.0318564692 -0.00154719246 -0.0120207955
v -0.041298928 -0.00273737515 -0.0117203335
v -0.070959178 -0.0131811172 0.00609167647
v -0.0707908172 -0.0140990072 0.00700590294
v -0.0709170899 -0.0167340976 0.0011789925
v -0.0708469431 -0.0166243022 0.0029124277
v -0.0709311193 -0.015451687 0.00363405042
v -0.071183673 -0.0153418916 -0.0011784793
v -0.0698507827 -0.0131811172 0.00790472097
v -0.0672691908 -0.0129790938 0.00888571721
v -0.041298928 -0.0106206875 0.0129637835
v -0.041298928 -0.0082578897 0.0130793463
v -0.0342135766 -0.00589948396 0.0125066708
v -0.0318564692 -0.00589948396 0.0123756995
v -0.0294993639 -0.00589948396 0.0122062087
v -0.0271422566 -0.00589948396 0.0120007645
v -0.0254586091 -0.00589948396 0.0118492493
v -0.0224140125 -0.00589948396 0.0115641956
v -0.0153286631 -0.00589948396 0.0108810938
v -0.0129715568 -0.00353668587 0.0104676371
v -0.0176997998 -0.00589948396 0.0111147866
v 0.00352818896 -0.00117827974 0.00827452055
v 0.0119604575 0.000174400061 0.00710092082
v 0.0104592043 0.00104837179 0.00717539428
v -0.00483392697 -0.00254413488 0.00942757585
v 0.0153417829 -0.00117827974 0.00675423391
v 0.0176988882 -0.00117827974 0.00642038668
v 0.0200559956 -0.00117827974 0.00607626802
v 0.0224131029 -0.00117827974 0.00572187689
v 0.0284602038 -0.00117827974 0.0047434489
v 0.0296387564 -0.00117827974 0.00453800469
v 0.0247702082 -0.00117827974 0.00534950906
v 0.0271413449 -0.00117827974 0.00496173331
v -0.0294993639 -0.0183151544 0.00906804822
v -0.0672691908 -0.0181790054 0.00353903254
v -0.0318564692 -0.0173226015 0.00991807371
v -0.0389418185 -0.0177002979 0.0103495071
v -0.0389418185 -0.0189914927 0.00953029848
v -0.041298928 -0.0190881112 0.00961247617
v -0.041298928 -0.0202695107 0.0083926511
v -0.041298928 -0.0213367211 0.00721134715
v -0.0426037512 -0.0213103717 0.00717539428
v 0.0389409069 -0.00589948396 0.00284309021
v 0.0389409069 -0.0082578897 0.00277888896
v 0.0365838016 -0.0082578897 0.00322059401
v 0.0342126649 -0.0082578897 0.00365716283
v 0.0318555597 -0.0082578897 0.00407318722
v 0.0280673522 -0.0088024754 0.00467924738
v 0.0294984523 -0.0106206875 0.00427606345
v 0.0272255274 -0.0108227109 0.0046150464
v 0.026495948 -0.010172722 0.00480765041
v 0.0249946948 -0.0108227109 0.00496686928
v 0.0224131029 -0.0106206875 0.00538546192
v 0.0200559956 -0.0106206875 0.00572958111
v 0.0176988882 -0.0106206875 0.00606599554
v 0.0153417829 -0.0106206875 0.00639727453
v -0.0131258914 -0.0130405799 0.0096869491
v 0.0129706452 -0.0106206875 0.00672084877
v -0.0129715568 -0.0106206875 0.0102442162
v -0.0153286631 -0.0106206875 0.0105369746
v -0.0153286631 -0.0129790938 0.00997200275
v -0.0271422566 -0.0129790938 0.011279142
v -0.0293590598 -0.0128824742 0.0115513554
v -0.0318564692 -0.0135017201 0.0116104199
v -0.0294993639 -0.0153418916 0.010680785
v -0.0153286631 -0.0143669082 0.00953029848
v -0.0247711198 -0.0166726126 0.00952773023
v -0.0294993639 -0.0171337539 0.00980251193
v 0.0365838016 -0.00353668587 0.00331304391
v 0.0342126649 -0.00353668587 0.00375988494
v 0.0318555597 -0.00353668587 0.00418874953
v 0.0285864765 -0.00353668587 0.00476656157
v 0.0297650291 -0.00353668587 0.00455854911
v -0.0698367533 -0.0131986845 -0.0052000488
v -0.0710293417 -0.0125574797 -0.00494581205
v -0.045143255 -0.0082578897 -0.0119797067
v -0.0450169823 -0.0106206875 -0.0119129375
v -0.0448907097 -0.0119294496 -0.0118307598
v -0.0318564692 -0.00353668587 -0.0124419559
v -0.0436560333 -0.0082578897 -0.0122467837
v -0.0318564692 -0.00589948396 -0.0127270096
v -0.0712257611 -0.0131986845 -0.0037593716
v -0.0696262961 -0.0177266472 0.0011789925
v -0.0696262961 -0.0173928707 -0.0011784793
v -0.0672691908 -0.0179638084 -0.0011784793
v -0.0431228797 -0.02147287 -0.00527452226
v -0.041298928 -0.0210776042 -0.00673317616
v -0.041298928 -0.0198962048 -0.00824062259
v -0.0294993639 -0.0189387897 -0.00948612753
v -0.0247711198 -0.0189695328 -0.00950924073
v -0.0200569072 -0.0189958821 -0.00953492112
v -0.0176997998 -0.0190046695 -0.00954519307
v -0.0176997998 -0.0177002979 -0.0103181763
v -0.0153286631 -0.0177002979 -0.0103310176
v -0.00825734366 -0.0177002979 -0.010356698
v -0.00590023734 -0.0177002979 -0.0103644017
v -0.00117199365 -0.0177002979 -0.0103746736
v 0.00117108252 -0.0177002979 -0.0103772419
v 0.00589932569 -0.0177002979 -0.0103721064
v 0.00825643253 -0.01548243 -0.0114378481
v 0.0106135388 -0.0154692543 -0.0114378481
v 0.0129706452 -0.0154472954 -0.0114352798
v 0.0153417829 -0.015420945 -0.0114301433
v 0.0176988882 -0.015390202 -0.0114250068
v 0.0224131029 -0.0153418916 -0.0113993264
v 0.0247702082 -0.0153418916 -0.0113710778
v 0.0271413449 -0.0153418916 -0.0113402619
v 0.0294984523 -0.0153418916 -0.0113068768
v 0.0318555597 -0.0153418916 -0.0112657879
v 0.0342126649 -0.0153418916 -0.0112169954
v 0.0294984523 -0.0138003642 -0.0117280372
v 0.0271413449 -0.0127419358 -0.0119951152
v 0.0294984523 -0.0126189647 -0.01196173
v 0.0318555597 -0.0124652517 -0.0119257777
v 0.0342126649 -0.0122676198 -0.0118846888
v 0.0318555597 -0.0106206875 -0.0121979911
v 0.0294984523 -0.0082578897 -0.0125344055
v 0.0318555597 -0.0082578897 -0.0124393877
v 0.0294984523 -0.00589948396 -0.012678217
v 0.0271413449 -0.00589948396 -0.0127680984
v 0.0247702082 -0.00589948396 -0.0128400041
v 0.0224131029 -0.00589948396 -0.0128939332
v 0.0176988882 -0.00589948396 -0.012999223
v 0.0153417829 -0.00589948396 -0.0130505838
v 0.0129706452 -0.00589948396 -0.0130891054
v 0.0106135388 -0.00353668587 -0.0131507382
v 0.0106135388 -0.00589948396 -0.0131147858
v 0.00825643253 -0.00353668587 -0.0131558747
v 0.00352818896 -0.00353668587 -0.0131481699
v 0.00117108252 -0.00353668587 -0.0131404662
v -0.00352910009 -0.00353668587 -0.0131199213
v -0.00590023734 -0.00353668587 -0.0131019456
v -0.00352910009 -0.00117827974 -0.0129427257
v -0.00590023734 -0.00117827974 -0.0129067734
v -0.0129715568 -0.00353668587 -0.0130300399
v -0.0153286631 -0.00353668587 -0.0130043595
v -0.00825734366 -0.00117827974 -0.0128631163
v -0.0106144505 -0.00117827974 -0.0128117555
v -0.0129715568 -0.00117827974 -0.0127578265
v -0.0153286631 -0.00117827974 -0.0127013292
v -0.0200569072 -0.00353668587 -0.0128913649
v -0.0224140125 -0.00353668587 -0.012816892
v -0.0247711198 -0.00353668587 -0.0127347143
v -0.0271422566 -0.00353668587 -0.0126474001
v -0.0294993639 -0.00353668587 -0.012549814
v -0.0271422566 -0.00117827974 -0.0121800144
v -0.0708609725 -0.014740213 0.00543168674
v -0.0707627585 -0.016316875 0.0044866439
v -0.0699910847 -0.0155790496 0.00620210227
v -0.0692194151 -0.0148456168 0.00756317003
v -0.0709030605 -0.0166813957 -0.0011784793
v -0.0698367533 -0.0172567239 0.00363405042
v -0.0709872451 -0.0153418916 -0.00296584367
v -0.0708329138 -0.0165584257 -0.00240857631
v -0.0672691908 -0.0151706113 0.00779943114
v -0.0428563008 -0.0145777158 0.0119673793
v -0.041298928 -0.0129790938 0.0125349194
v -0.0389418185 -0.0106206875 0.0128071329
v -0.0389418185 -0.0082578897 0.0129406713
v -0.0318564692 -0.0082578897 0.0124681491
v -0.0294993639 -0.0082578897 0.0122781134
v -0.0176997998 -0.0082578897 0.0110788332
v -0.0153286631 -0.0082578897 0.0108271647
v -0.0129715568 -0.00589948396 0.0106114475
v -0.0271422566 -0.0082578897 0.012049557
v -0.0253042756 -0.0082578897 0.0118672249
v -0.0241257208 -0.0082578897 0.0117465267
v -0.0106144505 -0.00353668587 0.0101902872
v 0.00589932569 -0.00117827974 0.0079894669
v 0.00825643253 -0.00117827974 0.00769670903
v 0.0106135388 -0.00117827974 0.00739111044
v 0.012353308 -0.00117827974 0.00715741811
v -0.00825734366 -0.00353668587 0.00991037001
v -0.00573187238 -0.00341371505 0.00959963492
v -0.00438495426 -0.0041164059 0.00948407314
v -0.00357119133 -0.00341371505 0.00933255797
v 0.00825643253 -0.00353668587 0.00783024751
v 0.0106135388 -0.00353668587 0.00750924099
v 0.0127321292 -0.00353668587 0.00721134715
v 0.0139106818 -0.00353668587 0.00704442353
v 0.0153417829 -0.00353668587 0.00684154757
v 0.0200559956 -0.00353668587 0.0061456055
v 0.0176988882 -0.00353668587 0.00649742839
v 0.0224131029 -0.00353668587 0.00578351015
v 0.0247702082 -0.00353668587 0.00540343809
v 0.0271413449 -0.00353668587 0.00501052637
v -0.0691913522 -0.0169624724 0.00539830212
v -0.0389418185 -0.0156712777 0.0114383609
v -0.041298928 -0.0158908694 0.0115282422
v -0.041298928 -0.0177002979 0.0105215661
v -0.0427019652 -0.0190354125 0.00957138733
v -0.0672691908 -0.0163476181 0.00689547661
v -0.0672691908 -0.0171688885 0.00571417266
v 0.0365838016 -0.00589948396 0.00329506747
v 0.0342126649 -0.00589948396 0.00373934051
v 0.0318555597 -0.00589948396 0.00416306913
v 0.0283760213 -0.00723020438 0.00472804045
v 0.0292879971 -0.00811295976 0.00451746027
v 0.0272255274 -0.00811295976 0.00486157945
v 0.0247702082 -0.0082578897 0.00525192292
v 0.0224131029 -0.0082578897 0.00562429075
v 0.0200559956 -0.0082578897 0.00598125014
v 0.0176988882 -0.0082578897 0.00633050529
v 0.0117640317 -0.00939537037 0.00707524043
v 0.0101926275 -0.0100804939 0.00718309851
v -0.00660175697 -0.0097950256 0.00950718528
v -0.0129715568 -0.0082578897 0.01054211
v -0.025697125 -0.00960617794 0.0118261361
v -0.0176997998 -0.0106206875 0.0107963478
v -0.0284751448 -0.0117010747 0.0117850483
v -0.030046549 -0.0120348534 0.0118646577
v -0.0318564692 -0.0123203217 0.0119442672
v -0.0356446787 -0.0140770483 0.0117773436
v -0.0372160808 -0.0142878559 0.0118518175
v -0.0318564692 -0.0153418916 0.0109093424
v 0.028502294 -0.00589948396 0.00475115312
v 0.0296808466 -0.00589948396 0.00454570891
v -0.0707627585 -0.0141341418 -0.0046941425
v -0.0436560333 -0.0106206875 -0.0121235171
v -0.0436560333 -0.0122588356 -0.0119000973
v -0.0436560333 -0.0134402351 -0.0116022024
v -0.0436560333 -0.0153418916 -0.010934509
v -0.041298928 -0.0082578897 -0.0123649147
v -0.041298928 -0.0106206875 -0.0122467837
v -0.0318564692 -0.0082578897 -0.0127680984
v -0.0294993639 -0.00589948396 -0.0128091872
v -0.0696262961 -0.0167780163 -0.00268849398
v -0.0436560333 -0.0196326985 -0.0079658409
v -0.041298928 -0.018855348 -0.00942192654
v -0.0176997998 -0.0154999973 -0.0113916227
v -0.0153286631 -0.015513173 -0.0113993264
v -0.041298928 -0.0176739475 -0.0101050284
v -0.0129715568 -0.015513173 -0.0114044629
v 0.00117108252 -0.0155043889 -0.0114327116
v -0.00825734366 -0.0155087804 -0.0114147349
v -0.0153286631 -0.0143361652 -0.0118667121
v -0.00117199365 -0.014327382 -0.0118590084
v 0.00117108252 -0.0143229905 -0.0118564402
v 0.00825643253 -0.0143010306 -0.0118487354
v 0.0106135388 -0.0142878559 -0.0118436
v 0.0129706452 -0.0142702886 -0.0118358952
v 0.0153417829 -0.0142439371 -0.0118256233
v 0.0201121172 -0.0151179094 -0.0114943443
v 0.0176988882 -0.0142088025 -0.0118153513
v 0.0193685064 -0.0141824521 -0.0118076466
v 0.0209399106 -0.0141429259 -0.0117973746
v 0.0224131029 -0.0140946156 -0.0117871027
v 0.0247702082 -0.0140199549 -0.011769126
v 0.0271413449 -0.0139233342 -0.0117511504
v 0.0247702082 -0.0128385554 -0.0120233638
v 0.0224131029 -0.0106206875 -0.0124650681
v 0.0247702082 -0.0106206875 -0.0124188438
v 0.0271413449 -0.0106206875 -0.0123546417
v 0.0294984523 -0.0106206875 -0.0122801688
v 0.0271413449 -0.0082578897 -0.0126191515
v 0.0247702082 -0.0082578897 -0.0126910572
v 0.0153417829 -0.0082578897 -0.012881093
v 0.0129706452 -0.0082578897 -0.0129247501
v 0.0224131029 -0.0082578897 -0.012742418
v 0.0106135388 -0.0082578897 -0.0129529987
v 0.00825643253 -0.00589948396 -0.0131250578
v -0.00352910009 -0.00589948396 -0.013137898
v -0.00590023734 -0.00589948396 -0.0131353297
v -0.0153286631 -0.00589948396 -0.0131173541
v -0.0176997998 -0.00589948396 -0.0130942409
v -0.0176997998 -0.00353668587 -0.0129607024
v -0.0698367533 -0.0152804066 -0.00402388109
v -0.041298928 -0.01470947 0.0120187401
v -0.0389418185 -0.0144942708 0.011931427
v -0.0389418185 -0.0129790938 0.0123654275
v -0.0318564692 -0.0106206875 0.0122652732
v -0.0106144505 -0.00589948396 0.0103161219
v 0.00117108252 -0.00353668587 0.00874447398
v 0.00352818896 -0.00353668587 0.00844401189
v 0.00589932569 -0.00353668587 0.00814098207
v -0.00825734366 -0.00589948396 0.0100130916
v -0.00590023734 -0.00589948396 0.00970749405
v 0.00589932569 -0.00589948396 0.00813841382
v 0.00825643253 -0.00589948396 0.00781997556
v -0.00428674163 -0.00589948396 0.00949691334
v -0.00310818821 -0.00589948396 0.00934026167
v 0.00117108252 -0.00589948396 0.00877015438
v 0.0106135388 -0.00589948396 0.00748869657
v 0.0126479467 -0.00589948396 0.00720107468
v 0.0138264993 -0.00589948396 0.00703415158
v 0.0153417829 -0.00589948396 0.00681586718
v 0.0176988882 -0.00589948396 0.00646917974
v 0.0200559956 -0.00589948396 0.00611478861
v 0.0224131029 -0.00589948396 0.00575269325
v 0.0247702082 -0.00589948396 0.00537262173
v 0.0271413449 -0.00589948396 0.00497970948
v 0.0153417829 -0.0082578897 0.00667462395
v 0.0130267668 -0.00846869727 0.00698279027
v 0.0122691255 -0.00782309988 0.00714714564
v 0.0108380255 -0.00846869727 0.00728838833
v 0.00825643253 -0.0082578897 0.00766589214
v 0.00589932569 -0.0082578897 0.00798689865
v -0.00501632234 -0.00899571514 0.00939675896
v -0.0106144505 -0.0082578897 0.0102262406
v -0.00446913674 -0.00742344465 0.00947380119
v -0.0248553023 -0.0104845418 0.0115924443
v -0.0271422566 -0.0100804939 0.0119031783
v -0.0293590598 -0.0107963605 0.0120161729
v -0.0436560333 -0.0173840865 -0.00995351324
v -0.0436560333 -0.0185610944 -0.00914714485
v -0.041298928 -0.0125486955 -0.0119642983
v -0.041298928 -0.013730095 -0.011704925
v -0.041298928 -0.0153418916 -0.0111887468
v -0.0318564692 -0.0106206875 -0.0125523822
v -0.0271422566 -0.00589948396 -0.0128785247
v -0.0294993639 -0.0082578897 -0.0128348676
v -0.0200569072 -0.0154648627 -0.0113813508
v -0.0176997998 -0.0143185979 -0.0118615767
v -0.0294993639 -0.0153418916 -0.0113299889
v -0.0153286631 -0.0129790938 -0.0122467837
v -0.0176997998 -0.0129790938 -0.01223908
v 0.00825643253 -0.0129790938 -0.0121851509
v 0.0106135388 -0.0129790938 -0.0121723107
v 0.0129706452 -0.0129790938 -0.0121517658
v 0.0153417829 -0.0129790938 -0.0121286536
v 0.0176988882 -0.0129790938 -0.0121029732
v 0.0201121172 -0.0132030771 -0.0120182273
v 0.0224131029 -0.0129176088 -0.0120464759
v 0.0153417829 -0.0106206875 -0.0125857663
v 0.0200559956 -0.0106206875 -0.0125087252
v 0.0129706452 -0.0106206875 -0.0126191515
v 0.0106135388 -0.0106206875 -0.0126474001
v 0.00825643253 -0.0106206875 -0.0126628086
v 0.00825643253 -0.0082578897 -0.0129632707
v -0.00590023734 -0.0082578897 -0.013009495
v -0.0153286631 -0.0082578897 -0.0130377436
v -0.0176997998 -0.0082578897 -0.0130274717
v -0.0200569072 -0.0082578897 -0.012999223
v -0.0224140125 -0.0082578897 -0.0129658389
v -0.0247711198 -0.0082578897 -0.0129273173
v -0.0271422566 -0.0082578897 -0.012881093
v -0.0200569072 -0.00589948396 -0.0130480166
v -0.0224140125 -0.00589948396 -0.012999223
v -0.0247711198 -0.00589948396 -0.012945294
v -0.00825734366 -0.0082578897 0.00990780176
v -0.0294993639 -0.0106206875 -0.0126063113
v -0.0318564692 -0.0128824742 -0.012090133
v -0.0294993639 -0.0129659181 -0.0121132452
v -0.0294993639 -0.0141429259 -0.0117973746
v -0.0176997998 -0.0106206875 -0.0127501217
v -0.0153286631 -0.0106206875 -0.0127552582
v -0.0200569072 -0.0129790938 -0.0122159678
v -0.0200569072 -0.0106206875 -0.0127295778
v -0.0224140125 -0.0106206875 -0.0127038974
v -0.0247711198 -0.0106206875 -0.0126730805
v -0.0271422566 -0.0106206875 -0.0126396964
v -0.0224140125 -0.0129790938 -0.0121902864
f 1 2 3
f 1 3 4
f 1 4 5
f 1 5 6
f 1 6 35
f 1 35 7
f 1 7 37
f 1 37 8
f 1 8 9
f 1 9 10
f 1 10 11
f 1 11 12
f 1 12 13
f 1 13 14
f 1 14 15
f 1 15 2
f 2 16 3
f 2 15 17
f 2 17 18
f 2 18 16
f 3 16 4
f 4 16 19
f 4 19 20
f 4 20 21
f 4 21 22
f 4 22 5
f 5 23 24
f 5 24 25
f 5 25 6
f 5 22 21
f 5 21 26
f 5 26 27
f 5 27 28
f 5 28 29
f 5 29 30
f 5 30 31
f 5 31 32
f 5 32 33
f 5 33 34
f 5 34 23
f 6 25 36
f 6 36 89
f 6 89 35
f 7 35 38
f 7 38 39
f 7 39 40
f 7 40 41
f 7 41 42
f 7 42 43
f 7 43 44
f 7 44 45
f 7 45 37
f 8 46 47
f 8 47 9
f 8 37 91
f 8 91 48
f 8 48 49
f 8 49 50
f 8 50 51
f 8 51 52
f 8 52 46
f 9 47 53
f 9 53 54
f 9 54 55
f 9 55 56
f 9 56 10
f 10 56 11
f 11 56 57
f 11 57 58
f 11 58 12
f 12 58 59
f 12 59 13
f 13 59 60
f 13 60 61
f 13 61 62
f 13 62 14
f 14 62 15
f 15 62 17
f 16 18 63
f 16 63 64
f 16 64 19
f 17 62 65
f 17 65 66
f 17 66 18
f 18 66 67
f 18 67 68
f 18 68 63
f 19 64 69
f 19 69 20
f 20 69 70
f 20 70 21
f 21 71 27
f 21 27 26
f 21 70 72
f 21 72 73
f 21 73 71
f 23 34 74
f 23 74 75
f 23 75 24
f 24 75 25
f 25 76 36
f 25 75 76
f 27 77 78
f 27 78 28
f 27 71 79
f 27 79 77
f 28 78 29
f 29 78 30
f 30 78 80
f 30 80 81
f 30 81 32
f 30 32 31
f 32 82 33
f 32 81 83
f 32 83 82
f 33 82 34
f 34 82 84
f 34 84 85
f 34 85 86
f 34 86 75
f 34 75 87
f 34 87 74
f 35 88 38
f 35 89 88
f 36 76 90
f 36 90 183
f 36 183 89
f 37 45 92
f 37 92 93
f 37 93 94
f 37 94 95
f 37 95 96
f 37 96 97
f 37 97 98
f 37 98 91
f 38 88 99
f 38 99 100
f 38 100 101
f 38 101 102
f 38 102 103
f 38 103 104
f 38 104 105
f 38 105 106
f 38 106 107
f 38 107 108
f 38 108 109
f 38 109 110
f 38 110 111
f 38 111 112
f 38 112 113
f 38 113 114
f 38 114 115
f 38 115 116
f 38 116 117
f 38 117 118
f 38 118 119
f 38 119 120
f 38 120 121
f 38 121 122
f 38 122 39
f 39 122 123
f 39 123 124
f 39 124 40
f 40 124 125
f 40 125 41
f 41 43 42
f 41 125 126
f 41 126 127
f 41 127 128
f 41 128 43
f 43 128 127
f 43 127 44
f 44 127 129
f 44 129 130
f 44 130 45
f 45 130 131
f 45 131 92
f 46 52 132
f 46 132 53
f 46 53 47
f 48 91 184
f 48 184 133
f 48 133 134
f 48 134 49
f 49 134 135
f 49 135 136
f 49 136 137
f 49 137 51
f 49 51 50
f 51 137 138
f 51 138 53
f 51 53 52
f 52 53 132
f 53 138 137
f 53 137 139
f 53 139 140
f 53 140 141
f 53 141 54
f 54 141 142
f 54 142 56
f 54 56 55
f 56 142 143
f 56 143 57
f 57 143 144
f 57 144 58
f 58 144 145
f 58 145 146
f 58 146 59
f 59 146 60
f 60 146 147
f 60 147 61
f 61 65 62
f 61 147 148
f 61 148 149
f 61 149 65
f 63 68 150
f 63 150 64
f 64 150 151
f 64 151 69
f 65 149 152
f 65 152 153
f 65 153 66
f 66 153 154
f 66 154 155
f 66 155 156
f 66 156 67
f 67 156 68
f 68 156 157
f 68 157 150
f 69 151 158
f 69 158 70
f 70 158 159
f 70 159 160
f 70 160 72
f 71 161 79
f 71 73 162
f 71 162 161
f 72 160 163
f 72 163 164
f 72 164 73
f 73 164 162
f 74 87 75
f 75 165 166
f 75 166 167
f 75 167 168
f 75 168 169
f 75 169 76
f 75 86 85
f 75 85 170
f 75 170 165
f 76 169 90
f 77 79 78
f 78 79 171
f 78 171 172
f 78 172 80
f 79 161 171
f 80 172 81
f 81 173 83
f 81 172 174
f 81 174 175
f 81 175 176
f 81 176 173
f 82 83 173
f 82 173 177
f 82 177 84
f 84 177 178
f 84 178 85
f 85 178 179
f 85 179 170
f 88 89 180
f 88 180 181
f 88 181 182
f 88 182 99
f 89 183 180
f 90 169 166
f 90 166 183
f 91 98 185
f 91 185 186
f 91 186 134
f 91 134 184
f 92 131 187
f 92 187 93
f 93 187 188
f 93 188 189
f 93 189 94
f 94 189 190
f 94 190 191
f 94 191 96
f 94 96 95
f 96 191 192
f 96 192 97
f 97 192 98
f 98 192 193
f 98 193 194
f 98 194 185
f 99 182 195
f 99 195 196
f 99 196 100
f 100 196 197
f 100 197 198
f 100 198 101
f 101 198 102
f 102 198 199
f 102 199 200
f 102 200 201
f 102 201 103
f 103 202 203
f 103 203 104
f 103 201 202
f 104 203 204
f 104 204 105
f 105 204 106
f 106 204 205
f 106 205 206
f 106 206 207
f 106 207 107
f 107 207 108
f 108 207 208
f 108 208 209
f 108 209 210
f 108 210 109
f 109 210 110
f 110 210 211
f 110 211 212
f 110 212 111
f 111 212 213
f 111 213 112
f 112 213 214
f 112 214 215
f 112 215 113
f 113 215 114
f 114 215 216
f 114 216 217
f 114 217 115
f 115 217 218
f 115 218 219
f 115 219 116
f 116 219 220
f 116 220 117
f 117 220 221
f 117 221 118
f 118 221 222
f 118 222 119
f 119 222 223
f 119 223 120
f 120 223 224
f 120 224 225
f 120 225 121
f 121 225 226
f 121 226 122
f 122 226 123
f 123 227 228
f 123 228 229
f 123 229 230
f 123 230 124
f 123 226 227
f 124 230 231
f 124 231 232
f 124 232 125
f 125 232 233
f 125 233 126
f 126 233 234
f 126 234 235
f 126 235 129
f 126 129 127
f 129 235 130
f 130 235 236
f 130 236 237
f 130 237 238
f 130 238 131
f 131 238 187
f 133 184 134
f 134 186 239
f 134 239 240
f 134 240 135
f 135 240 241
f 135 241 136
f 136 139 137
f 136 241 242
f 136 242 243
f 136 243 139
f 139 244 140
f 139 243 245
f 139 245 246
f 139 246 244
f 140 244 141
f 141 244 247
f 141 247 248
f 141 248 249
f 141 249 250
f 141 250 146
f 141 146 251
f 141 251 144
f 141 144 143
f 141 143 142
f 144 251 146
f 144 146 145
f 146 250 252
f 146 252 148
f 146 148 147
f 148 252 253
f 148 253 149
f 149 253 254
f 149 254 255
f 149 255 153
f 149 153 152
f 150 157 256
f 150 256 257
f 150 257 151
f 151 257 258
f 151 258 259
f 151 259 260
f 151 260 158
f 153 255 261
f 153 261 262
f 153 262 263
f 153 263 154
f 154 263 155
f 155 263 264
f 155 264 265
f 155 265 156
f 156 265 266
f 156 266 157
f 157 266 267
f 157 267 268
f 157 268 256
f 158 269 159
f 158 260 269
f 159 269 270
f 159 270 160
f 160 270 163
f 161 271 272
f 161 272 171
f 161 162 273
f 161 273 274
f 161 274 275
f 161 275 271
f 162 164 276
f 162 276 277
f 162 277 273
f 163 270 278
f 163 278 276
f 163 276 164
f 165 279 166
f 165 170 280
f 165 280 281
f 165 281 282
f 165 282 283
f 165 283 279
f 166 169 168
f 166 168 167
f 166 279 284
f 166 284 285
f 166 285 198
f 166 198 183
f 170 179 280
f 171 272 286
f 171 286 172
f 172 286 174
f 173 287 177
f 173 176 288
f 173 288 287
f 174 286 271
f 174 271 289
f 174 289 175
f 175 289 290
f 175 290 176
f 176 290 291
f 176 291 288
f 177 287 178
f 178 287 292
f 178 292 179
f 179 292 410
f 179 410 281
f 179 281 280
f 180 183 181
f 181 183 182
f 182 183 293
f 182 293 294
f 182 294 195
f 183 198 295
f 183 295 296
f 183 296 294
f 183 294 293
f 185 194 297
f 185 297 186
f 186 297 239
f 187 238 188
f 188 238 298
f 188 298 299
f 188 299 300
f 188 300 189
f 189 300 190
f 190 301 302
f 190 302 193
f 190 193 192
f 190 192 191
f 190 300 301
f 193 302 303
f 193 303 194
f 194 303 304
f 194 304 240
f 194 240 297
f 195 294 296
f 195 296 295
f 195 295 196
f 196 295 198
f 196 198 197
f 198 285 200
f 198 200 199
f 200 305 306
f 200 306 201
f 200 285 307
f 200 307 308
f 200 308 309
f 200 309 310
f 200 310 311
f 200 311 312
f 200 312 313
f 200 313 314
f 200 314 315
f 200 315 316
f 200 316 317
f 200 317 202
f 200 202 318
f 200 318 305
f 201 306 202
f 202 316 319
f 202 319 203
f 202 306 305
f 202 305 318
f 202 317 316
f 203 319 441
f 203 441 320
f 203 320 204
f 204 320 321
f 204 321 205
f 205 321 322
f 205 322 206
f 206 322 323
f 206 323 324
f 206 324 208
f 206 208 207
f 208 324 209
f 209 324 325
f 209 325 326
f 209 326 210
f 210 326 211
f 211 326 327
f 211 327 212
f 212 327 328
f 212 328 213
f 213 328 329
f 213 329 214
f 214 329 330
f 214 330 331
f 214 331 215
f 215 331 216
f 216 331 332
f 216 332 217
f 217 332 333
f 217 333 218
f 218 333 334
f 218 334 335
f 218 335 219
f 219 335 220
f 220 335 336
f 220 336 221
f 221 336 337
f 221 337 222
f 222 337 338
f 222 338 339
f 222 339 223
f 223 339 340
f 223 340 224
f 224 340 341
f 224 341 225
f 225 341 342
f 225 342 343
f 225 343 226
f 226 343 344
f 226 344 227
f 227 344 345
f 227 345 228
f 228 345 346
f 228 346 347
f 228 347 229
f 229 347 348
f 229 348 230
f 230 348 231
f 231 348 349
f 231 349 350
f 231 350 232
f 232 350 351
f 232 351 233
f 233 351 352
f 233 352 353
f 233 353 234
f 234 354 235
f 234 353 355
f 234 355 354
f 235 354 236
f 236 354 237
f 237 354 238
f 238 354 356
f 238 356 298
f 239 297 240
f 240 304 357
f 240 357 358
f 240 358 359
f 240 359 241
f 241 359 242
f 242 359 360
f 242 360 361
f 242 361 362
f 242 362 245
f 242 245 243
f 244 246 363
f 244 363 247
f 245 363 246
f 245 362 363
f 247 363 364
f 247 364 365
f 247 365 366
f 247 366 248
f 248 366 253
f 248 253 367
f 248 367 249
f 249 367 250
f 250 367 252
f 252 367 253
f 253 366 254
f 254 366 368
f 254 368 255
f 255 368 264
f 255 264 261
f 256 268 257
f 257 369 258
f 257 268 369
f 258 369 259
f 259 370 260
f 259 369 371
f 259 371 370
f 260 370 269
f 261 264 262
f 262 264 263
f 264 368 366
f 264 366 372
f 264 372 265
f 265 372 373
f 265 373 374
f 265 374 375
f 265 375 376
f 265 376 266
f 266 376 377
f 266 377 378
f 266 378 267
f 267 378 268
f 268 378 379
f 268 379 380
f 268 380 381
f 268 381 382
f 268 382 383
f 268 383 369
f 269 370 384
f 269 384 270
f 270 384 385
f 270 385 386
f 270 386 278
f 271 275 274
f 271 274 387
f 271 387 388
f 271 388 389
f 271 389 289
f 271 286 272
f 273 277 394
f 273 394 390
f 273 390 274
f 274 390 391
f 274 391 392
f 274 392 387
f 276 278 393
f 276 393 277
f 277 393 394
f 278 386 395
f 278 395 393
f 279 396 397
f 279 397 398
f 279 398 284
f 279 283 399
f 279 399 400
f 279 400 401
f 279 401 402
f 279 402 403
f 279 403 404
f 279 404 405
f 279 405 406
f 279 406 407
f 279 407 408
f 279 408 409
f 279 409 396
f 281 410 282
f 282 410 411
f 282 411 283
f 283 411 412
f 283 412 399
f 284 398 413
f 284 413 285
f 285 413 414
f 285 414 307
f 287 288 415
f 287 415 292
f 288 291 416
f 288 416 417
f 288 417 415
f 289 389 418
f 289 418 290
f 290 418 419
f 290 419 416
f 290 416 291
f 292 415 420
f 292 420 410
f 298 356 421
f 298 421 299
f 299 421 422
f 299 422 423
f 299 423 300
f 300 423 301
f 301 423 424
f 301 424 425
f 301 425 303
f 301 303 302
f 303 425 426
f 303 426 427
f 303 427 357
f 303 357 304
f 307 414 428
f 307 428 429
f 307 429 430
f 307 430 431
f 307 431 432
f 307 432 308
f 308 432 309
f 309 311 310
f 309 432 433
f 309 433 434
f 309 434 311
f 311 434 435
f 311 435 313
f 311 313 312
f 313 436 314
f 313 435 437
f 313 437 438
f 313 438 436
f 314 436 315
f 315 436 439
f 315 439 316
f 316 439 440
f 316 440 319
f 319 440 441
f 320 441 321
f 321 441 442
f 321 442 443
f 321 443 322
f 322 443 444
f 322 444 323
f 323 444 445
f 323 445 446
f 323 446 324
f 324 446 325
f 325 446 447
f 325 447 448
f 325 448 326
f 326 448 327
f 327 448 449
f 327 449 450
f 327 450 328
f 328 450 451
f 328 451 329
f 329 451 330
f 330 451 452
f 330 452 453
f 330 453 331
f 331 453 332
f 332 453 454
f 332 454 333
f 333 454 455
f 333 455 457
f 333 457 334
f 334 456 335
f 334 457 458
f 334 458 459
f 334 459 594
f 334 594 456
f 335 456 336
f 336 456 460
f 336 460 337
f 337 460 461
f 337 461 338
f 338 461 462
f 338 462 339
f 339 462 340
f 340 462 341
f 341 462 463
f 341 463 464
f 341 464 465
f 341 465 342
f 342 465 344
f 342 344 343
f 344 465 466
f 344 466 345
f 345 466 467
f 345 467 468
f 345 468 346
f 346 468 347
f 347 468 348
f 348 468 349
f 349 468 350
f 350 468 469
f 350 469 351
f 351 469 470
f 351 470 352
f 352 470 353
f 353 470 471
f 353 471 422
f 353 422 355
f 354 355 421
f 354 421 356
f 355 422 421
f 357 427 358
f 358 427 472
f 358 472 359
f 359 472 360
f 360 472 473
f 360 473 362
f 360 362 361
f 362 473 474
f 362 474 475
f 362 475 363
f 363 475 476
f 363 476 365
f 363 365 364
f 365 477 478
f 365 478 372
f 365 372 366
f 365 476 477
f 369 383 371
f 370 371 479
f 370 479 384
f 371 383 480
f 371 480 481
f 371 481 479
f 372 478 373
f 373 478 374
f 374 478 375
f 375 478 376
f 376 478 377
f 377 482 483
f 377 483 379
f 377 379 378
f 377 478 484
f 377 484 482
f 379 483 380
f 380 483 381
f 381 483 382
f 382 485 383
f 382 483 486
f 382 486 485
f 383 485 480
f 384 479 487
f 384 487 488
f 384 488 385
f 385 488 489
f 385 489 490
f 385 490 386
f 386 490 491
f 386 491 492
f 386 492 395
f 387 392 493
f 387 493 388
f 388 493 494
f 388 494 389
f 389 494 418
f 390 394 391
f 391 495 496
f 391 496 497
f 391 497 392
f 391 394 498
f 391 498 499
f 391 499 500
f 391 500 495
f 392 501 493
f 392 497 496
f 392 496 501
f 393 395 498
f 393 498 394
f 395 492 498
f 396 502 503
f 396 503 504
f 396 504 397
f 396 409 505
f 396 505 502
f 397 506 413
f 397 413 398
f 397 504 503
f 397 503 507
f 397 507 508
f 397 508 509
f 397 509 510
f 397 510 511
f 397 511 512
f 397 512 506
f 399 412 513
f 399 513 400
f 400 513 401
f 401 513 514
f 401 514 515
f 401 515 516
f 401 516 402
f 402 516 517
f 402 517 403
f 403 517 404
f 404 517 518
f 404 518 405
f 405 519 406
f 405 518 520
f 405 520 521
f 405 521 522
f 405 522 523
f 405 523 524
f 405 524 525
f 405 525 526
f 405 526 527
f 405 527 519
f 406 519 407
f 407 527 408
f 407 519 527
f 408 527 528
f 408 528 529
f 408 529 530
f 408 530 409
f 409 530 531
f 409 531 532
f 409 532 533
f 409 533 534
f 409 534 535
f 409 535 505
f 410 420 536
f 410 536 411
f 411 536 412
f 412 536 537
f 412 537 513
f 413 506 428
f 413 428 414
f 415 417 538
f 415 538 420
f 416 539 417
f 416 419 540
f 416 540 541
f 416 541 539
f 417 539 542
f 417 542 538
f 418 494 543
f 418 543 419
f 419 543 540
f 420 538 536
f 422 471 544
f 422 544 423
f 423 544 424
f 424 544 425
f 425 545 546
f 425 546 426
f 425 544 547
f 425 547 545
f 426 548 427
f 426 546 548
f 427 549 472
f 427 548 549
f 428 506 550
f 428 550 551
f 428 551 552
f 428 552 553
f 428 553 554
f 428 554 555
f 428 555 556
f 428 556 557
f 428 557 558
f 428 558 559
f 428 559 560
f 428 560 561
f 428 561 562
f 428 562 429
f 429 562 563
f 429 563 430
f 430 563 564
f 430 564 565
f 430 565 431
f 431 565 433
f 431 433 432
f 433 565 566
f 433 566 434
f 434 566 567
f 434 567 568
f 434 568 435
f 435 568 569
f 435 569 437
f 436 438 570
f 436 570 439
f 437 569 571
f 437 571 572
f 437 572 573
f 437 573 574
f 437 574 575
f 437 575 438
f 438 575 570
f 439 570 440
f 440 570 576
f 440 576 443
f 440 443 442
f 440 442 441
f 443 577 578
f 443 578 444
f 443 576 577
f 444 578 445
f 445 578 579
f 445 579 580
f 445 580 447
f 445 447 446
f 447 580 581
f 447 581 582
f 447 582 448
f 448 582 583
f 448 583 449
f 449 583 584
f 449 584 450
f 450 584 451
f 451 584 585
f 451 585 452
f 452 586 453
f 452 585 587
f 452 587 588
f 452 588 589
f 452 589 586
f 453 586 590
f 453 590 591
f 453 591 454
f 454 591 592
f 454 592 455
f 455 592 593
f 455 593 457
f 456 594 460
f 457 593 458
f 458 593 459
f 459 593 595
f 459 595 594
f 460 594 596
f 460 596 461
f 461 596 462
f 462 596 597
f 462 597 598
f 462 598 463
f 463 598 599
f 463 599 464
f 464 599 465
f 465 599 600
f 465 600 601
f 465 601 466
f 466 601 467
f 467 601 602
f 467 602 468
f 468 602 603
f 468 603 604
f 468 604 605
f 468 605 606
f 468 606 469
f 469 606 470
f 470 606 607
f 470 607 544
f 470 544 471
f 472 608 473
f 472 549 693
f 472 693 609
f 472 609 608
f 473 608 610
f 473 610 611
f 473 611 474
f 474 611 612
f 474 612 475
f 475 612 613
f 475 613 476
f 476 613 614
f 476 614 477
f 477 614 615
f 477 615 478
f 478 615 484
f 479 481 487
f 480 485 481
f 481 485 616
f 481 616 487
f 482 617 483
f 482 484 615
f 482 615 618
f 482 618 617
f 483 617 486
f 485 486 619
f 485 619 620
f 485 620 621
f 485 621 622
f 485 622 623
f 485 623 624
f 485 624 616
f 486 617 620
f 486 620 619
f 487 489 488
f 487 616 489
f 489 625 626
f 489 626 491
f 489 491 490
f 489 616 627
f 489 627 628
f 489 628 629
f 489 629 625
f 491 626 492
f 492 626 630
f 492 630 631
f 492 631 499
f 492 499 498
f 493 501 632
f 493 632 633
f 493 633 494
f 494 633 543
f 495 500 634
f 495 634 635
f 495 635 496
f 496 635 636
f 496 636 501
f 499 631 637
f 499 637 500
f 500 637 634
f 501 638 632
f 501 636 638
f 502 505 503
f 503 505 639
f 503 639 640
f 503 640 641
f 503 641 642
f 503 642 643
f 503 643 644
f 503 644 507
f 505 535 639
f 506 512 645
f 506 645 646
f 506 646 550
f 507 644 647
f 507 647 508
f 508 648 509
f 508 647 649
f 508 649 648
f 509 648 510
f 510 650 651
f 510 651 512
f 510 512 511
f 510 648 650
f 512 651 652
f 512 652 645
f 513 537 653
f 513 653 514
f 514 653 515
f 515 653 654
f 515 654 655
f 515 655 656
f 515 656 516
f 516 656 657
f 516 657 517
f 517 657 656
f 517 656 658
f 517 658 659
f 517 659 660
f 517 660 521
f 517 521 520
f 517 520 518
f 521 660 661
f 521 661 522
f 522 661 662
f 522 662 523
f 523 662 524
f 524 662 525
f 525 662 663
f 525 663 664
f 525 664 526
f 526 665 530
f 526 530 529
f 526 529 527
f 526 664 663
f 526 663 666
f 526 666 667
f 526 667 668
f 526 668 669
f 526 669 670
f 526 670 665
f 527 529 528
f 530 665 531
f 531 665 532
f 532 665 671
f 532 671 533
f 533 671 665
f 533 665 672
f 533 672 673
f 533 673 534
f 534 673 535
f 535 674 639
f 535 673 675
f 535 675 676
f 535 676 677
f 535 677 678
f 535 678 674
f 536 538 679
f 536 679 537
f 537 679 653
f 538 542 684
f 538 684 679
f 539 541 680
f 539 680 681
f 539 681 542
f 540 543 682
f 540 682 680
f 540 680 541
f 542 681 683
f 542 683 684
f 543 633 638
f 543 638 685
f 543 685 682
f 544 686 547
f 544 607 686
f 545 687 546
f 545 547 687
f 546 687 688
f 546 688 548
f 547 686 689
f 547 689 690
f 547 690 691
f 547 691 687
f 548 692 549
f 548 688 692
f 549 692 693
f 550 646 694
f 550 694 551
f 551 694 695
f 551 695 552
f 552 695 696
f 552 696 697
f 552 697 698
f 552 698 699
f 552 699 700
f 552 700 701
f 552 701 702
f 552 702 553
f 553 702 703
f 553 703 704
f 553 704 554
f 554 704 555
f 555 704 556
f 556 704 705
f 556 705 557
f 557 705 558
f 558 705 706
f 558 706 707
f 558 707 708
f 558 708 709
f 558 709 559
f 559 709 710
f 559 710 560
f 560 710 561
f 561 710 711
f 561 711 562
f 562 711 563
f 563 711 710
f 563 710 712
f 563 712 564
f 564 712 713
f 564 713 714
f 564 714 715
f 564 715 565
f 565 715 566
f 566 715 716
f 566 716 567
f 567 717 568
f 567 716 715
f 567 715 718
f 567 718 719
f 567 719 720
f 567 720 717
f 568 717 569
f 569 717 571
f 570 575 577
f 570 577 576
f 571 717 572
f 572 579 573
f 572 717 720
f 572 720 721
f 572 721 722
f 572 722 579
f 573 578 574
f 573 579 578
f 574 578 575
f 575 578 577
f 579 722 580
f 580 722 723
f 580 723 581
f 581 723 724
f 581 724 582
f 582 724 583
f 583 724 725
f 583 725 584
f 584 725 726
f 584 726 585
f 585 726 727
f 585 727 728
f 585 728 729
f 585 729 587
f 586 589 730
f 586 730 590
f 587 729 588
f 588 729 589
f 589 729 731
f 589 731 730
f 590 730 591
f 591 730 732
f 591 732 592
f 592 732 593
f 593 732 733
f 593 733 734
f 593 734 595
f 594 595 735
f 594 735 736
f 594 736 739
f 594 739 596
f 595 734 737
f 595 737 738
f 595 738 884
f 595 884 735
f 596 739 740
f 596 740 741
f 596 741 597
f 597 741 742
f 597 742 598
f 598 742 743
f 598 743 599
f 599 743 744
f 599 744 600
f 600 744 745
f 600 745 601
f 601 745 602
f 602 746 747
f 602 747 748
f 602 748 749
f 602 749 603
f 602 745 746
f 603 750 604
f 603 749 750
f 604 751 752
f 604 752 605
f 604 750 751
f 605 752 607
f 605 607 606
f 607 752 753
f 607 753 686
f 608 609 754
f 608 754 755
f 608 755 610
f 609 756 757
f 609 757 758
f 609 758 754
f 609 693 759
f 609 759 756
f 610 755 760
f 610 760 612
f 610 612 611
f 612 760 761
f 612 761 613
f 613 761 762
f 613 762 763
f 613 763 614
f 614 763 615
f 615 763 618
f 616 624 629
f 616 629 627
f 617 618 764
f 617 764 765
f 617 765 620
f 618 763 764
f 620 765 621
f 621 765 766
f 621 766 767
f 621 767 768
f 621 768 769
f 621 769 624
f 621 624 623
f 621 623 622
f 624 770 771
f 624 771 629
f 624 769 772
f 624 772 770
f 625 773 774
f 625 774 775
f 625 775 626
f 625 629 776
f 625 776 773
f 626 774 630
f 626 775 774
f 627 629 628
f 629 771 776
f 630 774 631
f 631 774 637
f 632 638 633
f 634 637 777
f 634 777 778
f 634 778 779
f 634 779 635
f 635 779 780
f 635 780 636
f 636 780 638
f 637 774 777
f 638 781 782
f 638 782 685
f 638 780 783
f 638 783 784
f 638 784 781
f 639 674 640
f 640 674 678
f 640 678 643
f 640 643 641
f 641 643 642
f 643 678 785
f 643 785 644
f 644 785 647
f 645 652 646
f 646 652 786
f 646 786 694
f 647 787 788
f 647 788 649
f 647 785 787
f 648 649 789
f 648 789 650
f 649 788 789
f 650 789 790
f 650 790 791
f 650 791 651
f 651 791 792
f 651 792 652
f 652 792 793
f 652 793 786
f 653 679 684
f 653 684 654
f 654 684 683
f 654 683 794
f 654 794 655
f 655 794 795
f 655 795 656
f 656 795 796
f 656 796 797
f 656 797 659
f 656 659 658
f 659 797 660
f 660 797 798
f 660 798 661
f 661 798 799
f 661 799 800
f 661 800 662
f 662 800 801
f 662 801 802
f 662 802 803
f 662 803 804
f 662 804 805
f 662 805 806
f 662 806 663
f 663 667 666
f 663 806 807
f 663 807 668
f 663 668 667
f 665 670 808
f 665 808 673
f 665 673 672
f 668 807 809
f 668 809 810
f 668 810 669
f 669 810 670
f 670 810 811
f 670 811 812
f 670 812 808
f 673 808 812
f 673 812 813
f 673 813 814
f 673 814 815
f 673 815 816
f 673 816 817
f 673 817 676
f 673 676 675
f 676 817 816
f 676 816 677
f 677 816 818
f 677 818 678
f 678 818 819
f 678 819 785
f 680 682 821
f 680 821 820
f 680 820 683
f 680 683 681
f 682 685 822
f 682 822 821
f 683 820 794
f 685 782 823
f 685 823 824
f 685 824 822
f 686 753 689
f 687 825 826
f 687 826 688
f 687 691 827
f 687 827 828
f 687 828 829
f 687 829 825
f 688 826 692
f 689 753 752
f 689 752 830
f 689 830 690
f 690 831 691
f 690 830 832
f 690 832 831
f 691 831 827
f 692 826 833
f 692 833 759
f 692 759 693
f 694 786 834
f 694 834 835
f 694 835 836
f 694 836 695
f 695 836 837
f 695 837 696
f 696 837 838
f 696 838 697
f 697 838 698
f 698 838 839
f 698 839 840
f 698 840 841
f 698 841 842
f 698 842 843
f 698 843 699
f 699 843 844
f 699 844 845
f 699 845 846
f 699 846 847
f 699 847 848
f 699 848 700
f 700 848 849
f 700 849 701
f 701 849 702
f 702 849 850
f 702 850 703
f 703 850 851
f 703 851 704
f 704 851 852
f 704 852 705
f 705 852 853
f 705 853 706
f 706 853 854
f 706 854 707
f 707 854 708
f 708 854 855
f 708 855 709
f 709 855 856
f 709 856 857
f 709 857 858
f 709 858 859
f 709 859 710
f 710 859 860
f 710 860 861
f 710 861 712
f 712 861 862
f 712 862 713
f 713 862 863
f 713 863 864
f 713 864 865
f 713 865 714
f 714 865 866
f 714 866 715
f 715 866 718
f 718 866 867
f 718 867 719
f 719 721 720
f 719 867 868
f 719 868 869
f 719 869 721
f 721 869 723
f 721 723 722
f 723 869 870
f 723 870 724
f 724 870 871
f 724 871 725
f 725 871 872
f 725 872 726
f 726 872 873
f 726 873 727
f 727 873 874
f 727 874 875
f 727 875 728
f 728 875 729
f 729 875 876
f 729 876 731
f 730 731 877
f 730 877 732
f 731 876 878
f 731 878 877
f 732 877 879
f 732 879 880
f 732 880 733
f 733 880 881
f 733 881 882
f 733 882 734
f 734 882 883
f 734 883 737
f 735 884 885
f 735 885 736
f 736 885 888
f 736 888 739
f 737 883 886
f 737 886 887
f 737 887 738
f 738 887 884
f 739 888 889
f 739 889 890
f 739 890 891
f 739 891 740
f 740 891 741
f 741 891 742
f 742 891 746
f 742 746 743
f 743 746 744
f 744 746 745
f 746 891 892
f 746 892 893
f 746 893 894
f 746 894 895
f 746 895 896
f 746 896 747
f 747 896 830
f 747 830 748
f 748 830 749
f 749 830 752
f 749 752 897
f 749 897 750
f 750 897 751
f 751 897 752
f 754 758 898
f 754 898 755
f 755 898 899
f 755 899 900
f 755 900 901
f 755 901 760
f 756 834 757
f 756 759 902
f 756 902 834
f 757 899 758
f 757 834 903
f 757 903 899
f 758 899 898
f 759 833 904
f 759 904 905
f 759 905 902
f 760 901 761
f 761 901 906
f 761 906 907
f 761 907 908
f 761 908 762
f 762 908 909
f 762 909 910
f 762 910 763
f 763 910 765
f 763 765 764
f 765 910 911
f 765 911 766
f 766 911 912
f 766 912 767
f 767 912 768
f 768 912 769
f 769 912 772
f 770 913 914
f 770 914 915
f 770 915 771
f 770 772 916
f 770 916 917
f 770 917 918
f 770 918 913
f 771 915 919
f 771 919 776
f 772 912 916
f 773 920 774
f 773 776 920
f 774 920 921
f 774 921 922
f 774 922 923
f 774 923 777
f 776 919 924
f 776 924 925
f 776 925 926
f 776 926 927
f 776 927 921
f 776 921 920
f 777 923 928
f 777 928 929
f 777 929 930
f 777 930 931
f 777 931 778
f 778 931 932
f 778 932 934
f 778 934 779
f 779 933 780
f 779 934 933
f 780 933 935
f 780 935 783
f 781 823 782
f 781 784 936
f 781 936 937
f 781 937 823
f 783 935 936
f 783 936 784
f 785 819 787
f 786 938 903
f 786 903 834
f 786 793 938
f 787 939 788
f 787 819 939
f 788 939 940
f 788 940 941
f 788 941 789
f 789 941 790
f 790 941 942
f 790 942 791
f 791 942 793
f 791 793 792
f 793 942 943
f 793 943 944
f 793 944 938
f 794 820 945
f 794 945 795
f 795 945 796
f 796 945 946
f 796 946 797
f 797 946 947
f 797 947 948
f 797 948 798
f 798 948 949
f 798 949 799
f 799 949 948
f 799 948 950
f 799 950 951
f 799 951 802
f 799 802 800
f 800 802 801
f 802 951 952
f 802 952 804
f 802 804 803
f 804 952 953
f 804 953 954
f 804 954 955
f 804 955 805
f 805 955 806
f 806 955 807
f 807 955 809
f 809 955 956
f 809 956 810
f 810 957 958
f 810 958 811
f 810 956 957
f 811 958 914
f 811 914 959
f 811 959 960
f 811 960 961
f 811 961 812
f 812 961 813
f 813 961 814
f 814 961 962
f 814 962 815
f 815 963 964
f 815 964 816
f 815 962 963
f 816 819 818
f 816 964 965
f 816 965 966
f 816 966 939
f 816 939 819
f 820 821 945
f 821 946 945
f 821 822 946
f 822 824 947
f 822 947 946
f 823 967 968
f 823 968 947
f 823 947 824
f 823 937 967
f 825 969 826
f 825 829 969
f 826 969 833
f 827 831 828
f 828 831 970
f 828 970 829
f 829 970 971
f 829 971 972
f 829 972 973
f 829 973 969
f 830 896 832
f 831 832 974
f 831 974 975
f 831 975 970
f 832 976 974
f 832 896 895
f 832 895 894
f 832 894 893
f 832 893 977
f 832 977 976
f 833 969 904
f 834 902 905
f 834 905 835
f 835 978 836
f 835 905 978
f 836 978 837
f 837 978 838
f 838 978 979
f 838 979 839
f 839 979 980
f 839 980 840
f 840 844 842
f 840 842 841
f 840 980 844
f 842 844 843
f 844 981 982
f 844 982 845
f 844 980 983
f 844 983 981
f 845 982 846
f 846 982 847
f 847 982 984
f 847 984 848
f 848 985 849
f 848 984 986
f 848 986 985
f 849 985 851
f 849 851 850
f 851 985 987
f 851 987 988
f 851 988 989
f 851 989 852
f 852 990 991
f 852 991 853
f 852 989 990
f 853 991 992
f 853 992 854
f 854 992 855
f 855 992 993
f 855 993 994
f 855 994 856
f 856 994 995
f 856 995 996
f 856 996 857
f 857 996 858
f 858 996 859
f 859 996 997
f 859 997 998
f 859 998 999
f 859 999 860
f 860 999 1000
f 860 1000 861
f 861 1000 862
f 862 1000 863
f 863 1000 1001
f 863 1001 1002
f 863 1002 1003
f 863 1003 864
f 864 1003 865
f 865 1003 1004
f 865 1004 866
f 866 1004 1005
f 866 1005 867
f 867 1005 1006
f 867 1006 868
f 868 870 869
f 868 1006 871
f 868 871 870
f 871 1006 1007
f 871 1007 872
f 872 1007 873
f 873 1007 874
f 874 1007 1010
f 874 1010 875
f 875 1008 1009
f 875 1009 876
f 875 1010 1008
f 876 1009 1011
f 876 1011 878
f 877 878 1012
f 877 1012 879
f 878 1011 1080
f 878 1080 1012
f 879 1012 1013
f 879 1013 1014
f 879 1014 880
f 880 1014 1015
f 880 1015 881
f 881 1015 882
f 882 1015 883
f 883 1015 1016
f 883 1016 886
f 884 887 885
f 885 887 1017
f 885 1017 888
f 886 1016 887
f 887 1016 1017
f 888 1017 889
f 889 1017 890
f 890 1017 891
f 891 1017 892
f 892 1017 1061
f 892 1061 977
f 892 977 893
f 899 903 938
f 899 938 900
f 900 938 901
f 901 938 943
f 901 943 906
f 904 969 905
f 905 969 1018
f 905 1018 978
f 906 943 942
f 906 942 940
f 906 940 907
f 907 940 1019
f 907 1019 908
f 908 1019 1020
f 908 1020 1021
f 908 1021 909
f 909 1021 962
f 909 962 1022
f 909 1022 911
f 909 911 910
f 911 1022 912
f 912 959 916
f 912 1022 959
f 913 918 959
f 913 959 914
f 914 958 915
f 915 958 1023
f 915 1023 926
f 915 926 924
f 915 924 919
f 916 959 917
f 917 959 918
f 921 927 926
f 921 926 1024
f 921 1024 1025
f 921 1025 1026
f 921 1026 922
f 922 1026 928
f 922 928 923
f 924 926 925
f 926 1023 1027
f 926 1027 1028
f 926 1028 1026
f 926 1026 1025
f 926 1025 1024
f 928 1029 1030
f 928 1030 929
f 928 1026 1031
f 928 1031 1032
f 928 1032 1033
f 928 1033 1029
f 929 1030 1034
f 929 1034 930
f 930 1034 1035
f 930 1035 1036
f 930 1036 931
f 931 1036 932
f 932 1037 934
f 932 1036 1037
f 933 934 1038
f 933 1038 1039
f 933 1039 1040
f 933 1040 935
f 934 1037 1038
f 935 1040 1041
f 935 1041 936
f 936 1041 1042
f 936 1042 937
f 937 1042 967
f 938 944 943
f 939 966 1020
f 939 1020 940
f 940 1020 1019
f 940 942 941
f 947 968 948
f 948 967 1042
f 948 1042 1041
f 948 1041 1040
f 948 1040 951
f 948 951 950
f 948 968 967
f 951 1040 952
f 952 1040 1039
f 952 1039 953
f 953 1039 1038
f 953 1038 954
f 954 1038 1037
f 954 1037 1043
f 954 1043 955
f 955 1043 1044
f 955 1044 1045
f 955 1045 1046
f 955 1046 1047
f 955 1047 1048
f 955 1048 1049
f 955 1049 957
f 955 957 956
f 957 1049 958
f 958 1049 1050
f 958 1050 1051
f 958 1051 1027
f 958 1027 1023
f 959 1052 960
f 959 1022 1053
f 959 1053 961
f 959 961 1052
f 960 1052 961
f 961 1053 1054
f 961 1054 1022
f 961 1022 962
f 962 1021 963
f 963 1021 964
f 964 1021 965
f 965 1021 1020
f 965 1020 966
f 969 973 1055
f 969 1055 1056
f 969 1056 1018
f 970 975 971
f 971 975 1057
f 971 1057 1058
f 971 1058 972
f 972 1058 1059
f 972 1059 973
f 973 1059 983
f 973 983 1055
f 974 976 975
f 975 976 1060
f 975 1060 1057
f 976 977 1061
f 976 1061 1062
f 976 1062 1060
f 978 1018 1056
f 978 1056 979
f 979 1056 980
f 980 1056 1055
f 980 1055 983
f 981 1063 1064
f 981 1064 982
f 981 983 1063
f 982 987 984
f 982 1064 987
f 983 1059 1065
f 983 1065 1063
f 984 987 986
f 985 986 987
f 987 1066 988
f 987 1064 1067
f 987 1067 1066
f 988 1066 989
f 989 1066 990
f 990 1068 991
f 990 1066 1068
f 991 1068 992
f 992 1068 1069
f 992 1069 993
f 993 995 994
f 993 1069 995
f 995 1069 996
f 996 1069 1070
f 996 1070 1071
f 996 1071 1072
f 996 1072 997
f 997 1072 998
f 998 1072 1073
f 998 1073 999
f 999 1073 1074
f 999 1074 1000
f 1000 1074 1001
f 1001 1074 1075
f 1001 1075 1076
f 1001 1076 1002
f 1002 1076 1008
f 1002 1008 1010
f 1002 1010 1003
f 1003 1007 1004
f 1003 1010 1007
f 1004 1007 1006
f 1004 1006 1005
f 1008 1076 1009
f 1009 1075 1077
f 1009 1077 1078
f 1009 1078 1011
f 1009 1076 1075
f 1011 1078 1079
f 1011 1079 1080
f 1012 1080 1081
f 1012 1081 1082
f 1012 1082 1013
f 1013 1082 1014
f 1014 1082 1015
f 1015 1082 1083
f 1015 1083 1016
f 1016 1083 1084
f 1016 1084 1085
f 1016 1085 1086
f 1016 1086 1087
f 1016 1087 1062
f 1016 1062 1088
f 1016 1088 1017
f 1017 1088 1089
f 1017 1089 1090
f 1017 1090 1061
f 1022 1054 1053
f 1026 1028 1031
f 1027 1051 1028
f 1028 1051 1031
f 1029 1033 1051
f 1029 1051 1030
f 1030 1045 1034
f 1030 1051 1045
f 1031 1051 1032
f 1032 1051 1033
f 1034 1045 1035
f 1035 1045 1036
f 1036 1045 1037
f 1037 1045 1043
f 1043 1045 1044
f 1045 1051 1047
f 1045 1047 1046
f 1047 1051 1048
f 1048 1051 1091
f 1048 1091 1049
f 1049 1091 1050
f 1050 1091 1051
f 1057 1060 1092
f 1057 1092 1093
f 1057 1093 1058
f 1058 1093 1094
f 1058 1094 1095
f 1058 1095 1059
f 1059 1095 1065
f 1060 1062 1092
f 1061 1090 1062
f 1062 1090 1089
f 1062 1089 1088
f 1062 1087 1092
f 1063 1065 1064
f 1064 1065 1095
f 1064 1095 1067
f 1066 1067 1096
f 1066 1096 1097
f 1066 1097 1068
f 1067 1095 1098
f 1067 1098 1099
f 1067 1099 1096
f 1068 1079 1069
f 1068 1097 1079
f 1069 1079 1078
f 1069 1078 1070
f 1070 1078 1071
f 1071 1078 1072
f 1072 1078 1077
f 1072 1077 1075
f 1072 1075 1074
f 1072 1074 1073
f 1079 1097 1080
f 1080 1097 1081
f 1081 1097 1082
f 1082 1097 1096
f 1082 1096 1083
f 1083 1096 1099
f 1083 1099 1100
f 1083 1100 1084
f 1084 1100 1101
f 1084 1101 1102
f 1084 1102 1092
f 1084 1092 1085
f 1085 1092 1086
f 1086 1092 1087
f 1092 1102 1094
f 1092 1094 1093
f 1094 1102 1101
f 1094 1101 1100
f 1094 1100 1103
f 1094 1103 1095
f 1095 1103 1098
f 1098 1103 1100
f 1098 1100 1099
